<?xml version="1.0" encoding="utf-8" standalone="no"?>
<!DOCTYPE svg PUBLIC "-//W3C//DTD SVG 1.1//EN"
  "http://www.w3.org/Graphics/SVG/1.1/DTD/svg11.dtd">
<svg height="288pt" version="1.1" viewBox="0 0 576 288" width="576pt" xmlns="http://www.w3.org/2000/svg" xmlns:xlink="http://www.w3.org/1999/xlink">
 <metadata>
  <rdf:RDF xmlns:cc="http://creativecommons.org/ns#" xmlns:dc="http://purl.org/dc/elements/1.1/" xmlns:rdf="http://www.w3.org/1999/02/22-rdf-syntax-ns#">
   <cc:Work>
    <dc:type rdf:resource="http://purl.org/dc/dcmitype/StillImage"/>
    <dc:date>2021-06-29T23:38:21.662927</dc:date>
    <dc:format>image/svg+xml</dc:format>
    <dc:creator>
     <cc:Agent>
      <dc:title>Matplotlib v3.4.2, https://matplotlib.org/</dc:title>
     </cc:Agent>
    </dc:creator>
   </cc:Work>
  </rdf:RDF>
 </metadata>
 <defs>
  <style type="text/css">*{stroke-linecap:butt;stroke-linejoin:round;}</style>
 </defs>
 <g id="figure_1">
  <g id="patch_1">
   <path d="M 0 288 
L 576 288 
L 576 0 
L 0 0 
z
" style="fill:#ffffff;"/>
  </g>
  <g id="axes_1">
   <g id="patch_2">
    <path d="M 47.72 218.699909 
L 463.36 218.699909 
L 463.36 10.8 
L 47.72 10.8 
z
" style="fill:#ffffff;"/>
   </g>
   <g id="matplotlib.axis_1">
    <g id="xtick_1">
     <g id="line2d_1">
      <defs>
       <path d="M 0 0 
L 0 3.5 
" id="m0e1758d9d9" style="stroke:#000000;stroke-width:0.8;"/>
      </defs>
      <g>
       <use style="stroke:#000000;stroke-width:0.8;" x="66.612727" xlink:href="#m0e1758d9d9" y="218.699909"/>
      </g>
     </g>
     <g id="text_1">
      <!-- CIHS_T1 -->
      <g transform="translate(53.811332 260.13159)rotate(-45)scale(0.1 -0.1)">
       <defs>
        <path d="M 4122 4306 
L 4122 3641 
Q 3803 3938 3442 4084 
Q 3081 4231 2675 4231 
Q 1875 4231 1450 3742 
Q 1025 3253 1025 2328 
Q 1025 1406 1450 917 
Q 1875 428 2675 428 
Q 3081 428 3442 575 
Q 3803 722 4122 1019 
L 4122 359 
Q 3791 134 3420 21 
Q 3050 -91 2638 -91 
Q 1578 -91 968 557 
Q 359 1206 359 2328 
Q 359 3453 968 4101 
Q 1578 4750 2638 4750 
Q 3056 4750 3426 4639 
Q 3797 4528 4122 4306 
z
" id="DejaVuSans-43" transform="scale(0.015625)"/>
        <path d="M 628 4666 
L 1259 4666 
L 1259 0 
L 628 0 
L 628 4666 
z
" id="DejaVuSans-49" transform="scale(0.015625)"/>
        <path d="M 628 4666 
L 1259 4666 
L 1259 2753 
L 3553 2753 
L 3553 4666 
L 4184 4666 
L 4184 0 
L 3553 0 
L 3553 2222 
L 1259 2222 
L 1259 0 
L 628 0 
L 628 4666 
z
" id="DejaVuSans-48" transform="scale(0.015625)"/>
        <path d="M 3425 4513 
L 3425 3897 
Q 3066 4069 2747 4153 
Q 2428 4238 2131 4238 
Q 1616 4238 1336 4038 
Q 1056 3838 1056 3469 
Q 1056 3159 1242 3001 
Q 1428 2844 1947 2747 
L 2328 2669 
Q 3034 2534 3370 2195 
Q 3706 1856 3706 1288 
Q 3706 609 3251 259 
Q 2797 -91 1919 -91 
Q 1588 -91 1214 -16 
Q 841 59 441 206 
L 441 856 
Q 825 641 1194 531 
Q 1563 422 1919 422 
Q 2459 422 2753 634 
Q 3047 847 3047 1241 
Q 3047 1584 2836 1778 
Q 2625 1972 2144 2069 
L 1759 2144 
Q 1053 2284 737 2584 
Q 422 2884 422 3419 
Q 422 4038 858 4394 
Q 1294 4750 2059 4750 
Q 2388 4750 2728 4690 
Q 3069 4631 3425 4513 
z
" id="DejaVuSans-53" transform="scale(0.015625)"/>
        <path d="M 3263 -1063 
L 3263 -1509 
L -63 -1509 
L -63 -1063 
L 3263 -1063 
z
" id="DejaVuSans-5f" transform="scale(0.015625)"/>
        <path d="M -19 4666 
L 3928 4666 
L 3928 4134 
L 2272 4134 
L 2272 0 
L 1638 0 
L 1638 4134 
L -19 4134 
L -19 4666 
z
" id="DejaVuSans-54" transform="scale(0.015625)"/>
        <path d="M 794 531 
L 1825 531 
L 1825 4091 
L 703 3866 
L 703 4441 
L 1819 4666 
L 2450 4666 
L 2450 531 
L 3481 531 
L 3481 0 
L 794 0 
L 794 531 
z
" id="DejaVuSans-31" transform="scale(0.015625)"/>
       </defs>
       <use xlink:href="#DejaVuSans-43"/>
       <use x="69.824219" xlink:href="#DejaVuSans-49"/>
       <use x="99.316406" xlink:href="#DejaVuSans-48"/>
       <use x="174.511719" xlink:href="#DejaVuSans-53"/>
       <use x="237.988281" xlink:href="#DejaVuSans-5f"/>
       <use x="287.988281" xlink:href="#DejaVuSans-54"/>
       <use x="349.072266" xlink:href="#DejaVuSans-31"/>
      </g>
     </g>
    </g>
    <g id="xtick_2">
     <g id="line2d_2">
      <g>
       <use style="stroke:#000000;stroke-width:0.8;" x="88.839465" xlink:href="#m0e1758d9d9" y="218.699909"/>
      </g>
     </g>
     <g id="text_2">
      <!-- CIHS_T2 -->
      <g transform="translate(76.03807 260.13159)rotate(-45)scale(0.1 -0.1)">
       <defs>
        <path d="M 1228 531 
L 3431 531 
L 3431 0 
L 469 0 
L 469 531 
Q 828 903 1448 1529 
Q 2069 2156 2228 2338 
Q 2531 2678 2651 2914 
Q 2772 3150 2772 3378 
Q 2772 3750 2511 3984 
Q 2250 4219 1831 4219 
Q 1534 4219 1204 4116 
Q 875 4013 500 3803 
L 500 4441 
Q 881 4594 1212 4672 
Q 1544 4750 1819 4750 
Q 2544 4750 2975 4387 
Q 3406 4025 3406 3419 
Q 3406 3131 3298 2873 
Q 3191 2616 2906 2266 
Q 2828 2175 2409 1742 
Q 1991 1309 1228 531 
z
" id="DejaVuSans-32" transform="scale(0.015625)"/>
       </defs>
       <use xlink:href="#DejaVuSans-43"/>
       <use x="69.824219" xlink:href="#DejaVuSans-49"/>
       <use x="99.316406" xlink:href="#DejaVuSans-48"/>
       <use x="174.511719" xlink:href="#DejaVuSans-53"/>
       <use x="237.988281" xlink:href="#DejaVuSans-5f"/>
       <use x="287.988281" xlink:href="#DejaVuSans-54"/>
       <use x="349.072266" xlink:href="#DejaVuSans-32"/>
      </g>
     </g>
    </g>
    <g id="xtick_3">
     <g id="line2d_3">
      <g>
       <use style="stroke:#000000;stroke-width:0.8;" x="111.066203" xlink:href="#m0e1758d9d9" y="218.699909"/>
      </g>
     </g>
     <g id="text_3">
      <!-- CIMS_T1 -->
      <g transform="translate(97.873137 260.914932)rotate(-45)scale(0.1 -0.1)">
       <defs>
        <path d="M 628 4666 
L 1569 4666 
L 2759 1491 
L 3956 4666 
L 4897 4666 
L 4897 0 
L 4281 0 
L 4281 4097 
L 3078 897 
L 2444 897 
L 1241 4097 
L 1241 0 
L 628 0 
L 628 4666 
z
" id="DejaVuSans-4d" transform="scale(0.015625)"/>
       </defs>
       <use xlink:href="#DejaVuSans-43"/>
       <use x="69.824219" xlink:href="#DejaVuSans-49"/>
       <use x="99.316406" xlink:href="#DejaVuSans-4d"/>
       <use x="185.595703" xlink:href="#DejaVuSans-53"/>
       <use x="249.072266" xlink:href="#DejaVuSans-5f"/>
       <use x="299.072266" xlink:href="#DejaVuSans-54"/>
       <use x="360.15625" xlink:href="#DejaVuSans-31"/>
      </g>
     </g>
    </g>
    <g id="xtick_4">
     <g id="line2d_4">
      <g>
       <use style="stroke:#000000;stroke-width:0.8;" x="133.292941" xlink:href="#m0e1758d9d9" y="218.699909"/>
      </g>
     </g>
     <g id="text_4">
      <!-- CIMS_T2 -->
      <g transform="translate(120.099875 260.914932)rotate(-45)scale(0.1 -0.1)">
       <use xlink:href="#DejaVuSans-43"/>
       <use x="69.824219" xlink:href="#DejaVuSans-49"/>
       <use x="99.316406" xlink:href="#DejaVuSans-4d"/>
       <use x="185.595703" xlink:href="#DejaVuSans-53"/>
       <use x="249.072266" xlink:href="#DejaVuSans-5f"/>
       <use x="299.072266" xlink:href="#DejaVuSans-54"/>
       <use x="360.15625" xlink:href="#DejaVuSans-32"/>
      </g>
     </g>
    </g>
    <g id="xtick_5">
     <g id="line2d_5">
      <g>
       <use style="stroke:#000000;stroke-width:0.8;" x="155.519679" xlink:href="#m0e1758d9d9" y="218.699909"/>
      </g>
     </g>
     <g id="text_5">
      <!-- CILS_T1 -->
      <g transform="translate(143.407161 258.753837)rotate(-45)scale(0.1 -0.1)">
       <defs>
        <path d="M 628 4666 
L 1259 4666 
L 1259 531 
L 3531 531 
L 3531 0 
L 628 0 
L 628 4666 
z
" id="DejaVuSans-4c" transform="scale(0.015625)"/>
       </defs>
       <use xlink:href="#DejaVuSans-43"/>
       <use x="69.824219" xlink:href="#DejaVuSans-49"/>
       <use x="99.316406" xlink:href="#DejaVuSans-4c"/>
       <use x="155.029297" xlink:href="#DejaVuSans-53"/>
       <use x="218.505859" xlink:href="#DejaVuSans-5f"/>
       <use x="268.505859" xlink:href="#DejaVuSans-54"/>
       <use x="329.589844" xlink:href="#DejaVuSans-31"/>
      </g>
     </g>
    </g>
    <g id="xtick_6">
     <g id="line2d_6">
      <g>
       <use style="stroke:#000000;stroke-width:0.8;" x="177.746417" xlink:href="#m0e1758d9d9" y="218.699909"/>
      </g>
     </g>
     <g id="text_6">
      <!-- CILS_T2 -->
      <g transform="translate(165.633899 258.753837)rotate(-45)scale(0.1 -0.1)">
       <use xlink:href="#DejaVuSans-43"/>
       <use x="69.824219" xlink:href="#DejaVuSans-49"/>
       <use x="99.316406" xlink:href="#DejaVuSans-4c"/>
       <use x="155.029297" xlink:href="#DejaVuSans-53"/>
       <use x="218.505859" xlink:href="#DejaVuSans-5f"/>
       <use x="268.505859" xlink:href="#DejaVuSans-54"/>
       <use x="329.589844" xlink:href="#DejaVuSans-32"/>
      </g>
     </g>
    </g>
    <g id="xtick_7">
     <g id="line2d_7">
      <g>
       <use style="stroke:#000000;stroke-width:0.8;" x="199.973155" xlink:href="#m0e1758d9d9" y="218.699909"/>
      </g>
     </g>
     <g id="text_7">
      <!-- PIHS_T1 -->
      <g transform="translate(187.508741 259.457629)rotate(-45)scale(0.1 -0.1)">
       <defs>
        <path d="M 1259 4147 
L 1259 2394 
L 2053 2394 
Q 2494 2394 2734 2622 
Q 2975 2850 2975 3272 
Q 2975 3691 2734 3919 
Q 2494 4147 2053 4147 
L 1259 4147 
z
M 628 4666 
L 2053 4666 
Q 2838 4666 3239 4311 
Q 3641 3956 3641 3272 
Q 3641 2581 3239 2228 
Q 2838 1875 2053 1875 
L 1259 1875 
L 1259 0 
L 628 0 
L 628 4666 
z
" id="DejaVuSans-50" transform="scale(0.015625)"/>
       </defs>
       <use xlink:href="#DejaVuSans-50"/>
       <use x="60.302734" xlink:href="#DejaVuSans-49"/>
       <use x="89.794922" xlink:href="#DejaVuSans-48"/>
       <use x="164.990234" xlink:href="#DejaVuSans-53"/>
       <use x="228.466797" xlink:href="#DejaVuSans-5f"/>
       <use x="278.466797" xlink:href="#DejaVuSans-54"/>
       <use x="339.550781" xlink:href="#DejaVuSans-31"/>
      </g>
     </g>
    </g>
    <g id="xtick_8">
     <g id="line2d_8">
      <g>
       <use style="stroke:#000000;stroke-width:0.8;" x="222.199893" xlink:href="#m0e1758d9d9" y="218.699909"/>
      </g>
     </g>
     <g id="text_8">
      <!-- PIHS_T2 -->
      <g transform="translate(209.735479 259.457629)rotate(-45)scale(0.1 -0.1)">
       <use xlink:href="#DejaVuSans-50"/>
       <use x="60.302734" xlink:href="#DejaVuSans-49"/>
       <use x="89.794922" xlink:href="#DejaVuSans-48"/>
       <use x="164.990234" xlink:href="#DejaVuSans-53"/>
       <use x="228.466797" xlink:href="#DejaVuSans-5f"/>
       <use x="278.466797" xlink:href="#DejaVuSans-54"/>
       <use x="339.550781" xlink:href="#DejaVuSans-32"/>
      </g>
     </g>
    </g>
    <g id="xtick_9">
     <g id="line2d_9">
      <g>
       <use style="stroke:#000000;stroke-width:0.8;" x="244.426631" xlink:href="#m0e1758d9d9" y="218.699909"/>
      </g>
     </g>
     <g id="text_9">
      <!-- PIMS_T1 -->
      <g transform="translate(231.570546 260.240971)rotate(-45)scale(0.1 -0.1)">
       <use xlink:href="#DejaVuSans-50"/>
       <use x="60.302734" xlink:href="#DejaVuSans-49"/>
       <use x="89.794922" xlink:href="#DejaVuSans-4d"/>
       <use x="176.074219" xlink:href="#DejaVuSans-53"/>
       <use x="239.550781" xlink:href="#DejaVuSans-5f"/>
       <use x="289.550781" xlink:href="#DejaVuSans-54"/>
       <use x="350.634766" xlink:href="#DejaVuSans-31"/>
      </g>
     </g>
    </g>
    <g id="xtick_10">
     <g id="line2d_10">
      <g>
       <use style="stroke:#000000;stroke-width:0.8;" x="266.653369" xlink:href="#m0e1758d9d9" y="218.699909"/>
      </g>
     </g>
     <g id="text_10">
      <!-- PIMS_T2 -->
      <g transform="translate(253.797284 260.240971)rotate(-45)scale(0.1 -0.1)">
       <use xlink:href="#DejaVuSans-50"/>
       <use x="60.302734" xlink:href="#DejaVuSans-49"/>
       <use x="89.794922" xlink:href="#DejaVuSans-4d"/>
       <use x="176.074219" xlink:href="#DejaVuSans-53"/>
       <use x="239.550781" xlink:href="#DejaVuSans-5f"/>
       <use x="289.550781" xlink:href="#DejaVuSans-54"/>
       <use x="350.634766" xlink:href="#DejaVuSans-32"/>
      </g>
     </g>
    </g>
    <g id="xtick_11">
     <g id="line2d_11">
      <g>
       <use style="stroke:#000000;stroke-width:0.8;" x="288.880107" xlink:href="#m0e1758d9d9" y="218.699909"/>
      </g>
     </g>
     <g id="text_11">
      <!-- PILS_T1 -->
      <g transform="translate(277.104569 258.079875)rotate(-45)scale(0.1 -0.1)">
       <use xlink:href="#DejaVuSans-50"/>
       <use x="60.302734" xlink:href="#DejaVuSans-49"/>
       <use x="89.794922" xlink:href="#DejaVuSans-4c"/>
       <use x="145.507812" xlink:href="#DejaVuSans-53"/>
       <use x="208.984375" xlink:href="#DejaVuSans-5f"/>
       <use x="258.984375" xlink:href="#DejaVuSans-54"/>
       <use x="320.068359" xlink:href="#DejaVuSans-31"/>
      </g>
     </g>
    </g>
    <g id="xtick_12">
     <g id="line2d_12">
      <g>
       <use style="stroke:#000000;stroke-width:0.8;" x="311.106845" xlink:href="#m0e1758d9d9" y="218.699909"/>
      </g>
     </g>
     <g id="text_12">
      <!-- PILS_T2 -->
      <g transform="translate(299.331307 258.079875)rotate(-45)scale(0.1 -0.1)">
       <use xlink:href="#DejaVuSans-50"/>
       <use x="60.302734" xlink:href="#DejaVuSans-49"/>
       <use x="89.794922" xlink:href="#DejaVuSans-4c"/>
       <use x="145.507812" xlink:href="#DejaVuSans-53"/>
       <use x="208.984375" xlink:href="#DejaVuSans-5f"/>
       <use x="258.984375" xlink:href="#DejaVuSans-54"/>
       <use x="320.068359" xlink:href="#DejaVuSans-32"/>
      </g>
     </g>
    </g>
    <g id="xtick_13">
     <g id="line2d_13">
      <g>
       <use style="stroke:#000000;stroke-width:0.8;" x="333.333583" xlink:href="#m0e1758d9d9" y="218.699909"/>
      </g>
     </g>
     <g id="text_13">
      <!-- NIHS_T1 -->
      <g transform="translate(320.355964 260.484039)rotate(-45)scale(0.1 -0.1)">
       <defs>
        <path d="M 628 4666 
L 1478 4666 
L 3547 763 
L 3547 4666 
L 4159 4666 
L 4159 0 
L 3309 0 
L 1241 3903 
L 1241 0 
L 628 0 
L 628 4666 
z
" id="DejaVuSans-4e" transform="scale(0.015625)"/>
       </defs>
       <use xlink:href="#DejaVuSans-4e"/>
       <use x="74.804688" xlink:href="#DejaVuSans-49"/>
       <use x="104.296875" xlink:href="#DejaVuSans-48"/>
       <use x="179.492188" xlink:href="#DejaVuSans-53"/>
       <use x="242.96875" xlink:href="#DejaVuSans-5f"/>
       <use x="292.96875" xlink:href="#DejaVuSans-54"/>
       <use x="354.052734" xlink:href="#DejaVuSans-31"/>
      </g>
     </g>
    </g>
    <g id="xtick_14">
     <g id="line2d_14">
      <g>
       <use style="stroke:#000000;stroke-width:0.8;" x="355.560321" xlink:href="#m0e1758d9d9" y="218.699909"/>
      </g>
     </g>
     <g id="text_14">
      <!-- NIHS_T2 -->
      <g transform="translate(342.582702 260.484039)rotate(-45)scale(0.1 -0.1)">
       <use xlink:href="#DejaVuSans-4e"/>
       <use x="74.804688" xlink:href="#DejaVuSans-49"/>
       <use x="104.296875" xlink:href="#DejaVuSans-48"/>
       <use x="179.492188" xlink:href="#DejaVuSans-53"/>
       <use x="242.96875" xlink:href="#DejaVuSans-5f"/>
       <use x="292.96875" xlink:href="#DejaVuSans-54"/>
       <use x="354.052734" xlink:href="#DejaVuSans-32"/>
      </g>
     </g>
    </g>
    <g id="xtick_15">
     <g id="line2d_15">
      <g>
       <use style="stroke:#000000;stroke-width:0.8;" x="377.787059" xlink:href="#m0e1758d9d9" y="218.699909"/>
      </g>
     </g>
     <g id="text_15">
      <!-- NIMS_T1 -->
      <g transform="translate(364.417769 261.26738)rotate(-45)scale(0.1 -0.1)">
       <use xlink:href="#DejaVuSans-4e"/>
       <use x="74.804688" xlink:href="#DejaVuSans-49"/>
       <use x="104.296875" xlink:href="#DejaVuSans-4d"/>
       <use x="190.576172" xlink:href="#DejaVuSans-53"/>
       <use x="254.052734" xlink:href="#DejaVuSans-5f"/>
       <use x="304.052734" xlink:href="#DejaVuSans-54"/>
       <use x="365.136719" xlink:href="#DejaVuSans-31"/>
      </g>
     </g>
    </g>
    <g id="xtick_16">
     <g id="line2d_16">
      <g>
       <use style="stroke:#000000;stroke-width:0.8;" x="400.013797" xlink:href="#m0e1758d9d9" y="218.699909"/>
      </g>
     </g>
     <g id="text_16">
      <!-- NIMS_T2 -->
      <g transform="translate(386.644507 261.26738)rotate(-45)scale(0.1 -0.1)">
       <use xlink:href="#DejaVuSans-4e"/>
       <use x="74.804688" xlink:href="#DejaVuSans-49"/>
       <use x="104.296875" xlink:href="#DejaVuSans-4d"/>
       <use x="190.576172" xlink:href="#DejaVuSans-53"/>
       <use x="254.052734" xlink:href="#DejaVuSans-5f"/>
       <use x="304.052734" xlink:href="#DejaVuSans-54"/>
       <use x="365.136719" xlink:href="#DejaVuSans-32"/>
      </g>
     </g>
    </g>
    <g id="xtick_17">
     <g id="line2d_17">
      <g>
       <use style="stroke:#000000;stroke-width:0.8;" x="422.240535" xlink:href="#m0e1758d9d9" y="218.699909"/>
      </g>
     </g>
     <g id="text_17">
      <!-- NILS_T1 -->
      <g transform="translate(409.951792 259.106285)rotate(-45)scale(0.1 -0.1)">
       <use xlink:href="#DejaVuSans-4e"/>
       <use x="74.804688" xlink:href="#DejaVuSans-49"/>
       <use x="104.296875" xlink:href="#DejaVuSans-4c"/>
       <use x="160.009766" xlink:href="#DejaVuSans-53"/>
       <use x="223.486328" xlink:href="#DejaVuSans-5f"/>
       <use x="273.486328" xlink:href="#DejaVuSans-54"/>
       <use x="334.570312" xlink:href="#DejaVuSans-31"/>
      </g>
     </g>
    </g>
    <g id="xtick_18">
     <g id="line2d_18">
      <g>
       <use style="stroke:#000000;stroke-width:0.8;" x="444.467273" xlink:href="#m0e1758d9d9" y="218.699909"/>
      </g>
     </g>
     <g id="text_18">
      <!-- NILS_T2 -->
      <g transform="translate(432.17853 259.106285)rotate(-45)scale(0.1 -0.1)">
       <use xlink:href="#DejaVuSans-4e"/>
       <use x="74.804688" xlink:href="#DejaVuSans-49"/>
       <use x="104.296875" xlink:href="#DejaVuSans-4c"/>
       <use x="160.009766" xlink:href="#DejaVuSans-53"/>
       <use x="223.486328" xlink:href="#DejaVuSans-5f"/>
       <use x="273.486328" xlink:href="#DejaVuSans-54"/>
       <use x="334.570312" xlink:href="#DejaVuSans-32"/>
      </g>
     </g>
    </g>
    <g id="text_19">
     <!-- Problems -->
     <g transform="translate(232.495469 274.533043)scale(0.1 -0.1)">
      <defs>
       <path d="M 2631 2963 
Q 2534 3019 2420 3045 
Q 2306 3072 2169 3072 
Q 1681 3072 1420 2755 
Q 1159 2438 1159 1844 
L 1159 0 
L 581 0 
L 581 3500 
L 1159 3500 
L 1159 2956 
Q 1341 3275 1631 3429 
Q 1922 3584 2338 3584 
Q 2397 3584 2469 3576 
Q 2541 3569 2628 3553 
L 2631 2963 
z
" id="DejaVuSans-72" transform="scale(0.015625)"/>
       <path d="M 1959 3097 
Q 1497 3097 1228 2736 
Q 959 2375 959 1747 
Q 959 1119 1226 758 
Q 1494 397 1959 397 
Q 2419 397 2687 759 
Q 2956 1122 2956 1747 
Q 2956 2369 2687 2733 
Q 2419 3097 1959 3097 
z
M 1959 3584 
Q 2709 3584 3137 3096 
Q 3566 2609 3566 1747 
Q 3566 888 3137 398 
Q 2709 -91 1959 -91 
Q 1206 -91 779 398 
Q 353 888 353 1747 
Q 353 2609 779 3096 
Q 1206 3584 1959 3584 
z
" id="DejaVuSans-6f" transform="scale(0.015625)"/>
       <path d="M 3116 1747 
Q 3116 2381 2855 2742 
Q 2594 3103 2138 3103 
Q 1681 3103 1420 2742 
Q 1159 2381 1159 1747 
Q 1159 1113 1420 752 
Q 1681 391 2138 391 
Q 2594 391 2855 752 
Q 3116 1113 3116 1747 
z
M 1159 2969 
Q 1341 3281 1617 3432 
Q 1894 3584 2278 3584 
Q 2916 3584 3314 3078 
Q 3713 2572 3713 1747 
Q 3713 922 3314 415 
Q 2916 -91 2278 -91 
Q 1894 -91 1617 61 
Q 1341 213 1159 525 
L 1159 0 
L 581 0 
L 581 4863 
L 1159 4863 
L 1159 2969 
z
" id="DejaVuSans-62" transform="scale(0.015625)"/>
       <path d="M 603 4863 
L 1178 4863 
L 1178 0 
L 603 0 
L 603 4863 
z
" id="DejaVuSans-6c" transform="scale(0.015625)"/>
       <path d="M 3597 1894 
L 3597 1613 
L 953 1613 
Q 991 1019 1311 708 
Q 1631 397 2203 397 
Q 2534 397 2845 478 
Q 3156 559 3463 722 
L 3463 178 
Q 3153 47 2828 -22 
Q 2503 -91 2169 -91 
Q 1331 -91 842 396 
Q 353 884 353 1716 
Q 353 2575 817 3079 
Q 1281 3584 2069 3584 
Q 2775 3584 3186 3129 
Q 3597 2675 3597 1894 
z
M 3022 2063 
Q 3016 2534 2758 2815 
Q 2500 3097 2075 3097 
Q 1594 3097 1305 2825 
Q 1016 2553 972 2059 
L 3022 2063 
z
" id="DejaVuSans-65" transform="scale(0.015625)"/>
       <path d="M 3328 2828 
Q 3544 3216 3844 3400 
Q 4144 3584 4550 3584 
Q 5097 3584 5394 3201 
Q 5691 2819 5691 2113 
L 5691 0 
L 5113 0 
L 5113 2094 
Q 5113 2597 4934 2840 
Q 4756 3084 4391 3084 
Q 3944 3084 3684 2787 
Q 3425 2491 3425 1978 
L 3425 0 
L 2847 0 
L 2847 2094 
Q 2847 2600 2669 2842 
Q 2491 3084 2119 3084 
Q 1678 3084 1418 2786 
Q 1159 2488 1159 1978 
L 1159 0 
L 581 0 
L 581 3500 
L 1159 3500 
L 1159 2956 
Q 1356 3278 1631 3431 
Q 1906 3584 2284 3584 
Q 2666 3584 2933 3390 
Q 3200 3197 3328 2828 
z
" id="DejaVuSans-6d" transform="scale(0.015625)"/>
       <path d="M 2834 3397 
L 2834 2853 
Q 2591 2978 2328 3040 
Q 2066 3103 1784 3103 
Q 1356 3103 1142 2972 
Q 928 2841 928 2578 
Q 928 2378 1081 2264 
Q 1234 2150 1697 2047 
L 1894 2003 
Q 2506 1872 2764 1633 
Q 3022 1394 3022 966 
Q 3022 478 2636 193 
Q 2250 -91 1575 -91 
Q 1294 -91 989 -36 
Q 684 19 347 128 
L 347 722 
Q 666 556 975 473 
Q 1284 391 1588 391 
Q 1994 391 2212 530 
Q 2431 669 2431 922 
Q 2431 1156 2273 1281 
Q 2116 1406 1581 1522 
L 1381 1569 
Q 847 1681 609 1914 
Q 372 2147 372 2553 
Q 372 3047 722 3315 
Q 1072 3584 1716 3584 
Q 2034 3584 2315 3537 
Q 2597 3491 2834 3397 
z
" id="DejaVuSans-73" transform="scale(0.015625)"/>
      </defs>
      <use xlink:href="#DejaVuSans-50"/>
      <use x="58.552734" xlink:href="#DejaVuSans-72"/>
      <use x="97.416016" xlink:href="#DejaVuSans-6f"/>
      <use x="158.597656" xlink:href="#DejaVuSans-62"/>
      <use x="222.074219" xlink:href="#DejaVuSans-6c"/>
      <use x="249.857422" xlink:href="#DejaVuSans-65"/>
      <use x="311.380859" xlink:href="#DejaVuSans-6d"/>
      <use x="408.792969" xlink:href="#DejaVuSans-73"/>
     </g>
    </g>
   </g>
   <g id="matplotlib.axis_2">
    <g id="ytick_1">
     <g id="line2d_19">
      <defs>
       <path d="M 0 0 
L -3.5 0 
" id="m45081e9b60" style="stroke:#000000;stroke-width:0.8;"/>
      </defs>
      <g>
       <use style="stroke:#000000;stroke-width:0.8;" x="47.72" xlink:href="#m45081e9b60" y="209.249913"/>
      </g>
     </g>
     <g id="text_20">
      <!-- 0.0 -->
      <g transform="translate(24.816875 213.049132)scale(0.1 -0.1)">
       <defs>
        <path d="M 2034 4250 
Q 1547 4250 1301 3770 
Q 1056 3291 1056 2328 
Q 1056 1369 1301 889 
Q 1547 409 2034 409 
Q 2525 409 2770 889 
Q 3016 1369 3016 2328 
Q 3016 3291 2770 3770 
Q 2525 4250 2034 4250 
z
M 2034 4750 
Q 2819 4750 3233 4129 
Q 3647 3509 3647 2328 
Q 3647 1150 3233 529 
Q 2819 -91 2034 -91 
Q 1250 -91 836 529 
Q 422 1150 422 2328 
Q 422 3509 836 4129 
Q 1250 4750 2034 4750 
z
" id="DejaVuSans-30" transform="scale(0.015625)"/>
        <path d="M 684 794 
L 1344 794 
L 1344 0 
L 684 0 
L 684 794 
z
" id="DejaVuSans-2e" transform="scale(0.015625)"/>
       </defs>
       <use xlink:href="#DejaVuSans-30"/>
       <use x="63.623047" xlink:href="#DejaVuSans-2e"/>
       <use x="95.410156" xlink:href="#DejaVuSans-30"/>
      </g>
     </g>
    </g>
    <g id="ytick_2">
     <g id="line2d_20">
      <g>
       <use style="stroke:#000000;stroke-width:0.8;" x="47.72" xlink:href="#m45081e9b60" y="171.44993"/>
      </g>
     </g>
     <g id="text_21">
      <!-- 0.2 -->
      <g transform="translate(24.816875 175.249149)scale(0.1 -0.1)">
       <use xlink:href="#DejaVuSans-30"/>
       <use x="63.623047" xlink:href="#DejaVuSans-2e"/>
       <use x="95.410156" xlink:href="#DejaVuSans-32"/>
      </g>
     </g>
    </g>
    <g id="ytick_3">
     <g id="line2d_21">
      <g>
       <use style="stroke:#000000;stroke-width:0.8;" x="47.72" xlink:href="#m45081e9b60" y="133.649946"/>
      </g>
     </g>
     <g id="text_22">
      <!-- 0.4 -->
      <g transform="translate(24.816875 137.449165)scale(0.1 -0.1)">
       <defs>
        <path d="M 2419 4116 
L 825 1625 
L 2419 1625 
L 2419 4116 
z
M 2253 4666 
L 3047 4666 
L 3047 1625 
L 3713 1625 
L 3713 1100 
L 3047 1100 
L 3047 0 
L 2419 0 
L 2419 1100 
L 313 1100 
L 313 1709 
L 2253 4666 
z
" id="DejaVuSans-34" transform="scale(0.015625)"/>
       </defs>
       <use xlink:href="#DejaVuSans-30"/>
       <use x="63.623047" xlink:href="#DejaVuSans-2e"/>
       <use x="95.410156" xlink:href="#DejaVuSans-34"/>
      </g>
     </g>
    </g>
    <g id="ytick_4">
     <g id="line2d_22">
      <g>
       <use style="stroke:#000000;stroke-width:0.8;" x="47.72" xlink:href="#m45081e9b60" y="95.849963"/>
      </g>
     </g>
     <g id="text_23">
      <!-- 0.6 -->
      <g transform="translate(24.816875 99.649182)scale(0.1 -0.1)">
       <defs>
        <path d="M 2113 2584 
Q 1688 2584 1439 2293 
Q 1191 2003 1191 1497 
Q 1191 994 1439 701 
Q 1688 409 2113 409 
Q 2538 409 2786 701 
Q 3034 994 3034 1497 
Q 3034 2003 2786 2293 
Q 2538 2584 2113 2584 
z
M 3366 4563 
L 3366 3988 
Q 3128 4100 2886 4159 
Q 2644 4219 2406 4219 
Q 1781 4219 1451 3797 
Q 1122 3375 1075 2522 
Q 1259 2794 1537 2939 
Q 1816 3084 2150 3084 
Q 2853 3084 3261 2657 
Q 3669 2231 3669 1497 
Q 3669 778 3244 343 
Q 2819 -91 2113 -91 
Q 1303 -91 875 529 
Q 447 1150 447 2328 
Q 447 3434 972 4092 
Q 1497 4750 2381 4750 
Q 2619 4750 2861 4703 
Q 3103 4656 3366 4563 
z
" id="DejaVuSans-36" transform="scale(0.015625)"/>
       </defs>
       <use xlink:href="#DejaVuSans-30"/>
       <use x="63.623047" xlink:href="#DejaVuSans-2e"/>
       <use x="95.410156" xlink:href="#DejaVuSans-36"/>
      </g>
     </g>
    </g>
    <g id="ytick_5">
     <g id="line2d_23">
      <g>
       <use style="stroke:#000000;stroke-width:0.8;" x="47.72" xlink:href="#m45081e9b60" y="58.049979"/>
      </g>
     </g>
     <g id="text_24">
      <!-- 0.8 -->
      <g transform="translate(24.816875 61.849198)scale(0.1 -0.1)">
       <defs>
        <path d="M 2034 2216 
Q 1584 2216 1326 1975 
Q 1069 1734 1069 1313 
Q 1069 891 1326 650 
Q 1584 409 2034 409 
Q 2484 409 2743 651 
Q 3003 894 3003 1313 
Q 3003 1734 2745 1975 
Q 2488 2216 2034 2216 
z
M 1403 2484 
Q 997 2584 770 2862 
Q 544 3141 544 3541 
Q 544 4100 942 4425 
Q 1341 4750 2034 4750 
Q 2731 4750 3128 4425 
Q 3525 4100 3525 3541 
Q 3525 3141 3298 2862 
Q 3072 2584 2669 2484 
Q 3125 2378 3379 2068 
Q 3634 1759 3634 1313 
Q 3634 634 3220 271 
Q 2806 -91 2034 -91 
Q 1263 -91 848 271 
Q 434 634 434 1313 
Q 434 1759 690 2068 
Q 947 2378 1403 2484 
z
M 1172 3481 
Q 1172 3119 1398 2916 
Q 1625 2713 2034 2713 
Q 2441 2713 2670 2916 
Q 2900 3119 2900 3481 
Q 2900 3844 2670 4047 
Q 2441 4250 2034 4250 
Q 1625 4250 1398 4047 
Q 1172 3844 1172 3481 
z
" id="DejaVuSans-38" transform="scale(0.015625)"/>
       </defs>
       <use xlink:href="#DejaVuSans-30"/>
       <use x="63.623047" xlink:href="#DejaVuSans-2e"/>
       <use x="95.410156" xlink:href="#DejaVuSans-38"/>
      </g>
     </g>
    </g>
    <g id="ytick_6">
     <g id="line2d_24">
      <g>
       <use style="stroke:#000000;stroke-width:0.8;" x="47.72" xlink:href="#m45081e9b60" y="20.249996"/>
      </g>
     </g>
     <g id="text_25">
      <!-- 1.0 -->
      <g transform="translate(24.816875 24.049215)scale(0.1 -0.1)">
       <use xlink:href="#DejaVuSans-31"/>
       <use x="63.623047" xlink:href="#DejaVuSans-2e"/>
       <use x="95.410156" xlink:href="#DejaVuSans-30"/>
      </g>
     </g>
    </g>
    <g id="text_26">
     <!-- Score -->
     <g transform="translate(18.737187 128.752298)rotate(-90)scale(0.1 -0.1)">
      <defs>
       <path d="M 3122 3366 
L 3122 2828 
Q 2878 2963 2633 3030 
Q 2388 3097 2138 3097 
Q 1578 3097 1268 2742 
Q 959 2388 959 1747 
Q 959 1106 1268 751 
Q 1578 397 2138 397 
Q 2388 397 2633 464 
Q 2878 531 3122 666 
L 3122 134 
Q 2881 22 2623 -34 
Q 2366 -91 2075 -91 
Q 1284 -91 818 406 
Q 353 903 353 1747 
Q 353 2603 823 3093 
Q 1294 3584 2113 3584 
Q 2378 3584 2631 3529 
Q 2884 3475 3122 3366 
z
" id="DejaVuSans-63" transform="scale(0.015625)"/>
      </defs>
      <use xlink:href="#DejaVuSans-53"/>
      <use x="63.476562" xlink:href="#DejaVuSans-63"/>
      <use x="118.457031" xlink:href="#DejaVuSans-6f"/>
      <use x="179.638672" xlink:href="#DejaVuSans-72"/>
      <use x="218.501953" xlink:href="#DejaVuSans-65"/>
     </g>
    </g>
   </g>
   <g id="line2d_25">
    <path clip-path="url(#paaa8416e91)" d="M 66.612727 86.658591 
L 88.839465 20.249996 
L 111.066203 48.114094 
L 133.292941 20.249996 
L 155.519679 20.249996 
L 177.746417 156.67608 
L 199.973155 20.249996 
L 222.199893 20.249996 
L 244.426631 61.979264 
L 266.653369 134.445813 
L 288.880107 124.627616 
L 311.106845 21.317764 
L 333.333583 20.249996 
L 355.560321 20.249996 
L 377.787059 80.406133 
L 400.013797 20.249996 
L 422.240535 99.678276 
L 444.467273 209.249913 
" style="fill:none;stroke:#1f77b4;stroke-linecap:square;stroke-width:1.5;"/>
   </g>
   <g id="line2d_26">
    <path clip-path="url(#paaa8416e91)" d="M 66.612727 209.249913 
L 88.839465 169.640577 
L 111.066203 138.429342 
L 133.292941 111.456531 
L 155.519679 116.640682 
L 177.746417 20.249996 
L 199.973155 177.446512 
L 222.199893 122.260066 
L 244.426631 62.168709 
L 266.653369 20.249996 
L 288.880107 209.249913 
L 311.106845 21.494284 
L 333.333583 39.772337 
L 355.560321 58.119711 
L 377.787059 132.136436 
L 400.013797 158.428386 
L 422.240535 74.292422 
L 444.467273 205.434258 
" style="fill:none;stroke:#ff7f0e;stroke-linecap:square;stroke-width:1.5;"/>
   </g>
   <g id="line2d_27">
    <path clip-path="url(#paaa8416e91)" d="M 66.612727 46.522805 
L 88.839465 99.262463 
L 111.066203 110.82986 
L 133.292941 80.852209 
L 155.519679 110.255316 
L 177.746417 89.54471 
L 199.973155 201.910221 
L 222.199893 174.057569 
L 244.426631 46.444486 
L 266.653369 44.641478 
L 288.880107 148.438027 
L 311.106845 21.486494 
L 333.333583 98.362161 
L 355.560321 112.067165 
L 377.787059 122.656756 
L 400.013797 77.283617 
L 422.240535 209.249913 
L 444.467273 200.617374 
" style="fill:none;stroke:#2ca02c;stroke-linecap:square;stroke-width:1.5;"/>
   </g>
   <g id="line2d_28">
    <path clip-path="url(#paaa8416e91)" d="M 66.612727 124.394287 
L 88.839465 128.209465 
L 111.066203 127.242522 
L 133.292941 166.173144 
L 155.519679 209.249913 
L 177.746417 93.095556 
L 199.973155 209.249913 
L 222.199893 209.249913 
L 244.426631 20.249996 
L 266.653369 68.884153 
L 288.880107 151.244088 
L 311.106845 21.165959 
L 333.333583 116.940308 
L 355.560321 139.239179 
L 377.787059 92.144001 
L 400.013797 45.409018 
L 422.240535 77.943272 
L 444.467273 152.594021 
" style="fill:none;stroke:#d62728;stroke-linecap:square;stroke-width:1.5;"/>
   </g>
   <g id="line2d_29">
    <path clip-path="url(#paaa8416e91)" d="M 66.612727 145.535858 
L 88.839465 209.249913 
L 111.066203 20.249996 
L 133.292941 106.350925 
L 155.519679 143.222238 
L 177.746417 196.585641 
L 199.973155 198.372578 
L 222.199893 171.157471 
L 244.426631 76.010347 
L 266.653369 69.759075 
L 288.880107 104.160075 
L 311.106845 20.910152 
L 333.333583 155.216338 
L 355.560321 180.87061 
L 377.787059 209.249913 
L 400.013797 209.249913 
L 422.240535 104.539385 
L 444.467273 171.031278 
" style="fill:none;stroke:#9467bd;stroke-linecap:square;stroke-width:1.5;"/>
   </g>
   <g id="line2d_30">
    <path clip-path="url(#paaa8416e91)" d="M 66.612727 125.489052 
L 88.839465 134.257011 
L 111.066203 111.818733 
L 133.292941 116.10558 
L 155.519679 162.585864 
L 177.746417 155.990336 
L 199.973155 110.509292 
L 222.199893 203.452156 
L 244.426631 78.740614 
L 266.653369 192.902712 
L 288.880107 151.489023 
L 311.106845 20.985858 
L 333.333583 156.81705 
L 355.560321 157.238535 
L 377.787059 20.249996 
L 400.013797 97.774705 
L 422.240535 163.40245 
L 444.467273 178.404146 
" style="fill:none;stroke:#8c564b;stroke-linecap:square;stroke-width:1.5;"/>
   </g>
   <g id="line2d_31">
    <path clip-path="url(#paaa8416e91)" d="M 66.612727 134.423442 
L 88.839465 111.758805 
L 111.066203 35.224895 
L 133.292941 124.939695 
L 155.519679 198.198462 
L 177.746417 209.249913 
L 199.973155 176.345895 
L 222.199893 201.007055 
L 244.426631 82.841777 
L 266.653369 108.245378 
L 288.880107 112.435095 
L 311.106845 20.249996 
L 333.333583 168.0673 
L 355.560321 177.5593 
L 377.787059 200.377204 
L 400.013797 143.472202 
L 422.240535 20.249996 
L 444.467273 179.364884 
" style="fill:none;stroke:#e377c2;stroke-linecap:square;stroke-width:1.5;"/>
   </g>
   <g id="line2d_32">
    <path clip-path="url(#paaa8416e91)" d="M 66.612727 20.249996 
L 88.839465 39.648165 
L 111.066203 209.249913 
L 133.292941 209.249913 
L 155.519679 130.82498 
L 177.746417 117.608166 
L 199.973155 166.294591 
L 222.199893 191.436672 
L 244.426631 103.155282 
L 266.653369 175.729431 
L 288.880107 64.174427 
L 311.106845 20.26249 
L 333.333583 188.216294 
L 355.560321 200.267735 
L 377.787059 182.854648 
L 400.013797 100.143097 
L 422.240535 144.080615 
L 444.467273 95.924766 
" style="fill:none;stroke:#7f7f7f;stroke-linecap:square;stroke-width:1.5;"/>
   </g>
   <g id="line2d_33">
    <path clip-path="url(#paaa8416e91)" d="M 66.612727 94.610275 
L 88.839465 38.561204 
L 111.066203 89.772976 
L 133.292941 203.693478 
L 155.519679 167.676265 
L 177.746417 171.2733 
L 199.973155 107.04278 
L 222.199893 138.898493 
L 244.426631 209.249913 
L 266.653369 209.249913 
L 288.880107 20.249996 
L 311.106845 209.249913 
L 333.333583 209.249913 
L 355.560321 209.249913 
L 377.787059 209.2388 
L 400.013797 148.151322 
L 422.240535 76.131294 
L 444.467273 20.249996 
" style="fill:none;stroke:#bcbd22;stroke-linecap:square;stroke-width:1.5;"/>
   </g>
   <g id="patch_3">
    <path d="M 47.72 218.699909 
L 47.72 10.8 
" style="fill:none;stroke:#000000;stroke-linecap:square;stroke-linejoin:miter;stroke-width:0.8;"/>
   </g>
   <g id="patch_4">
    <path d="M 463.36 218.699909 
L 463.36 10.8 
" style="fill:none;stroke:#000000;stroke-linecap:square;stroke-linejoin:miter;stroke-width:0.8;"/>
   </g>
   <g id="patch_5">
    <path d="M 47.72 218.699909 
L 463.36 218.699909 
" style="fill:none;stroke:#000000;stroke-linecap:square;stroke-linejoin:miter;stroke-width:0.8;"/>
   </g>
   <g id="patch_6">
    <path d="M 47.72 10.8 
L 463.36 10.8 
" style="fill:none;stroke:#000000;stroke-linecap:square;stroke-linejoin:miter;stroke-width:0.8;"/>
   </g>
   <g id="legend_1">
    <g id="patch_7">
     <path d="M 491.142 150.903125 
L 561.802938 150.903125 
Q 563.802938 150.903125 563.802938 148.903125 
L 563.802938 17.8 
Q 563.802938 15.8 561.802938 15.8 
L 491.142 15.8 
Q 489.142 15.8 489.142 17.8 
L 489.142 148.903125 
Q 489.142 150.903125 491.142 150.903125 
z
" style="fill:#ffffff;opacity:0.8;stroke:#cccccc;stroke-linejoin:miter;"/>
    </g>
    <g id="line2d_34">
     <path d="M 493.142 23.898438 
L 513.142 23.898438 
" style="fill:none;stroke:#1f77b4;stroke-linecap:square;stroke-width:1.5;"/>
    </g>
    <g id="line2d_35"/>
    <g id="text_27">
     <!-- size: 1 -->
     <g transform="translate(521.142 27.398438)scale(0.1 -0.1)">
      <defs>
       <path d="M 603 3500 
L 1178 3500 
L 1178 0 
L 603 0 
L 603 3500 
z
M 603 4863 
L 1178 4863 
L 1178 4134 
L 603 4134 
L 603 4863 
z
" id="DejaVuSans-69" transform="scale(0.015625)"/>
       <path d="M 353 3500 
L 3084 3500 
L 3084 2975 
L 922 459 
L 3084 459 
L 3084 0 
L 275 0 
L 275 525 
L 2438 3041 
L 353 3041 
L 353 3500 
z
" id="DejaVuSans-7a" transform="scale(0.015625)"/>
       <path d="M 750 794 
L 1409 794 
L 1409 0 
L 750 0 
L 750 794 
z
M 750 3309 
L 1409 3309 
L 1409 2516 
L 750 2516 
L 750 3309 
z
" id="DejaVuSans-3a" transform="scale(0.015625)"/>
       <path id="DejaVuSans-20" transform="scale(0.015625)"/>
      </defs>
      <use xlink:href="#DejaVuSans-73"/>
      <use x="52.099609" xlink:href="#DejaVuSans-69"/>
      <use x="79.882812" xlink:href="#DejaVuSans-7a"/>
      <use x="132.373047" xlink:href="#DejaVuSans-65"/>
      <use x="193.896484" xlink:href="#DejaVuSans-3a"/>
      <use x="227.587891" xlink:href="#DejaVuSans-20"/>
      <use x="259.375" xlink:href="#DejaVuSans-31"/>
     </g>
    </g>
    <g id="line2d_36">
     <path d="M 493.142 38.576563 
L 513.142 38.576563 
" style="fill:none;stroke:#ff7f0e;stroke-linecap:square;stroke-width:1.5;"/>
    </g>
    <g id="line2d_37"/>
    <g id="text_28">
     <!-- size: 2 -->
     <g transform="translate(521.142 42.076563)scale(0.1 -0.1)">
      <use xlink:href="#DejaVuSans-73"/>
      <use x="52.099609" xlink:href="#DejaVuSans-69"/>
      <use x="79.882812" xlink:href="#DejaVuSans-7a"/>
      <use x="132.373047" xlink:href="#DejaVuSans-65"/>
      <use x="193.896484" xlink:href="#DejaVuSans-3a"/>
      <use x="227.587891" xlink:href="#DejaVuSans-20"/>
      <use x="259.375" xlink:href="#DejaVuSans-32"/>
     </g>
    </g>
    <g id="line2d_38">
     <path d="M 493.142 53.254687 
L 513.142 53.254687 
" style="fill:none;stroke:#2ca02c;stroke-linecap:square;stroke-width:1.5;"/>
    </g>
    <g id="line2d_39"/>
    <g id="text_29">
     <!-- size: 3 -->
     <g transform="translate(521.142 56.754687)scale(0.1 -0.1)">
      <defs>
       <path d="M 2597 2516 
Q 3050 2419 3304 2112 
Q 3559 1806 3559 1356 
Q 3559 666 3084 287 
Q 2609 -91 1734 -91 
Q 1441 -91 1130 -33 
Q 819 25 488 141 
L 488 750 
Q 750 597 1062 519 
Q 1375 441 1716 441 
Q 2309 441 2620 675 
Q 2931 909 2931 1356 
Q 2931 1769 2642 2001 
Q 2353 2234 1838 2234 
L 1294 2234 
L 1294 2753 
L 1863 2753 
Q 2328 2753 2575 2939 
Q 2822 3125 2822 3475 
Q 2822 3834 2567 4026 
Q 2313 4219 1838 4219 
Q 1578 4219 1281 4162 
Q 984 4106 628 3988 
L 628 4550 
Q 988 4650 1302 4700 
Q 1616 4750 1894 4750 
Q 2613 4750 3031 4423 
Q 3450 4097 3450 3541 
Q 3450 3153 3228 2886 
Q 3006 2619 2597 2516 
z
" id="DejaVuSans-33" transform="scale(0.015625)"/>
      </defs>
      <use xlink:href="#DejaVuSans-73"/>
      <use x="52.099609" xlink:href="#DejaVuSans-69"/>
      <use x="79.882812" xlink:href="#DejaVuSans-7a"/>
      <use x="132.373047" xlink:href="#DejaVuSans-65"/>
      <use x="193.896484" xlink:href="#DejaVuSans-3a"/>
      <use x="227.587891" xlink:href="#DejaVuSans-20"/>
      <use x="259.375" xlink:href="#DejaVuSans-33"/>
     </g>
    </g>
    <g id="line2d_40">
     <path d="M 493.142 67.932813 
L 513.142 67.932813 
" style="fill:none;stroke:#d62728;stroke-linecap:square;stroke-width:1.5;"/>
    </g>
    <g id="line2d_41"/>
    <g id="text_30">
     <!-- size: 5 -->
     <g transform="translate(521.142 71.432813)scale(0.1 -0.1)">
      <defs>
       <path d="M 691 4666 
L 3169 4666 
L 3169 4134 
L 1269 4134 
L 1269 2991 
Q 1406 3038 1543 3061 
Q 1681 3084 1819 3084 
Q 2600 3084 3056 2656 
Q 3513 2228 3513 1497 
Q 3513 744 3044 326 
Q 2575 -91 1722 -91 
Q 1428 -91 1123 -41 
Q 819 9 494 109 
L 494 744 
Q 775 591 1075 516 
Q 1375 441 1709 441 
Q 2250 441 2565 725 
Q 2881 1009 2881 1497 
Q 2881 1984 2565 2268 
Q 2250 2553 1709 2553 
Q 1456 2553 1204 2497 
Q 953 2441 691 2322 
L 691 4666 
z
" id="DejaVuSans-35" transform="scale(0.015625)"/>
      </defs>
      <use xlink:href="#DejaVuSans-73"/>
      <use x="52.099609" xlink:href="#DejaVuSans-69"/>
      <use x="79.882812" xlink:href="#DejaVuSans-7a"/>
      <use x="132.373047" xlink:href="#DejaVuSans-65"/>
      <use x="193.896484" xlink:href="#DejaVuSans-3a"/>
      <use x="227.587891" xlink:href="#DejaVuSans-20"/>
      <use x="259.375" xlink:href="#DejaVuSans-35"/>
     </g>
    </g>
    <g id="line2d_42">
     <path d="M 493.142 82.610938 
L 513.142 82.610938 
" style="fill:none;stroke:#9467bd;stroke-linecap:square;stroke-width:1.5;"/>
    </g>
    <g id="line2d_43"/>
    <g id="text_31">
     <!-- size: 7 -->
     <g transform="translate(521.142 86.110938)scale(0.1 -0.1)">
      <defs>
       <path d="M 525 4666 
L 3525 4666 
L 3525 4397 
L 1831 0 
L 1172 0 
L 2766 4134 
L 525 4134 
L 525 4666 
z
" id="DejaVuSans-37" transform="scale(0.015625)"/>
      </defs>
      <use xlink:href="#DejaVuSans-73"/>
      <use x="52.099609" xlink:href="#DejaVuSans-69"/>
      <use x="79.882812" xlink:href="#DejaVuSans-7a"/>
      <use x="132.373047" xlink:href="#DejaVuSans-65"/>
      <use x="193.896484" xlink:href="#DejaVuSans-3a"/>
      <use x="227.587891" xlink:href="#DejaVuSans-20"/>
      <use x="259.375" xlink:href="#DejaVuSans-37"/>
     </g>
    </g>
    <g id="line2d_44">
     <path d="M 493.142 97.289062 
L 513.142 97.289062 
" style="fill:none;stroke:#8c564b;stroke-linecap:square;stroke-width:1.5;"/>
    </g>
    <g id="line2d_45"/>
    <g id="text_32">
     <!-- size: 10 -->
     <g transform="translate(521.142 100.789062)scale(0.1 -0.1)">
      <use xlink:href="#DejaVuSans-73"/>
      <use x="52.099609" xlink:href="#DejaVuSans-69"/>
      <use x="79.882812" xlink:href="#DejaVuSans-7a"/>
      <use x="132.373047" xlink:href="#DejaVuSans-65"/>
      <use x="193.896484" xlink:href="#DejaVuSans-3a"/>
      <use x="227.587891" xlink:href="#DejaVuSans-20"/>
      <use x="259.375" xlink:href="#DejaVuSans-31"/>
      <use x="322.998047" xlink:href="#DejaVuSans-30"/>
     </g>
    </g>
    <g id="line2d_46">
     <path d="M 493.142 111.967187 
L 513.142 111.967187 
" style="fill:none;stroke:#e377c2;stroke-linecap:square;stroke-width:1.5;"/>
    </g>
    <g id="line2d_47"/>
    <g id="text_33">
     <!-- size: 15 -->
     <g transform="translate(521.142 115.467187)scale(0.1 -0.1)">
      <use xlink:href="#DejaVuSans-73"/>
      <use x="52.099609" xlink:href="#DejaVuSans-69"/>
      <use x="79.882812" xlink:href="#DejaVuSans-7a"/>
      <use x="132.373047" xlink:href="#DejaVuSans-65"/>
      <use x="193.896484" xlink:href="#DejaVuSans-3a"/>
      <use x="227.587891" xlink:href="#DejaVuSans-20"/>
      <use x="259.375" xlink:href="#DejaVuSans-31"/>
      <use x="322.998047" xlink:href="#DejaVuSans-35"/>
     </g>
    </g>
    <g id="line2d_48">
     <path d="M 493.142 126.645312 
L 513.142 126.645312 
" style="fill:none;stroke:#7f7f7f;stroke-linecap:square;stroke-width:1.5;"/>
    </g>
    <g id="line2d_49"/>
    <g id="text_34">
     <!-- size: 20 -->
     <g transform="translate(521.142 130.145312)scale(0.1 -0.1)">
      <use xlink:href="#DejaVuSans-73"/>
      <use x="52.099609" xlink:href="#DejaVuSans-69"/>
      <use x="79.882812" xlink:href="#DejaVuSans-7a"/>
      <use x="132.373047" xlink:href="#DejaVuSans-65"/>
      <use x="193.896484" xlink:href="#DejaVuSans-3a"/>
      <use x="227.587891" xlink:href="#DejaVuSans-20"/>
      <use x="259.375" xlink:href="#DejaVuSans-32"/>
      <use x="322.998047" xlink:href="#DejaVuSans-30"/>
     </g>
    </g>
    <g id="line2d_50">
     <path d="M 493.142 141.323437 
L 513.142 141.323437 
" style="fill:none;stroke:#bcbd22;stroke-linecap:square;stroke-width:1.5;"/>
    </g>
    <g id="line2d_51"/>
    <g id="text_35">
     <!-- size: 30 -->
     <g transform="translate(521.142 144.823437)scale(0.1 -0.1)">
      <use xlink:href="#DejaVuSans-73"/>
      <use x="52.099609" xlink:href="#DejaVuSans-69"/>
      <use x="79.882812" xlink:href="#DejaVuSans-7a"/>
      <use x="132.373047" xlink:href="#DejaVuSans-65"/>
      <use x="193.896484" xlink:href="#DejaVuSans-3a"/>
      <use x="227.587891" xlink:href="#DejaVuSans-20"/>
      <use x="259.375" xlink:href="#DejaVuSans-33"/>
      <use x="322.998047" xlink:href="#DejaVuSans-30"/>
     </g>
    </g>
   </g>
  </g>
 </g>
 <defs>
  <clipPath id="paaa8416e91">
   <rect height="207.899909" width="415.64" x="47.72" y="10.8"/>
  </clipPath>
 </defs>
</svg>
