<?xml version="1.0" encoding="utf-8" standalone="no"?>
<!DOCTYPE svg PUBLIC "-//W3C//DTD SVG 1.1//EN"
  "http://www.w3.org/Graphics/SVG/1.1/DTD/svg11.dtd">
<!-- Created with matplotlib (https://matplotlib.org/) -->
<svg height="344.16pt" version="1.1" viewBox="0 0 460.8 344.16" width="460.8pt" xmlns="http://www.w3.org/2000/svg" xmlns:xlink="http://www.w3.org/1999/xlink">
 <defs>
  <style type="text/css">
*{stroke-linecap:butt;stroke-linejoin:round;}
  </style>
 </defs>
 <g id="figure_1">
  <g id="patch_1">
   <path d="M 0 344.16 
L 460.8 344.16 
L 460.8 0 
L 0 0 
z
" style="fill:#ffffff;"/>
  </g>
  <g id="axes_1">
   <g id="patch_2">
    <path d="M 57.6 306.3024 
L 414.72 306.3024 
L 414.72 41.2992 
L 57.6 41.2992 
z
" style="fill:#ffffff;"/>
   </g>
   <g id="matplotlib.axis_1">
    <g id="xtick_1">
     <g id="line2d_1">
      <defs>
       <path d="M 0 0 
L 0 3.5 
" id="m30be1296ee" style="stroke:#000000;stroke-width:0.8;"/>
      </defs>
      <g>
       <use style="stroke:#000000;stroke-width:0.8;" x="73.832727" xlink:href="#m30be1296ee" y="306.3024"/>
      </g>
     </g>
     <g id="text_1">
      <!-- 0 -->
      <defs>
       <path d="M 31.78125 66.40625 
Q 24.171875 66.40625 20.328125 58.90625 
Q 16.5 51.421875 16.5 36.375 
Q 16.5 21.390625 20.328125 13.890625 
Q 24.171875 6.390625 31.78125 6.390625 
Q 39.453125 6.390625 43.28125 13.890625 
Q 47.125 21.390625 47.125 36.375 
Q 47.125 51.421875 43.28125 58.90625 
Q 39.453125 66.40625 31.78125 66.40625 
z
M 31.78125 74.21875 
Q 44.046875 74.21875 50.515625 64.515625 
Q 56.984375 54.828125 56.984375 36.375 
Q 56.984375 17.96875 50.515625 8.265625 
Q 44.046875 -1.421875 31.78125 -1.421875 
Q 19.53125 -1.421875 13.0625 8.265625 
Q 6.59375 17.96875 6.59375 36.375 
Q 6.59375 54.828125 13.0625 64.515625 
Q 19.53125 74.21875 31.78125 74.21875 
z
" id="DejaVuSans-48"/>
      </defs>
      <g transform="translate(69.378977 323.940213)scale(0.14 -0.14)">
       <use xlink:href="#DejaVuSans-48"/>
      </g>
     </g>
    </g>
    <g id="xtick_2">
     <g id="line2d_2">
      <g>
       <use style="stroke:#000000;stroke-width:0.8;" x="138.893758" xlink:href="#m30be1296ee" y="306.3024"/>
      </g>
     </g>
     <g id="text_2">
      <!-- 200 -->
      <defs>
       <path d="M 19.1875 8.296875 
L 53.609375 8.296875 
L 53.609375 0 
L 7.328125 0 
L 7.328125 8.296875 
Q 12.9375 14.109375 22.625 23.890625 
Q 32.328125 33.6875 34.8125 36.53125 
Q 39.546875 41.84375 41.421875 45.53125 
Q 43.3125 49.21875 43.3125 52.78125 
Q 43.3125 58.59375 39.234375 62.25 
Q 35.15625 65.921875 28.609375 65.921875 
Q 23.96875 65.921875 18.8125 64.3125 
Q 13.671875 62.703125 7.8125 59.421875 
L 7.8125 69.390625 
Q 13.765625 71.78125 18.9375 73 
Q 24.125 74.21875 28.421875 74.21875 
Q 39.75 74.21875 46.484375 68.546875 
Q 53.21875 62.890625 53.21875 53.421875 
Q 53.21875 48.921875 51.53125 44.890625 
Q 49.859375 40.875 45.40625 35.40625 
Q 44.1875 33.984375 37.640625 27.21875 
Q 31.109375 20.453125 19.1875 8.296875 
z
" id="DejaVuSans-50"/>
      </defs>
      <g transform="translate(125.532508 323.940213)scale(0.14 -0.14)">
       <use xlink:href="#DejaVuSans-50"/>
       <use x="63.623047" xlink:href="#DejaVuSans-48"/>
       <use x="127.246094" xlink:href="#DejaVuSans-48"/>
      </g>
     </g>
    </g>
    <g id="xtick_3">
     <g id="line2d_3">
      <g>
       <use style="stroke:#000000;stroke-width:0.8;" x="203.95479" xlink:href="#m30be1296ee" y="306.3024"/>
      </g>
     </g>
     <g id="text_3">
      <!-- 400 -->
      <defs>
       <path d="M 37.796875 64.3125 
L 12.890625 25.390625 
L 37.796875 25.390625 
z
M 35.203125 72.90625 
L 47.609375 72.90625 
L 47.609375 25.390625 
L 58.015625 25.390625 
L 58.015625 17.1875 
L 47.609375 17.1875 
L 47.609375 0 
L 37.796875 0 
L 37.796875 17.1875 
L 4.890625 17.1875 
L 4.890625 26.703125 
z
" id="DejaVuSans-52"/>
      </defs>
      <g transform="translate(190.59354 323.940213)scale(0.14 -0.14)">
       <use xlink:href="#DejaVuSans-52"/>
       <use x="63.623047" xlink:href="#DejaVuSans-48"/>
       <use x="127.246094" xlink:href="#DejaVuSans-48"/>
      </g>
     </g>
    </g>
    <g id="xtick_4">
     <g id="line2d_4">
      <g>
       <use style="stroke:#000000;stroke-width:0.8;" x="269.015821" xlink:href="#m30be1296ee" y="306.3024"/>
      </g>
     </g>
     <g id="text_4">
      <!-- 600 -->
      <defs>
       <path d="M 33.015625 40.375 
Q 26.375 40.375 22.484375 35.828125 
Q 18.609375 31.296875 18.609375 23.390625 
Q 18.609375 15.53125 22.484375 10.953125 
Q 26.375 6.390625 33.015625 6.390625 
Q 39.65625 6.390625 43.53125 10.953125 
Q 47.40625 15.53125 47.40625 23.390625 
Q 47.40625 31.296875 43.53125 35.828125 
Q 39.65625 40.375 33.015625 40.375 
z
M 52.59375 71.296875 
L 52.59375 62.3125 
Q 48.875 64.0625 45.09375 64.984375 
Q 41.3125 65.921875 37.59375 65.921875 
Q 27.828125 65.921875 22.671875 59.328125 
Q 17.53125 52.734375 16.796875 39.40625 
Q 19.671875 43.65625 24.015625 45.921875 
Q 28.375 48.1875 33.59375 48.1875 
Q 44.578125 48.1875 50.953125 41.515625 
Q 57.328125 34.859375 57.328125 23.390625 
Q 57.328125 12.15625 50.6875 5.359375 
Q 44.046875 -1.421875 33.015625 -1.421875 
Q 20.359375 -1.421875 13.671875 8.265625 
Q 6.984375 17.96875 6.984375 36.375 
Q 6.984375 53.65625 15.1875 63.9375 
Q 23.390625 74.21875 37.203125 74.21875 
Q 40.921875 74.21875 44.703125 73.484375 
Q 48.484375 72.75 52.59375 71.296875 
z
" id="DejaVuSans-54"/>
      </defs>
      <g transform="translate(255.654571 323.940213)scale(0.14 -0.14)">
       <use xlink:href="#DejaVuSans-54"/>
       <use x="63.623047" xlink:href="#DejaVuSans-48"/>
       <use x="127.246094" xlink:href="#DejaVuSans-48"/>
      </g>
     </g>
    </g>
    <g id="xtick_5">
     <g id="line2d_5">
      <g>
       <use style="stroke:#000000;stroke-width:0.8;" x="334.076852" xlink:href="#m30be1296ee" y="306.3024"/>
      </g>
     </g>
     <g id="text_5">
      <!-- 800 -->
      <defs>
       <path d="M 31.78125 34.625 
Q 24.75 34.625 20.71875 30.859375 
Q 16.703125 27.09375 16.703125 20.515625 
Q 16.703125 13.921875 20.71875 10.15625 
Q 24.75 6.390625 31.78125 6.390625 
Q 38.8125 6.390625 42.859375 10.171875 
Q 46.921875 13.96875 46.921875 20.515625 
Q 46.921875 27.09375 42.890625 30.859375 
Q 38.875 34.625 31.78125 34.625 
z
M 21.921875 38.8125 
Q 15.578125 40.375 12.03125 44.71875 
Q 8.5 49.078125 8.5 55.328125 
Q 8.5 64.0625 14.71875 69.140625 
Q 20.953125 74.21875 31.78125 74.21875 
Q 42.671875 74.21875 48.875 69.140625 
Q 55.078125 64.0625 55.078125 55.328125 
Q 55.078125 49.078125 51.53125 44.71875 
Q 48 40.375 41.703125 38.8125 
Q 48.828125 37.15625 52.796875 32.3125 
Q 56.78125 27.484375 56.78125 20.515625 
Q 56.78125 9.90625 50.3125 4.234375 
Q 43.84375 -1.421875 31.78125 -1.421875 
Q 19.734375 -1.421875 13.25 4.234375 
Q 6.78125 9.90625 6.78125 20.515625 
Q 6.78125 27.484375 10.78125 32.3125 
Q 14.796875 37.15625 21.921875 38.8125 
z
M 18.3125 54.390625 
Q 18.3125 48.734375 21.84375 45.5625 
Q 25.390625 42.390625 31.78125 42.390625 
Q 38.140625 42.390625 41.71875 45.5625 
Q 45.3125 48.734375 45.3125 54.390625 
Q 45.3125 60.0625 41.71875 63.234375 
Q 38.140625 66.40625 31.78125 66.40625 
Q 25.390625 66.40625 21.84375 63.234375 
Q 18.3125 60.0625 18.3125 54.390625 
z
" id="DejaVuSans-56"/>
      </defs>
      <g transform="translate(320.715602 323.940213)scale(0.14 -0.14)">
       <use xlink:href="#DejaVuSans-56"/>
       <use x="63.623047" xlink:href="#DejaVuSans-48"/>
       <use x="127.246094" xlink:href="#DejaVuSans-48"/>
      </g>
     </g>
    </g>
    <g id="xtick_6">
     <g id="line2d_6">
      <g>
       <use style="stroke:#000000;stroke-width:0.8;" x="399.137883" xlink:href="#m30be1296ee" y="306.3024"/>
      </g>
     </g>
     <g id="text_6">
      <!-- 1000 -->
      <defs>
       <path d="M 12.40625 8.296875 
L 28.515625 8.296875 
L 28.515625 63.921875 
L 10.984375 60.40625 
L 10.984375 69.390625 
L 28.421875 72.90625 
L 38.28125 72.90625 
L 38.28125 8.296875 
L 54.390625 8.296875 
L 54.390625 0 
L 12.40625 0 
z
" id="DejaVuSans-49"/>
      </defs>
      <g transform="translate(381.322883 323.940213)scale(0.14 -0.14)">
       <use xlink:href="#DejaVuSans-49"/>
       <use x="63.623047" xlink:href="#DejaVuSans-48"/>
       <use x="127.246094" xlink:href="#DejaVuSans-48"/>
       <use x="190.869141" xlink:href="#DejaVuSans-48"/>
      </g>
     </g>
    </g>
   </g>
   <g id="matplotlib.axis_2">
    <g id="ytick_1">
     <g id="line2d_7">
      <defs>
       <path d="M 0 0 
L -3.5 0 
" id="m0b672bebed" style="stroke:#000000;stroke-width:0.8;"/>
      </defs>
      <g>
       <use style="stroke:#000000;stroke-width:0.8;" x="57.6" xlink:href="#m0b672bebed" y="295.114138"/>
      </g>
     </g>
     <g id="text_7">
      <!-- 0 -->
      <g transform="translate(41.6925 300.433044)scale(0.14 -0.14)">
       <use xlink:href="#DejaVuSans-48"/>
      </g>
     </g>
    </g>
    <g id="ytick_2">
     <g id="line2d_8">
      <g>
       <use style="stroke:#000000;stroke-width:0.8;" x="57.6" xlink:href="#m0b672bebed" y="252.247234"/>
      </g>
     </g>
     <g id="text_8">
      <!-- 10 -->
      <g transform="translate(32.785 257.56614)scale(0.14 -0.14)">
       <use xlink:href="#DejaVuSans-49"/>
       <use x="63.623047" xlink:href="#DejaVuSans-48"/>
      </g>
     </g>
    </g>
    <g id="ytick_3">
     <g id="line2d_9">
      <g>
       <use style="stroke:#000000;stroke-width:0.8;" x="57.6" xlink:href="#m0b672bebed" y="209.38033"/>
      </g>
     </g>
     <g id="text_9">
      <!-- 20 -->
      <g transform="translate(32.785 214.699236)scale(0.14 -0.14)">
       <use xlink:href="#DejaVuSans-50"/>
       <use x="63.623047" xlink:href="#DejaVuSans-48"/>
      </g>
     </g>
    </g>
    <g id="ytick_4">
     <g id="line2d_10">
      <g>
       <use style="stroke:#000000;stroke-width:0.8;" x="57.6" xlink:href="#m0b672bebed" y="166.513426"/>
      </g>
     </g>
     <g id="text_10">
      <!-- 30 -->
      <defs>
       <path d="M 40.578125 39.3125 
Q 47.65625 37.796875 51.625 33 
Q 55.609375 28.21875 55.609375 21.1875 
Q 55.609375 10.40625 48.1875 4.484375 
Q 40.765625 -1.421875 27.09375 -1.421875 
Q 22.515625 -1.421875 17.65625 -0.515625 
Q 12.796875 0.390625 7.625 2.203125 
L 7.625 11.71875 
Q 11.71875 9.328125 16.59375 8.109375 
Q 21.484375 6.890625 26.8125 6.890625 
Q 36.078125 6.890625 40.9375 10.546875 
Q 45.796875 14.203125 45.796875 21.1875 
Q 45.796875 27.640625 41.28125 31.265625 
Q 36.765625 34.90625 28.71875 34.90625 
L 20.21875 34.90625 
L 20.21875 43.015625 
L 29.109375 43.015625 
Q 36.375 43.015625 40.234375 45.921875 
Q 44.09375 48.828125 44.09375 54.296875 
Q 44.09375 59.90625 40.109375 62.90625 
Q 36.140625 65.921875 28.71875 65.921875 
Q 24.65625 65.921875 20.015625 65.03125 
Q 15.375 64.15625 9.8125 62.3125 
L 9.8125 71.09375 
Q 15.4375 72.65625 20.34375 73.4375 
Q 25.25 74.21875 29.59375 74.21875 
Q 40.828125 74.21875 47.359375 69.109375 
Q 53.90625 64.015625 53.90625 55.328125 
Q 53.90625 49.265625 50.4375 45.09375 
Q 46.96875 40.921875 40.578125 39.3125 
z
" id="DejaVuSans-51"/>
      </defs>
      <g transform="translate(32.785 171.832333)scale(0.14 -0.14)">
       <use xlink:href="#DejaVuSans-51"/>
       <use x="63.623047" xlink:href="#DejaVuSans-48"/>
      </g>
     </g>
    </g>
    <g id="ytick_5">
     <g id="line2d_11">
      <g>
       <use style="stroke:#000000;stroke-width:0.8;" x="57.6" xlink:href="#m0b672bebed" y="123.646522"/>
      </g>
     </g>
     <g id="text_11">
      <!-- 40 -->
      <g transform="translate(32.785 128.965429)scale(0.14 -0.14)">
       <use xlink:href="#DejaVuSans-52"/>
       <use x="63.623047" xlink:href="#DejaVuSans-48"/>
      </g>
     </g>
    </g>
    <g id="ytick_6">
     <g id="line2d_12">
      <g>
       <use style="stroke:#000000;stroke-width:0.8;" x="57.6" xlink:href="#m0b672bebed" y="80.779619"/>
      </g>
     </g>
     <g id="text_12">
      <!-- 50 -->
      <defs>
       <path d="M 10.796875 72.90625 
L 49.515625 72.90625 
L 49.515625 64.59375 
L 19.828125 64.59375 
L 19.828125 46.734375 
Q 21.96875 47.46875 24.109375 47.828125 
Q 26.265625 48.1875 28.421875 48.1875 
Q 40.625 48.1875 47.75 41.5 
Q 54.890625 34.8125 54.890625 23.390625 
Q 54.890625 11.625 47.5625 5.09375 
Q 40.234375 -1.421875 26.90625 -1.421875 
Q 22.3125 -1.421875 17.546875 -0.640625 
Q 12.796875 0.140625 7.71875 1.703125 
L 7.71875 11.625 
Q 12.109375 9.234375 16.796875 8.0625 
Q 21.484375 6.890625 26.703125 6.890625 
Q 35.15625 6.890625 40.078125 11.328125 
Q 45.015625 15.765625 45.015625 23.390625 
Q 45.015625 31 40.078125 35.4375 
Q 35.15625 39.890625 26.703125 39.890625 
Q 22.75 39.890625 18.8125 39.015625 
Q 14.890625 38.140625 10.796875 36.28125 
z
" id="DejaVuSans-53"/>
      </defs>
      <g transform="translate(32.785 86.098525)scale(0.14 -0.14)">
       <use xlink:href="#DejaVuSans-53"/>
       <use x="63.623047" xlink:href="#DejaVuSans-48"/>
      </g>
     </g>
    </g>
   </g>
   <g id="line2d_13">
    <path clip-path="url(#p58894ac886)" d="M 73.832727 144.222636 
L 74.483338 53.3448 
L 74.808643 57.63149 
L 75.133948 67.062209 
L 75.784558 76.492928 
L 76.109863 79.92228 
L 76.435169 85.066309 
L 76.760474 84.208971 
L 77.411084 91.925014 
L 78.061694 87.638323 
L 78.386999 89.352999 
L 78.712305 91.925014 
L 79.03761 90.210337 
L 79.68822 101.355732 
L 80.013525 103.070409 
L 80.33883 109.071775 
L 80.664136 111.643789 
L 80.989441 118.502494 
L 81.314746 117.645156 
L 81.640051 122.789184 
L 81.965356 120.21717 
L 82.290661 124.50386 
L 82.615966 124.50386 
L 82.941272 126.218537 
L 83.266577 126.218537 
L 83.591882 129.647889 
L 83.917187 125.361199 
L 84.242492 124.50386 
L 84.567797 133.934579 
L 84.893103 136.506594 
L 85.218408 134.791917 
L 85.543713 137.363932 
L 85.869018 137.363932 
L 86.194323 133.077241 
L 87.495544 169.942779 
L 87.820849 181.088174 
L 88.146154 185.374864 
L 88.471459 183.660188 
L 88.796764 188.804216 
L 89.12207 188.804216 
L 89.77268 179.373498 
L 90.097985 184.517526 
L 90.42329 180.230836 
L 90.748595 184.517526 
L 91.073901 186.232202 
L 91.399206 192.233569 
L 92.049816 211.095006 
L 92.375121 209.38033 
L 92.700426 215.381697 
L 93.025731 214.524359 
L 93.351037 215.381697 
L 94.001647 211.095006 
L 94.326952 216.239035 
L 94.652257 227.38443 
L 94.977562 228.241768 
L 95.302868 231.67112 
L 95.628173 241.959177 
L 95.953478 237.672487 
L 96.278783 229.956444 
L 96.604088 229.956444 
L 96.929393 231.67112 
L 97.254698 228.241768 
L 97.580004 229.956444 
L 97.905309 227.38443 
L 98.230614 227.38443 
L 98.881224 225.669754 
L 99.206529 223.955078 
L 99.531835 228.241768 
L 99.85714 224.812416 
L 100.182445 227.38443 
L 100.50775 234.243135 
L 100.833055 237.672487 
L 101.15836 235.957811 
L 101.808971 241.101839 
L 102.134276 234.243135 
L 102.459581 240.244501 
L 102.784886 243.673853 
L 103.110191 245.38853 
L 103.435496 242.816515 
L 103.760802 244.531191 
L 104.086107 240.244501 
L 104.736717 245.38853 
L 105.062022 249.67522 
L 105.712633 253.96191 
L 106.037938 253.104572 
L 106.363243 250.532558 
L 106.688548 246.245868 
L 107.013853 248.817882 
L 107.339158 244.531191 
L 107.664463 242.816515 
L 107.989769 242.816515 
L 108.640379 239.387163 
L 108.965684 239.387163 
L 109.290989 243.673853 
L 109.616294 245.38853 
L 109.9416 247.960544 
L 110.266905 247.103206 
L 110.59221 249.67522 
L 110.917515 246.245868 
L 111.24282 247.103206 
L 111.89343 241.101839 
L 112.218736 243.673853 
L 113.194651 257.391263 
L 113.519956 259.105939 
L 114.170567 257.391263 
L 114.495872 253.104572 
L 114.821177 251.389896 
L 115.146482 253.96191 
L 115.471787 253.96191 
L 115.797092 250.532558 
L 116.122398 253.104572 
L 116.447703 250.532558 
L 116.773008 251.389896 
L 117.098313 246.245868 
L 117.423618 248.817882 
L 117.748923 247.103206 
L 118.074228 248.817882 
L 118.399534 247.103206 
L 118.724839 253.96191 
L 119.050144 255.676586 
L 119.375449 256.533925 
L 120.026059 256.533925 
L 120.351365 253.104572 
L 121.001975 254.819248 
L 121.32728 257.391263 
L 121.652585 254.819248 
L 121.97789 259.105939 
L 122.628501 246.245868 
L 122.953806 242.816515 
L 123.279111 243.673853 
L 123.604416 242.816515 
L 123.929721 247.103206 
L 124.255026 248.817882 
L 124.580332 253.104572 
L 124.905637 252.247234 
L 125.230942 245.38853 
L 125.556247 246.245868 
L 125.881552 248.817882 
L 126.206857 248.817882 
L 126.857468 259.963277 
L 127.508078 265.964643 
L 128.158688 260.820615 
L 128.483993 260.820615 
L 128.809299 256.533925 
L 129.134604 255.676586 
L 129.459909 257.391263 
L 129.785214 258.248601 
L 130.110519 259.963277 
L 130.435824 259.963277 
L 130.76113 260.820615 
L 131.086435 264.249967 
L 131.41174 265.964643 
L 131.737045 264.249967 
L 132.06235 268.536658 
L 132.387655 265.964643 
L 132.71296 265.107305 
L 133.363571 270.251334 
L 133.688876 269.393996 
L 134.014181 271.96601 
L 134.664791 264.249967 
L 134.990097 265.107305 
L 136.616622 277.967377 
L 136.941927 277.110038 
L 137.267233 275.395362 
L 137.592538 277.967377 
L 137.917843 282.254067 
L 138.243148 279.682053 
L 138.568453 279.682053 
L 138.893758 282.254067 
L 139.219064 283.111405 
L 139.544369 279.682053 
L 140.194979 277.967377 
L 140.520284 277.967377 
L 140.845589 273.680686 
L 141.4962 277.110038 
L 141.821505 280.539391 
L 142.14681 281.396729 
L 142.79742 277.967377 
L 143.122725 277.967377 
L 143.448031 273.680686 
L 143.773336 273.680686 
L 144.423946 279.682053 
L 144.749251 277.967377 
L 145.074556 278.824715 
L 145.399862 278.824715 
L 145.725167 277.110038 
L 146.050472 273.680686 
L 146.375777 274.538024 
L 146.701082 272.823348 
L 147.026387 271.96601 
L 147.351692 272.823348 
L 147.676998 272.823348 
L 148.002303 271.108672 
L 148.327608 272.823348 
L 148.652913 266.821981 
L 148.978218 265.107305 
L 149.303523 261.677953 
L 149.628829 263.392629 
L 149.954134 262.535291 
L 150.279439 268.536658 
L 150.930049 274.538024 
L 151.58066 279.682053 
L 151.905965 278.824715 
L 152.23127 279.682053 
L 152.556575 281.396729 
L 153.207185 272.823348 
L 153.53249 269.393996 
L 153.857796 267.67932 
L 154.183101 271.108672 
L 154.508406 277.110038 
L 154.833711 275.395362 
L 155.159016 275.395362 
L 155.484321 271.96601 
L 156.134932 263.392629 
L 156.460237 263.392629 
L 156.785542 264.249967 
L 157.110847 262.535291 
L 157.761457 260.820615 
L 158.086763 263.392629 
L 158.412068 264.249967 
L 159.062678 273.680686 
L 159.387983 277.110038 
L 160.038594 280.539391 
L 160.689204 278.824715 
L 161.014509 280.539391 
L 161.665119 284.826081 
L 162.31573 286.540757 
L 162.641035 283.111405 
L 162.96634 282.254067 
L 163.61695 283.968743 
L 163.942255 285.683419 
L 164.267561 284.826081 
L 164.592866 282.254067 
L 165.243476 280.539391 
L 165.568781 278.824715 
L 166.219392 282.254067 
L 166.544697 282.254067 
L 166.870002 279.682053 
L 167.195307 281.396729 
L 167.520612 281.396729 
L 167.845917 280.539391 
L 168.171222 277.967377 
L 168.496528 281.396729 
L 169.147138 281.396729 
L 169.472443 282.254067 
L 170.123053 285.683419 
L 170.448359 282.254067 
L 170.773664 283.111405 
L 171.098969 282.254067 
L 171.424274 283.111405 
L 172.074884 279.682053 
L 172.400189 274.538024 
L 172.725495 275.395362 
L 173.0508 272.823348 
L 173.376105 273.680686 
L 174.026715 282.254067 
L 174.35202 279.682053 
L 174.677326 280.539391 
L 175.002631 280.539391 
L 175.327936 277.110038 
L 175.653241 277.967377 
L 175.978546 281.396729 
L 176.303851 280.539391 
L 176.629156 276.2527 
L 176.954462 276.2527 
L 177.279767 273.680686 
L 177.605072 273.680686 
L 177.930377 275.395362 
L 178.906293 286.540757 
L 179.882208 286.540757 
L 180.207513 285.683419 
L 180.532818 283.968743 
L 181.508734 277.110038 
L 181.834039 271.96601 
L 182.159344 271.96601 
L 182.809954 275.395362 
L 183.460565 280.539391 
L 184.43648 275.395362 
L 184.761785 274.538024 
L 185.087091 274.538024 
L 185.412396 276.2527 
L 186.063006 277.967377 
L 186.388311 276.2527 
L 186.713616 277.967377 
L 187.038921 276.2527 
L 187.364227 273.680686 
L 187.689532 276.2527 
L 188.014837 277.110038 
L 188.340142 277.110038 
L 188.665447 275.395362 
L 188.990752 279.682053 
L 189.316058 277.967377 
L 189.641363 277.110038 
L 189.966668 273.680686 
L 190.291973 276.2527 
L 190.617278 275.395362 
L 190.942583 272.823348 
L 191.267889 273.680686 
L 191.593194 278.824715 
L 191.918499 278.824715 
L 192.243804 277.110038 
L 192.569109 282.254067 
L 193.219719 282.254067 
L 193.545025 279.682053 
L 193.87033 282.254067 
L 194.195635 277.967377 
L 194.846245 277.967377 
L 195.496856 273.680686 
L 195.822161 276.2527 
L 196.147466 277.110038 
L 196.472771 274.538024 
L 196.798076 281.396729 
L 197.123381 279.682053 
L 197.448686 278.824715 
L 198.099297 274.538024 
L 198.424602 273.680686 
L 198.749907 277.967377 
L 199.400517 273.680686 
L 199.725823 275.395362 
L 200.051128 275.395362 
L 200.376433 270.251334 
L 200.701738 269.393996 
L 201.027043 271.108672 
L 201.677653 267.67932 
L 202.002959 266.821981 
L 202.328264 269.393996 
L 202.653569 269.393996 
L 202.978874 271.96601 
L 203.304179 270.251334 
L 203.629484 276.2527 
L 204.280095 282.254067 
L 204.6054 276.2527 
L 204.930705 279.682053 
L 205.25601 275.395362 
L 205.581315 269.393996 
L 205.906621 266.821981 
L 206.231926 272.823348 
L 206.557231 268.536658 
L 206.882536 268.536658 
L 207.207841 266.821981 
L 207.533146 266.821981 
L 207.858451 264.249967 
L 208.183757 268.536658 
L 208.509062 271.108672 
L 209.159672 281.396729 
L 209.484977 285.683419 
L 209.810282 285.683419 
L 210.135588 286.540757 
L 210.786198 284.826081 
L 211.111503 283.111405 
L 211.436808 280.539391 
L 212.087418 271.96601 
L 212.412724 269.393996 
L 213.063334 267.67932 
L 213.713944 277.110038 
L 214.039249 277.110038 
L 214.68986 284.826081 
L 215.015165 282.254067 
L 215.34047 282.254067 
L 215.665775 283.111405 
L 216.316385 281.396729 
L 216.966996 285.683419 
L 217.292301 284.826081 
L 217.617606 283.111405 
L 217.942911 283.111405 
L 218.268216 280.539391 
L 218.593522 280.539391 
L 218.918827 283.968743 
L 219.244132 283.968743 
L 219.894742 285.683419 
L 220.220047 284.826081 
L 220.545353 279.682053 
L 220.870658 277.967377 
L 221.195963 274.538024 
L 221.521268 273.680686 
L 221.846573 271.96601 
L 222.822489 278.824715 
L 223.147794 280.539391 
L 223.473099 280.539391 
L 223.798404 282.254067 
L 224.123709 282.254067 
L 224.449014 281.396729 
L 224.77432 281.396729 
L 225.099625 283.968743 
L 225.42493 281.396729 
L 225.750235 280.539391 
L 226.07554 282.254067 
L 226.400845 282.254067 
L 226.72615 281.396729 
L 227.051456 283.968743 
L 227.376761 283.111405 
L 228.027371 284.826081 
L 228.352676 283.968743 
L 228.677981 283.968743 
L 229.003287 287.398095 
L 229.328592 288.255433 
L 229.653897 287.398095 
L 229.979202 287.398095 
L 230.304507 288.255433 
L 230.629812 287.398095 
L 230.955118 283.968743 
L 231.605728 283.968743 
L 231.931033 282.254067 
L 232.256338 283.968743 
L 232.906948 283.968743 
L 233.232254 285.683419 
L 233.882864 283.968743 
L 234.208169 284.826081 
L 234.533474 284.826081 
L 234.858779 283.968743 
L 235.184085 283.968743 
L 235.50939 283.111405 
L 236.16 284.826081 
L 236.485305 283.968743 
L 236.81061 286.540757 
L 237.135915 286.540757 
L 237.461221 284.826081 
L 237.786526 285.683419 
L 238.111831 285.683419 
L 238.437136 283.111405 
L 238.762441 283.968743 
L 239.087746 285.683419 
L 239.413052 283.968743 
L 239.738357 283.111405 
L 240.063662 285.683419 
L 240.714272 283.968743 
L 241.039577 284.826081 
L 241.364882 283.111405 
L 241.690188 277.967377 
L 242.015493 277.110038 
L 242.340798 277.967377 
L 242.666103 275.395362 
L 242.991408 279.682053 
L 243.316713 280.539391 
L 243.642019 279.682053 
L 243.967324 275.395362 
L 244.292629 277.967377 
L 244.617934 275.395362 
L 244.943239 277.110038 
L 245.268544 275.395362 
L 245.59385 279.682053 
L 245.919155 274.538024 
L 246.569765 272.823348 
L 246.89507 275.395362 
L 247.220375 275.395362 
L 247.870986 278.824715 
L 248.521596 277.110038 
L 248.846901 277.110038 
L 249.172206 275.395362 
L 249.497511 275.395362 
L 249.822817 276.2527 
L 250.148122 276.2527 
L 250.473427 272.823348 
L 250.798732 276.2527 
L 251.449342 279.682053 
L 252.425258 287.398095 
L 252.750563 285.683419 
L 253.401173 279.682053 
L 253.726478 278.824715 
L 254.377089 275.395362 
L 254.702394 280.539391 
L 255.027699 283.111405 
L 255.678309 284.826081 
L 256.003615 286.540757 
L 256.32892 287.398095 
L 256.654225 286.540757 
L 256.97953 284.826081 
L 257.304835 284.826081 
L 257.63014 283.968743 
L 257.955445 279.682053 
L 258.280751 279.682053 
L 258.606056 278.824715 
L 258.931361 277.110038 
L 259.256666 278.824715 
L 259.581971 282.254067 
L 259.907276 279.682053 
L 260.557887 286.540757 
L 260.883192 288.255433 
L 261.208497 283.968743 
L 261.533802 287.398095 
L 261.859107 288.255433 
L 262.184412 283.968743 
L 262.509718 282.254067 
L 262.835023 283.111405 
L 263.160328 282.254067 
L 263.485633 279.682053 
L 263.810938 283.111405 
L 264.136243 282.254067 
L 264.461549 283.968743 
L 264.786854 282.254067 
L 265.437464 283.968743 
L 265.762769 282.254067 
L 266.413379 280.539391 
L 266.738685 280.539391 
L 267.06399 278.824715 
L 267.389295 283.111405 
L 267.7146 282.254067 
L 268.039905 282.254067 
L 268.36521 280.539391 
L 268.690516 282.254067 
L 269.015821 279.682053 
L 269.341126 283.968743 
L 269.666431 286.540757 
L 269.991736 286.540757 
L 270.317041 285.683419 
L 270.642347 286.540757 
L 270.967652 285.683419 
L 271.292957 286.540757 
L 271.618262 288.255433 
L 271.943567 287.398095 
L 272.919483 282.254067 
L 273.244788 278.824715 
L 274.220703 278.824715 
L 274.546008 277.967377 
L 274.871314 275.395362 
L 275.196619 270.251334 
L 275.521924 267.67932 
L 275.847229 263.392629 
L 276.172534 264.249967 
L 276.823144 273.680686 
L 277.473755 285.683419 
L 278.124365 287.398095 
L 278.44967 289.112772 
L 279.100281 285.683419 
L 279.425586 284.826081 
L 279.750891 284.826081 
L 280.401501 281.396729 
L 280.726806 282.254067 
L 281.052111 281.396729 
L 281.377417 283.111405 
L 282.353332 283.111405 
L 282.678637 285.683419 
L 283.003942 282.254067 
L 283.329248 283.111405 
L 283.654553 284.826081 
L 283.979858 284.826081 
L 284.305163 283.111405 
L 284.630468 283.968743 
L 284.955773 283.111405 
L 285.281079 283.111405 
L 285.606384 282.254067 
L 286.907604 289.112772 
L 287.232909 289.97011 
L 287.88352 285.683419 
L 288.208825 284.826081 
L 288.53413 282.254067 
L 288.859435 281.396729 
L 289.510046 287.398095 
L 289.835351 289.112772 
L 290.160656 291.684786 
L 290.811266 289.97011 
L 291.136571 288.255433 
L 291.461876 283.968743 
L 291.787182 281.396729 
L 292.112487 283.111405 
L 292.437792 282.254067 
L 292.763097 283.111405 
L 293.413707 287.398095 
L 293.739013 285.683419 
L 294.064318 286.540757 
L 294.714928 281.396729 
L 295.040233 280.539391 
L 295.365538 282.254067 
L 295.690844 282.254067 
L 296.341454 286.540757 
L 296.666759 285.683419 
L 296.992064 285.683419 
L 297.317369 284.826081 
L 298.293285 287.398095 
L 298.943895 287.398095 
L 299.2692 286.540757 
L 299.594505 286.540757 
L 299.919811 285.683419 
L 300.245116 285.683419 
L 300.570421 286.540757 
L 300.895726 286.540757 
L 301.221031 284.826081 
L 301.546336 283.968743 
L 301.871641 284.826081 
L 302.522252 284.826081 
L 303.172862 288.255433 
L 303.498167 285.683419 
L 304.474083 283.111405 
L 304.799388 283.968743 
L 305.124693 283.968743 
L 305.449998 283.111405 
L 305.775303 283.111405 
L 306.425914 284.826081 
L 307.076524 289.112772 
L 307.401829 288.255433 
L 308.052439 283.111405 
L 308.377745 282.254067 
L 308.70305 280.539391 
L 309.678965 285.683419 
L 310.00427 286.540757 
L 310.329576 284.826081 
L 310.980186 286.540757 
L 311.305491 285.683419 
L 311.630796 283.968743 
L 311.956101 288.255433 
L 312.281406 286.540757 
L 312.606712 285.683419 
L 312.932017 283.111405 
L 313.257322 283.111405 
L 313.582627 279.682053 
L 313.907932 279.682053 
L 314.233237 277.967377 
L 314.558543 281.396729 
L 314.883848 279.682053 
L 315.209153 283.111405 
L 315.534458 280.539391 
L 315.859763 284.826081 
L 316.185068 284.826081 
L 316.510373 288.255433 
L 316.835679 285.683419 
L 317.160984 289.97011 
L 317.486289 289.97011 
L 319.112815 277.967377 
L 319.43812 279.682053 
L 319.763425 280.539391 
L 320.08873 284.826081 
L 320.414035 286.540757 
L 320.73934 286.540757 
L 321.389951 283.111405 
L 322.040561 278.824715 
L 322.365866 278.824715 
L 323.016477 283.968743 
L 323.341782 282.254067 
L 323.667087 283.968743 
L 323.992392 284.826081 
L 324.317697 283.968743 
L 324.643002 282.254067 
L 324.968308 285.683419 
L 325.293613 287.398095 
L 325.618918 288.255433 
L 325.944223 287.398095 
L 326.594833 289.112772 
L 326.920138 284.826081 
L 327.245444 283.111405 
L 328.221359 283.111405 
L 328.546664 286.540757 
L 328.871969 288.255433 
L 329.197275 289.112772 
L 329.52258 288.255433 
L 329.847885 286.540757 
L 330.17319 287.398095 
L 330.498495 287.398095 
L 330.8238 286.540757 
L 331.474411 288.255433 
L 332.125021 288.255433 
L 332.450326 289.112772 
L 333.100936 289.112772 
L 333.751547 285.683419 
L 334.076852 285.683419 
L 334.402157 283.968743 
L 334.727462 284.826081 
L 335.052767 284.826081 
L 335.378073 287.398095 
L 335.703378 288.255433 
L 336.028683 287.398095 
L 336.353988 285.683419 
L 336.679293 284.826081 
L 337.004598 282.254067 
L 337.329903 283.111405 
L 337.655209 284.826081 
L 337.980514 283.968743 
L 338.305819 284.826081 
L 338.631124 284.826081 
L 339.281734 281.396729 
L 339.60704 283.111405 
L 339.932345 279.682053 
L 340.25765 282.254067 
L 340.582955 283.111405 
L 340.90826 283.111405 
L 341.233565 282.254067 
L 341.55887 284.826081 
L 342.534786 277.967377 
L 342.860091 277.110038 
L 343.836007 277.110038 
L 344.161312 279.682053 
L 344.486617 279.682053 
L 344.811922 277.967377 
L 345.137227 277.110038 
L 345.462532 277.110038 
L 345.787837 277.967377 
L 346.113143 279.682053 
L 346.438448 280.539391 
L 346.763753 279.682053 
L 347.414363 281.396729 
L 348.390279 278.824715 
L 348.715584 279.682053 
L 349.040889 277.967377 
L 349.691499 277.967377 
L 350.016805 279.682053 
L 350.34211 277.967377 
L 350.667415 277.110038 
L 351.318025 280.539391 
L 352.293941 280.539391 
L 352.944551 278.824715 
L 353.269856 279.682053 
L 353.595161 282.254067 
L 353.920466 282.254067 
L 354.245772 280.539391 
L 354.571077 281.396729 
L 355.546992 274.538024 
L 355.872297 275.395362 
L 356.197602 273.680686 
L 356.522908 275.395362 
L 356.848213 275.395362 
L 357.498823 277.110038 
L 358.800044 286.540757 
L 359.125349 286.540757 
L 359.450654 284.826081 
L 359.775959 285.683419 
L 360.42657 282.254067 
L 360.751875 279.682053 
L 361.07718 282.254067 
L 361.402485 280.539391 
L 361.72779 279.682053 
L 362.3784 287.398095 
L 362.703706 285.683419 
L 363.354316 285.683419 
L 363.679621 281.396729 
L 364.004926 279.682053 
L 364.330231 279.682053 
L 364.980842 273.680686 
L 365.306147 275.395362 
L 365.631452 269.393996 
L 365.956757 267.67932 
L 366.282062 271.108672 
L 366.932673 272.823348 
L 367.257978 277.110038 
L 367.583283 277.110038 
L 368.233893 278.824715 
L 368.559198 274.538024 
L 369.860419 274.538024 
L 370.185724 277.967377 
L 370.511029 279.682053 
L 370.836334 280.539391 
L 371.16164 276.2527 
L 371.486945 274.538024 
L 371.81225 275.395362 
L 372.137555 271.96601 
L 372.46286 272.823348 
L 372.788165 277.110038 
L 373.113471 283.111405 
L 373.438776 281.396729 
L 373.764081 282.254067 
L 374.089386 278.824715 
L 374.414691 278.824715 
L 374.739996 273.680686 
L 375.065302 276.2527 
L 375.390607 276.2527 
L 375.715912 279.682053 
L 376.366522 277.967377 
L 376.691827 276.2527 
L 377.342438 274.538024 
L 377.667743 275.395362 
L 377.993048 277.967377 
L 378.318353 277.967377 
L 378.643658 281.396729 
L 379.294269 275.395362 
L 379.619574 276.2527 
L 379.944879 275.395362 
L 380.270184 275.395362 
L 380.920794 283.968743 
L 381.246099 283.968743 
L 381.571405 287.398095 
L 381.89671 287.398095 
L 382.54732 282.254067 
L 382.872625 283.111405 
L 383.523236 274.538024 
L 383.848541 274.538024 
L 384.173846 273.680686 
L 384.499151 271.108672 
L 384.824456 272.823348 
L 385.149761 276.2527 
L 385.475066 276.2527 
L 385.800372 277.110038 
L 386.776287 277.110038 
L 387.426897 275.395362 
L 387.752203 275.395362 
L 388.077508 276.2527 
L 388.402813 276.2527 
L 388.728118 280.539391 
L 389.053423 282.254067 
L 389.378728 282.254067 
L 389.704034 281.396729 
L 390.354644 273.680686 
L 390.679949 272.823348 
L 391.005254 272.823348 
L 391.330559 271.96601 
L 391.655864 271.96601 
L 391.98117 274.538024 
L 392.306475 275.395362 
L 392.63178 277.967377 
L 392.957085 277.967377 
L 393.28239 279.682053 
L 393.607695 277.967377 
L 393.933001 277.110038 
L 394.258306 273.680686 
L 394.583611 275.395362 
L 394.908916 275.395362 
L 395.234221 277.110038 
L 395.559526 277.110038 
L 395.884831 279.682053 
L 396.210137 274.538024 
L 396.535442 275.395362 
L 397.511357 268.536658 
L 397.836662 270.251334 
L 398.161968 273.680686 
L 398.487273 278.824715 
L 398.487273 278.824715 
" style="fill:none;stroke:#1f77b4;stroke-linecap:square;stroke-width:1.5;"/>
   </g>
   <g id="line2d_14">
    <path clip-path="url(#p58894ac886)" d="M 73.832727 151.938679 
L 74.483338 57.63149 
L 74.808643 54.202138 
L 75.133948 64.490195 
L 75.459253 64.490195 
L 75.784558 70.491562 
L 76.109863 70.491562 
L 76.435169 77.350266 
L 76.760474 77.350266 
L 77.411084 84.208971 
L 77.736389 84.208971 
L 78.386999 80.779619 
L 78.712305 77.350266 
L 79.03761 79.92228 
L 79.362915 88.495661 
L 79.68822 92.782352 
L 80.33883 108.214437 
L 80.664136 103.070409 
L 80.989441 103.927747 
L 81.314746 106.499761 
L 81.640051 105.642423 
L 81.965356 102.21307 
L 82.290661 105.642423 
L 82.615966 104.785085 
L 82.941272 108.214437 
L 83.266577 116.787818 
L 83.917187 141.650622 
L 84.242492 143.365298 
L 84.567797 152.796017 
L 84.893103 153.653355 
L 85.218408 157.082707 
L 85.543713 151.938679 
L 85.869018 151.938679 
L 86.519628 159.654722 
L 86.844934 162.226736 
L 87.495544 185.374864 
L 87.820849 181.088174 
L 88.146154 181.945512 
L 88.471459 177.658821 
L 88.796764 179.373498 
L 89.447375 185.374864 
L 90.42329 211.952344 
L 90.748595 215.381697 
L 91.399206 217.096373 
L 91.724511 213.667021 
L 92.375121 203.378964 
L 92.700426 207.665654 
L 93.025731 205.09364 
L 93.351037 205.950978 
L 93.676342 201.664288 
L 94.326952 212.809683 
L 94.652257 212.809683 
L 94.977562 211.952344 
L 95.628173 224.812416 
L 95.953478 220.525725 
L 96.929393 234.243135 
L 97.254698 229.099106 
L 97.580004 231.67112 
L 97.905309 228.241768 
L 98.555919 232.528458 
L 98.881224 231.67112 
L 99.206529 235.100473 
L 99.531835 235.100473 
L 99.85714 236.815149 
L 100.182445 233.385796 
L 100.50775 236.815149 
L 100.833055 232.528458 
L 101.15836 236.815149 
L 101.483666 235.957811 
L 101.808971 237.672487 
L 102.134276 240.244501 
L 102.459581 245.38853 
L 102.784886 247.103206 
L 103.110191 247.960544 
L 103.435496 252.247234 
L 103.760802 251.389896 
L 104.411412 245.38853 
L 104.736717 244.531191 
L 105.387327 238.529825 
L 105.712633 243.673853 
L 106.363243 249.67522 
L 106.688548 249.67522 
L 107.013853 254.819248 
L 107.339158 250.532558 
L 107.664463 251.389896 
L 107.989769 249.67522 
L 108.315074 253.104572 
L 108.640379 253.96191 
L 109.290989 259.963277 
L 109.616294 261.677953 
L 109.9416 259.105939 
L 110.266905 253.96191 
L 110.59221 254.819248 
L 110.917515 249.67522 
L 111.24282 253.104572 
L 111.568125 253.96191 
L 111.89343 260.820615 
L 112.218736 259.963277 
L 112.544041 267.67932 
L 112.869346 259.105939 
L 113.194651 263.392629 
L 113.519956 262.535291 
L 113.845261 262.535291 
L 114.170567 253.104572 
L 114.495872 257.391263 
L 115.146482 253.104572 
L 115.471787 253.104572 
L 116.122398 260.820615 
L 116.447703 261.677953 
L 116.773008 259.105939 
L 117.423618 264.249967 
L 118.074228 264.249967 
L 118.399534 265.107305 
L 118.724839 264.249967 
L 119.050144 264.249967 
L 119.700754 257.391263 
L 120.026059 262.535291 
L 120.351365 260.820615 
L 120.67667 260.820615 
L 121.001975 263.392629 
L 121.32728 267.67932 
L 121.652585 265.964643 
L 121.97789 265.964643 
L 122.303195 269.393996 
L 122.628501 267.67932 
L 122.953806 264.249967 
L 123.279111 263.392629 
L 123.604416 266.821981 
L 123.929721 261.677953 
L 124.255026 261.677953 
L 124.580332 264.249967 
L 125.230942 258.248601 
L 125.556247 260.820615 
L 125.881552 259.963277 
L 126.206857 258.248601 
L 126.532163 260.820615 
L 127.182773 260.820615 
L 127.508078 261.677953 
L 127.833383 263.392629 
L 128.158688 264.249967 
L 128.483993 269.393996 
L 129.134604 267.67932 
L 129.459909 262.535291 
L 129.785214 260.820615 
L 130.110519 257.391263 
L 130.435824 258.248601 
L 130.76113 260.820615 
L 131.737045 260.820615 
L 132.387655 259.105939 
L 132.71296 264.249967 
L 133.038266 265.964643 
L 133.363571 266.821981 
L 134.014181 266.821981 
L 134.339486 267.67932 
L 134.664791 265.964643 
L 134.990097 266.821981 
L 135.315402 268.536658 
L 135.640707 269.393996 
L 135.966012 268.536658 
L 136.291317 272.823348 
L 136.941927 276.2527 
L 137.592538 283.111405 
L 137.917843 284.826081 
L 138.243148 284.826081 
L 138.568453 285.683419 
L 138.893758 284.826081 
L 139.219064 284.826081 
L 139.544369 282.254067 
L 139.869674 281.396729 
L 140.194979 282.254067 
L 140.520284 282.254067 
L 141.170895 283.968743 
L 141.4962 285.683419 
L 142.14681 280.539391 
L 142.472115 271.108672 
L 142.79742 269.393996 
L 143.448031 265.107305 
L 144.098641 265.107305 
L 144.423946 263.392629 
L 144.749251 267.67932 
L 145.074556 266.821981 
L 145.399862 267.67932 
L 146.050472 273.680686 
L 146.375777 271.108672 
L 146.701082 271.108672 
L 147.026387 270.251334 
L 147.351692 271.96601 
L 147.676998 268.536658 
L 148.002303 266.821981 
L 148.327608 265.964643 
L 148.652913 264.249967 
L 148.978218 265.107305 
L 149.303523 269.393996 
L 149.954134 271.108672 
L 150.279439 273.680686 
L 150.930049 273.680686 
L 151.255354 270.251334 
L 151.58066 271.108672 
L 151.905965 269.393996 
L 152.23127 265.107305 
L 152.556575 263.392629 
L 152.88188 265.107305 
L 154.183101 275.395362 
L 154.508406 275.395362 
L 154.833711 274.538024 
L 155.159016 272.823348 
L 155.484321 277.110038 
L 155.809627 272.823348 
L 156.134932 271.108672 
L 156.460237 271.96601 
L 156.785542 275.395362 
L 157.110847 275.395362 
L 157.436152 279.682053 
L 157.761457 281.396729 
L 158.086763 281.396729 
L 158.412068 280.539391 
L 158.737373 281.396729 
L 159.062678 277.110038 
L 159.713288 278.824715 
L 160.038594 277.110038 
L 160.363899 273.680686 
L 161.014509 275.395362 
L 161.339814 273.680686 
L 162.641035 273.680686 
L 162.96634 275.395362 
L 163.291645 278.824715 
L 163.61695 280.539391 
L 163.942255 279.682053 
L 164.267561 279.682053 
L 164.592866 272.823348 
L 164.918171 271.96601 
L 165.568781 271.96601 
L 165.894086 271.108672 
L 166.219392 277.967377 
L 166.544697 277.967377 
L 166.870002 276.2527 
L 167.195307 276.2527 
L 167.520612 277.967377 
L 168.496528 271.108672 
L 168.821833 269.393996 
L 169.147138 265.964643 
L 169.472443 264.249967 
L 169.797748 265.964643 
L 170.123053 265.107305 
L 170.448359 265.107305 
L 170.773664 265.964643 
L 171.098969 269.393996 
L 171.424274 268.536658 
L 171.749579 272.823348 
L 172.074884 273.680686 
L 172.400189 275.395362 
L 173.0508 275.395362 
L 173.376105 274.538024 
L 173.70141 277.110038 
L 174.35202 278.824715 
L 174.677326 282.254067 
L 175.002631 283.111405 
L 175.327936 283.111405 
L 175.653241 283.968743 
L 175.978546 283.968743 
L 176.303851 281.396729 
L 176.629156 283.968743 
L 177.279767 285.683419 
L 177.605072 283.968743 
L 177.930377 285.683419 
L 178.255682 283.968743 
L 178.580987 283.111405 
L 178.906293 280.539391 
L 179.231598 279.682053 
L 179.556903 277.967377 
L 179.882208 277.110038 
L 180.207513 277.110038 
L 180.532818 272.823348 
L 180.858124 274.538024 
L 181.183429 275.395362 
L 181.508734 272.823348 
L 181.834039 272.823348 
L 182.159344 279.682053 
L 182.484649 279.682053 
L 182.809954 277.967377 
L 183.13526 278.824715 
L 183.460565 278.824715 
L 183.78587 277.110038 
L 184.111175 276.2527 
L 184.43648 279.682053 
L 184.761785 280.539391 
L 185.087091 282.254067 
L 185.412396 283.111405 
L 185.737701 285.683419 
L 186.388311 287.398095 
L 186.713616 286.540757 
L 187.364227 282.254067 
L 187.689532 281.396729 
L 188.014837 283.111405 
L 188.340142 281.396729 
L 188.665447 283.968743 
L 188.990752 283.968743 
L 189.316058 283.111405 
L 189.641363 279.682053 
L 190.291973 277.967377 
L 190.617278 276.2527 
L 190.942583 277.110038 
L 191.593194 284.826081 
L 191.918499 284.826081 
L 192.569109 286.540757 
L 192.894414 280.539391 
L 193.219719 277.967377 
L 193.545025 279.682053 
L 194.195635 277.967377 
L 194.52094 283.111405 
L 194.846245 285.683419 
L 195.17155 283.968743 
L 195.496856 287.398095 
L 195.822161 284.826081 
L 196.147466 280.539391 
L 196.472771 279.682053 
L 196.798076 281.396729 
L 197.123381 281.396729 
L 198.099297 290.827448 
L 198.424602 289.112772 
L 200.051128 284.826081 
L 200.376433 284.826081 
L 200.701738 283.968743 
L 201.027043 284.826081 
L 201.352348 283.968743 
L 201.677653 285.683419 
L 202.002959 284.826081 
L 202.328264 284.826081 
L 202.653569 285.683419 
L 203.304179 289.112772 
L 203.629484 289.112772 
L 203.95479 288.255433 
L 204.6054 284.826081 
L 204.930705 284.826081 
L 205.25601 286.540757 
L 205.581315 285.683419 
L 205.906621 282.254067 
L 206.231926 280.539391 
L 206.557231 275.395362 
L 206.882536 273.680686 
L 207.533146 279.682053 
L 207.858451 280.539391 
L 208.183757 283.968743 
L 208.509062 284.826081 
L 208.834367 283.111405 
L 209.159672 283.111405 
L 209.484977 284.826081 
L 209.810282 285.683419 
L 210.135588 280.539391 
L 211.436808 269.393996 
L 211.762113 274.538024 
L 212.087418 276.2527 
L 212.412724 278.824715 
L 212.738029 278.824715 
L 213.063334 282.254067 
L 213.388639 281.396729 
L 213.713944 284.826081 
L 214.039249 286.540757 
L 214.364555 286.540757 
L 214.68986 287.398095 
L 215.015165 287.398095 
L 215.34047 286.540757 
L 215.665775 286.540757 
L 215.99108 287.398095 
L 216.316385 286.540757 
L 216.641691 288.255433 
L 216.966996 286.540757 
L 217.617606 288.255433 
L 217.942911 285.683419 
L 218.268216 280.539391 
L 218.918827 278.824715 
L 219.244132 274.538024 
L 219.569437 278.824715 
L 219.894742 284.826081 
L 220.220047 286.540757 
L 220.545353 286.540757 
L 220.870658 289.97011 
L 221.195963 285.683419 
L 221.846573 281.396729 
L 222.171878 282.254067 
L 222.497183 282.254067 
L 222.822489 286.540757 
L 223.147794 287.398095 
L 223.473099 289.112772 
L 224.123709 289.112772 
L 225.42493 277.967377 
L 225.750235 278.824715 
L 226.07554 278.824715 
L 226.400845 276.2527 
L 227.051456 282.254067 
L 227.376761 281.396729 
L 227.702066 279.682053 
L 228.027371 283.968743 
L 228.352676 282.254067 
L 228.677981 283.111405 
L 229.003287 282.254067 
L 229.653897 285.683419 
L 229.979202 288.255433 
L 230.304507 289.112772 
L 230.955118 287.398095 
L 231.280423 287.398095 
L 231.605728 285.683419 
L 231.931033 281.396729 
L 232.581643 284.826081 
L 232.906948 284.826081 
L 233.232254 285.683419 
L 233.557559 282.254067 
L 233.882864 283.111405 
L 234.533474 281.396729 
L 234.858779 278.824715 
L 235.184085 284.826081 
L 235.50939 283.111405 
L 235.834695 283.111405 
L 236.16 278.824715 
L 236.485305 280.539391 
L 237.135915 280.539391 
L 237.461221 281.396729 
L 237.786526 285.683419 
L 238.111831 286.540757 
L 238.437136 285.683419 
L 238.762441 283.968743 
L 239.087746 284.826081 
L 239.413052 284.826081 
L 240.063662 281.396729 
L 240.388967 282.254067 
L 240.714272 281.396729 
L 241.039577 282.254067 
L 241.364882 283.968743 
L 241.690188 284.826081 
L 242.340798 288.255433 
L 242.666103 287.398095 
L 242.991408 288.255433 
L 243.316713 290.827448 
L 243.642019 290.827448 
L 243.967324 289.97011 
L 244.292629 291.684786 
L 244.617934 289.112772 
L 244.943239 288.255433 
L 245.268544 289.97011 
L 245.919155 286.540757 
L 246.569765 289.97011 
L 246.89507 286.540757 
L 247.220375 286.540757 
L 247.54568 285.683419 
L 247.870986 283.968743 
L 248.196291 283.111405 
L 248.521596 285.683419 
L 248.846901 284.826081 
L 249.172206 285.683419 
L 249.497511 287.398095 
L 249.822817 287.398095 
L 250.148122 284.826081 
L 250.473427 286.540757 
L 250.798732 286.540757 
L 251.124037 287.398095 
L 251.449342 286.540757 
L 251.774647 288.255433 
L 252.099953 287.398095 
L 252.425258 288.255433 
L 252.750563 286.540757 
L 253.075868 287.398095 
L 253.401173 287.398095 
L 253.726478 289.112772 
L 254.051784 287.398095 
L 254.377089 282.254067 
L 255.027699 282.254067 
L 255.353004 281.396729 
L 255.678309 282.254067 
L 256.003615 286.540757 
L 256.97953 286.540757 
L 257.304835 284.826081 
L 257.955445 284.826081 
L 258.280751 285.683419 
L 258.606056 283.968743 
L 258.931361 281.396729 
L 259.256666 280.539391 
L 259.581971 276.2527 
L 259.907276 274.538024 
L 260.232582 276.2527 
L 260.883192 284.826081 
L 261.208497 289.112772 
L 261.533802 289.97011 
L 261.859107 289.97011 
L 262.509718 286.540757 
L 262.835023 287.398095 
L 263.160328 287.398095 
L 263.485633 288.255433 
L 263.810938 288.255433 
L 264.136243 289.112772 
L 264.461549 289.112772 
L 264.786854 289.97011 
L 265.112159 289.112772 
L 265.437464 291.684786 
L 265.762769 289.97011 
L 266.088074 287.398095 
L 266.413379 288.255433 
L 267.06399 283.111405 
L 267.389295 283.968743 
L 267.7146 286.540757 
L 268.039905 284.826081 
L 268.36521 284.826081 
L 268.690516 285.683419 
L 269.015821 287.398095 
L 269.341126 285.683419 
L 269.666431 284.826081 
L 269.991736 288.255433 
L 270.317041 287.398095 
L 270.642347 285.683419 
L 270.967652 285.683419 
L 271.292957 286.540757 
L 271.618262 285.683419 
L 272.268872 289.97011 
L 272.919483 288.255433 
L 273.244788 289.112772 
L 273.570093 286.540757 
L 274.546008 286.540757 
L 274.871314 283.968743 
L 275.196619 284.826081 
L 275.521924 283.968743 
L 275.847229 286.540757 
L 276.172534 286.540757 
L 276.497839 288.255433 
L 276.823144 288.255433 
L 277.14845 284.826081 
L 277.473755 284.826081 
L 278.124365 286.540757 
L 278.44967 288.255433 
L 278.774975 291.684786 
L 279.100281 289.97011 
L 279.750891 289.97011 
L 280.076196 289.112772 
L 280.401501 286.540757 
L 280.726806 287.398095 
L 282.353332 287.398095 
L 282.678637 288.255433 
L 283.003942 288.255433 
L 283.329248 287.398095 
L 283.654553 287.398095 
L 283.979858 288.255433 
L 284.630468 286.540757 
L 284.955773 284.826081 
L 285.281079 286.540757 
L 285.606384 284.826081 
L 285.931689 286.540757 
L 286.256994 286.540757 
L 286.907604 290.827448 
L 287.232909 291.684786 
L 287.558215 290.827448 
L 287.88352 292.542124 
L 288.53413 289.112772 
L 288.859435 289.112772 
L 289.18474 289.97011 
L 289.510046 288.255433 
L 289.835351 289.112772 
L 290.485961 287.398095 
L 290.811266 284.826081 
L 291.136571 285.683419 
L 291.461876 287.398095 
L 291.787182 285.683419 
L 292.112487 285.683419 
L 292.437792 287.398095 
L 292.763097 285.683419 
L 293.088402 284.826081 
L 293.413707 289.112772 
L 293.739013 287.398095 
L 294.064318 286.540757 
L 294.389623 286.540757 
L 294.714928 285.683419 
L 295.040233 282.254067 
L 296.341454 282.254067 
L 296.666759 284.826081 
L 297.317369 286.540757 
L 297.642674 288.255433 
L 297.96798 289.112772 
L 298.293285 288.255433 
L 298.61859 289.112772 
L 298.943895 287.398095 
L 299.594505 287.398095 
L 300.570421 292.542124 
L 301.221031 292.542124 
L 301.546336 289.112772 
L 301.871641 287.398095 
L 302.196947 287.398095 
L 302.847557 289.112772 
L 303.172862 289.112772 
L 303.498167 288.255433 
L 303.823472 284.826081 
L 304.474083 281.396729 
L 304.799388 282.254067 
L 305.124693 281.396729 
L 305.449998 283.968743 
L 305.775303 284.826081 
L 306.100608 284.826081 
L 306.425914 285.683419 
L 306.751219 289.112772 
L 307.076524 290.827448 
L 307.401829 289.97011 
L 307.727134 290.827448 
L 308.377745 285.683419 
L 308.70305 285.683419 
L 309.028355 287.398095 
L 309.35366 287.398095 
L 309.678965 289.97011 
L 310.00427 290.827448 
L 310.329576 289.97011 
L 310.654881 286.540757 
L 310.980186 285.683419 
L 311.305491 285.683419 
L 311.630796 284.826081 
L 311.956101 282.254067 
L 312.281406 283.111405 
L 313.257322 283.111405 
L 313.907932 287.398095 
L 314.558543 289.112772 
L 314.883848 290.827448 
L 315.534458 290.827448 
L 315.859763 284.826081 
L 316.185068 283.111405 
L 316.510373 283.111405 
L 316.835679 283.968743 
L 317.160984 283.111405 
L 317.486289 289.112772 
L 317.811594 288.255433 
L 318.462204 280.539391 
L 318.78751 280.539391 
L 319.112815 279.682053 
L 319.43812 281.396729 
L 320.08873 287.398095 
L 320.414035 286.540757 
L 320.73934 287.398095 
L 321.715256 284.826081 
L 322.040561 285.683419 
L 322.365866 284.826081 
L 323.016477 286.540757 
L 323.341782 286.540757 
L 323.667087 285.683419 
L 323.992392 287.398095 
L 324.317697 287.398095 
L 324.643002 286.540757 
L 324.968308 288.255433 
L 325.293613 289.112772 
L 325.618918 287.398095 
L 325.944223 287.398095 
L 326.269528 288.255433 
L 326.594833 286.540757 
L 326.920138 288.255433 
L 327.896054 288.255433 
L 328.221359 287.398095 
L 328.546664 284.826081 
L 328.871969 286.540757 
L 329.197275 287.398095 
L 329.52258 287.398095 
L 330.17319 291.684786 
L 330.8238 287.398095 
L 331.149105 288.255433 
L 331.474411 288.255433 
L 331.799716 287.398095 
L 332.450326 290.827448 
L 332.775631 291.684786 
L 333.100936 289.112772 
L 333.426242 289.97011 
L 333.751547 289.97011 
L 334.076852 286.540757 
L 334.402157 284.826081 
L 334.727462 286.540757 
L 335.052767 285.683419 
L 335.378073 283.968743 
L 335.703378 287.398095 
L 336.028683 288.255433 
L 336.353988 287.398095 
L 336.679293 288.255433 
L 337.004598 288.255433 
L 337.329903 287.398095 
L 337.980514 283.968743 
L 338.305819 281.396729 
L 338.956429 283.111405 
L 339.281734 284.826081 
L 339.60704 284.826081 
L 339.932345 283.111405 
L 340.25765 283.968743 
L 340.582955 283.968743 
L 340.90826 283.111405 
L 341.884176 285.683419 
L 342.209481 284.826081 
L 342.534786 284.826081 
L 342.860091 286.540757 
L 343.185396 289.97011 
L 343.510701 288.255433 
L 343.836007 289.97011 
L 344.811922 287.398095 
L 345.137227 288.255433 
L 345.462532 283.968743 
L 346.438448 286.540757 
L 346.763753 285.683419 
L 347.089058 285.683419 
L 347.739668 281.396729 
L 348.064974 280.539391 
L 348.390279 281.396729 
L 348.715584 284.826081 
L 349.040889 285.683419 
L 349.366194 287.398095 
L 350.016805 287.398095 
L 350.34211 285.683419 
L 350.667415 287.398095 
L 350.99272 285.683419 
L 351.64333 287.398095 
L 351.968635 289.112772 
L 352.293941 288.255433 
L 352.619246 290.827448 
L 352.944551 290.827448 
L 353.595161 289.112772 
L 353.920466 291.684786 
L 354.571077 291.684786 
L 354.896382 290.827448 
L 355.221687 290.827448 
L 355.546992 288.255433 
L 355.872297 287.398095 
L 356.197602 288.255433 
L 356.522908 287.398095 
L 356.848213 289.112772 
L 357.173518 289.112772 
L 357.498823 289.97011 
L 357.824128 288.255433 
L 358.149433 289.112772 
L 358.474739 289.112772 
L 358.800044 288.255433 
L 359.125349 288.255433 
L 359.450654 289.97011 
L 359.775959 290.827448 
L 360.101264 289.97011 
L 360.42657 290.827448 
L 360.751875 289.97011 
L 361.07718 287.398095 
L 361.402485 286.540757 
L 361.72779 286.540757 
L 362.053095 289.112772 
L 362.3784 288.255433 
L 363.354316 288.255433 
L 363.679621 284.826081 
L 364.004926 285.683419 
L 364.330231 287.398095 
L 364.655537 286.540757 
L 364.980842 286.540757 
L 365.306147 289.97011 
L 365.631452 289.112772 
L 365.956757 289.97011 
L 366.282062 291.684786 
L 366.932673 291.684786 
L 367.257978 292.542124 
L 367.908588 292.542124 
L 368.233893 291.684786 
L 368.559198 289.112772 
L 369.209809 289.112772 
L 369.535114 286.540757 
L 369.860419 285.683419 
L 370.836334 285.683419 
L 371.81225 292.542124 
L 372.137555 292.542124 
L 372.46286 289.97011 
L 372.788165 290.827448 
L 373.113471 290.827448 
L 373.764081 289.112772 
L 374.089386 289.97011 
L 374.414691 289.112772 
L 374.739996 287.398095 
L 375.065302 287.398095 
L 375.390607 284.826081 
L 375.715912 285.683419 
L 376.041217 284.826081 
L 376.366522 284.826081 
L 376.691827 285.683419 
L 377.017132 288.255433 
L 377.342438 289.112772 
L 377.667743 288.255433 
L 377.993048 288.255433 
L 378.318353 289.112772 
L 378.643658 288.255433 
L 378.968963 284.826081 
L 379.294269 285.683419 
L 379.619574 283.968743 
L 380.270184 277.967377 
L 381.89671 286.540757 
L 382.222015 287.398095 
L 382.54732 285.683419 
L 382.872625 286.540757 
L 383.19793 286.540757 
L 383.523236 287.398095 
L 383.848541 282.254067 
L 384.173846 280.539391 
L 384.499151 281.396729 
L 384.824456 280.539391 
L 385.149761 282.254067 
L 385.475066 286.540757 
L 385.800372 287.398095 
L 386.125677 286.540757 
L 386.450982 286.540757 
L 387.101592 289.97011 
L 387.426897 290.827448 
L 387.752203 289.97011 
L 388.077508 290.827448 
L 388.728118 289.112772 
L 389.053423 289.97011 
L 389.378728 291.684786 
L 389.704034 292.542124 
L 390.029339 291.684786 
L 390.679949 291.684786 
L 391.005254 290.827448 
L 391.330559 289.112772 
L 392.306475 289.112772 
L 392.63178 288.255433 
L 392.957085 289.97011 
L 393.28239 289.97011 
L 393.607695 290.827448 
L 393.933001 289.97011 
L 394.258306 290.827448 
L 394.583611 286.540757 
L 394.908916 287.398095 
L 395.234221 283.968743 
L 395.884831 283.968743 
L 396.210137 287.398095 
L 396.535442 286.540757 
L 396.860747 287.398095 
L 397.186052 287.398095 
L 397.511357 288.255433 
L 397.836662 286.540757 
L 398.161968 288.255433 
L 398.487273 290.827448 
L 398.487273 290.827448 
" style="fill:none;stroke:#ff7f0e;stroke-linecap:square;stroke-width:1.5;"/>
   </g>
   <g id="line2d_15">
    <path clip-path="url(#p58894ac886)" d="M 73.832727 162.226736 
L 74.483338 74.778252 
L 74.808643 74.778252 
L 75.133948 75.63559 
L 76.435169 90.210337 
L 76.760474 99.641056 
L 77.411084 108.214437 
L 77.736389 109.929113 
L 78.712305 86.780985 
L 79.03761 91.067675 
L 79.68822 102.21307 
L 80.013525 102.21307 
L 80.33883 103.927747 
L 80.989441 91.067675 
L 81.640051 104.785085 
L 82.615966 121.931846 
L 82.941272 128.790551 
L 83.266577 133.077241 
L 83.591882 135.649256 
L 83.917187 147.651989 
L 84.242492 150.224003 
L 84.567797 146.794651 
L 85.218408 159.654722 
L 85.543713 158.797384 
L 85.869018 158.797384 
L 86.519628 169.085441 
L 88.796764 187.946878 
L 89.12207 193.090907 
L 89.77268 187.08954 
L 90.097985 188.804216 
L 90.748595 187.08954 
L 91.073901 200.806949 
L 91.399206 206.808316 
L 91.724511 204.236302 
L 92.049816 208.522992 
L 92.375121 208.522992 
L 92.700426 205.09364 
L 93.025731 205.950978 
L 93.351037 216.239035 
L 93.676342 217.096373 
L 94.001647 225.669754 
L 94.326952 227.38443 
L 94.652257 230.813782 
L 94.977562 229.956444 
L 95.302868 229.956444 
L 95.953478 222.240401 
L 96.278783 225.669754 
L 96.604088 218.811049 
L 96.929393 216.239035 
L 97.254698 217.953711 
L 97.580004 225.669754 
L 97.905309 224.812416 
L 98.230614 233.385796 
L 98.555919 237.672487 
L 98.881224 239.387163 
L 99.206529 235.957811 
L 99.531835 235.957811 
L 99.85714 229.099106 
L 100.50775 230.813782 
L 100.833055 233.385796 
L 101.15836 231.67112 
L 101.483666 238.529825 
L 102.134276 247.960544 
L 102.459581 244.531191 
L 102.784886 247.103206 
L 103.110191 242.816515 
L 103.760802 236.815149 
L 104.086107 243.673853 
L 104.411412 241.101839 
L 105.062022 250.532558 
L 105.387327 246.245868 
L 105.712633 243.673853 
L 106.037938 249.67522 
L 106.363243 253.104572 
L 106.688548 253.104572 
L 107.013853 258.248601 
L 107.339158 259.963277 
L 107.664463 256.533925 
L 107.989769 254.819248 
L 108.315074 250.532558 
L 109.290989 255.676586 
L 109.9416 248.817882 
L 110.266905 248.817882 
L 110.59221 245.38853 
L 110.917515 249.67522 
L 111.24282 247.103206 
L 111.568125 253.96191 
L 111.89343 251.389896 
L 112.218736 257.391263 
L 112.544041 250.532558 
L 112.869346 255.676586 
L 113.194651 256.533925 
L 113.519956 259.105939 
L 113.845261 257.391263 
L 114.170567 262.535291 
L 114.495872 261.677953 
L 114.821177 253.96191 
L 115.146482 253.104572 
L 115.471787 254.819248 
L 115.797092 251.389896 
L 116.122398 256.533925 
L 116.447703 265.964643 
L 116.773008 268.536658 
L 117.423618 268.536658 
L 117.748923 265.107305 
L 118.074228 265.107305 
L 118.399534 261.677953 
L 118.724839 259.963277 
L 119.050144 265.107305 
L 119.375449 263.392629 
L 119.700754 265.107305 
L 120.026059 265.107305 
L 120.351365 261.677953 
L 121.001975 258.248601 
L 121.32728 253.96191 
L 121.652585 258.248601 
L 121.97789 259.963277 
L 122.303195 260.820615 
L 122.628501 265.107305 
L 123.279111 263.392629 
L 123.604416 264.249967 
L 123.929721 264.249967 
L 124.255026 260.820615 
L 124.905637 266.821981 
L 125.230942 268.536658 
L 125.556247 268.536658 
L 125.881552 272.823348 
L 126.206857 271.96601 
L 126.532163 266.821981 
L 126.857468 267.67932 
L 127.508078 267.67932 
L 127.833383 265.964643 
L 128.158688 271.96601 
L 128.483993 273.680686 
L 128.809299 268.536658 
L 129.459909 265.107305 
L 129.785214 259.963277 
L 130.110519 258.248601 
L 130.435824 263.392629 
L 130.76113 263.392629 
L 131.41174 274.538024 
L 131.737045 271.108672 
L 132.387655 271.108672 
L 133.038266 262.535291 
L 133.363571 264.249967 
L 134.014181 268.536658 
L 134.339486 268.536658 
L 135.315402 259.105939 
L 135.640707 256.533925 
L 135.966012 257.391263 
L 136.616622 266.821981 
L 136.941927 265.107305 
L 137.267233 264.249967 
L 138.568453 253.96191 
L 138.893758 255.676586 
L 139.869674 258.248601 
L 140.194979 260.820615 
L 140.520284 260.820615 
L 141.170895 262.535291 
L 141.821505 268.536658 
L 142.14681 266.821981 
L 142.472115 264.249967 
L 142.79742 265.964643 
L 143.122725 265.107305 
L 143.448031 263.392629 
L 143.773336 265.107305 
L 144.098641 269.393996 
L 144.423946 267.67932 
L 145.074556 269.393996 
L 145.725167 277.110038 
L 146.050472 277.967377 
L 146.375777 277.110038 
L 146.701082 277.967377 
L 147.026387 274.538024 
L 147.351692 269.393996 
L 147.676998 268.536658 
L 148.002303 261.677953 
L 148.327608 260.820615 
L 148.652913 258.248601 
L 148.978218 257.391263 
L 149.303523 254.819248 
L 149.628829 257.391263 
L 149.954134 258.248601 
L 150.279439 259.963277 
L 150.604744 258.248601 
L 150.930049 260.820615 
L 151.255354 265.964643 
L 151.58066 265.964643 
L 151.905965 266.821981 
L 152.23127 271.96601 
L 152.556575 274.538024 
L 152.88188 271.108672 
L 153.207185 272.823348 
L 153.857796 277.967377 
L 154.183101 277.110038 
L 154.508406 283.111405 
L 154.833711 283.111405 
L 155.159016 280.539391 
L 155.484321 276.2527 
L 155.809627 275.395362 
L 156.460237 265.107305 
L 156.785542 265.964643 
L 158.086763 277.110038 
L 158.412068 275.395362 
L 159.062678 273.680686 
L 159.387983 271.108672 
L 159.713288 271.96601 
L 160.038594 276.2527 
L 160.363899 277.110038 
L 161.014509 282.254067 
L 161.339814 282.254067 
L 162.31573 277.110038 
L 162.641035 277.110038 
L 162.96634 276.2527 
L 163.291645 274.538024 
L 163.61695 275.395362 
L 163.942255 277.110038 
L 164.592866 273.680686 
L 164.918171 275.395362 
L 165.243476 271.96601 
L 165.568781 271.96601 
L 166.219392 276.2527 
L 166.544697 276.2527 
L 166.870002 280.539391 
L 167.195307 277.967377 
L 167.520612 277.967377 
L 167.845917 279.682053 
L 168.171222 276.2527 
L 168.496528 275.395362 
L 168.821833 277.110038 
L 169.147138 277.110038 
L 169.472443 274.538024 
L 170.123053 282.254067 
L 170.448359 283.111405 
L 171.424274 283.111405 
L 171.749579 279.682053 
L 172.074884 278.824715 
L 172.400189 277.110038 
L 172.725495 281.396729 
L 173.376105 281.396729 
L 174.026715 283.111405 
L 174.35202 277.967377 
L 174.677326 277.110038 
L 175.002631 281.396729 
L 175.327936 278.824715 
L 175.653241 277.967377 
L 176.303851 283.968743 
L 176.629156 280.539391 
L 176.954462 281.396729 
L 177.279767 283.968743 
L 177.605072 282.254067 
L 177.930377 277.967377 
L 178.255682 275.395362 
L 178.580987 275.395362 
L 179.231598 270.251334 
L 179.556903 270.251334 
L 179.882208 271.96601 
L 180.207513 274.538024 
L 180.532818 275.395362 
L 180.858124 275.395362 
L 181.508734 278.824715 
L 181.834039 276.2527 
L 182.159344 277.110038 
L 182.484649 280.539391 
L 182.809954 280.539391 
L 183.13526 277.110038 
L 183.460565 277.110038 
L 183.78587 274.538024 
L 184.111175 274.538024 
L 184.43648 271.108672 
L 184.761785 274.538024 
L 185.087091 272.823348 
L 185.412396 274.538024 
L 185.737701 273.680686 
L 186.063006 276.2527 
L 186.713616 272.823348 
L 187.364227 267.67932 
L 187.689532 266.821981 
L 188.014837 265.107305 
L 188.340142 267.67932 
L 188.990752 276.2527 
L 189.641363 283.968743 
L 189.966668 283.968743 
L 191.593194 271.96601 
L 191.918499 271.96601 
L 192.243804 272.823348 
L 192.569109 277.110038 
L 192.894414 277.967377 
L 193.219719 281.396729 
L 193.545025 280.539391 
L 193.87033 280.539391 
L 194.195635 276.2527 
L 195.17155 276.2527 
L 195.496856 275.395362 
L 195.822161 277.110038 
L 196.147466 277.967377 
L 196.472771 274.538024 
L 196.798076 276.2527 
L 197.123381 279.682053 
L 197.448686 280.539391 
L 198.099297 283.968743 
L 198.424602 282.254067 
L 198.749907 277.110038 
L 199.400517 271.96601 
L 199.725823 275.395362 
L 200.051128 277.110038 
L 200.376433 282.254067 
L 200.701738 283.968743 
L 201.352348 283.968743 
L 202.002959 277.967377 
L 202.328264 276.2527 
L 202.653569 277.967377 
L 202.978874 274.538024 
L 203.304179 275.395362 
L 203.629484 277.110038 
L 203.95479 277.110038 
L 204.280095 278.824715 
L 204.930705 278.824715 
L 205.25601 277.967377 
L 205.581315 278.824715 
L 205.906621 278.824715 
L 206.557231 284.826081 
L 206.882536 286.540757 
L 207.207841 287.398095 
L 207.533146 286.540757 
L 207.858451 284.826081 
L 208.183757 287.398095 
L 208.509062 284.826081 
L 208.834367 286.540757 
L 209.159672 283.968743 
L 209.484977 283.111405 
L 209.810282 279.682053 
L 210.135588 280.539391 
L 210.460893 282.254067 
L 210.786198 283.111405 
L 211.111503 283.111405 
L 211.436808 282.254067 
L 211.762113 283.111405 
L 212.087418 279.682053 
L 212.412724 279.682053 
L 213.063334 283.111405 
L 213.388639 283.968743 
L 213.713944 283.111405 
L 214.039249 283.111405 
L 214.364555 284.826081 
L 215.015165 279.682053 
L 215.34047 282.254067 
L 215.665775 282.254067 
L 215.99108 279.682053 
L 216.316385 280.539391 
L 216.641691 283.111405 
L 216.966996 282.254067 
L 217.292301 282.254067 
L 217.617606 283.111405 
L 217.942911 285.683419 
L 218.268216 282.254067 
L 218.918827 278.824715 
L 219.244132 276.2527 
L 219.569437 276.2527 
L 220.220047 277.967377 
L 220.545353 277.110038 
L 220.870658 277.967377 
L 221.521268 273.680686 
L 221.846573 275.395362 
L 222.171878 278.824715 
L 222.822489 278.824715 
L 223.147794 279.682053 
L 223.473099 278.824715 
L 224.123709 280.539391 
L 224.449014 282.254067 
L 225.099625 280.539391 
L 225.42493 277.110038 
L 225.750235 277.967377 
L 226.07554 277.110038 
L 226.72615 280.539391 
L 227.051456 280.539391 
L 227.702066 275.395362 
L 228.027371 275.395362 
L 228.352676 271.108672 
L 228.677981 271.108672 
L 229.328592 274.538024 
L 229.653897 275.395362 
L 229.979202 272.823348 
L 230.304507 274.538024 
L 230.629812 273.680686 
L 230.955118 271.96601 
L 231.280423 271.96601 
L 231.605728 278.824715 
L 232.256338 278.824715 
L 232.581643 279.682053 
L 232.906948 279.682053 
L 233.232254 280.539391 
L 233.557559 280.539391 
L 233.882864 281.396729 
L 234.208169 285.683419 
L 234.533474 287.398095 
L 234.858779 284.826081 
L 235.184085 285.683419 
L 235.50939 284.826081 
L 235.834695 277.110038 
L 236.16 275.395362 
L 236.485305 275.395362 
L 236.81061 272.823348 
L 237.135915 271.96601 
L 237.461221 278.824715 
L 237.786526 279.682053 
L 238.111831 278.824715 
L 238.437136 281.396729 
L 238.762441 282.254067 
L 239.087746 281.396729 
L 239.738357 277.110038 
L 240.063662 276.2527 
L 240.714272 276.2527 
L 241.039577 278.824715 
L 241.364882 277.967377 
L 241.690188 278.824715 
L 242.015493 277.110038 
L 242.340798 277.110038 
L 242.666103 276.2527 
L 242.991408 277.967377 
L 243.316713 276.2527 
L 243.642019 277.110038 
L 244.292629 271.108672 
L 244.617934 275.395362 
L 244.943239 275.395362 
L 245.919155 283.111405 
L 246.24446 281.396729 
L 246.569765 280.539391 
L 246.89507 277.967377 
L 247.220375 277.110038 
L 247.870986 277.110038 
L 248.196291 275.395362 
L 248.521596 277.967377 
L 248.846901 277.110038 
L 249.172206 278.824715 
L 249.822817 277.110038 
L 250.148122 275.395362 
L 250.473427 276.2527 
L 250.798732 274.538024 
L 251.124037 274.538024 
L 251.449342 277.110038 
L 251.774647 274.538024 
L 252.099953 276.2527 
L 252.425258 277.110038 
L 252.750563 279.682053 
L 253.075868 278.824715 
L 253.401173 278.824715 
L 253.726478 277.967377 
L 254.377089 273.680686 
L 254.702394 273.680686 
L 255.027699 276.2527 
L 255.353004 273.680686 
L 255.678309 275.395362 
L 256.003615 275.395362 
L 256.32892 277.967377 
L 256.654225 274.538024 
L 256.97953 276.2527 
L 257.63014 270.251334 
L 257.955445 267.67932 
L 258.280751 270.251334 
L 258.606056 270.251334 
L 258.931361 272.823348 
L 259.256666 273.680686 
L 259.581971 271.96601 
L 259.907276 272.823348 
L 260.232582 271.96601 
L 260.557887 269.393996 
L 260.883192 268.536658 
L 261.208497 270.251334 
L 261.533802 271.108672 
L 261.859107 271.108672 
L 262.184412 272.823348 
L 262.835023 272.823348 
L 263.160328 269.393996 
L 263.485633 270.251334 
L 263.810938 271.96601 
L 264.136243 271.96601 
L 264.461549 273.680686 
L 264.786854 277.110038 
L 265.112159 278.824715 
L 265.762769 270.251334 
L 266.088074 267.67932 
L 266.413379 260.820615 
L 266.738685 256.533925 
L 267.389295 261.677953 
L 267.7146 261.677953 
L 268.039905 265.107305 
L 268.36521 266.821981 
L 268.690516 267.67932 
L 269.015821 265.964643 
L 269.341126 263.392629 
L 269.666431 263.392629 
L 269.991736 261.677953 
L 270.317041 262.535291 
L 270.967652 271.96601 
L 271.292957 273.680686 
L 271.618262 278.824715 
L 271.943567 277.110038 
L 272.268872 274.538024 
L 272.594177 277.110038 
L 272.919483 277.967377 
L 273.244788 276.2527 
L 273.570093 277.110038 
L 273.895398 278.824715 
L 274.220703 275.395362 
L 274.546008 275.395362 
L 274.871314 274.538024 
L 275.196619 271.96601 
L 275.521924 271.96601 
L 275.847229 274.538024 
L 276.172534 271.96601 
L 276.497839 271.108672 
L 276.823144 271.108672 
L 277.14845 269.393996 
L 277.473755 265.964643 
L 277.79906 267.67932 
L 278.124365 267.67932 
L 278.44967 269.393996 
L 278.774975 268.536658 
L 279.100281 268.536658 
L 280.076196 261.677953 
L 280.401501 261.677953 
L 280.726806 262.535291 
L 281.052111 265.107305 
L 281.377417 269.393996 
L 281.702722 269.393996 
L 282.353332 272.823348 
L 282.678637 271.108672 
L 283.003942 271.96601 
L 283.654553 265.964643 
L 284.305163 262.535291 
L 284.630468 261.677953 
L 284.955773 265.107305 
L 285.281079 265.964643 
L 285.606384 267.67932 
L 285.931689 270.251334 
L 286.256994 266.821981 
L 286.582299 267.67932 
L 286.907604 265.964643 
L 287.232909 265.964643 
L 287.558215 265.107305 
L 287.88352 266.821981 
L 288.208825 265.964643 
L 288.53413 268.536658 
L 288.859435 269.393996 
L 289.18474 271.108672 
L 289.510046 269.393996 
L 290.160656 275.395362 
L 290.485961 271.96601 
L 290.811266 272.823348 
L 291.136571 275.395362 
L 291.461876 273.680686 
L 291.787182 268.536658 
L 292.112487 270.251334 
L 292.763097 270.251334 
L 293.088402 269.393996 
L 293.413707 269.393996 
L 293.739013 268.536658 
L 294.064318 268.536658 
L 295.040233 271.108672 
L 295.365538 270.251334 
L 295.690844 268.536658 
L 296.341454 260.820615 
L 296.992064 260.820615 
L 297.317369 261.677953 
L 298.293285 271.108672 
L 298.61859 272.823348 
L 298.943895 272.823348 
L 299.2692 273.680686 
L 299.594505 273.680686 
L 299.919811 272.823348 
L 300.570421 274.538024 
L 301.221031 278.824715 
L 301.546336 280.539391 
L 301.871641 281.396729 
L 302.196947 283.968743 
L 302.522252 283.111405 
L 302.847557 280.539391 
L 303.172862 281.396729 
L 303.498167 281.396729 
L 303.823472 279.682053 
L 304.148778 279.682053 
L 304.474083 281.396729 
L 304.799388 280.539391 
L 305.124693 282.254067 
L 305.449998 282.254067 
L 306.425914 284.826081 
L 306.751219 283.111405 
L 307.076524 283.111405 
L 307.727134 279.682053 
L 308.377745 281.396729 
L 308.70305 279.682053 
L 309.028355 280.539391 
L 309.35366 283.111405 
L 310.00427 283.111405 
L 310.329576 285.683419 
L 310.654881 284.826081 
L 310.980186 284.826081 
L 311.305491 283.968743 
L 311.956101 278.824715 
L 312.281406 280.539391 
L 312.606712 278.824715 
L 312.932017 278.824715 
L 313.582627 283.968743 
L 313.907932 283.968743 
L 314.558543 287.398095 
L 315.209153 289.112772 
L 315.859763 292.542124 
L 316.510373 292.542124 
L 316.835679 293.399462 
L 317.160984 293.399462 
L 317.486289 292.542124 
L 318.136899 294.2568 
L 318.462204 290.827448 
L 318.78751 289.112772 
L 319.112815 289.112772 
L 319.763425 285.683419 
L 320.08873 289.112772 
L 320.73934 289.112772 
L 321.389951 292.542124 
L 322.365866 292.542124 
L 322.691171 289.112772 
L 323.016477 287.398095 
L 323.341782 282.254067 
L 323.667087 282.254067 
L 323.992392 279.682053 
L 324.317697 281.396729 
L 324.643002 280.539391 
L 324.968308 283.111405 
L 325.293613 282.254067 
L 325.618918 283.111405 
L 325.944223 283.111405 
L 326.920138 288.255433 
L 327.245444 288.255433 
L 327.570749 286.540757 
L 327.896054 285.683419 
L 328.546664 280.539391 
L 328.871969 280.539391 
L 329.52258 282.254067 
L 329.847885 283.968743 
L 330.498495 283.968743 
L 330.8238 284.826081 
L 331.474411 283.111405 
L 331.799716 283.968743 
L 332.125021 283.968743 
L 332.450326 283.111405 
L 332.775631 283.111405 
L 333.100936 283.968743 
L 333.751547 283.968743 
L 334.076852 284.826081 
L 334.402157 284.826081 
L 334.727462 285.683419 
L 335.378073 282.254067 
L 336.028683 280.539391 
L 336.353988 277.110038 
L 336.679293 280.539391 
L 337.004598 282.254067 
L 337.329903 283.111405 
L 337.655209 280.539391 
L 337.980514 282.254067 
L 338.305819 277.110038 
L 338.631124 276.2527 
L 338.956429 272.823348 
L 339.281734 271.96601 
L 339.60704 271.96601 
L 339.932345 276.2527 
L 340.582955 274.538024 
L 340.90826 276.2527 
L 341.233565 272.823348 
L 341.55887 271.108672 
L 341.884176 271.96601 
L 342.534786 271.96601 
L 342.860091 271.108672 
L 343.510701 265.107305 
L 343.836007 265.964643 
L 344.161312 264.249967 
L 344.486617 265.964643 
L 344.811922 265.964643 
L 345.787837 268.536658 
L 346.438448 268.536658 
L 347.089058 270.251334 
L 347.739668 270.251334 
L 348.390279 273.680686 
L 348.715584 271.96601 
L 349.040889 271.96601 
L 350.016805 274.538024 
L 350.667415 283.111405 
L 351.318025 287.398095 
L 351.64333 289.112772 
L 351.968635 288.255433 
L 352.293941 289.97011 
L 352.619246 289.97011 
L 352.944551 290.827448 
L 353.920466 288.255433 
L 354.571077 284.826081 
L 354.896382 283.968743 
L 355.221687 283.968743 
L 355.546992 282.254067 
L 355.872297 283.968743 
L 356.848213 286.540757 
L 357.173518 288.255433 
L 357.498823 288.255433 
L 357.824128 287.398095 
L 358.149433 287.398095 
L 358.474739 286.540757 
L 358.800044 286.540757 
L 359.125349 288.255433 
L 359.450654 290.827448 
L 360.101264 292.542124 
L 361.07718 282.254067 
L 361.402485 281.396729 
L 361.72779 279.682053 
L 362.3784 283.111405 
L 362.703706 282.254067 
L 363.029011 282.254067 
L 363.354316 276.2527 
L 363.679621 274.538024 
L 364.004926 271.108672 
L 364.330231 270.251334 
L 364.655537 268.536658 
L 364.980842 271.108672 
L 365.956757 271.108672 
L 366.282062 269.393996 
L 366.607367 271.108672 
L 366.932673 269.393996 
L 367.908588 269.393996 
L 368.233893 271.108672 
L 368.559198 267.67932 
L 369.209809 269.393996 
L 369.535114 268.536658 
L 369.860419 265.107305 
L 370.185724 271.108672 
L 370.511029 271.96601 
L 370.836334 271.96601 
L 371.16164 271.108672 
L 371.486945 271.96601 
L 371.81225 270.251334 
L 372.137555 266.821981 
L 372.46286 265.107305 
L 372.788165 265.964643 
L 373.113471 267.67932 
L 373.438776 267.67932 
L 373.764081 268.536658 
L 374.089386 268.536658 
L 374.414691 269.393996 
L 374.739996 266.821981 
L 375.065302 267.67932 
L 375.390607 267.67932 
L 376.366522 262.535291 
L 376.691827 257.391263 
L 377.342438 260.820615 
L 377.993048 265.964643 
L 378.318353 271.108672 
L 378.643658 271.108672 
L 378.968963 269.393996 
L 379.294269 266.821981 
L 379.944879 266.821981 
L 380.270184 265.107305 
L 380.595489 267.67932 
L 380.920794 268.536658 
L 381.246099 268.536658 
L 381.571405 267.67932 
L 381.89671 269.393996 
L 382.222015 267.67932 
L 382.54732 266.821981 
L 383.19793 266.821981 
L 383.523236 265.964643 
L 384.173846 273.680686 
L 384.499151 274.538024 
L 384.824456 276.2527 
L 385.149761 277.110038 
L 385.800372 271.108672 
L 386.125677 269.393996 
L 386.450982 270.251334 
L 386.776287 270.251334 
L 387.752203 279.682053 
L 388.077508 279.682053 
L 388.402813 283.111405 
L 388.728118 283.968743 
L 389.053423 283.968743 
L 389.378728 285.683419 
L 389.704034 286.540757 
L 390.029339 284.826081 
L 390.354644 279.682053 
L 390.679949 279.682053 
L 391.005254 277.110038 
L 391.655864 275.395362 
L 392.306475 279.682053 
L 392.63178 280.539391 
L 392.957085 279.682053 
L 393.28239 281.396729 
L 393.607695 279.682053 
L 393.933001 274.538024 
L 394.258306 272.823348 
L 394.583611 273.680686 
L 394.908916 271.108672 
L 395.559526 274.538024 
L 395.884831 274.538024 
L 396.210137 273.680686 
L 396.535442 274.538024 
L 396.860747 274.538024 
L 397.186052 277.110038 
L 397.511357 275.395362 
L 397.836662 272.823348 
L 398.487273 280.539391 
L 398.487273 280.539391 
" style="fill:none;stroke:#2ca02c;stroke-linecap:square;stroke-width:1.5;"/>
   </g>
   <g id="patch_3">
    <path d="M 57.6 306.3024 
L 57.6 41.2992 
" style="fill:none;stroke:#000000;stroke-linecap:square;stroke-linejoin:miter;stroke-width:0.8;"/>
   </g>
   <g id="patch_4">
    <path d="M 414.72 306.3024 
L 414.72 41.2992 
" style="fill:none;stroke:#000000;stroke-linecap:square;stroke-linejoin:miter;stroke-width:0.8;"/>
   </g>
   <g id="patch_5">
    <path d="M 57.6 306.3024 
L 414.72 306.3024 
" style="fill:none;stroke:#000000;stroke-linecap:square;stroke-linejoin:miter;stroke-width:0.8;"/>
   </g>
   <g id="patch_6">
    <path d="M 57.6 41.2992 
L 414.72 41.2992 
" style="fill:none;stroke:#000000;stroke-linecap:square;stroke-linejoin:miter;stroke-width:0.8;"/>
   </g>
   <g id="legend_1">
    <g id="patch_7">
     <path d="M 200.67 125.4442 
L 403.52 125.4442 
Q 406.72 125.4442 406.72 122.2442 
L 406.72 52.4992 
Q 406.72 49.2992 403.52 49.2992 
L 200.67 49.2992 
Q 197.47 49.2992 197.47 52.4992 
L 197.47 122.2442 
Q 197.47 125.4442 200.67 125.4442 
z
" style="fill:#ffffff;opacity:0.8;stroke:#cccccc;stroke-linejoin:miter;"/>
    </g>
    <g id="line2d_16">
     <path d="M 203.87 62.2567 
L 235.87 62.2567 
" style="fill:none;stroke:#1f77b4;stroke-linecap:square;stroke-width:1.5;"/>
    </g>
    <g id="line2d_17"/>
    <g id="text_13">
     <!-- NSGA-II -->
     <defs>
      <path d="M 9.8125 72.90625 
L 23.09375 72.90625 
L 55.421875 11.921875 
L 55.421875 72.90625 
L 64.984375 72.90625 
L 64.984375 0 
L 51.703125 0 
L 19.390625 60.984375 
L 19.390625 0 
L 9.8125 0 
z
" id="DejaVuSans-78"/>
      <path d="M 53.515625 70.515625 
L 53.515625 60.890625 
Q 47.90625 63.578125 42.921875 64.890625 
Q 37.9375 66.21875 33.296875 66.21875 
Q 25.25 66.21875 20.875 63.09375 
Q 16.5 59.96875 16.5 54.203125 
Q 16.5 49.359375 19.40625 46.890625 
Q 22.3125 44.4375 30.421875 42.921875 
L 36.375 41.703125 
Q 47.40625 39.59375 52.65625 34.296875 
Q 57.90625 29 57.90625 20.125 
Q 57.90625 9.515625 50.796875 4.046875 
Q 43.703125 -1.421875 29.984375 -1.421875 
Q 24.8125 -1.421875 18.96875 -0.25 
Q 13.140625 0.921875 6.890625 3.21875 
L 6.890625 13.375 
Q 12.890625 10.015625 18.65625 8.296875 
Q 24.421875 6.59375 29.984375 6.59375 
Q 38.421875 6.59375 43.015625 9.90625 
Q 47.609375 13.234375 47.609375 19.390625 
Q 47.609375 24.75 44.3125 27.78125 
Q 41.015625 30.8125 33.5 32.328125 
L 27.484375 33.5 
Q 16.453125 35.6875 11.515625 40.375 
Q 6.59375 45.0625 6.59375 53.421875 
Q 6.59375 63.09375 13.40625 68.65625 
Q 20.21875 74.21875 32.171875 74.21875 
Q 37.3125 74.21875 42.625 73.28125 
Q 47.953125 72.359375 53.515625 70.515625 
z
" id="DejaVuSans-83"/>
      <path d="M 59.515625 10.40625 
L 59.515625 29.984375 
L 43.40625 29.984375 
L 43.40625 38.09375 
L 69.28125 38.09375 
L 69.28125 6.78125 
Q 63.578125 2.734375 56.6875 0.65625 
Q 49.8125 -1.421875 42 -1.421875 
Q 24.90625 -1.421875 15.25 8.5625 
Q 5.609375 18.5625 5.609375 36.375 
Q 5.609375 54.25 15.25 64.234375 
Q 24.90625 74.21875 42 74.21875 
Q 49.125 74.21875 55.546875 72.453125 
Q 61.96875 70.703125 67.390625 67.28125 
L 67.390625 56.78125 
Q 61.921875 61.421875 55.765625 63.765625 
Q 49.609375 66.109375 42.828125 66.109375 
Q 29.4375 66.109375 22.71875 58.640625 
Q 16.015625 51.171875 16.015625 36.375 
Q 16.015625 21.625 22.71875 14.15625 
Q 29.4375 6.6875 42.828125 6.6875 
Q 48.046875 6.6875 52.140625 7.59375 
Q 56.25 8.5 59.515625 10.40625 
z
" id="DejaVuSans-71"/>
      <path d="M 34.1875 63.1875 
L 20.796875 26.90625 
L 47.609375 26.90625 
z
M 28.609375 72.90625 
L 39.796875 72.90625 
L 67.578125 0 
L 57.328125 0 
L 50.6875 18.703125 
L 17.828125 18.703125 
L 11.1875 0 
L 0.78125 0 
z
" id="DejaVuSans-65"/>
      <path d="M 4.890625 31.390625 
L 31.203125 31.390625 
L 31.203125 23.390625 
L 4.890625 23.390625 
z
" id="DejaVuSans-45"/>
      <path d="M 9.8125 72.90625 
L 19.671875 72.90625 
L 19.671875 0 
L 9.8125 0 
z
" id="DejaVuSans-73"/>
     </defs>
     <g transform="translate(248.67 67.8567)scale(0.16 -0.16)">
      <use xlink:href="#DejaVuSans-78"/>
      <use x="74.804688" xlink:href="#DejaVuSans-83"/>
      <use x="138.28125" xlink:href="#DejaVuSans-71"/>
      <use x="215.771484" xlink:href="#DejaVuSans-65"/>
      <use x="284.148438" xlink:href="#DejaVuSans-45"/>
      <use x="320.232422" xlink:href="#DejaVuSans-73"/>
      <use x="349.724609" xlink:href="#DejaVuSans-73"/>
     </g>
    </g>
    <g id="line2d_18">
     <path d="M 203.87 85.7417 
L 235.87 85.7417 
" style="fill:none;stroke:#ff7f0e;stroke-linecap:square;stroke-width:1.5;"/>
    </g>
    <g id="line2d_19"/>
    <g id="text_14">
     <!-- MOMFEA_scaling -->
     <defs>
      <path d="M 9.8125 72.90625 
L 24.515625 72.90625 
L 43.109375 23.296875 
L 61.8125 72.90625 
L 76.515625 72.90625 
L 76.515625 0 
L 66.890625 0 
L 66.890625 64.015625 
L 48.09375 14.015625 
L 38.1875 14.015625 
L 19.390625 64.015625 
L 19.390625 0 
L 9.8125 0 
z
" id="DejaVuSans-77"/>
      <path d="M 39.40625 66.21875 
Q 28.65625 66.21875 22.328125 58.203125 
Q 16.015625 50.203125 16.015625 36.375 
Q 16.015625 22.609375 22.328125 14.59375 
Q 28.65625 6.59375 39.40625 6.59375 
Q 50.140625 6.59375 56.421875 14.59375 
Q 62.703125 22.609375 62.703125 36.375 
Q 62.703125 50.203125 56.421875 58.203125 
Q 50.140625 66.21875 39.40625 66.21875 
z
M 39.40625 74.21875 
Q 54.734375 74.21875 63.90625 63.9375 
Q 73.09375 53.65625 73.09375 36.375 
Q 73.09375 19.140625 63.90625 8.859375 
Q 54.734375 -1.421875 39.40625 -1.421875 
Q 24.03125 -1.421875 14.8125 8.828125 
Q 5.609375 19.09375 5.609375 36.375 
Q 5.609375 53.65625 14.8125 63.9375 
Q 24.03125 74.21875 39.40625 74.21875 
z
" id="DejaVuSans-79"/>
      <path d="M 9.8125 72.90625 
L 51.703125 72.90625 
L 51.703125 64.59375 
L 19.671875 64.59375 
L 19.671875 43.109375 
L 48.578125 43.109375 
L 48.578125 34.8125 
L 19.671875 34.8125 
L 19.671875 0 
L 9.8125 0 
z
" id="DejaVuSans-70"/>
      <path d="M 9.8125 72.90625 
L 55.90625 72.90625 
L 55.90625 64.59375 
L 19.671875 64.59375 
L 19.671875 43.015625 
L 54.390625 43.015625 
L 54.390625 34.71875 
L 19.671875 34.71875 
L 19.671875 8.296875 
L 56.78125 8.296875 
L 56.78125 0 
L 9.8125 0 
z
" id="DejaVuSans-69"/>
      <path d="M 50.984375 -16.609375 
L 50.984375 -23.578125 
L -0.984375 -23.578125 
L -0.984375 -16.609375 
z
" id="DejaVuSans-95"/>
      <path d="M 44.28125 53.078125 
L 44.28125 44.578125 
Q 40.484375 46.53125 36.375 47.5 
Q 32.28125 48.484375 27.875 48.484375 
Q 21.1875 48.484375 17.84375 46.4375 
Q 14.5 44.390625 14.5 40.28125 
Q 14.5 37.15625 16.890625 35.375 
Q 19.28125 33.59375 26.515625 31.984375 
L 29.59375 31.296875 
Q 39.15625 29.25 43.1875 25.515625 
Q 47.21875 21.78125 47.21875 15.09375 
Q 47.21875 7.46875 41.1875 3.015625 
Q 35.15625 -1.421875 24.609375 -1.421875 
Q 20.21875 -1.421875 15.453125 -0.5625 
Q 10.6875 0.296875 5.421875 2 
L 5.421875 11.28125 
Q 10.40625 8.6875 15.234375 7.390625 
Q 20.0625 6.109375 24.8125 6.109375 
Q 31.15625 6.109375 34.5625 8.28125 
Q 37.984375 10.453125 37.984375 14.40625 
Q 37.984375 18.0625 35.515625 20.015625 
Q 33.0625 21.96875 24.703125 23.78125 
L 21.578125 24.515625 
Q 13.234375 26.265625 9.515625 29.90625 
Q 5.8125 33.546875 5.8125 39.890625 
Q 5.8125 47.609375 11.28125 51.796875 
Q 16.75 56 26.8125 56 
Q 31.78125 56 36.171875 55.265625 
Q 40.578125 54.546875 44.28125 53.078125 
z
" id="DejaVuSans-115"/>
      <path d="M 48.78125 52.59375 
L 48.78125 44.1875 
Q 44.96875 46.296875 41.140625 47.34375 
Q 37.3125 48.390625 33.40625 48.390625 
Q 24.65625 48.390625 19.8125 42.84375 
Q 14.984375 37.3125 14.984375 27.296875 
Q 14.984375 17.28125 19.8125 11.734375 
Q 24.65625 6.203125 33.40625 6.203125 
Q 37.3125 6.203125 41.140625 7.25 
Q 44.96875 8.296875 48.78125 10.40625 
L 48.78125 2.09375 
Q 45.015625 0.34375 40.984375 -0.53125 
Q 36.96875 -1.421875 32.421875 -1.421875 
Q 20.0625 -1.421875 12.78125 6.34375 
Q 5.515625 14.109375 5.515625 27.296875 
Q 5.515625 40.671875 12.859375 48.328125 
Q 20.21875 56 33.015625 56 
Q 37.15625 56 41.109375 55.140625 
Q 45.0625 54.296875 48.78125 52.59375 
z
" id="DejaVuSans-99"/>
      <path d="M 34.28125 27.484375 
Q 23.390625 27.484375 19.1875 25 
Q 14.984375 22.515625 14.984375 16.5 
Q 14.984375 11.71875 18.140625 8.90625 
Q 21.296875 6.109375 26.703125 6.109375 
Q 34.1875 6.109375 38.703125 11.40625 
Q 43.21875 16.703125 43.21875 25.484375 
L 43.21875 27.484375 
z
M 52.203125 31.203125 
L 52.203125 0 
L 43.21875 0 
L 43.21875 8.296875 
Q 40.140625 3.328125 35.546875 0.953125 
Q 30.953125 -1.421875 24.3125 -1.421875 
Q 15.921875 -1.421875 10.953125 3.296875 
Q 6 8.015625 6 15.921875 
Q 6 25.140625 12.171875 29.828125 
Q 18.359375 34.515625 30.609375 34.515625 
L 43.21875 34.515625 
L 43.21875 35.40625 
Q 43.21875 41.609375 39.140625 45 
Q 35.0625 48.390625 27.6875 48.390625 
Q 23 48.390625 18.546875 47.265625 
Q 14.109375 46.140625 10.015625 43.890625 
L 10.015625 52.203125 
Q 14.9375 54.109375 19.578125 55.046875 
Q 24.21875 56 28.609375 56 
Q 40.484375 56 46.34375 49.84375 
Q 52.203125 43.703125 52.203125 31.203125 
z
" id="DejaVuSans-97"/>
      <path d="M 9.421875 75.984375 
L 18.40625 75.984375 
L 18.40625 0 
L 9.421875 0 
z
" id="DejaVuSans-108"/>
      <path d="M 9.421875 54.6875 
L 18.40625 54.6875 
L 18.40625 0 
L 9.421875 0 
z
M 9.421875 75.984375 
L 18.40625 75.984375 
L 18.40625 64.59375 
L 9.421875 64.59375 
z
" id="DejaVuSans-105"/>
      <path d="M 54.890625 33.015625 
L 54.890625 0 
L 45.90625 0 
L 45.90625 32.71875 
Q 45.90625 40.484375 42.875 44.328125 
Q 39.84375 48.1875 33.796875 48.1875 
Q 26.515625 48.1875 22.3125 43.546875 
Q 18.109375 38.921875 18.109375 30.90625 
L 18.109375 0 
L 9.078125 0 
L 9.078125 54.6875 
L 18.109375 54.6875 
L 18.109375 46.1875 
Q 21.34375 51.125 25.703125 53.5625 
Q 30.078125 56 35.796875 56 
Q 45.21875 56 50.046875 50.171875 
Q 54.890625 44.34375 54.890625 33.015625 
z
" id="DejaVuSans-110"/>
      <path d="M 45.40625 27.984375 
Q 45.40625 37.75 41.375 43.109375 
Q 37.359375 48.484375 30.078125 48.484375 
Q 22.859375 48.484375 18.828125 43.109375 
Q 14.796875 37.75 14.796875 27.984375 
Q 14.796875 18.265625 18.828125 12.890625 
Q 22.859375 7.515625 30.078125 7.515625 
Q 37.359375 7.515625 41.375 12.890625 
Q 45.40625 18.265625 45.40625 27.984375 
z
M 54.390625 6.78125 
Q 54.390625 -7.171875 48.1875 -13.984375 
Q 42 -20.796875 29.203125 -20.796875 
Q 24.46875 -20.796875 20.265625 -20.09375 
Q 16.0625 -19.390625 12.109375 -17.921875 
L 12.109375 -9.1875 
Q 16.0625 -11.328125 19.921875 -12.34375 
Q 23.78125 -13.375 27.78125 -13.375 
Q 36.625 -13.375 41.015625 -8.765625 
Q 45.40625 -4.15625 45.40625 5.171875 
L 45.40625 9.625 
Q 42.625 4.78125 38.28125 2.390625 
Q 33.9375 0 27.875 0 
Q 17.828125 0 11.671875 7.65625 
Q 5.515625 15.328125 5.515625 27.984375 
Q 5.515625 40.671875 11.671875 48.328125 
Q 17.828125 56 27.875 56 
Q 33.9375 56 38.28125 53.609375 
Q 42.625 51.21875 45.40625 46.390625 
L 45.40625 54.6875 
L 54.390625 54.6875 
z
" id="DejaVuSans-103"/>
     </defs>
     <g transform="translate(248.67 91.3417)scale(0.16 -0.16)">
      <use xlink:href="#DejaVuSans-77"/>
      <use x="86.279297" xlink:href="#DejaVuSans-79"/>
      <use x="164.990234" xlink:href="#DejaVuSans-77"/>
      <use x="251.269531" xlink:href="#DejaVuSans-70"/>
      <use x="308.789062" xlink:href="#DejaVuSans-69"/>
      <use x="371.972656" xlink:href="#DejaVuSans-65"/>
      <use x="440.380859" xlink:href="#DejaVuSans-95"/>
      <use x="490.380859" xlink:href="#DejaVuSans-115"/>
      <use x="542.480469" xlink:href="#DejaVuSans-99"/>
      <use x="597.460938" xlink:href="#DejaVuSans-97"/>
      <use x="658.740234" xlink:href="#DejaVuSans-108"/>
      <use x="686.523438" xlink:href="#DejaVuSans-105"/>
      <use x="714.306641" xlink:href="#DejaVuSans-110"/>
      <use x="777.685547" xlink:href="#DejaVuSans-103"/>
     </g>
    </g>
    <g id="line2d_20">
     <path d="M 203.87 109.6717 
L 235.87 109.6717 
" style="fill:none;stroke:#2ca02c;stroke-linecap:square;stroke-width:1.5;"/>
    </g>
    <g id="line2d_21"/>
    <g id="text_15">
     <!-- MOMFEA_inversion -->
     <defs>
      <path d="M 2.984375 54.6875 
L 12.5 54.6875 
L 29.59375 8.796875 
L 46.6875 54.6875 
L 56.203125 54.6875 
L 35.6875 0 
L 23.484375 0 
z
" id="DejaVuSans-118"/>
      <path d="M 56.203125 29.59375 
L 56.203125 25.203125 
L 14.890625 25.203125 
Q 15.484375 15.921875 20.484375 11.0625 
Q 25.484375 6.203125 34.421875 6.203125 
Q 39.59375 6.203125 44.453125 7.46875 
Q 49.3125 8.734375 54.109375 11.28125 
L 54.109375 2.78125 
Q 49.265625 0.734375 44.1875 -0.34375 
Q 39.109375 -1.421875 33.890625 -1.421875 
Q 20.796875 -1.421875 13.15625 6.1875 
Q 5.515625 13.8125 5.515625 26.8125 
Q 5.515625 40.234375 12.765625 48.109375 
Q 20.015625 56 32.328125 56 
Q 43.359375 56 49.78125 48.890625 
Q 56.203125 41.796875 56.203125 29.59375 
z
M 47.21875 32.234375 
Q 47.125 39.59375 43.09375 43.984375 
Q 39.0625 48.390625 32.421875 48.390625 
Q 24.90625 48.390625 20.390625 44.140625 
Q 15.875 39.890625 15.1875 32.171875 
z
" id="DejaVuSans-101"/>
      <path d="M 41.109375 46.296875 
Q 39.59375 47.171875 37.8125 47.578125 
Q 36.03125 48 33.890625 48 
Q 26.265625 48 22.1875 43.046875 
Q 18.109375 38.09375 18.109375 28.8125 
L 18.109375 0 
L 9.078125 0 
L 9.078125 54.6875 
L 18.109375 54.6875 
L 18.109375 46.1875 
Q 20.953125 51.171875 25.484375 53.578125 
Q 30.03125 56 36.53125 56 
Q 37.453125 56 38.578125 55.875 
Q 39.703125 55.765625 41.0625 55.515625 
z
" id="DejaVuSans-114"/>
      <path d="M 30.609375 48.390625 
Q 23.390625 48.390625 19.1875 42.75 
Q 14.984375 37.109375 14.984375 27.296875 
Q 14.984375 17.484375 19.15625 11.84375 
Q 23.34375 6.203125 30.609375 6.203125 
Q 37.796875 6.203125 41.984375 11.859375 
Q 46.1875 17.53125 46.1875 27.296875 
Q 46.1875 37.015625 41.984375 42.703125 
Q 37.796875 48.390625 30.609375 48.390625 
z
M 30.609375 56 
Q 42.328125 56 49.015625 48.375 
Q 55.71875 40.765625 55.71875 27.296875 
Q 55.71875 13.875 49.015625 6.21875 
Q 42.328125 -1.421875 30.609375 -1.421875 
Q 18.84375 -1.421875 12.171875 6.21875 
Q 5.515625 13.875 5.515625 27.296875 
Q 5.515625 40.765625 12.171875 48.375 
Q 18.84375 56 30.609375 56 
z
" id="DejaVuSans-111"/>
     </defs>
     <g transform="translate(248.67 115.2717)scale(0.16 -0.16)">
      <use xlink:href="#DejaVuSans-77"/>
      <use x="86.279297" xlink:href="#DejaVuSans-79"/>
      <use x="164.990234" xlink:href="#DejaVuSans-77"/>
      <use x="251.269531" xlink:href="#DejaVuSans-70"/>
      <use x="308.789062" xlink:href="#DejaVuSans-69"/>
      <use x="371.972656" xlink:href="#DejaVuSans-65"/>
      <use x="440.380859" xlink:href="#DejaVuSans-95"/>
      <use x="490.380859" xlink:href="#DejaVuSans-105"/>
      <use x="518.164062" xlink:href="#DejaVuSans-110"/>
      <use x="581.542969" xlink:href="#DejaVuSans-118"/>
      <use x="640.722656" xlink:href="#DejaVuSans-101"/>
      <use x="702.246094" xlink:href="#DejaVuSans-114"/>
      <use x="743.359375" xlink:href="#DejaVuSans-115"/>
      <use x="795.458984" xlink:href="#DejaVuSans-105"/>
      <use x="823.242188" xlink:href="#DejaVuSans-111"/>
      <use x="884.423828" xlink:href="#DejaVuSans-110"/>
     </g>
    </g>
   </g>
  </g>
 </g>
 <defs>
  <clipPath id="p58894ac886">
   <rect height="265.0032" width="357.12" x="57.6" y="41.2992"/>
  </clipPath>
 </defs>
</svg>
