<?xml version="1.0" encoding="utf-8" standalone="no"?>
<!DOCTYPE svg PUBLIC "-//W3C//DTD SVG 1.1//EN"
  "http://www.w3.org/Graphics/SVG/1.1/DTD/svg11.dtd">
<!-- Created with matplotlib (http://matplotlib.org/) -->
<svg height="314.466687pt" version="1.1" viewBox="0 0 587.755 314.466687" width="587.755pt" xmlns="http://www.w3.org/2000/svg" xmlns:xlink="http://www.w3.org/1999/xlink">
 <defs>
  <style type="text/css">
*{stroke-linecap:butt;stroke-linejoin:round;}
  </style>
 </defs>
 <g id="figure_1">
  <g id="patch_1">
   <path d="M 0 314.466687 
L 587.755 314.466687 
L 587.755 0 
L 0 0 
z
" style="fill:#ffffff;"/>
  </g>
  <g id="axes_1">
   <g id="patch_2">
    <path d="M 52.375 280.910437 
L 409.495 280.910437 
L 409.495 14.798437 
L 52.375 14.798437 
z
" style="fill:#ffffff;"/>
   </g>
   <g id="matplotlib.axis_1">
    <g id="xtick_1">
     <g id="line2d_1">
      <defs>
       <path d="M 0 0 
L 0 3.5 
" id="m07e5081d6a" style="stroke:#000000;stroke-width:0.8;"/>
      </defs>
      <g>
       <use style="stroke:#000000;stroke-width:0.8;" x="52.375" xlink:href="#m07e5081d6a" y="280.910437"/>
      </g>
     </g>
     <g id="text_1">
      <!-- 0 -->
      <defs>
       <path d="M 31.78125 66.40625 
Q 24.171875 66.40625 20.328125 58.90625 
Q 16.5 51.421875 16.5 36.375 
Q 16.5 21.390625 20.328125 13.890625 
Q 24.171875 6.390625 31.78125 6.390625 
Q 39.453125 6.390625 43.28125 13.890625 
Q 47.125 21.390625 47.125 36.375 
Q 47.125 51.421875 43.28125 58.90625 
Q 39.453125 66.40625 31.78125 66.40625 
z
M 31.78125 74.21875 
Q 44.046875 74.21875 50.515625 64.515625 
Q 56.984375 54.828125 56.984375 36.375 
Q 56.984375 17.96875 50.515625 8.265625 
Q 44.046875 -1.421875 31.78125 -1.421875 
Q 19.53125 -1.421875 13.0625 8.265625 
Q 6.59375 17.96875 6.59375 36.375 
Q 6.59375 54.828125 13.0625 64.515625 
Q 19.53125 74.21875 31.78125 74.21875 
z
" id="DejaVuSans-30"/>
      </defs>
      <g transform="translate(46.0125 303.107312)scale(0.2 -0.2)">
       <use xlink:href="#DejaVuSans-30"/>
      </g>
     </g>
    </g>
    <g id="xtick_2">
     <g id="line2d_2">
      <g>
       <use style="stroke:#000000;stroke-width:0.8;" x="123.091832" xlink:href="#m07e5081d6a" y="280.910437"/>
      </g>
     </g>
     <g id="text_2">
      <!-- 100 -->
      <defs>
       <path d="M 12.40625 8.296875 
L 28.515625 8.296875 
L 28.515625 63.921875 
L 10.984375 60.40625 
L 10.984375 69.390625 
L 28.421875 72.90625 
L 38.28125 72.90625 
L 38.28125 8.296875 
L 54.390625 8.296875 
L 54.390625 0 
L 12.40625 0 
z
" id="DejaVuSans-31"/>
      </defs>
      <g transform="translate(104.004332 303.107312)scale(0.2 -0.2)">
       <use xlink:href="#DejaVuSans-31"/>
       <use x="63.623047" xlink:href="#DejaVuSans-30"/>
       <use x="127.246094" xlink:href="#DejaVuSans-30"/>
      </g>
     </g>
    </g>
    <g id="xtick_3">
     <g id="line2d_3">
      <g>
       <use style="stroke:#000000;stroke-width:0.8;" x="193.808663" xlink:href="#m07e5081d6a" y="280.910437"/>
      </g>
     </g>
     <g id="text_3">
      <!-- 200 -->
      <defs>
       <path d="M 19.1875 8.296875 
L 53.609375 8.296875 
L 53.609375 0 
L 7.328125 0 
L 7.328125 8.296875 
Q 12.9375 14.109375 22.625 23.890625 
Q 32.328125 33.6875 34.8125 36.53125 
Q 39.546875 41.84375 41.421875 45.53125 
Q 43.3125 49.21875 43.3125 52.78125 
Q 43.3125 58.59375 39.234375 62.25 
Q 35.15625 65.921875 28.609375 65.921875 
Q 23.96875 65.921875 18.8125 64.3125 
Q 13.671875 62.703125 7.8125 59.421875 
L 7.8125 69.390625 
Q 13.765625 71.78125 18.9375 73 
Q 24.125 74.21875 28.421875 74.21875 
Q 39.75 74.21875 46.484375 68.546875 
Q 53.21875 62.890625 53.21875 53.421875 
Q 53.21875 48.921875 51.53125 44.890625 
Q 49.859375 40.875 45.40625 35.40625 
Q 44.1875 33.984375 37.640625 27.21875 
Q 31.109375 20.453125 19.1875 8.296875 
z
" id="DejaVuSans-32"/>
      </defs>
      <g transform="translate(174.721163 303.107312)scale(0.2 -0.2)">
       <use xlink:href="#DejaVuSans-32"/>
       <use x="63.623047" xlink:href="#DejaVuSans-30"/>
       <use x="127.246094" xlink:href="#DejaVuSans-30"/>
      </g>
     </g>
    </g>
    <g id="xtick_4">
     <g id="line2d_4">
      <g>
       <use style="stroke:#000000;stroke-width:0.8;" x="264.525495" xlink:href="#m07e5081d6a" y="280.910437"/>
      </g>
     </g>
     <g id="text_4">
      <!-- 300 -->
      <defs>
       <path d="M 40.578125 39.3125 
Q 47.65625 37.796875 51.625 33 
Q 55.609375 28.21875 55.609375 21.1875 
Q 55.609375 10.40625 48.1875 4.484375 
Q 40.765625 -1.421875 27.09375 -1.421875 
Q 22.515625 -1.421875 17.65625 -0.515625 
Q 12.796875 0.390625 7.625 2.203125 
L 7.625 11.71875 
Q 11.71875 9.328125 16.59375 8.109375 
Q 21.484375 6.890625 26.8125 6.890625 
Q 36.078125 6.890625 40.9375 10.546875 
Q 45.796875 14.203125 45.796875 21.1875 
Q 45.796875 27.640625 41.28125 31.265625 
Q 36.765625 34.90625 28.71875 34.90625 
L 20.21875 34.90625 
L 20.21875 43.015625 
L 29.109375 43.015625 
Q 36.375 43.015625 40.234375 45.921875 
Q 44.09375 48.828125 44.09375 54.296875 
Q 44.09375 59.90625 40.109375 62.90625 
Q 36.140625 65.921875 28.71875 65.921875 
Q 24.65625 65.921875 20.015625 65.03125 
Q 15.375 64.15625 9.8125 62.3125 
L 9.8125 71.09375 
Q 15.4375 72.65625 20.34375 73.4375 
Q 25.25 74.21875 29.59375 74.21875 
Q 40.828125 74.21875 47.359375 69.109375 
Q 53.90625 64.015625 53.90625 55.328125 
Q 53.90625 49.265625 50.4375 45.09375 
Q 46.96875 40.921875 40.578125 39.3125 
z
" id="DejaVuSans-33"/>
      </defs>
      <g transform="translate(245.437995 303.107312)scale(0.2 -0.2)">
       <use xlink:href="#DejaVuSans-33"/>
       <use x="63.623047" xlink:href="#DejaVuSans-30"/>
       <use x="127.246094" xlink:href="#DejaVuSans-30"/>
      </g>
     </g>
    </g>
    <g id="xtick_5">
     <g id="line2d_5">
      <g>
       <use style="stroke:#000000;stroke-width:0.8;" x="335.242327" xlink:href="#m07e5081d6a" y="280.910437"/>
      </g>
     </g>
     <g id="text_5">
      <!-- 400 -->
      <defs>
       <path d="M 37.796875 64.3125 
L 12.890625 25.390625 
L 37.796875 25.390625 
z
M 35.203125 72.90625 
L 47.609375 72.90625 
L 47.609375 25.390625 
L 58.015625 25.390625 
L 58.015625 17.1875 
L 47.609375 17.1875 
L 47.609375 0 
L 37.796875 0 
L 37.796875 17.1875 
L 4.890625 17.1875 
L 4.890625 26.703125 
z
" id="DejaVuSans-34"/>
      </defs>
      <g transform="translate(316.154827 303.107312)scale(0.2 -0.2)">
       <use xlink:href="#DejaVuSans-34"/>
       <use x="63.623047" xlink:href="#DejaVuSans-30"/>
       <use x="127.246094" xlink:href="#DejaVuSans-30"/>
      </g>
     </g>
    </g>
    <g id="xtick_6">
     <g id="line2d_6">
      <g>
       <use style="stroke:#000000;stroke-width:0.8;" x="405.959158" xlink:href="#m07e5081d6a" y="280.910437"/>
      </g>
     </g>
     <g id="text_6">
      <!-- 500 -->
      <defs>
       <path d="M 10.796875 72.90625 
L 49.515625 72.90625 
L 49.515625 64.59375 
L 19.828125 64.59375 
L 19.828125 46.734375 
Q 21.96875 47.46875 24.109375 47.828125 
Q 26.265625 48.1875 28.421875 48.1875 
Q 40.625 48.1875 47.75 41.5 
Q 54.890625 34.8125 54.890625 23.390625 
Q 54.890625 11.625 47.5625 5.09375 
Q 40.234375 -1.421875 26.90625 -1.421875 
Q 22.3125 -1.421875 17.546875 -0.640625 
Q 12.796875 0.140625 7.71875 1.703125 
L 7.71875 11.625 
Q 12.109375 9.234375 16.796875 8.0625 
Q 21.484375 6.890625 26.703125 6.890625 
Q 35.15625 6.890625 40.078125 11.328125 
Q 45.015625 15.765625 45.015625 23.390625 
Q 45.015625 31 40.078125 35.4375 
Q 35.15625 39.890625 26.703125 39.890625 
Q 22.75 39.890625 18.8125 39.015625 
Q 14.890625 38.140625 10.796875 36.28125 
z
" id="DejaVuSans-35"/>
      </defs>
      <g transform="translate(386.871658 303.107312)scale(0.2 -0.2)">
       <use xlink:href="#DejaVuSans-35"/>
       <use x="63.623047" xlink:href="#DejaVuSans-30"/>
       <use x="127.246094" xlink:href="#DejaVuSans-30"/>
      </g>
     </g>
    </g>
   </g>
   <g id="matplotlib.axis_2">
    <g id="ytick_1">
     <g id="line2d_7">
      <defs>
       <path d="M 0 0 
L -3.5 0 
" id="m665e061ba8" style="stroke:#000000;stroke-width:0.8;"/>
      </defs>
      <g>
       <use style="stroke:#000000;stroke-width:0.8;" x="52.375" xlink:href="#m665e061ba8" y="275.692555"/>
      </g>
     </g>
     <g id="text_7">
      <!-- 0 -->
      <g transform="translate(32.65 283.290993)scale(0.2 -0.2)">
       <use xlink:href="#DejaVuSans-30"/>
      </g>
     </g>
    </g>
    <g id="ytick_2">
     <g id="line2d_8">
      <g>
       <use style="stroke:#000000;stroke-width:0.8;" x="52.375" xlink:href="#m665e061ba8" y="223.513732"/>
      </g>
     </g>
     <g id="text_8">
      <!-- 50 -->
      <g transform="translate(19.925 231.112169)scale(0.2 -0.2)">
       <use xlink:href="#DejaVuSans-35"/>
       <use x="63.623047" xlink:href="#DejaVuSans-30"/>
      </g>
     </g>
    </g>
    <g id="ytick_3">
     <g id="line2d_9">
      <g>
       <use style="stroke:#000000;stroke-width:0.8;" x="52.375" xlink:href="#m665e061ba8" y="171.334908"/>
      </g>
     </g>
     <g id="text_9">
      <!-- 100 -->
      <g transform="translate(7.2 178.933346)scale(0.2 -0.2)">
       <use xlink:href="#DejaVuSans-31"/>
       <use x="63.623047" xlink:href="#DejaVuSans-30"/>
       <use x="127.246094" xlink:href="#DejaVuSans-30"/>
      </g>
     </g>
    </g>
    <g id="ytick_4">
     <g id="line2d_10">
      <g>
       <use style="stroke:#000000;stroke-width:0.8;" x="52.375" xlink:href="#m665e061ba8" y="119.156085"/>
      </g>
     </g>
     <g id="text_10">
      <!-- 150 -->
      <g transform="translate(7.2 126.754522)scale(0.2 -0.2)">
       <use xlink:href="#DejaVuSans-31"/>
       <use x="63.623047" xlink:href="#DejaVuSans-35"/>
       <use x="127.246094" xlink:href="#DejaVuSans-30"/>
      </g>
     </g>
    </g>
    <g id="ytick_5">
     <g id="line2d_11">
      <g>
       <use style="stroke:#000000;stroke-width:0.8;" x="52.375" xlink:href="#m665e061ba8" y="66.977261"/>
      </g>
     </g>
     <g id="text_11">
      <!-- 200 -->
      <g transform="translate(7.2 74.575699)scale(0.2 -0.2)">
       <use xlink:href="#DejaVuSans-32"/>
       <use x="63.623047" xlink:href="#DejaVuSans-30"/>
       <use x="127.246094" xlink:href="#DejaVuSans-30"/>
      </g>
     </g>
    </g>
    <g id="ytick_6">
     <g id="line2d_12">
      <g>
       <use style="stroke:#000000;stroke-width:0.8;" x="52.375" xlink:href="#m665e061ba8" y="14.798437"/>
      </g>
     </g>
     <g id="text_12">
      <!-- 250 -->
      <g transform="translate(7.2 22.396875)scale(0.2 -0.2)">
       <use xlink:href="#DejaVuSans-32"/>
       <use x="63.623047" xlink:href="#DejaVuSans-35"/>
       <use x="127.246094" xlink:href="#DejaVuSans-30"/>
      </g>
     </g>
    </g>
   </g>
   <g id="line2d_13">
    <path clip-path="url(#pc3c897caca)" d="M 52.375 194.716239 
L 59.446683 103.734633 
L 66.518366 119.790057 
L 73.59005 142.534806 
L 80.661733 154.050673 
L 87.733416 160.502584 
L 94.805099 165.222159 
L 101.876782 163.943778 
L 108.948465 166.010059 
L 116.020149 166.811004 
L 123.091832 167.090161 
L 130.163515 169.172096 
L 137.235198 169.396465 
L 144.306881 169.905208 
L 151.378564 171.154891 
L 158.450248 170.364382 
L 165.521931 173.046373 
L 172.593614 172.720256 
L 179.665297 172.788088 
L 186.73698 173.42467 
L 193.808663 173.268133 
L 200.880347 174.468246 
L 207.95203 173.735134 
L 215.023713 173.675128 
L 222.095396 175.023951 
L 229.167079 175.230057 
L 236.238762 176.01274 
L 243.310446 176.55279 
L 250.382129 176.965003 
L 257.453812 178.094675 
L 264.525495 177.925093 
L 271.597178 178.585156 
L 278.668861 178.381658 
L 285.740545 178.470362 
L 292.812228 178.52515 
L 299.883911 178.517323 
L 306.955594 178.321653 
L 314.027277 178.305999 
L 321.09896 177.930311 
L 328.170644 177.938138 
L 335.242327 178.003362 
L 342.31401 178.428619 
L 349.385693 178.386876 
L 356.457376 177.899004 
L 363.529059 177.841607 
L 370.600743 177.807691 
L 377.672426 177.768557 
L 384.744109 177.732032 
L 391.815792 177.672026 
L 398.887475 177.651155 
L 405.959158 177.614629 
" style="fill:none;stroke:#1f77b4;stroke-linecap:square;stroke-width:3;"/>
    <defs>
     <path d="M 0 3 
C 0.795609 3 1.55874 2.683901 2.12132 2.12132 
C 2.683901 1.55874 3 0.795609 3 0 
C 3 -0.795609 2.683901 -1.55874 2.12132 -2.12132 
C 1.55874 -2.683901 0.795609 -3 0 -3 
C -0.795609 -3 -1.55874 -2.683901 -2.12132 -2.12132 
C -2.683901 -1.55874 -3 -0.795609 -3 0 
C -3 0.795609 -2.683901 1.55874 -2.12132 2.12132 
C -1.55874 2.683901 -0.795609 3 0 3 
z
" id="m16d39f5421" style="stroke:#1f77b4;"/>
    </defs>
    <g clip-path="url(#pc3c897caca)">
     <use style="fill:#1f77b4;stroke:#1f77b4;" x="52.375" xlink:href="#m16d39f5421" y="194.716239"/>
     <use style="fill:#1f77b4;stroke:#1f77b4;" x="59.446683" xlink:href="#m16d39f5421" y="103.734633"/>
     <use style="fill:#1f77b4;stroke:#1f77b4;" x="66.518366" xlink:href="#m16d39f5421" y="119.790057"/>
     <use style="fill:#1f77b4;stroke:#1f77b4;" x="73.59005" xlink:href="#m16d39f5421" y="142.534806"/>
     <use style="fill:#1f77b4;stroke:#1f77b4;" x="80.661733" xlink:href="#m16d39f5421" y="154.050673"/>
     <use style="fill:#1f77b4;stroke:#1f77b4;" x="87.733416" xlink:href="#m16d39f5421" y="160.502584"/>
     <use style="fill:#1f77b4;stroke:#1f77b4;" x="94.805099" xlink:href="#m16d39f5421" y="165.222159"/>
     <use style="fill:#1f77b4;stroke:#1f77b4;" x="101.876782" xlink:href="#m16d39f5421" y="163.943778"/>
     <use style="fill:#1f77b4;stroke:#1f77b4;" x="108.948465" xlink:href="#m16d39f5421" y="166.010059"/>
     <use style="fill:#1f77b4;stroke:#1f77b4;" x="116.020149" xlink:href="#m16d39f5421" y="166.811004"/>
     <use style="fill:#1f77b4;stroke:#1f77b4;" x="123.091832" xlink:href="#m16d39f5421" y="167.090161"/>
     <use style="fill:#1f77b4;stroke:#1f77b4;" x="130.163515" xlink:href="#m16d39f5421" y="169.172096"/>
     <use style="fill:#1f77b4;stroke:#1f77b4;" x="137.235198" xlink:href="#m16d39f5421" y="169.396465"/>
     <use style="fill:#1f77b4;stroke:#1f77b4;" x="144.306881" xlink:href="#m16d39f5421" y="169.905208"/>
     <use style="fill:#1f77b4;stroke:#1f77b4;" x="151.378564" xlink:href="#m16d39f5421" y="171.154891"/>
     <use style="fill:#1f77b4;stroke:#1f77b4;" x="158.450248" xlink:href="#m16d39f5421" y="170.364382"/>
     <use style="fill:#1f77b4;stroke:#1f77b4;" x="165.521931" xlink:href="#m16d39f5421" y="173.046373"/>
     <use style="fill:#1f77b4;stroke:#1f77b4;" x="172.593614" xlink:href="#m16d39f5421" y="172.720256"/>
     <use style="fill:#1f77b4;stroke:#1f77b4;" x="179.665297" xlink:href="#m16d39f5421" y="172.788088"/>
     <use style="fill:#1f77b4;stroke:#1f77b4;" x="186.73698" xlink:href="#m16d39f5421" y="173.42467"/>
     <use style="fill:#1f77b4;stroke:#1f77b4;" x="193.808663" xlink:href="#m16d39f5421" y="173.268133"/>
     <use style="fill:#1f77b4;stroke:#1f77b4;" x="200.880347" xlink:href="#m16d39f5421" y="174.468246"/>
     <use style="fill:#1f77b4;stroke:#1f77b4;" x="207.95203" xlink:href="#m16d39f5421" y="173.735134"/>
     <use style="fill:#1f77b4;stroke:#1f77b4;" x="215.023713" xlink:href="#m16d39f5421" y="173.675128"/>
     <use style="fill:#1f77b4;stroke:#1f77b4;" x="222.095396" xlink:href="#m16d39f5421" y="175.023951"/>
     <use style="fill:#1f77b4;stroke:#1f77b4;" x="229.167079" xlink:href="#m16d39f5421" y="175.230057"/>
     <use style="fill:#1f77b4;stroke:#1f77b4;" x="236.238762" xlink:href="#m16d39f5421" y="176.01274"/>
     <use style="fill:#1f77b4;stroke:#1f77b4;" x="243.310446" xlink:href="#m16d39f5421" y="176.55279"/>
     <use style="fill:#1f77b4;stroke:#1f77b4;" x="250.382129" xlink:href="#m16d39f5421" y="176.965003"/>
     <use style="fill:#1f77b4;stroke:#1f77b4;" x="257.453812" xlink:href="#m16d39f5421" y="178.094675"/>
     <use style="fill:#1f77b4;stroke:#1f77b4;" x="264.525495" xlink:href="#m16d39f5421" y="177.925093"/>
     <use style="fill:#1f77b4;stroke:#1f77b4;" x="271.597178" xlink:href="#m16d39f5421" y="178.585156"/>
     <use style="fill:#1f77b4;stroke:#1f77b4;" x="278.668861" xlink:href="#m16d39f5421" y="178.381658"/>
     <use style="fill:#1f77b4;stroke:#1f77b4;" x="285.740545" xlink:href="#m16d39f5421" y="178.470362"/>
     <use style="fill:#1f77b4;stroke:#1f77b4;" x="292.812228" xlink:href="#m16d39f5421" y="178.52515"/>
     <use style="fill:#1f77b4;stroke:#1f77b4;" x="299.883911" xlink:href="#m16d39f5421" y="178.517323"/>
     <use style="fill:#1f77b4;stroke:#1f77b4;" x="306.955594" xlink:href="#m16d39f5421" y="178.321653"/>
     <use style="fill:#1f77b4;stroke:#1f77b4;" x="314.027277" xlink:href="#m16d39f5421" y="178.305999"/>
     <use style="fill:#1f77b4;stroke:#1f77b4;" x="321.09896" xlink:href="#m16d39f5421" y="177.930311"/>
     <use style="fill:#1f77b4;stroke:#1f77b4;" x="328.170644" xlink:href="#m16d39f5421" y="177.938138"/>
     <use style="fill:#1f77b4;stroke:#1f77b4;" x="335.242327" xlink:href="#m16d39f5421" y="178.003362"/>
     <use style="fill:#1f77b4;stroke:#1f77b4;" x="342.31401" xlink:href="#m16d39f5421" y="178.428619"/>
     <use style="fill:#1f77b4;stroke:#1f77b4;" x="349.385693" xlink:href="#m16d39f5421" y="178.386876"/>
     <use style="fill:#1f77b4;stroke:#1f77b4;" x="356.457376" xlink:href="#m16d39f5421" y="177.899004"/>
     <use style="fill:#1f77b4;stroke:#1f77b4;" x="363.529059" xlink:href="#m16d39f5421" y="177.841607"/>
     <use style="fill:#1f77b4;stroke:#1f77b4;" x="370.600743" xlink:href="#m16d39f5421" y="177.807691"/>
     <use style="fill:#1f77b4;stroke:#1f77b4;" x="377.672426" xlink:href="#m16d39f5421" y="177.768557"/>
     <use style="fill:#1f77b4;stroke:#1f77b4;" x="384.744109" xlink:href="#m16d39f5421" y="177.732032"/>
     <use style="fill:#1f77b4;stroke:#1f77b4;" x="391.815792" xlink:href="#m16d39f5421" y="177.672026"/>
     <use style="fill:#1f77b4;stroke:#1f77b4;" x="398.887475" xlink:href="#m16d39f5421" y="177.651155"/>
     <use style="fill:#1f77b4;stroke:#1f77b4;" x="405.959158" xlink:href="#m16d39f5421" y="177.614629"/>
    </g>
   </g>
   <g id="line2d_14">
    <path clip-path="url(#pc3c897caca)" d="M 52.375 237.925523 
L 59.446683 123.533888 
L 66.518366 146.975224 
L 73.59005 173.894279 
L 80.661733 186.469376 
L 87.733416 194.494479 
L 94.805099 201.577754 
L 101.876782 201.828213 
L 108.948465 203.688388 
L 116.020149 204.93807 
L 123.091832 206.819117 
L 130.163515 207.246983 
L 137.235198 207.314816 
L 144.306881 210.085511 
L 151.378564 210.696004 
L 158.450248 211.877854 
L 165.521931 212.162229 
L 172.593614 213.826733 
L 179.665297 216.970507 
L 186.73698 217.4062 
L 193.808663 217.359239 
L 200.880347 217.839285 
L 207.95203 218.854163 
L 215.023713 219.148973 
L 222.095396 220.505622 
L 229.167079 221.092634 
L 236.238762 221.395271 
L 243.310446 221.723998 
L 250.382129 221.765741 
L 257.453812 221.854445 
L 264.525495 221.898797 
L 271.597178 221.857054 
L 278.668861 222.037071 
L 285.740545 222.53277 
L 292.812228 222.684088 
L 299.883911 222.725831 
L 306.955594 222.843234 
L 314.027277 223.479815 
L 321.09896 223.487642 
L 328.170644 224.640794 
L 335.242327 225.063443 
L 342.31401 225.399996 
L 349.385693 225.61132 
L 356.457376 225.736549 
L 363.529059 225.90874 
L 370.600743 226.42531 
L 377.672426 226.10441 
L 384.744109 226.221813 
L 391.815792 226.140935 
L 398.887475 225.903522 
L 405.959158 226.388785 
" style="fill:none;stroke:#ff7f0e;stroke-linecap:square;stroke-width:3;"/>
    <defs>
     <path d="M 0 3 
C 0.795609 3 1.55874 2.683901 2.12132 2.12132 
C 2.683901 1.55874 3 0.795609 3 0 
C 3 -0.795609 2.683901 -1.55874 2.12132 -2.12132 
C 1.55874 -2.683901 0.795609 -3 0 -3 
C -0.795609 -3 -1.55874 -2.683901 -2.12132 -2.12132 
C -2.683901 -1.55874 -3 -0.795609 -3 0 
C -3 0.795609 -2.683901 1.55874 -2.12132 2.12132 
C -1.55874 2.683901 -0.795609 3 0 3 
z
" id="m05cd1de15d" style="stroke:#ff7f0e;"/>
    </defs>
    <g clip-path="url(#pc3c897caca)">
     <use style="fill:#ff7f0e;stroke:#ff7f0e;" x="52.375" xlink:href="#m05cd1de15d" y="237.925523"/>
     <use style="fill:#ff7f0e;stroke:#ff7f0e;" x="59.446683" xlink:href="#m05cd1de15d" y="123.533888"/>
     <use style="fill:#ff7f0e;stroke:#ff7f0e;" x="66.518366" xlink:href="#m05cd1de15d" y="146.975224"/>
     <use style="fill:#ff7f0e;stroke:#ff7f0e;" x="73.59005" xlink:href="#m05cd1de15d" y="173.894279"/>
     <use style="fill:#ff7f0e;stroke:#ff7f0e;" x="80.661733" xlink:href="#m05cd1de15d" y="186.469376"/>
     <use style="fill:#ff7f0e;stroke:#ff7f0e;" x="87.733416" xlink:href="#m05cd1de15d" y="194.494479"/>
     <use style="fill:#ff7f0e;stroke:#ff7f0e;" x="94.805099" xlink:href="#m05cd1de15d" y="201.577754"/>
     <use style="fill:#ff7f0e;stroke:#ff7f0e;" x="101.876782" xlink:href="#m05cd1de15d" y="201.828213"/>
     <use style="fill:#ff7f0e;stroke:#ff7f0e;" x="108.948465" xlink:href="#m05cd1de15d" y="203.688388"/>
     <use style="fill:#ff7f0e;stroke:#ff7f0e;" x="116.020149" xlink:href="#m05cd1de15d" y="204.93807"/>
     <use style="fill:#ff7f0e;stroke:#ff7f0e;" x="123.091832" xlink:href="#m05cd1de15d" y="206.819117"/>
     <use style="fill:#ff7f0e;stroke:#ff7f0e;" x="130.163515" xlink:href="#m05cd1de15d" y="207.246983"/>
     <use style="fill:#ff7f0e;stroke:#ff7f0e;" x="137.235198" xlink:href="#m05cd1de15d" y="207.314816"/>
     <use style="fill:#ff7f0e;stroke:#ff7f0e;" x="144.306881" xlink:href="#m05cd1de15d" y="210.085511"/>
     <use style="fill:#ff7f0e;stroke:#ff7f0e;" x="151.378564" xlink:href="#m05cd1de15d" y="210.696004"/>
     <use style="fill:#ff7f0e;stroke:#ff7f0e;" x="158.450248" xlink:href="#m05cd1de15d" y="211.877854"/>
     <use style="fill:#ff7f0e;stroke:#ff7f0e;" x="165.521931" xlink:href="#m05cd1de15d" y="212.162229"/>
     <use style="fill:#ff7f0e;stroke:#ff7f0e;" x="172.593614" xlink:href="#m05cd1de15d" y="213.826733"/>
     <use style="fill:#ff7f0e;stroke:#ff7f0e;" x="179.665297" xlink:href="#m05cd1de15d" y="216.970507"/>
     <use style="fill:#ff7f0e;stroke:#ff7f0e;" x="186.73698" xlink:href="#m05cd1de15d" y="217.4062"/>
     <use style="fill:#ff7f0e;stroke:#ff7f0e;" x="193.808663" xlink:href="#m05cd1de15d" y="217.359239"/>
     <use style="fill:#ff7f0e;stroke:#ff7f0e;" x="200.880347" xlink:href="#m05cd1de15d" y="217.839285"/>
     <use style="fill:#ff7f0e;stroke:#ff7f0e;" x="207.95203" xlink:href="#m05cd1de15d" y="218.854163"/>
     <use style="fill:#ff7f0e;stroke:#ff7f0e;" x="215.023713" xlink:href="#m05cd1de15d" y="219.148973"/>
     <use style="fill:#ff7f0e;stroke:#ff7f0e;" x="222.095396" xlink:href="#m05cd1de15d" y="220.505622"/>
     <use style="fill:#ff7f0e;stroke:#ff7f0e;" x="229.167079" xlink:href="#m05cd1de15d" y="221.092634"/>
     <use style="fill:#ff7f0e;stroke:#ff7f0e;" x="236.238762" xlink:href="#m05cd1de15d" y="221.395271"/>
     <use style="fill:#ff7f0e;stroke:#ff7f0e;" x="243.310446" xlink:href="#m05cd1de15d" y="221.723998"/>
     <use style="fill:#ff7f0e;stroke:#ff7f0e;" x="250.382129" xlink:href="#m05cd1de15d" y="221.765741"/>
     <use style="fill:#ff7f0e;stroke:#ff7f0e;" x="257.453812" xlink:href="#m05cd1de15d" y="221.854445"/>
     <use style="fill:#ff7f0e;stroke:#ff7f0e;" x="264.525495" xlink:href="#m05cd1de15d" y="221.898797"/>
     <use style="fill:#ff7f0e;stroke:#ff7f0e;" x="271.597178" xlink:href="#m05cd1de15d" y="221.857054"/>
     <use style="fill:#ff7f0e;stroke:#ff7f0e;" x="278.668861" xlink:href="#m05cd1de15d" y="222.037071"/>
     <use style="fill:#ff7f0e;stroke:#ff7f0e;" x="285.740545" xlink:href="#m05cd1de15d" y="222.53277"/>
     <use style="fill:#ff7f0e;stroke:#ff7f0e;" x="292.812228" xlink:href="#m05cd1de15d" y="222.684088"/>
     <use style="fill:#ff7f0e;stroke:#ff7f0e;" x="299.883911" xlink:href="#m05cd1de15d" y="222.725831"/>
     <use style="fill:#ff7f0e;stroke:#ff7f0e;" x="306.955594" xlink:href="#m05cd1de15d" y="222.843234"/>
     <use style="fill:#ff7f0e;stroke:#ff7f0e;" x="314.027277" xlink:href="#m05cd1de15d" y="223.479815"/>
     <use style="fill:#ff7f0e;stroke:#ff7f0e;" x="321.09896" xlink:href="#m05cd1de15d" y="223.487642"/>
     <use style="fill:#ff7f0e;stroke:#ff7f0e;" x="328.170644" xlink:href="#m05cd1de15d" y="224.640794"/>
     <use style="fill:#ff7f0e;stroke:#ff7f0e;" x="335.242327" xlink:href="#m05cd1de15d" y="225.063443"/>
     <use style="fill:#ff7f0e;stroke:#ff7f0e;" x="342.31401" xlink:href="#m05cd1de15d" y="225.399996"/>
     <use style="fill:#ff7f0e;stroke:#ff7f0e;" x="349.385693" xlink:href="#m05cd1de15d" y="225.61132"/>
     <use style="fill:#ff7f0e;stroke:#ff7f0e;" x="356.457376" xlink:href="#m05cd1de15d" y="225.736549"/>
     <use style="fill:#ff7f0e;stroke:#ff7f0e;" x="363.529059" xlink:href="#m05cd1de15d" y="225.90874"/>
     <use style="fill:#ff7f0e;stroke:#ff7f0e;" x="370.600743" xlink:href="#m05cd1de15d" y="226.42531"/>
     <use style="fill:#ff7f0e;stroke:#ff7f0e;" x="377.672426" xlink:href="#m05cd1de15d" y="226.10441"/>
     <use style="fill:#ff7f0e;stroke:#ff7f0e;" x="384.744109" xlink:href="#m05cd1de15d" y="226.221813"/>
     <use style="fill:#ff7f0e;stroke:#ff7f0e;" x="391.815792" xlink:href="#m05cd1de15d" y="226.140935"/>
     <use style="fill:#ff7f0e;stroke:#ff7f0e;" x="398.887475" xlink:href="#m05cd1de15d" y="225.903522"/>
     <use style="fill:#ff7f0e;stroke:#ff7f0e;" x="405.959158" xlink:href="#m05cd1de15d" y="226.388785"/>
    </g>
   </g>
   <g id="line2d_15">
    <path clip-path="url(#pc3c897caca)" d="M 52.375 270.568595 
L 59.446683 144.460205 
L 66.518366 167.465848 
L 73.59005 188.470434 
L 80.661733 198.906198 
L 87.733416 198.715746 
L 94.805099 205.345065 
L 101.876782 206.109485 
L 108.948465 207.750509 
L 116.020149 208.919315 
L 123.091832 209.190645 
L 130.163515 212.624011 
L 137.235198 213.448437 
L 144.306881 213.73542 
L 151.378564 213.349297 
L 158.450248 213.51366 
L 165.521931 213.398867 
L 172.593614 215.399925 
L 179.665297 216.057378 
L 186.73698 216.907893 
L 193.808663 219.117666 
L 200.880347 219.216805 
L 207.95203 219.989052 
L 215.023713 220.372566 
L 222.095396 219.835125 
L 229.167079 220.633461 
L 236.238762 221.418752 
L 243.310446 222.031853 
L 250.382129 222.4832 
L 257.453812 222.43363 
L 264.525495 222.441457 
L 271.597178 222.170127 
L 278.668861 222.584949 
L 285.740545 222.631909 
L 292.812228 222.365797 
L 299.883911 222.832798 
L 306.955594 222.707569 
L 314.027277 223.096301 
L 321.09896 223.354586 
L 328.170644 223.357195 
L 335.242327 223.654614 
L 342.31401 224.228581 
L 349.385693 224.184229 
L 356.457376 224.246844 
L 363.529059 224.627749 
L 370.600743 224.661666 
L 377.672426 224.666884 
L 384.744109 224.632967 
L 391.815792 224.47904 
L 398.887475 224.317285 
L 405.959158 224.419034 
" style="fill:none;stroke:#2ca02c;stroke-linecap:square;stroke-width:3;"/>
    <defs>
     <path d="M 0 3 
C 0.795609 3 1.55874 2.683901 2.12132 2.12132 
C 2.683901 1.55874 3 0.795609 3 0 
C 3 -0.795609 2.683901 -1.55874 2.12132 -2.12132 
C 1.55874 -2.683901 0.795609 -3 0 -3 
C -0.795609 -3 -1.55874 -2.683901 -2.12132 -2.12132 
C -2.683901 -1.55874 -3 -0.795609 -3 0 
C -3 0.795609 -2.683901 1.55874 -2.12132 2.12132 
C -1.55874 2.683901 -0.795609 3 0 3 
z
" id="m3b041ce275" style="stroke:#2ca02c;"/>
    </defs>
    <g clip-path="url(#pc3c897caca)">
     <use style="fill:#2ca02c;stroke:#2ca02c;" x="52.375" xlink:href="#m3b041ce275" y="270.568595"/>
     <use style="fill:#2ca02c;stroke:#2ca02c;" x="59.446683" xlink:href="#m3b041ce275" y="144.460205"/>
     <use style="fill:#2ca02c;stroke:#2ca02c;" x="66.518366" xlink:href="#m3b041ce275" y="167.465848"/>
     <use style="fill:#2ca02c;stroke:#2ca02c;" x="73.59005" xlink:href="#m3b041ce275" y="188.470434"/>
     <use style="fill:#2ca02c;stroke:#2ca02c;" x="80.661733" xlink:href="#m3b041ce275" y="198.906198"/>
     <use style="fill:#2ca02c;stroke:#2ca02c;" x="87.733416" xlink:href="#m3b041ce275" y="198.715746"/>
     <use style="fill:#2ca02c;stroke:#2ca02c;" x="94.805099" xlink:href="#m3b041ce275" y="205.345065"/>
     <use style="fill:#2ca02c;stroke:#2ca02c;" x="101.876782" xlink:href="#m3b041ce275" y="206.109485"/>
     <use style="fill:#2ca02c;stroke:#2ca02c;" x="108.948465" xlink:href="#m3b041ce275" y="207.750509"/>
     <use style="fill:#2ca02c;stroke:#2ca02c;" x="116.020149" xlink:href="#m3b041ce275" y="208.919315"/>
     <use style="fill:#2ca02c;stroke:#2ca02c;" x="123.091832" xlink:href="#m3b041ce275" y="209.190645"/>
     <use style="fill:#2ca02c;stroke:#2ca02c;" x="130.163515" xlink:href="#m3b041ce275" y="212.624011"/>
     <use style="fill:#2ca02c;stroke:#2ca02c;" x="137.235198" xlink:href="#m3b041ce275" y="213.448437"/>
     <use style="fill:#2ca02c;stroke:#2ca02c;" x="144.306881" xlink:href="#m3b041ce275" y="213.73542"/>
     <use style="fill:#2ca02c;stroke:#2ca02c;" x="151.378564" xlink:href="#m3b041ce275" y="213.349297"/>
     <use style="fill:#2ca02c;stroke:#2ca02c;" x="158.450248" xlink:href="#m3b041ce275" y="213.51366"/>
     <use style="fill:#2ca02c;stroke:#2ca02c;" x="165.521931" xlink:href="#m3b041ce275" y="213.398867"/>
     <use style="fill:#2ca02c;stroke:#2ca02c;" x="172.593614" xlink:href="#m3b041ce275" y="215.399925"/>
     <use style="fill:#2ca02c;stroke:#2ca02c;" x="179.665297" xlink:href="#m3b041ce275" y="216.057378"/>
     <use style="fill:#2ca02c;stroke:#2ca02c;" x="186.73698" xlink:href="#m3b041ce275" y="216.907893"/>
     <use style="fill:#2ca02c;stroke:#2ca02c;" x="193.808663" xlink:href="#m3b041ce275" y="219.117666"/>
     <use style="fill:#2ca02c;stroke:#2ca02c;" x="200.880347" xlink:href="#m3b041ce275" y="219.216805"/>
     <use style="fill:#2ca02c;stroke:#2ca02c;" x="207.95203" xlink:href="#m3b041ce275" y="219.989052"/>
     <use style="fill:#2ca02c;stroke:#2ca02c;" x="215.023713" xlink:href="#m3b041ce275" y="220.372566"/>
     <use style="fill:#2ca02c;stroke:#2ca02c;" x="222.095396" xlink:href="#m3b041ce275" y="219.835125"/>
     <use style="fill:#2ca02c;stroke:#2ca02c;" x="229.167079" xlink:href="#m3b041ce275" y="220.633461"/>
     <use style="fill:#2ca02c;stroke:#2ca02c;" x="236.238762" xlink:href="#m3b041ce275" y="221.418752"/>
     <use style="fill:#2ca02c;stroke:#2ca02c;" x="243.310446" xlink:href="#m3b041ce275" y="222.031853"/>
     <use style="fill:#2ca02c;stroke:#2ca02c;" x="250.382129" xlink:href="#m3b041ce275" y="222.4832"/>
     <use style="fill:#2ca02c;stroke:#2ca02c;" x="257.453812" xlink:href="#m3b041ce275" y="222.43363"/>
     <use style="fill:#2ca02c;stroke:#2ca02c;" x="264.525495" xlink:href="#m3b041ce275" y="222.441457"/>
     <use style="fill:#2ca02c;stroke:#2ca02c;" x="271.597178" xlink:href="#m3b041ce275" y="222.170127"/>
     <use style="fill:#2ca02c;stroke:#2ca02c;" x="278.668861" xlink:href="#m3b041ce275" y="222.584949"/>
     <use style="fill:#2ca02c;stroke:#2ca02c;" x="285.740545" xlink:href="#m3b041ce275" y="222.631909"/>
     <use style="fill:#2ca02c;stroke:#2ca02c;" x="292.812228" xlink:href="#m3b041ce275" y="222.365797"/>
     <use style="fill:#2ca02c;stroke:#2ca02c;" x="299.883911" xlink:href="#m3b041ce275" y="222.832798"/>
     <use style="fill:#2ca02c;stroke:#2ca02c;" x="306.955594" xlink:href="#m3b041ce275" y="222.707569"/>
     <use style="fill:#2ca02c;stroke:#2ca02c;" x="314.027277" xlink:href="#m3b041ce275" y="223.096301"/>
     <use style="fill:#2ca02c;stroke:#2ca02c;" x="321.09896" xlink:href="#m3b041ce275" y="223.354586"/>
     <use style="fill:#2ca02c;stroke:#2ca02c;" x="328.170644" xlink:href="#m3b041ce275" y="223.357195"/>
     <use style="fill:#2ca02c;stroke:#2ca02c;" x="335.242327" xlink:href="#m3b041ce275" y="223.654614"/>
     <use style="fill:#2ca02c;stroke:#2ca02c;" x="342.31401" xlink:href="#m3b041ce275" y="224.228581"/>
     <use style="fill:#2ca02c;stroke:#2ca02c;" x="349.385693" xlink:href="#m3b041ce275" y="224.184229"/>
     <use style="fill:#2ca02c;stroke:#2ca02c;" x="356.457376" xlink:href="#m3b041ce275" y="224.246844"/>
     <use style="fill:#2ca02c;stroke:#2ca02c;" x="363.529059" xlink:href="#m3b041ce275" y="224.627749"/>
     <use style="fill:#2ca02c;stroke:#2ca02c;" x="370.600743" xlink:href="#m3b041ce275" y="224.661666"/>
     <use style="fill:#2ca02c;stroke:#2ca02c;" x="377.672426" xlink:href="#m3b041ce275" y="224.666884"/>
     <use style="fill:#2ca02c;stroke:#2ca02c;" x="384.744109" xlink:href="#m3b041ce275" y="224.632967"/>
     <use style="fill:#2ca02c;stroke:#2ca02c;" x="391.815792" xlink:href="#m3b041ce275" y="224.47904"/>
     <use style="fill:#2ca02c;stroke:#2ca02c;" x="398.887475" xlink:href="#m3b041ce275" y="224.317285"/>
     <use style="fill:#2ca02c;stroke:#2ca02c;" x="405.959158" xlink:href="#m3b041ce275" y="224.419034"/>
    </g>
   </g>
   <g id="line2d_16">
    <path clip-path="url(#pc3c897caca)" d="M 52.375 270.568595 
L 59.446683 106.312267 
L 66.518366 133.53135 
L 73.59005 145.621184 
L 80.661733 166.479669 
L 87.733416 171.37926 
L 94.805099 174.473464 
L 101.876782 176.7015 
L 108.948465 178.287736 
L 116.020149 180.685353 
L 123.091832 181.650661 
L 130.163515 181.830678 
L 137.235198 182.130707 
L 144.306881 183.883915 
L 151.378564 184.110893 
L 158.450248 184.262212 
L 165.521931 184.596156 
L 172.593614 185.303179 
L 179.665297 184.820525 
L 186.73698 184.812698 
L 193.808663 185.303179 
L 200.880347 185.402319 
L 207.95203 185.470151 
L 215.023713 186.16413 
L 222.095396 185.464933 
L 229.167079 185.564073 
L 236.238762 184.995324 
L 243.310446 185.031849 
L 250.382129 185.417973 
L 257.453812 185.592772 
L 264.525495 184.990106 
L 271.597178 184.927492 
L 278.668861 185.013587 
L 285.740545 184.927492 
L 292.812228 184.893575 
L 299.883911 184.990106 
L 306.955594 184.964017 
L 314.027277 185.459716 
L 321.09896 184.958799 
L 328.170644 185.318833 
L 335.242327 185.718001 
L 342.31401 185.420581 
L 349.385693 185.67104 
L 356.457376 185.433626 
L 363.529059 185.527548 
L 370.600743 185.574509 
L 377.672426 185.673649 
L 384.744109 185.684085 
L 391.815792 185.397101 
L 398.887475 185.376229 
L 405.959158 185.590163 
" style="fill:none;stroke:#d62728;stroke-linecap:square;stroke-width:3;"/>
    <defs>
     <path d="M 0 3 
C 0.795609 3 1.55874 2.683901 2.12132 2.12132 
C 2.683901 1.55874 3 0.795609 3 0 
C 3 -0.795609 2.683901 -1.55874 2.12132 -2.12132 
C 1.55874 -2.683901 0.795609 -3 0 -3 
C -0.795609 -3 -1.55874 -2.683901 -2.12132 -2.12132 
C -2.683901 -1.55874 -3 -0.795609 -3 0 
C -3 0.795609 -2.683901 1.55874 -2.12132 2.12132 
C -1.55874 2.683901 -0.795609 3 0 3 
z
" id="m92294287e7" style="stroke:#d62728;"/>
    </defs>
    <g clip-path="url(#pc3c897caca)">
     <use style="fill:#d62728;stroke:#d62728;" x="52.375" xlink:href="#m92294287e7" y="270.568595"/>
     <use style="fill:#d62728;stroke:#d62728;" x="59.446683" xlink:href="#m92294287e7" y="106.312267"/>
     <use style="fill:#d62728;stroke:#d62728;" x="66.518366" xlink:href="#m92294287e7" y="133.53135"/>
     <use style="fill:#d62728;stroke:#d62728;" x="73.59005" xlink:href="#m92294287e7" y="145.621184"/>
     <use style="fill:#d62728;stroke:#d62728;" x="80.661733" xlink:href="#m92294287e7" y="166.479669"/>
     <use style="fill:#d62728;stroke:#d62728;" x="87.733416" xlink:href="#m92294287e7" y="171.37926"/>
     <use style="fill:#d62728;stroke:#d62728;" x="94.805099" xlink:href="#m92294287e7" y="174.473464"/>
     <use style="fill:#d62728;stroke:#d62728;" x="101.876782" xlink:href="#m92294287e7" y="176.7015"/>
     <use style="fill:#d62728;stroke:#d62728;" x="108.948465" xlink:href="#m92294287e7" y="178.287736"/>
     <use style="fill:#d62728;stroke:#d62728;" x="116.020149" xlink:href="#m92294287e7" y="180.685353"/>
     <use style="fill:#d62728;stroke:#d62728;" x="123.091832" xlink:href="#m92294287e7" y="181.650661"/>
     <use style="fill:#d62728;stroke:#d62728;" x="130.163515" xlink:href="#m92294287e7" y="181.830678"/>
     <use style="fill:#d62728;stroke:#d62728;" x="137.235198" xlink:href="#m92294287e7" y="182.130707"/>
     <use style="fill:#d62728;stroke:#d62728;" x="144.306881" xlink:href="#m92294287e7" y="183.883915"/>
     <use style="fill:#d62728;stroke:#d62728;" x="151.378564" xlink:href="#m92294287e7" y="184.110893"/>
     <use style="fill:#d62728;stroke:#d62728;" x="158.450248" xlink:href="#m92294287e7" y="184.262212"/>
     <use style="fill:#d62728;stroke:#d62728;" x="165.521931" xlink:href="#m92294287e7" y="184.596156"/>
     <use style="fill:#d62728;stroke:#d62728;" x="172.593614" xlink:href="#m92294287e7" y="185.303179"/>
     <use style="fill:#d62728;stroke:#d62728;" x="179.665297" xlink:href="#m92294287e7" y="184.820525"/>
     <use style="fill:#d62728;stroke:#d62728;" x="186.73698" xlink:href="#m92294287e7" y="184.812698"/>
     <use style="fill:#d62728;stroke:#d62728;" x="193.808663" xlink:href="#m92294287e7" y="185.303179"/>
     <use style="fill:#d62728;stroke:#d62728;" x="200.880347" xlink:href="#m92294287e7" y="185.402319"/>
     <use style="fill:#d62728;stroke:#d62728;" x="207.95203" xlink:href="#m92294287e7" y="185.470151"/>
     <use style="fill:#d62728;stroke:#d62728;" x="215.023713" xlink:href="#m92294287e7" y="186.16413"/>
     <use style="fill:#d62728;stroke:#d62728;" x="222.095396" xlink:href="#m92294287e7" y="185.464933"/>
     <use style="fill:#d62728;stroke:#d62728;" x="229.167079" xlink:href="#m92294287e7" y="185.564073"/>
     <use style="fill:#d62728;stroke:#d62728;" x="236.238762" xlink:href="#m92294287e7" y="184.995324"/>
     <use style="fill:#d62728;stroke:#d62728;" x="243.310446" xlink:href="#m92294287e7" y="185.031849"/>
     <use style="fill:#d62728;stroke:#d62728;" x="250.382129" xlink:href="#m92294287e7" y="185.417973"/>
     <use style="fill:#d62728;stroke:#d62728;" x="257.453812" xlink:href="#m92294287e7" y="185.592772"/>
     <use style="fill:#d62728;stroke:#d62728;" x="264.525495" xlink:href="#m92294287e7" y="184.990106"/>
     <use style="fill:#d62728;stroke:#d62728;" x="271.597178" xlink:href="#m92294287e7" y="184.927492"/>
     <use style="fill:#d62728;stroke:#d62728;" x="278.668861" xlink:href="#m92294287e7" y="185.013587"/>
     <use style="fill:#d62728;stroke:#d62728;" x="285.740545" xlink:href="#m92294287e7" y="184.927492"/>
     <use style="fill:#d62728;stroke:#d62728;" x="292.812228" xlink:href="#m92294287e7" y="184.893575"/>
     <use style="fill:#d62728;stroke:#d62728;" x="299.883911" xlink:href="#m92294287e7" y="184.990106"/>
     <use style="fill:#d62728;stroke:#d62728;" x="306.955594" xlink:href="#m92294287e7" y="184.964017"/>
     <use style="fill:#d62728;stroke:#d62728;" x="314.027277" xlink:href="#m92294287e7" y="185.459716"/>
     <use style="fill:#d62728;stroke:#d62728;" x="321.09896" xlink:href="#m92294287e7" y="184.958799"/>
     <use style="fill:#d62728;stroke:#d62728;" x="328.170644" xlink:href="#m92294287e7" y="185.318833"/>
     <use style="fill:#d62728;stroke:#d62728;" x="335.242327" xlink:href="#m92294287e7" y="185.718001"/>
     <use style="fill:#d62728;stroke:#d62728;" x="342.31401" xlink:href="#m92294287e7" y="185.420581"/>
     <use style="fill:#d62728;stroke:#d62728;" x="349.385693" xlink:href="#m92294287e7" y="185.67104"/>
     <use style="fill:#d62728;stroke:#d62728;" x="356.457376" xlink:href="#m92294287e7" y="185.433626"/>
     <use style="fill:#d62728;stroke:#d62728;" x="363.529059" xlink:href="#m92294287e7" y="185.527548"/>
     <use style="fill:#d62728;stroke:#d62728;" x="370.600743" xlink:href="#m92294287e7" y="185.574509"/>
     <use style="fill:#d62728;stroke:#d62728;" x="377.672426" xlink:href="#m92294287e7" y="185.673649"/>
     <use style="fill:#d62728;stroke:#d62728;" x="384.744109" xlink:href="#m92294287e7" y="185.684085"/>
     <use style="fill:#d62728;stroke:#d62728;" x="391.815792" xlink:href="#m92294287e7" y="185.397101"/>
     <use style="fill:#d62728;stroke:#d62728;" x="398.887475" xlink:href="#m92294287e7" y="185.376229"/>
     <use style="fill:#d62728;stroke:#d62728;" x="405.959158" xlink:href="#m92294287e7" y="185.590163"/>
    </g>
   </g>
   <g id="patch_3">
    <path d="M 52.375 280.910437 
L 52.375 14.798437 
" style="fill:none;stroke:#000000;stroke-linecap:square;stroke-linejoin:miter;stroke-width:0.8;"/>
   </g>
   <g id="patch_4">
    <path d="M 409.495 280.910437 
L 409.495 14.798437 
" style="fill:none;stroke:#000000;stroke-linecap:square;stroke-linejoin:miter;stroke-width:0.8;"/>
   </g>
   <g id="patch_5">
    <path d="M 52.375 280.910437 
L 409.495 280.910437 
" style="fill:none;stroke:#000000;stroke-linecap:square;stroke-linejoin:miter;stroke-width:0.8;"/>
   </g>
   <g id="patch_6">
    <path d="M 52.375 14.798437 
L 409.495 14.798437 
" style="fill:none;stroke:#000000;stroke-linecap:square;stroke-linejoin:miter;stroke-width:0.8;"/>
   </g>
   <g id="legend_1">
    <g id="patch_7">
     <path d="M 433.222188 114.867188 
L 577.555 114.867188 
Q 580.555 114.867188 580.555 111.867188 
L 580.555 25.298437 
Q 580.555 22.298437 577.555 22.298437 
L 433.222188 22.298437 
Q 430.222188 22.298437 430.222188 25.298437 
L 430.222188 111.867188 
Q 430.222188 114.867188 433.222188 114.867188 
z
" style="fill:#ffffff;opacity:0.8;stroke:#cccccc;stroke-linejoin:miter;"/>
    </g>
    <g id="line2d_17">
     <path d="M 436.222188 34.446094 
L 466.222188 34.446094 
" style="fill:none;stroke:#1f77b4;stroke-linecap:square;stroke-width:3;"/>
    </g>
    <g id="line2d_18">
     <g>
      <use style="fill:#1f77b4;stroke:#1f77b4;" x="451.222188" xlink:href="#m16d39f5421" y="34.446094"/>
     </g>
    </g>
    <g id="text_13">
     <!-- dist(0.6, 1.0) -->
     <defs>
      <path d="M 45.40625 46.390625 
L 45.40625 75.984375 
L 54.390625 75.984375 
L 54.390625 0 
L 45.40625 0 
L 45.40625 8.203125 
Q 42.578125 3.328125 38.25 0.953125 
Q 33.9375 -1.421875 27.875 -1.421875 
Q 17.96875 -1.421875 11.734375 6.484375 
Q 5.515625 14.40625 5.515625 27.296875 
Q 5.515625 40.1875 11.734375 48.09375 
Q 17.96875 56 27.875 56 
Q 33.9375 56 38.25 53.625 
Q 42.578125 51.265625 45.40625 46.390625 
z
M 14.796875 27.296875 
Q 14.796875 17.390625 18.875 11.75 
Q 22.953125 6.109375 30.078125 6.109375 
Q 37.203125 6.109375 41.296875 11.75 
Q 45.40625 17.390625 45.40625 27.296875 
Q 45.40625 37.203125 41.296875 42.84375 
Q 37.203125 48.484375 30.078125 48.484375 
Q 22.953125 48.484375 18.875 42.84375 
Q 14.796875 37.203125 14.796875 27.296875 
z
" id="DejaVuSans-64"/>
      <path d="M 9.421875 54.6875 
L 18.40625 54.6875 
L 18.40625 0 
L 9.421875 0 
z
M 9.421875 75.984375 
L 18.40625 75.984375 
L 18.40625 64.59375 
L 9.421875 64.59375 
z
" id="DejaVuSans-69"/>
      <path d="M 44.28125 53.078125 
L 44.28125 44.578125 
Q 40.484375 46.53125 36.375 47.5 
Q 32.28125 48.484375 27.875 48.484375 
Q 21.1875 48.484375 17.84375 46.4375 
Q 14.5 44.390625 14.5 40.28125 
Q 14.5 37.15625 16.890625 35.375 
Q 19.28125 33.59375 26.515625 31.984375 
L 29.59375 31.296875 
Q 39.15625 29.25 43.1875 25.515625 
Q 47.21875 21.78125 47.21875 15.09375 
Q 47.21875 7.46875 41.1875 3.015625 
Q 35.15625 -1.421875 24.609375 -1.421875 
Q 20.21875 -1.421875 15.453125 -0.5625 
Q 10.6875 0.296875 5.421875 2 
L 5.421875 11.28125 
Q 10.40625 8.6875 15.234375 7.390625 
Q 20.0625 6.109375 24.8125 6.109375 
Q 31.15625 6.109375 34.5625 8.28125 
Q 37.984375 10.453125 37.984375 14.40625 
Q 37.984375 18.0625 35.515625 20.015625 
Q 33.0625 21.96875 24.703125 23.78125 
L 21.578125 24.515625 
Q 13.234375 26.265625 9.515625 29.90625 
Q 5.8125 33.546875 5.8125 39.890625 
Q 5.8125 47.609375 11.28125 51.796875 
Q 16.75 56 26.8125 56 
Q 31.78125 56 36.171875 55.265625 
Q 40.578125 54.546875 44.28125 53.078125 
z
" id="DejaVuSans-73"/>
      <path d="M 18.3125 70.21875 
L 18.3125 54.6875 
L 36.8125 54.6875 
L 36.8125 47.703125 
L 18.3125 47.703125 
L 18.3125 18.015625 
Q 18.3125 11.328125 20.140625 9.421875 
Q 21.96875 7.515625 27.59375 7.515625 
L 36.8125 7.515625 
L 36.8125 0 
L 27.59375 0 
Q 17.1875 0 13.234375 3.875 
Q 9.28125 7.765625 9.28125 18.015625 
L 9.28125 47.703125 
L 2.6875 47.703125 
L 2.6875 54.6875 
L 9.28125 54.6875 
L 9.28125 70.21875 
z
" id="DejaVuSans-74"/>
      <path d="M 31 75.875 
Q 24.46875 64.65625 21.28125 53.65625 
Q 18.109375 42.671875 18.109375 31.390625 
Q 18.109375 20.125 21.3125 9.0625 
Q 24.515625 -2 31 -13.1875 
L 23.1875 -13.1875 
Q 15.875 -1.703125 12.234375 9.375 
Q 8.59375 20.453125 8.59375 31.390625 
Q 8.59375 42.28125 12.203125 53.3125 
Q 15.828125 64.359375 23.1875 75.875 
z
" id="DejaVuSans-28"/>
      <path d="M 10.6875 12.40625 
L 21 12.40625 
L 21 0 
L 10.6875 0 
z
" id="DejaVuSans-2e"/>
      <path d="M 33.015625 40.375 
Q 26.375 40.375 22.484375 35.828125 
Q 18.609375 31.296875 18.609375 23.390625 
Q 18.609375 15.53125 22.484375 10.953125 
Q 26.375 6.390625 33.015625 6.390625 
Q 39.65625 6.390625 43.53125 10.953125 
Q 47.40625 15.53125 47.40625 23.390625 
Q 47.40625 31.296875 43.53125 35.828125 
Q 39.65625 40.375 33.015625 40.375 
z
M 52.59375 71.296875 
L 52.59375 62.3125 
Q 48.875 64.0625 45.09375 64.984375 
Q 41.3125 65.921875 37.59375 65.921875 
Q 27.828125 65.921875 22.671875 59.328125 
Q 17.53125 52.734375 16.796875 39.40625 
Q 19.671875 43.65625 24.015625 45.921875 
Q 28.375 48.1875 33.59375 48.1875 
Q 44.578125 48.1875 50.953125 41.515625 
Q 57.328125 34.859375 57.328125 23.390625 
Q 57.328125 12.15625 50.6875 5.359375 
Q 44.046875 -1.421875 33.015625 -1.421875 
Q 20.359375 -1.421875 13.671875 8.265625 
Q 6.984375 17.96875 6.984375 36.375 
Q 6.984375 53.65625 15.1875 63.9375 
Q 23.390625 74.21875 37.203125 74.21875 
Q 40.921875 74.21875 44.703125 73.484375 
Q 48.484375 72.75 52.59375 71.296875 
z
" id="DejaVuSans-36"/>
      <path d="M 11.71875 12.40625 
L 22.015625 12.40625 
L 22.015625 4 
L 14.015625 -11.625 
L 7.71875 -11.625 
L 11.71875 4 
z
" id="DejaVuSans-2c"/>
      <path id="DejaVuSans-20"/>
      <path d="M 8.015625 75.875 
L 15.828125 75.875 
Q 23.140625 64.359375 26.78125 53.3125 
Q 30.421875 42.28125 30.421875 31.390625 
Q 30.421875 20.453125 26.78125 9.375 
Q 23.140625 -1.703125 15.828125 -13.1875 
L 8.015625 -13.1875 
Q 14.5 -2 17.703125 9.0625 
Q 20.90625 20.125 20.90625 31.390625 
Q 20.90625 42.671875 17.703125 53.65625 
Q 14.5 64.65625 8.015625 75.875 
z
" id="DejaVuSans-29"/>
     </defs>
     <g transform="translate(478.222188 39.696094)scale(0.15 -0.15)">
      <use xlink:href="#DejaVuSans-64"/>
      <use x="63.476562" xlink:href="#DejaVuSans-69"/>
      <use x="91.259766" xlink:href="#DejaVuSans-73"/>
      <use x="143.359375" xlink:href="#DejaVuSans-74"/>
      <use x="182.568359" xlink:href="#DejaVuSans-28"/>
      <use x="221.582031" xlink:href="#DejaVuSans-30"/>
      <use x="285.205078" xlink:href="#DejaVuSans-2e"/>
      <use x="316.992188" xlink:href="#DejaVuSans-36"/>
      <use x="380.615234" xlink:href="#DejaVuSans-2c"/>
      <use x="412.402344" xlink:href="#DejaVuSans-20"/>
      <use x="444.189453" xlink:href="#DejaVuSans-31"/>
      <use x="507.8125" xlink:href="#DejaVuSans-2e"/>
      <use x="539.599609" xlink:href="#DejaVuSans-30"/>
      <use x="603.222656" xlink:href="#DejaVuSans-29"/>
     </g>
    </g>
    <g id="line2d_19">
     <path d="M 436.222188 56.463281 
L 466.222188 56.463281 
" style="fill:none;stroke:#ff7f0e;stroke-linecap:square;stroke-width:3;"/>
    </g>
    <g id="line2d_20">
     <g>
      <use style="fill:#ff7f0e;stroke:#ff7f0e;" x="451.222188" xlink:href="#m05cd1de15d" y="56.463281"/>
     </g>
    </g>
    <g id="text_14">
     <!-- dist(0.8, 1.0) -->
     <defs>
      <path d="M 31.78125 34.625 
Q 24.75 34.625 20.71875 30.859375 
Q 16.703125 27.09375 16.703125 20.515625 
Q 16.703125 13.921875 20.71875 10.15625 
Q 24.75 6.390625 31.78125 6.390625 
Q 38.8125 6.390625 42.859375 10.171875 
Q 46.921875 13.96875 46.921875 20.515625 
Q 46.921875 27.09375 42.890625 30.859375 
Q 38.875 34.625 31.78125 34.625 
z
M 21.921875 38.8125 
Q 15.578125 40.375 12.03125 44.71875 
Q 8.5 49.078125 8.5 55.328125 
Q 8.5 64.0625 14.71875 69.140625 
Q 20.953125 74.21875 31.78125 74.21875 
Q 42.671875 74.21875 48.875 69.140625 
Q 55.078125 64.0625 55.078125 55.328125 
Q 55.078125 49.078125 51.53125 44.71875 
Q 48 40.375 41.703125 38.8125 
Q 48.828125 37.15625 52.796875 32.3125 
Q 56.78125 27.484375 56.78125 20.515625 
Q 56.78125 9.90625 50.3125 4.234375 
Q 43.84375 -1.421875 31.78125 -1.421875 
Q 19.734375 -1.421875 13.25 4.234375 
Q 6.78125 9.90625 6.78125 20.515625 
Q 6.78125 27.484375 10.78125 32.3125 
Q 14.796875 37.15625 21.921875 38.8125 
z
M 18.3125 54.390625 
Q 18.3125 48.734375 21.84375 45.5625 
Q 25.390625 42.390625 31.78125 42.390625 
Q 38.140625 42.390625 41.71875 45.5625 
Q 45.3125 48.734375 45.3125 54.390625 
Q 45.3125 60.0625 41.71875 63.234375 
Q 38.140625 66.40625 31.78125 66.40625 
Q 25.390625 66.40625 21.84375 63.234375 
Q 18.3125 60.0625 18.3125 54.390625 
z
" id="DejaVuSans-38"/>
     </defs>
     <g transform="translate(478.222188 61.713281)scale(0.15 -0.15)">
      <use xlink:href="#DejaVuSans-64"/>
      <use x="63.476562" xlink:href="#DejaVuSans-69"/>
      <use x="91.259766" xlink:href="#DejaVuSans-73"/>
      <use x="143.359375" xlink:href="#DejaVuSans-74"/>
      <use x="182.568359" xlink:href="#DejaVuSans-28"/>
      <use x="221.582031" xlink:href="#DejaVuSans-30"/>
      <use x="285.205078" xlink:href="#DejaVuSans-2e"/>
      <use x="316.992188" xlink:href="#DejaVuSans-38"/>
      <use x="380.615234" xlink:href="#DejaVuSans-2c"/>
      <use x="412.402344" xlink:href="#DejaVuSans-20"/>
      <use x="444.189453" xlink:href="#DejaVuSans-31"/>
      <use x="507.8125" xlink:href="#DejaVuSans-2e"/>
      <use x="539.599609" xlink:href="#DejaVuSans-30"/>
      <use x="603.222656" xlink:href="#DejaVuSans-29"/>
     </g>
    </g>
    <g id="line2d_21">
     <path d="M 436.222188 78.480469 
L 466.222188 78.480469 
" style="fill:none;stroke:#2ca02c;stroke-linecap:square;stroke-width:3;"/>
    </g>
    <g id="line2d_22">
     <g>
      <use style="fill:#2ca02c;stroke:#2ca02c;" x="451.222188" xlink:href="#m3b041ce275" y="78.480469"/>
     </g>
    </g>
    <g id="text_15">
     <!-- dist(1.2, 1.0) -->
     <g transform="translate(478.222188 83.730469)scale(0.15 -0.15)">
      <use xlink:href="#DejaVuSans-64"/>
      <use x="63.476562" xlink:href="#DejaVuSans-69"/>
      <use x="91.259766" xlink:href="#DejaVuSans-73"/>
      <use x="143.359375" xlink:href="#DejaVuSans-74"/>
      <use x="182.568359" xlink:href="#DejaVuSans-28"/>
      <use x="221.582031" xlink:href="#DejaVuSans-31"/>
      <use x="285.205078" xlink:href="#DejaVuSans-2e"/>
      <use x="316.992188" xlink:href="#DejaVuSans-32"/>
      <use x="380.615234" xlink:href="#DejaVuSans-2c"/>
      <use x="412.402344" xlink:href="#DejaVuSans-20"/>
      <use x="444.189453" xlink:href="#DejaVuSans-31"/>
      <use x="507.8125" xlink:href="#DejaVuSans-2e"/>
      <use x="539.599609" xlink:href="#DejaVuSans-30"/>
      <use x="603.222656" xlink:href="#DejaVuSans-29"/>
     </g>
    </g>
    <g id="line2d_23">
     <path d="M 436.222188 100.497656 
L 466.222188 100.497656 
" style="fill:none;stroke:#d62728;stroke-linecap:square;stroke-width:3;"/>
    </g>
    <g id="line2d_24">
     <g>
      <use style="fill:#d62728;stroke:#d62728;" x="451.222188" xlink:href="#m92294287e7" y="100.497656"/>
     </g>
    </g>
    <g id="text_16">
     <!-- dist(1.4, 1.0) -->
     <g transform="translate(478.222188 105.747656)scale(0.15 -0.15)">
      <use xlink:href="#DejaVuSans-64"/>
      <use x="63.476562" xlink:href="#DejaVuSans-69"/>
      <use x="91.259766" xlink:href="#DejaVuSans-73"/>
      <use x="143.359375" xlink:href="#DejaVuSans-74"/>
      <use x="182.568359" xlink:href="#DejaVuSans-28"/>
      <use x="221.582031" xlink:href="#DejaVuSans-31"/>
      <use x="285.205078" xlink:href="#DejaVuSans-2e"/>
      <use x="316.992188" xlink:href="#DejaVuSans-34"/>
      <use x="380.615234" xlink:href="#DejaVuSans-2c"/>
      <use x="412.402344" xlink:href="#DejaVuSans-20"/>
      <use x="444.189453" xlink:href="#DejaVuSans-31"/>
      <use x="507.8125" xlink:href="#DejaVuSans-2e"/>
      <use x="539.599609" xlink:href="#DejaVuSans-30"/>
      <use x="603.222656" xlink:href="#DejaVuSans-29"/>
     </g>
    </g>
   </g>
  </g>
 </g>
 <defs>
  <clipPath id="pc3c897caca">
   <rect height="266.112" width="357.12" x="52.375" y="14.798437"/>
  </clipPath>
 </defs>
</svg>
