<?xml version="1.0" encoding="utf-8" standalone="no"?>
<!DOCTYPE svg PUBLIC "-//W3C//DTD SVG 1.1//EN"
  "http://www.w3.org/Graphics/SVG/1.1/DTD/svg11.dtd">
<svg height="357.042pt" version="1.1" viewBox="0 0 467.13533 357.042" width="467.13533pt" xmlns="http://www.w3.org/2000/svg" xmlns:xlink="http://www.w3.org/1999/xlink">
 <metadata>
  <rdf:RDF xmlns:cc="http://creativecommons.org/ns#" xmlns:dc="http://purl.org/dc/elements/1.1/" xmlns:rdf="http://www.w3.org/1999/02/22-rdf-syntax-ns#">
   <cc:Work>
    <dc:type rdf:resource="http://purl.org/dc/dcmitype/StillImage"/>
    <dc:date>2021-11-15T17:33:30.743605</dc:date>
    <dc:format>image/svg+xml</dc:format>
    <dc:creator>
     <cc:Agent>
      <dc:title>Matplotlib v3.4.3, https://matplotlib.org/</dc:title>
     </cc:Agent>
    </dc:creator>
   </cc:Work>
  </rdf:RDF>
 </metadata>
 <defs>
  <style type="text/css">*{stroke-linecap:butt;stroke-linejoin:round;}</style>
 </defs>
 <g id="figure_1">
  <g id="patch_1">
   <path d="M 0 357.042 
L 467.13533 357.042 
L 467.13533 0 
L 0 0 
z
" style="fill:none;"/>
  </g>
  <g id="axes_1">
   <g id="patch_2">
    <path d="M 102.7425 307.872 
L 459.8625 307.872 
L 459.8625 41.76 
L 102.7425 41.76 
z
" style="fill:none;"/>
   </g>
   <g id="matplotlib.axis_1">
    <g id="xtick_1">
     <g id="line2d_1">
      <path clip-path="url(#pa1bb04f1e7)" d="M 105.974044 307.872 
L 105.974044 41.76 
" style="fill:none;stroke:#b0b0b0;stroke-linecap:square;stroke-width:0.8;"/>
     </g>
     <g id="line2d_2">
      <defs>
       <path d="M 0 0 
L 0 3.5 
" id="m230776e7b6" style="stroke:#000000;stroke-width:0.8;"/>
      </defs>
      <g>
       <use style="stroke:#000000;stroke-width:0.8;" x="105.974044" xlink:href="#m230776e7b6" y="307.872"/>
      </g>
     </g>
     <g id="text_1">
      <!-- 0 -->
      <g transform="translate(100.884044 327.0295)scale(0.16 -0.16)">
       <defs>
        <path d="M 2034 4250 
Q 1547 4250 1301 3770 
Q 1056 3291 1056 2328 
Q 1056 1369 1301 889 
Q 1547 409 2034 409 
Q 2525 409 2770 889 
Q 3016 1369 3016 2328 
Q 3016 3291 2770 3770 
Q 2525 4250 2034 4250 
z
M 2034 4750 
Q 2819 4750 3233 4129 
Q 3647 3509 3647 2328 
Q 3647 1150 3233 529 
Q 2819 -91 2034 -91 
Q 1250 -91 836 529 
Q 422 1150 422 2328 
Q 422 3509 836 4129 
Q 1250 4750 2034 4750 
z
" id="DejaVuSans-30" transform="scale(0.015625)"/>
       </defs>
       <use xlink:href="#DejaVuSans-30"/>
      </g>
     </g>
    </g>
    <g id="xtick_2">
     <g id="line2d_3">
      <path clip-path="url(#pa1bb04f1e7)" d="M 174.730301 307.872 
L 174.730301 41.76 
" style="fill:none;stroke:#b0b0b0;stroke-linecap:square;stroke-width:0.8;"/>
     </g>
     <g id="line2d_4">
      <g>
       <use style="stroke:#000000;stroke-width:0.8;" x="174.730301" xlink:href="#m230776e7b6" y="307.872"/>
      </g>
     </g>
     <g id="text_2">
      <!-- 10 -->
      <g transform="translate(164.550301 327.0295)scale(0.16 -0.16)">
       <defs>
        <path d="M 794 531 
L 1825 531 
L 1825 4091 
L 703 3866 
L 703 4441 
L 1819 4666 
L 2450 4666 
L 2450 531 
L 3481 531 
L 3481 0 
L 794 0 
L 794 531 
z
" id="DejaVuSans-31" transform="scale(0.015625)"/>
       </defs>
       <use xlink:href="#DejaVuSans-31"/>
       <use x="63.623047" xlink:href="#DejaVuSans-30"/>
      </g>
     </g>
    </g>
    <g id="xtick_3">
     <g id="line2d_5">
      <path clip-path="url(#pa1bb04f1e7)" d="M 243.486559 307.872 
L 243.486559 41.76 
" style="fill:none;stroke:#b0b0b0;stroke-linecap:square;stroke-width:0.8;"/>
     </g>
     <g id="line2d_6">
      <g>
       <use style="stroke:#000000;stroke-width:0.8;" x="243.486559" xlink:href="#m230776e7b6" y="307.872"/>
      </g>
     </g>
     <g id="text_3">
      <!-- 20 -->
      <g transform="translate(233.306559 327.0295)scale(0.16 -0.16)">
       <defs>
        <path d="M 1228 531 
L 3431 531 
L 3431 0 
L 469 0 
L 469 531 
Q 828 903 1448 1529 
Q 2069 2156 2228 2338 
Q 2531 2678 2651 2914 
Q 2772 3150 2772 3378 
Q 2772 3750 2511 3984 
Q 2250 4219 1831 4219 
Q 1534 4219 1204 4116 
Q 875 4013 500 3803 
L 500 4441 
Q 881 4594 1212 4672 
Q 1544 4750 1819 4750 
Q 2544 4750 2975 4387 
Q 3406 4025 3406 3419 
Q 3406 3131 3298 2873 
Q 3191 2616 2906 2266 
Q 2828 2175 2409 1742 
Q 1991 1309 1228 531 
z
" id="DejaVuSans-32" transform="scale(0.015625)"/>
       </defs>
       <use xlink:href="#DejaVuSans-32"/>
       <use x="63.623047" xlink:href="#DejaVuSans-30"/>
      </g>
     </g>
    </g>
    <g id="xtick_4">
     <g id="line2d_7">
      <path clip-path="url(#pa1bb04f1e7)" d="M 312.242816 307.872 
L 312.242816 41.76 
" style="fill:none;stroke:#b0b0b0;stroke-linecap:square;stroke-width:0.8;"/>
     </g>
     <g id="line2d_8">
      <g>
       <use style="stroke:#000000;stroke-width:0.8;" x="312.242816" xlink:href="#m230776e7b6" y="307.872"/>
      </g>
     </g>
     <g id="text_4">
      <!-- 30 -->
      <g transform="translate(302.062816 327.0295)scale(0.16 -0.16)">
       <defs>
        <path d="M 2597 2516 
Q 3050 2419 3304 2112 
Q 3559 1806 3559 1356 
Q 3559 666 3084 287 
Q 2609 -91 1734 -91 
Q 1441 -91 1130 -33 
Q 819 25 488 141 
L 488 750 
Q 750 597 1062 519 
Q 1375 441 1716 441 
Q 2309 441 2620 675 
Q 2931 909 2931 1356 
Q 2931 1769 2642 2001 
Q 2353 2234 1838 2234 
L 1294 2234 
L 1294 2753 
L 1863 2753 
Q 2328 2753 2575 2939 
Q 2822 3125 2822 3475 
Q 2822 3834 2567 4026 
Q 2313 4219 1838 4219 
Q 1578 4219 1281 4162 
Q 984 4106 628 3988 
L 628 4550 
Q 988 4650 1302 4700 
Q 1616 4750 1894 4750 
Q 2613 4750 3031 4423 
Q 3450 4097 3450 3541 
Q 3450 3153 3228 2886 
Q 3006 2619 2597 2516 
z
" id="DejaVuSans-33" transform="scale(0.015625)"/>
       </defs>
       <use xlink:href="#DejaVuSans-33"/>
       <use x="63.623047" xlink:href="#DejaVuSans-30"/>
      </g>
     </g>
    </g>
    <g id="xtick_5">
     <g id="line2d_9">
      <path clip-path="url(#pa1bb04f1e7)" d="M 380.999073 307.872 
L 380.999073 41.76 
" style="fill:none;stroke:#b0b0b0;stroke-linecap:square;stroke-width:0.8;"/>
     </g>
     <g id="line2d_10">
      <g>
       <use style="stroke:#000000;stroke-width:0.8;" x="380.999073" xlink:href="#m230776e7b6" y="307.872"/>
      </g>
     </g>
     <g id="text_5">
      <!-- 40 -->
      <g transform="translate(370.819073 327.0295)scale(0.16 -0.16)">
       <defs>
        <path d="M 2419 4116 
L 825 1625 
L 2419 1625 
L 2419 4116 
z
M 2253 4666 
L 3047 4666 
L 3047 1625 
L 3713 1625 
L 3713 1100 
L 3047 1100 
L 3047 0 
L 2419 0 
L 2419 1100 
L 313 1100 
L 313 1709 
L 2253 4666 
z
" id="DejaVuSans-34" transform="scale(0.015625)"/>
       </defs>
       <use xlink:href="#DejaVuSans-34"/>
       <use x="63.623047" xlink:href="#DejaVuSans-30"/>
      </g>
     </g>
    </g>
    <g id="xtick_6">
     <g id="line2d_11">
      <path clip-path="url(#pa1bb04f1e7)" d="M 449.75533 307.872 
L 449.75533 41.76 
" style="fill:none;stroke:#b0b0b0;stroke-linecap:square;stroke-width:0.8;"/>
     </g>
     <g id="line2d_12">
      <g>
       <use style="stroke:#000000;stroke-width:0.8;" x="449.75533" xlink:href="#m230776e7b6" y="307.872"/>
      </g>
     </g>
     <g id="text_6">
      <!-- 50 -->
      <g transform="translate(439.57533 327.0295)scale(0.16 -0.16)">
       <defs>
        <path d="M 691 4666 
L 3169 4666 
L 3169 4134 
L 1269 4134 
L 1269 2991 
Q 1406 3038 1543 3061 
Q 1681 3084 1819 3084 
Q 2600 3084 3056 2656 
Q 3513 2228 3513 1497 
Q 3513 744 3044 326 
Q 2575 -91 1722 -91 
Q 1428 -91 1123 -41 
Q 819 9 494 109 
L 494 744 
Q 775 591 1075 516 
Q 1375 441 1709 441 
Q 2250 441 2565 725 
Q 2881 1009 2881 1497 
Q 2881 1984 2565 2268 
Q 2250 2553 1709 2553 
Q 1456 2553 1204 2497 
Q 953 2441 691 2322 
L 691 4666 
z
" id="DejaVuSans-35" transform="scale(0.015625)"/>
       </defs>
       <use xlink:href="#DejaVuSans-35"/>
       <use x="63.623047" xlink:href="#DejaVuSans-30"/>
      </g>
     </g>
    </g>
    <g id="text_7">
     <!-- Number of Generations -->
     <g transform="translate(187.5725 346.5145)scale(0.16 -0.16)">
      <defs>
       <path d="M 628 4666 
L 1478 4666 
L 3547 763 
L 3547 4666 
L 4159 4666 
L 4159 0 
L 3309 0 
L 1241 3903 
L 1241 0 
L 628 0 
L 628 4666 
z
" id="DejaVuSans-4e" transform="scale(0.015625)"/>
       <path d="M 544 1381 
L 544 3500 
L 1119 3500 
L 1119 1403 
Q 1119 906 1312 657 
Q 1506 409 1894 409 
Q 2359 409 2629 706 
Q 2900 1003 2900 1516 
L 2900 3500 
L 3475 3500 
L 3475 0 
L 2900 0 
L 2900 538 
Q 2691 219 2414 64 
Q 2138 -91 1772 -91 
Q 1169 -91 856 284 
Q 544 659 544 1381 
z
M 1991 3584 
L 1991 3584 
z
" id="DejaVuSans-75" transform="scale(0.015625)"/>
       <path d="M 3328 2828 
Q 3544 3216 3844 3400 
Q 4144 3584 4550 3584 
Q 5097 3584 5394 3201 
Q 5691 2819 5691 2113 
L 5691 0 
L 5113 0 
L 5113 2094 
Q 5113 2597 4934 2840 
Q 4756 3084 4391 3084 
Q 3944 3084 3684 2787 
Q 3425 2491 3425 1978 
L 3425 0 
L 2847 0 
L 2847 2094 
Q 2847 2600 2669 2842 
Q 2491 3084 2119 3084 
Q 1678 3084 1418 2786 
Q 1159 2488 1159 1978 
L 1159 0 
L 581 0 
L 581 3500 
L 1159 3500 
L 1159 2956 
Q 1356 3278 1631 3431 
Q 1906 3584 2284 3584 
Q 2666 3584 2933 3390 
Q 3200 3197 3328 2828 
z
" id="DejaVuSans-6d" transform="scale(0.015625)"/>
       <path d="M 3116 1747 
Q 3116 2381 2855 2742 
Q 2594 3103 2138 3103 
Q 1681 3103 1420 2742 
Q 1159 2381 1159 1747 
Q 1159 1113 1420 752 
Q 1681 391 2138 391 
Q 2594 391 2855 752 
Q 3116 1113 3116 1747 
z
M 1159 2969 
Q 1341 3281 1617 3432 
Q 1894 3584 2278 3584 
Q 2916 3584 3314 3078 
Q 3713 2572 3713 1747 
Q 3713 922 3314 415 
Q 2916 -91 2278 -91 
Q 1894 -91 1617 61 
Q 1341 213 1159 525 
L 1159 0 
L 581 0 
L 581 4863 
L 1159 4863 
L 1159 2969 
z
" id="DejaVuSans-62" transform="scale(0.015625)"/>
       <path d="M 3597 1894 
L 3597 1613 
L 953 1613 
Q 991 1019 1311 708 
Q 1631 397 2203 397 
Q 2534 397 2845 478 
Q 3156 559 3463 722 
L 3463 178 
Q 3153 47 2828 -22 
Q 2503 -91 2169 -91 
Q 1331 -91 842 396 
Q 353 884 353 1716 
Q 353 2575 817 3079 
Q 1281 3584 2069 3584 
Q 2775 3584 3186 3129 
Q 3597 2675 3597 1894 
z
M 3022 2063 
Q 3016 2534 2758 2815 
Q 2500 3097 2075 3097 
Q 1594 3097 1305 2825 
Q 1016 2553 972 2059 
L 3022 2063 
z
" id="DejaVuSans-65" transform="scale(0.015625)"/>
       <path d="M 2631 2963 
Q 2534 3019 2420 3045 
Q 2306 3072 2169 3072 
Q 1681 3072 1420 2755 
Q 1159 2438 1159 1844 
L 1159 0 
L 581 0 
L 581 3500 
L 1159 3500 
L 1159 2956 
Q 1341 3275 1631 3429 
Q 1922 3584 2338 3584 
Q 2397 3584 2469 3576 
Q 2541 3569 2628 3553 
L 2631 2963 
z
" id="DejaVuSans-72" transform="scale(0.015625)"/>
       <path id="DejaVuSans-20" transform="scale(0.015625)"/>
       <path d="M 1959 3097 
Q 1497 3097 1228 2736 
Q 959 2375 959 1747 
Q 959 1119 1226 758 
Q 1494 397 1959 397 
Q 2419 397 2687 759 
Q 2956 1122 2956 1747 
Q 2956 2369 2687 2733 
Q 2419 3097 1959 3097 
z
M 1959 3584 
Q 2709 3584 3137 3096 
Q 3566 2609 3566 1747 
Q 3566 888 3137 398 
Q 2709 -91 1959 -91 
Q 1206 -91 779 398 
Q 353 888 353 1747 
Q 353 2609 779 3096 
Q 1206 3584 1959 3584 
z
" id="DejaVuSans-6f" transform="scale(0.015625)"/>
       <path d="M 2375 4863 
L 2375 4384 
L 1825 4384 
Q 1516 4384 1395 4259 
Q 1275 4134 1275 3809 
L 1275 3500 
L 2222 3500 
L 2222 3053 
L 1275 3053 
L 1275 0 
L 697 0 
L 697 3053 
L 147 3053 
L 147 3500 
L 697 3500 
L 697 3744 
Q 697 4328 969 4595 
Q 1241 4863 1831 4863 
L 2375 4863 
z
" id="DejaVuSans-66" transform="scale(0.015625)"/>
       <path d="M 3809 666 
L 3809 1919 
L 2778 1919 
L 2778 2438 
L 4434 2438 
L 4434 434 
Q 4069 175 3628 42 
Q 3188 -91 2688 -91 
Q 1594 -91 976 548 
Q 359 1188 359 2328 
Q 359 3472 976 4111 
Q 1594 4750 2688 4750 
Q 3144 4750 3555 4637 
Q 3966 4525 4313 4306 
L 4313 3634 
Q 3963 3931 3569 4081 
Q 3175 4231 2741 4231 
Q 1884 4231 1454 3753 
Q 1025 3275 1025 2328 
Q 1025 1384 1454 906 
Q 1884 428 2741 428 
Q 3075 428 3337 486 
Q 3600 544 3809 666 
z
" id="DejaVuSans-47" transform="scale(0.015625)"/>
       <path d="M 3513 2113 
L 3513 0 
L 2938 0 
L 2938 2094 
Q 2938 2591 2744 2837 
Q 2550 3084 2163 3084 
Q 1697 3084 1428 2787 
Q 1159 2491 1159 1978 
L 1159 0 
L 581 0 
L 581 3500 
L 1159 3500 
L 1159 2956 
Q 1366 3272 1645 3428 
Q 1925 3584 2291 3584 
Q 2894 3584 3203 3211 
Q 3513 2838 3513 2113 
z
" id="DejaVuSans-6e" transform="scale(0.015625)"/>
       <path d="M 2194 1759 
Q 1497 1759 1228 1600 
Q 959 1441 959 1056 
Q 959 750 1161 570 
Q 1363 391 1709 391 
Q 2188 391 2477 730 
Q 2766 1069 2766 1631 
L 2766 1759 
L 2194 1759 
z
M 3341 1997 
L 3341 0 
L 2766 0 
L 2766 531 
Q 2569 213 2275 61 
Q 1981 -91 1556 -91 
Q 1019 -91 701 211 
Q 384 513 384 1019 
Q 384 1609 779 1909 
Q 1175 2209 1959 2209 
L 2766 2209 
L 2766 2266 
Q 2766 2663 2505 2880 
Q 2244 3097 1772 3097 
Q 1472 3097 1187 3025 
Q 903 2953 641 2809 
L 641 3341 
Q 956 3463 1253 3523 
Q 1550 3584 1831 3584 
Q 2591 3584 2966 3190 
Q 3341 2797 3341 1997 
z
" id="DejaVuSans-61" transform="scale(0.015625)"/>
       <path d="M 1172 4494 
L 1172 3500 
L 2356 3500 
L 2356 3053 
L 1172 3053 
L 1172 1153 
Q 1172 725 1289 603 
Q 1406 481 1766 481 
L 2356 481 
L 2356 0 
L 1766 0 
Q 1100 0 847 248 
Q 594 497 594 1153 
L 594 3053 
L 172 3053 
L 172 3500 
L 594 3500 
L 594 4494 
L 1172 4494 
z
" id="DejaVuSans-74" transform="scale(0.015625)"/>
       <path d="M 603 3500 
L 1178 3500 
L 1178 0 
L 603 0 
L 603 3500 
z
M 603 4863 
L 1178 4863 
L 1178 4134 
L 603 4134 
L 603 4863 
z
" id="DejaVuSans-69" transform="scale(0.015625)"/>
       <path d="M 2834 3397 
L 2834 2853 
Q 2591 2978 2328 3040 
Q 2066 3103 1784 3103 
Q 1356 3103 1142 2972 
Q 928 2841 928 2578 
Q 928 2378 1081 2264 
Q 1234 2150 1697 2047 
L 1894 2003 
Q 2506 1872 2764 1633 
Q 3022 1394 3022 966 
Q 3022 478 2636 193 
Q 2250 -91 1575 -91 
Q 1294 -91 989 -36 
Q 684 19 347 128 
L 347 722 
Q 666 556 975 473 
Q 1284 391 1588 391 
Q 1994 391 2212 530 
Q 2431 669 2431 922 
Q 2431 1156 2273 1281 
Q 2116 1406 1581 1522 
L 1381 1569 
Q 847 1681 609 1914 
Q 372 2147 372 2553 
Q 372 3047 722 3315 
Q 1072 3584 1716 3584 
Q 2034 3584 2315 3537 
Q 2597 3491 2834 3397 
z
" id="DejaVuSans-73" transform="scale(0.015625)"/>
      </defs>
      <use xlink:href="#DejaVuSans-4e"/>
      <use x="74.804688" xlink:href="#DejaVuSans-75"/>
      <use x="138.183594" xlink:href="#DejaVuSans-6d"/>
      <use x="235.595703" xlink:href="#DejaVuSans-62"/>
      <use x="299.072266" xlink:href="#DejaVuSans-65"/>
      <use x="360.595703" xlink:href="#DejaVuSans-72"/>
      <use x="401.708984" xlink:href="#DejaVuSans-20"/>
      <use x="433.496094" xlink:href="#DejaVuSans-6f"/>
      <use x="494.677734" xlink:href="#DejaVuSans-66"/>
      <use x="529.882812" xlink:href="#DejaVuSans-20"/>
      <use x="561.669922" xlink:href="#DejaVuSans-47"/>
      <use x="639.160156" xlink:href="#DejaVuSans-65"/>
      <use x="700.683594" xlink:href="#DejaVuSans-6e"/>
      <use x="764.0625" xlink:href="#DejaVuSans-65"/>
      <use x="825.585938" xlink:href="#DejaVuSans-72"/>
      <use x="866.699219" xlink:href="#DejaVuSans-61"/>
      <use x="927.978516" xlink:href="#DejaVuSans-74"/>
      <use x="967.1875" xlink:href="#DejaVuSans-69"/>
      <use x="994.970703" xlink:href="#DejaVuSans-6f"/>
      <use x="1056.152344" xlink:href="#DejaVuSans-6e"/>
      <use x="1119.53125" xlink:href="#DejaVuSans-73"/>
     </g>
    </g>
   </g>
   <g id="matplotlib.axis_2">
    <g id="ytick_1">
     <g id="line2d_13">
      <path clip-path="url(#pa1bb04f1e7)" d="M 102.7425 282.274314 
L 459.8625 282.274314 
" style="fill:none;stroke:#b0b0b0;stroke-linecap:square;stroke-width:0.8;"/>
     </g>
     <g id="line2d_14">
      <defs>
       <path d="M 0 0 
L -3.5 0 
" id="m8db9df1591" style="stroke:#000000;stroke-width:0.8;"/>
      </defs>
      <g>
       <use style="stroke:#000000;stroke-width:0.8;" x="102.7425" xlink:href="#m8db9df1591" y="282.274314"/>
      </g>
     </g>
     <g id="text_8">
      <!-- 0.0e+00 -->
      <g transform="translate(26.685 288.353064)scale(0.16 -0.16)">
       <defs>
        <path d="M 684 794 
L 1344 794 
L 1344 0 
L 684 0 
L 684 794 
z
" id="DejaVuSans-2e" transform="scale(0.015625)"/>
        <path d="M 2944 4013 
L 2944 2272 
L 4684 2272 
L 4684 1741 
L 2944 1741 
L 2944 0 
L 2419 0 
L 2419 1741 
L 678 1741 
L 678 2272 
L 2419 2272 
L 2419 4013 
L 2944 4013 
z
" id="DejaVuSans-2b" transform="scale(0.015625)"/>
       </defs>
       <use xlink:href="#DejaVuSans-30"/>
       <use x="63.623047" xlink:href="#DejaVuSans-2e"/>
       <use x="95.410156" xlink:href="#DejaVuSans-30"/>
       <use x="159.033203" xlink:href="#DejaVuSans-65"/>
       <use x="220.556641" xlink:href="#DejaVuSans-2b"/>
       <use x="304.345703" xlink:href="#DejaVuSans-30"/>
       <use x="367.96875" xlink:href="#DejaVuSans-30"/>
      </g>
     </g>
    </g>
    <g id="ytick_2">
     <g id="line2d_15">
      <path clip-path="url(#pa1bb04f1e7)" d="M 102.7425 239.396679 
L 459.8625 239.396679 
" style="fill:none;stroke:#b0b0b0;stroke-linecap:square;stroke-width:0.8;"/>
     </g>
     <g id="line2d_16">
      <g>
       <use style="stroke:#000000;stroke-width:0.8;" x="102.7425" xlink:href="#m8db9df1591" y="239.396679"/>
      </g>
     </g>
     <g id="text_9">
      <!-- 5.0e-02 -->
      <g transform="translate(34.32 245.475429)scale(0.16 -0.16)">
       <defs>
        <path d="M 313 2009 
L 1997 2009 
L 1997 1497 
L 313 1497 
L 313 2009 
z
" id="DejaVuSans-2d" transform="scale(0.015625)"/>
       </defs>
       <use xlink:href="#DejaVuSans-35"/>
       <use x="63.623047" xlink:href="#DejaVuSans-2e"/>
       <use x="95.410156" xlink:href="#DejaVuSans-30"/>
       <use x="159.033203" xlink:href="#DejaVuSans-65"/>
       <use x="220.556641" xlink:href="#DejaVuSans-2d"/>
       <use x="256.640625" xlink:href="#DejaVuSans-30"/>
       <use x="320.263672" xlink:href="#DejaVuSans-32"/>
      </g>
     </g>
    </g>
    <g id="ytick_3">
     <g id="line2d_17">
      <path clip-path="url(#pa1bb04f1e7)" d="M 102.7425 196.519043 
L 459.8625 196.519043 
" style="fill:none;stroke:#b0b0b0;stroke-linecap:square;stroke-width:0.8;"/>
     </g>
     <g id="line2d_18">
      <g>
       <use style="stroke:#000000;stroke-width:0.8;" x="102.7425" xlink:href="#m8db9df1591" y="196.519043"/>
      </g>
     </g>
     <g id="text_10">
      <!-- 1.0e-01 -->
      <g transform="translate(34.32 202.597793)scale(0.16 -0.16)">
       <use xlink:href="#DejaVuSans-31"/>
       <use x="63.623047" xlink:href="#DejaVuSans-2e"/>
       <use x="95.410156" xlink:href="#DejaVuSans-30"/>
       <use x="159.033203" xlink:href="#DejaVuSans-65"/>
       <use x="220.556641" xlink:href="#DejaVuSans-2d"/>
       <use x="256.640625" xlink:href="#DejaVuSans-30"/>
       <use x="320.263672" xlink:href="#DejaVuSans-31"/>
      </g>
     </g>
    </g>
    <g id="ytick_4">
     <g id="line2d_19">
      <path clip-path="url(#pa1bb04f1e7)" d="M 102.7425 153.641408 
L 459.8625 153.641408 
" style="fill:none;stroke:#b0b0b0;stroke-linecap:square;stroke-width:0.8;"/>
     </g>
     <g id="line2d_20">
      <g>
       <use style="stroke:#000000;stroke-width:0.8;" x="102.7425" xlink:href="#m8db9df1591" y="153.641408"/>
      </g>
     </g>
     <g id="text_11">
      <!-- 1.5e-01 -->
      <g transform="translate(34.32 159.720158)scale(0.16 -0.16)">
       <use xlink:href="#DejaVuSans-31"/>
       <use x="63.623047" xlink:href="#DejaVuSans-2e"/>
       <use x="95.410156" xlink:href="#DejaVuSans-35"/>
       <use x="159.033203" xlink:href="#DejaVuSans-65"/>
       <use x="220.556641" xlink:href="#DejaVuSans-2d"/>
       <use x="256.640625" xlink:href="#DejaVuSans-30"/>
       <use x="320.263672" xlink:href="#DejaVuSans-31"/>
      </g>
     </g>
    </g>
    <g id="ytick_5">
     <g id="line2d_21">
      <path clip-path="url(#pa1bb04f1e7)" d="M 102.7425 110.763773 
L 459.8625 110.763773 
" style="fill:none;stroke:#b0b0b0;stroke-linecap:square;stroke-width:0.8;"/>
     </g>
     <g id="line2d_22">
      <g>
       <use style="stroke:#000000;stroke-width:0.8;" x="102.7425" xlink:href="#m8db9df1591" y="110.763773"/>
      </g>
     </g>
     <g id="text_12">
      <!-- 2.0e-01 -->
      <g transform="translate(34.32 116.842523)scale(0.16 -0.16)">
       <use xlink:href="#DejaVuSans-32"/>
       <use x="63.623047" xlink:href="#DejaVuSans-2e"/>
       <use x="95.410156" xlink:href="#DejaVuSans-30"/>
       <use x="159.033203" xlink:href="#DejaVuSans-65"/>
       <use x="220.556641" xlink:href="#DejaVuSans-2d"/>
       <use x="256.640625" xlink:href="#DejaVuSans-30"/>
       <use x="320.263672" xlink:href="#DejaVuSans-31"/>
      </g>
     </g>
    </g>
    <g id="ytick_6">
     <g id="line2d_23">
      <path clip-path="url(#pa1bb04f1e7)" d="M 102.7425 67.886137 
L 459.8625 67.886137 
" style="fill:none;stroke:#b0b0b0;stroke-linecap:square;stroke-width:0.8;"/>
     </g>
     <g id="line2d_24">
      <g>
       <use style="stroke:#000000;stroke-width:0.8;" x="102.7425" xlink:href="#m8db9df1591" y="67.886137"/>
      </g>
     </g>
     <g id="text_13">
      <!-- 2.5e-01 -->
      <g transform="translate(34.32 73.964887)scale(0.16 -0.16)">
       <use xlink:href="#DejaVuSans-32"/>
       <use x="63.623047" xlink:href="#DejaVuSans-2e"/>
       <use x="95.410156" xlink:href="#DejaVuSans-35"/>
       <use x="159.033203" xlink:href="#DejaVuSans-65"/>
       <use x="220.556641" xlink:href="#DejaVuSans-2d"/>
       <use x="256.640625" xlink:href="#DejaVuSans-30"/>
       <use x="320.263672" xlink:href="#DejaVuSans-31"/>
      </g>
     </g>
    </g>
    <g id="text_14">
     <!-- IGD -->
     <g transform="translate(19.3575 189.53475)rotate(-90)scale(0.16 -0.16)">
      <defs>
       <path d="M 628 4666 
L 1259 4666 
L 1259 0 
L 628 0 
L 628 4666 
z
" id="DejaVuSans-49" transform="scale(0.015625)"/>
       <path d="M 1259 4147 
L 1259 519 
L 2022 519 
Q 2988 519 3436 956 
Q 3884 1394 3884 2338 
Q 3884 3275 3436 3711 
Q 2988 4147 2022 4147 
L 1259 4147 
z
M 628 4666 
L 1925 4666 
Q 3281 4666 3915 4102 
Q 4550 3538 4550 2338 
Q 4550 1131 3912 565 
Q 3275 0 1925 0 
L 628 0 
L 628 4666 
z
" id="DejaVuSans-44" transform="scale(0.015625)"/>
      </defs>
      <use xlink:href="#DejaVuSans-49"/>
      <use x="29.492188" xlink:href="#DejaVuSans-47"/>
      <use x="106.982422" xlink:href="#DejaVuSans-44"/>
     </g>
    </g>
   </g>
   <g id="line2d_25">
    <path clip-path="url(#pa1bb04f1e7)" d="M 112.84967 72.465231 
L 119.725296 90.062087 
L 126.600921 149.895192 
L 133.476547 186.956492 
L 140.352173 192.574016 
L 147.227798 180.166221 
L 154.103424 181.027917 
L 160.97905 181.62012 
L 167.854676 181.70317 
L 174.730301 181.86643 
L 181.605927 187.335576 
L 188.481553 191.489149 
L 195.357178 191.86608 
L 202.232804 196.223004 
L 209.10843 196.282512 
L 215.984056 196.432499 
L 222.859681 203.065136 
L 229.735307 203.652904 
L 236.610933 220.162061 
L 243.486559 220.263176 
L 250.362184 226.857619 
L 257.23781 227.450366 
L 264.113436 234.753399 
L 270.989061 234.937237 
L 277.864687 260.506718 
L 284.740313 265.039631 
L 291.615939 272.482415 
L 298.491564 273.95428 
L 305.36719 275.496433 
L 312.242816 276.68644 
L 319.118441 276.712068 
L 325.994067 276.857375 
L 332.869693 276.976885 
L 339.745319 276.951759 
L 346.620944 276.938766 
L 353.49657 276.946319 
L 360.372196 277.02305 
L 367.247822 277.068737 
L 374.123447 277.01311 
L 380.999073 276.979853 
L 387.874699 277.015364 
L 394.750324 277.072848 
L 401.62595 277.053473 
L 408.501576 277.019506 
L 415.377202 277.083708 
L 422.252827 277.099497 
L 429.128453 276.97862 
L 436.004079 277.028513 
L 442.879704 277.101073 
L 449.75533 277.065024 
" style="fill:none;stroke:#1f77b4;stroke-linecap:square;stroke-width:1.5;"/>
   </g>
   <g id="line2d_26">
    <path clip-path="url(#pa1bb04f1e7)" d="M 112.84967 96.647734 
L 119.725296 136.448824 
L 126.600921 170.7085 
L 133.476547 204.846175 
L 140.352173 219.61485 
L 147.227798 234.399031 
L 154.103424 243.0015 
L 160.97905 262.428676 
L 167.854676 268.074253 
L 174.730301 269.862781 
L 181.605927 273.568636 
L 188.481553 274.020774 
L 195.357178 274.865679 
L 202.232804 275.617898 
L 209.10843 275.951255 
L 215.984056 276.425849 
L 222.859681 276.477129 
L 229.735307 276.470376 
L 236.610933 276.644111 
L 243.486559 276.696845 
L 250.362184 276.710955 
L 257.23781 276.816506 
L 264.113436 276.9135 
L 270.989061 276.833092 
L 277.864687 276.910552 
L 284.740313 276.834724 
L 291.615939 276.803751 
L 298.491564 276.799135 
L 305.36719 276.824852 
L 312.242816 276.838331 
L 319.118441 276.859381 
L 325.994067 276.828636 
L 332.869693 276.849935 
L 339.745319 276.838043 
L 346.620944 276.837163 
L 353.49657 276.839574 
L 360.372196 276.895841 
L 367.247822 276.929629 
L 374.123447 276.942449 
L 380.999073 276.925507 
L 387.874699 276.837373 
L 394.750324 276.844028 
L 401.62595 276.834657 
L 408.501576 276.899001 
L 415.377202 276.920342 
L 422.252827 276.920224 
L 429.128453 276.911494 
L 436.004079 276.830533 
L 442.879704 276.928571 
L 449.75533 276.907581 
" style="fill:none;stroke:#ff7f0e;stroke-linecap:square;stroke-width:1.5;"/>
   </g>
   <g id="line2d_27">
    <path clip-path="url(#pa1bb04f1e7)" d="M 112.84967 96.647734 
L 119.725296 125.981599 
L 126.600921 167.920138 
L 133.476547 188.524634 
L 140.352173 179.213119 
L 147.227798 173.658066 
L 154.103424 182.323285 
L 160.97905 182.312595 
L 167.854676 182.693203 
L 174.730301 182.793182 
L 181.605927 182.883978 
L 188.481553 201.449592 
L 195.357178 215.218952 
L 202.232804 217.240197 
L 209.10843 219.850867 
L 215.984056 240.736358 
L 222.859681 240.697553 
L 229.735307 240.687612 
L 236.610933 258.500093 
L 243.486559 258.761085 
L 250.362184 261.199146 
L 257.23781 269.489718 
L 264.113436 269.543104 
L 270.989061 270.630138 
L 277.864687 273.890417 
L 284.740313 274.89595 
L 291.615939 275.378918 
L 298.491564 276.322853 
L 305.36719 276.522739 
L 312.242816 276.551306 
L 319.118441 276.630625 
L 325.994067 276.72196 
L 332.869693 276.706983 
L 339.745319 276.771977 
L 346.620944 276.71754 
L 353.49657 276.791354 
L 360.372196 276.844639 
L 367.247822 276.673595 
L 374.123447 276.706009 
L 380.999073 276.794631 
L 387.874699 276.83849 
L 394.750324 276.858511 
L 401.62595 276.852146 
L 408.501576 276.894398 
L 415.377202 276.766385 
L 422.252827 276.768257 
L 429.128453 276.857016 
L 436.004079 276.892326 
L 442.879704 276.840055 
L 449.75533 276.880649 
" style="fill:none;stroke:#2ca02c;stroke-linecap:square;stroke-width:1.5;"/>
   </g>
   <g id="line2d_28">
    <path clip-path="url(#pa1bb04f1e7)" d="M 112.84967 85.186383 
L 119.725296 121.819554 
L 126.600921 176.795159 
L 133.476547 205.558927 
L 140.352173 179.774452 
L 147.227798 178.069506 
L 154.103424 178.901434 
L 160.97905 179.501072 
L 167.854676 180.966128 
L 174.730301 181.645464 
L 181.605927 247.397566 
L 188.481553 259.2476 
L 195.357178 260.381514 
L 202.232804 264.657983 
L 209.10843 270.43324 
L 215.984056 274.791895 
L 222.859681 275.860571 
L 229.735307 276.139249 
L 236.610933 276.540728 
L 243.486559 276.804492 
L 250.362184 276.897549 
L 257.23781 276.99805 
L 264.113436 277.046746 
L 270.989061 277.060245 
L 277.864687 277.059975 
L 284.740313 277.066745 
L 291.615939 276.981967 
L 298.491564 277.107094 
L 305.36719 277.127242 
L 312.242816 277.018017 
L 319.118441 277.086642 
L 325.994067 277.048777 
L 332.869693 277.063629 
L 339.745319 277.077686 
L 346.620944 277.042835 
L 353.49657 277.163061 
L 360.372196 277.108963 
L 367.247822 277.117239 
L 374.123447 277.072626 
L 380.999073 277.123125 
L 387.874699 277.162007 
L 394.750324 277.082455 
L 401.62595 277.11838 
L 408.501576 277.144007 
L 415.377202 277.095378 
L 422.252827 277.148791 
L 429.128453 277.166769 
L 436.004079 277.140588 
L 442.879704 277.121901 
L 449.75533 277.151604 
" style="fill:none;stroke:#d62728;stroke-linecap:square;stroke-width:1.5;"/>
   </g>
   <g id="line2d_29">
    <path clip-path="url(#pa1bb04f1e7)" d="M 112.84967 96.647734 
L 119.725296 118.768311 
L 126.600921 156.584469 
L 133.476547 176.662261 
L 140.352173 179.0842 
L 147.227798 167.603622 
L 154.103424 171.801393 
L 160.97905 173.470295 
L 167.854676 183.877217 
L 174.730301 183.862252 
L 181.605927 232.080248 
L 188.481553 237.316053 
L 195.357178 239.270824 
L 202.232804 243.43378 
L 209.10843 257.568107 
L 215.984056 260.073131 
L 222.859681 265.071793 
L 229.735307 271.400059 
L 236.610933 272.62706 
L 243.486559 273.419281 
L 250.362184 275.199744 
L 257.23781 275.822651 
L 264.113436 276.351953 
L 270.989061 276.644428 
L 277.864687 276.666957 
L 284.740313 276.626788 
L 291.615939 276.814245 
L 298.491564 276.914661 
L 305.36719 276.817687 
L 312.242816 276.881792 
L 319.118441 276.887961 
L 325.994067 277.038902 
L 332.869693 276.962077 
L 339.745319 276.901578 
L 346.620944 276.938859 
L 353.49657 277.015072 
L 360.372196 276.980615 
L 367.247822 276.885117 
L 374.123447 276.917376 
L 380.999073 276.947815 
L 387.874699 276.924374 
L 394.750324 276.952768 
L 401.62595 276.95341 
L 408.501576 276.967776 
L 415.377202 276.883806 
L 422.252827 276.921489 
L 429.128453 277.00094 
L 436.004079 277.034488 
L 442.879704 276.97955 
L 449.75533 277.014171 
" style="fill:none;stroke:#9467bd;stroke-linecap:square;stroke-width:1.5;"/>
   </g>
   <g id="patch_3">
    <path d="M 102.7425 307.872 
L 102.7425 41.76 
" style="fill:none;stroke:#000000;stroke-linecap:square;stroke-linejoin:miter;stroke-width:0.8;"/>
   </g>
   <g id="patch_4">
    <path d="M 459.8625 307.872 
L 459.8625 41.76 
" style="fill:none;stroke:#000000;stroke-linecap:square;stroke-linejoin:miter;stroke-width:0.8;"/>
   </g>
   <g id="patch_5">
    <path d="M 102.7425 307.872 
L 459.8625 307.872 
" style="fill:none;stroke:#000000;stroke-linecap:square;stroke-linejoin:miter;stroke-width:0.8;"/>
   </g>
   <g id="patch_6">
    <path d="M 102.7425 41.76 
L 459.8625 41.76 
" style="fill:none;stroke:#000000;stroke-linecap:square;stroke-linejoin:miter;stroke-width:0.8;"/>
   </g>
   <g id="legend_1">
    <g id="patch_7">
     <path d="M 296.7325 171.985 
L 448.6625 171.985 
Q 451.8625 171.985 451.8625 168.785 
L 451.8625 52.96 
Q 451.8625 49.76 448.6625 49.76 
L 296.7325 49.76 
Q 293.5325 49.76 293.5325 52.96 
L 293.5325 168.785 
Q 293.5325 171.985 296.7325 171.985 
z
" style="fill:#ffffff;opacity:0.8;stroke:#cccccc;stroke-linejoin:miter;"/>
    </g>
    <g id="line2d_30">
     <path d="M 299.9325 62.7175 
L 331.9325 62.7175 
" style="fill:none;stroke:#1f77b4;stroke-linecap:square;stroke-width:1.5;"/>
    </g>
    <g id="line2d_31"/>
    <g id="text_15">
     <!-- NSGA-II -->
     <g transform="translate(344.7325 68.3175)scale(0.16 -0.16)">
      <defs>
       <path d="M 3425 4513 
L 3425 3897 
Q 3066 4069 2747 4153 
Q 2428 4238 2131 4238 
Q 1616 4238 1336 4038 
Q 1056 3838 1056 3469 
Q 1056 3159 1242 3001 
Q 1428 2844 1947 2747 
L 2328 2669 
Q 3034 2534 3370 2195 
Q 3706 1856 3706 1288 
Q 3706 609 3251 259 
Q 2797 -91 1919 -91 
Q 1588 -91 1214 -16 
Q 841 59 441 206 
L 441 856 
Q 825 641 1194 531 
Q 1563 422 1919 422 
Q 2459 422 2753 634 
Q 3047 847 3047 1241 
Q 3047 1584 2836 1778 
Q 2625 1972 2144 2069 
L 1759 2144 
Q 1053 2284 737 2584 
Q 422 2884 422 3419 
Q 422 4038 858 4394 
Q 1294 4750 2059 4750 
Q 2388 4750 2728 4690 
Q 3069 4631 3425 4513 
z
" id="DejaVuSans-53" transform="scale(0.015625)"/>
       <path d="M 2188 4044 
L 1331 1722 
L 3047 1722 
L 2188 4044 
z
M 1831 4666 
L 2547 4666 
L 4325 0 
L 3669 0 
L 3244 1197 
L 1141 1197 
L 716 0 
L 50 0 
L 1831 4666 
z
" id="DejaVuSans-41" transform="scale(0.015625)"/>
      </defs>
      <use xlink:href="#DejaVuSans-4e"/>
      <use x="74.804688" xlink:href="#DejaVuSans-53"/>
      <use x="138.28125" xlink:href="#DejaVuSans-47"/>
      <use x="215.771484" xlink:href="#DejaVuSans-41"/>
      <use x="281.929688" xlink:href="#DejaVuSans-2d"/>
      <use x="318.013672" xlink:href="#DejaVuSans-49"/>
      <use x="347.505859" xlink:href="#DejaVuSans-49"/>
     </g>
    </g>
    <g id="line2d_32">
     <path d="M 299.9325 86.2025 
L 331.9325 86.2025 
" style="fill:none;stroke:#ff7f0e;stroke-linecap:square;stroke-width:1.5;"/>
    </g>
    <g id="line2d_33"/>
    <g id="text_16">
     <!-- MO-MFEA -->
     <g transform="translate(344.7325 91.8025)scale(0.16 -0.16)">
      <defs>
       <path d="M 628 4666 
L 1569 4666 
L 2759 1491 
L 3956 4666 
L 4897 4666 
L 4897 0 
L 4281 0 
L 4281 4097 
L 3078 897 
L 2444 897 
L 1241 4097 
L 1241 0 
L 628 0 
L 628 4666 
z
" id="DejaVuSans-4d" transform="scale(0.015625)"/>
       <path d="M 2522 4238 
Q 1834 4238 1429 3725 
Q 1025 3213 1025 2328 
Q 1025 1447 1429 934 
Q 1834 422 2522 422 
Q 3209 422 3611 934 
Q 4013 1447 4013 2328 
Q 4013 3213 3611 3725 
Q 3209 4238 2522 4238 
z
M 2522 4750 
Q 3503 4750 4090 4092 
Q 4678 3434 4678 2328 
Q 4678 1225 4090 567 
Q 3503 -91 2522 -91 
Q 1538 -91 948 565 
Q 359 1222 359 2328 
Q 359 3434 948 4092 
Q 1538 4750 2522 4750 
z
" id="DejaVuSans-4f" transform="scale(0.015625)"/>
       <path d="M 628 4666 
L 3309 4666 
L 3309 4134 
L 1259 4134 
L 1259 2759 
L 3109 2759 
L 3109 2228 
L 1259 2228 
L 1259 0 
L 628 0 
L 628 4666 
z
" id="DejaVuSans-46" transform="scale(0.015625)"/>
       <path d="M 628 4666 
L 3578 4666 
L 3578 4134 
L 1259 4134 
L 1259 2753 
L 3481 2753 
L 3481 2222 
L 1259 2222 
L 1259 531 
L 3634 531 
L 3634 0 
L 628 0 
L 628 4666 
z
" id="DejaVuSans-45" transform="scale(0.015625)"/>
      </defs>
      <use xlink:href="#DejaVuSans-4d"/>
      <use x="86.279297" xlink:href="#DejaVuSans-4f"/>
      <use x="167.740234" xlink:href="#DejaVuSans-2d"/>
      <use x="203.824219" xlink:href="#DejaVuSans-4d"/>
      <use x="290.103516" xlink:href="#DejaVuSans-46"/>
      <use x="347.623047" xlink:href="#DejaVuSans-45"/>
      <use x="410.806641" xlink:href="#DejaVuSans-41"/>
     </g>
    </g>
    <g id="line2d_34">
     <path d="M 299.9325 109.6875 
L 331.9325 109.6875 
" style="fill:none;stroke:#2ca02c;stroke-linecap:square;stroke-width:1.5;"/>
    </g>
    <g id="line2d_35"/>
    <g id="text_17">
     <!-- MO-MFEA-II -->
     <g transform="translate(344.7325 115.2875)scale(0.16 -0.16)">
      <use xlink:href="#DejaVuSans-4d"/>
      <use x="86.279297" xlink:href="#DejaVuSans-4f"/>
      <use x="167.740234" xlink:href="#DejaVuSans-2d"/>
      <use x="203.824219" xlink:href="#DejaVuSans-4d"/>
      <use x="290.103516" xlink:href="#DejaVuSans-46"/>
      <use x="347.623047" xlink:href="#DejaVuSans-45"/>
      <use x="410.806641" xlink:href="#DejaVuSans-41"/>
      <use x="476.964844" xlink:href="#DejaVuSans-2d"/>
      <use x="513.048828" xlink:href="#DejaVuSans-49"/>
      <use x="542.541016" xlink:href="#DejaVuSans-49"/>
     </g>
    </g>
    <g id="line2d_36">
     <path d="M 299.9325 133.1725 
L 331.9325 133.1725 
" style="fill:none;stroke:#d62728;stroke-linecap:square;stroke-width:1.5;"/>
    </g>
    <g id="line2d_37"/>
    <g id="text_18">
     <!-- EMEA -->
     <g transform="translate(344.7325 138.7725)scale(0.16 -0.16)">
      <use xlink:href="#DejaVuSans-45"/>
      <use x="63.183594" xlink:href="#DejaVuSans-4d"/>
      <use x="149.462891" xlink:href="#DejaVuSans-45"/>
      <use x="212.646484" xlink:href="#DejaVuSans-41"/>
     </g>
    </g>
    <g id="line2d_38">
     <path d="M 299.9325 156.6575 
L 331.9325 156.6575 
" style="fill:none;stroke:#9467bd;stroke-linecap:square;stroke-width:1.5;"/>
    </g>
    <g id="line2d_39"/>
    <g id="text_19">
     <!-- Island Model -->
     <g transform="translate(344.7325 162.2575)scale(0.16 -0.16)">
      <defs>
       <path d="M 603 4863 
L 1178 4863 
L 1178 0 
L 603 0 
L 603 4863 
z
" id="DejaVuSans-6c" transform="scale(0.015625)"/>
       <path d="M 2906 2969 
L 2906 4863 
L 3481 4863 
L 3481 0 
L 2906 0 
L 2906 525 
Q 2725 213 2448 61 
Q 2172 -91 1784 -91 
Q 1150 -91 751 415 
Q 353 922 353 1747 
Q 353 2572 751 3078 
Q 1150 3584 1784 3584 
Q 2172 3584 2448 3432 
Q 2725 3281 2906 2969 
z
M 947 1747 
Q 947 1113 1208 752 
Q 1469 391 1925 391 
Q 2381 391 2643 752 
Q 2906 1113 2906 1747 
Q 2906 2381 2643 2742 
Q 2381 3103 1925 3103 
Q 1469 3103 1208 2742 
Q 947 2381 947 1747 
z
" id="DejaVuSans-64" transform="scale(0.015625)"/>
      </defs>
      <use xlink:href="#DejaVuSans-49"/>
      <use x="29.492188" xlink:href="#DejaVuSans-73"/>
      <use x="81.591797" xlink:href="#DejaVuSans-6c"/>
      <use x="109.375" xlink:href="#DejaVuSans-61"/>
      <use x="170.654297" xlink:href="#DejaVuSans-6e"/>
      <use x="234.033203" xlink:href="#DejaVuSans-64"/>
      <use x="297.509766" xlink:href="#DejaVuSans-20"/>
      <use x="329.296875" xlink:href="#DejaVuSans-4d"/>
      <use x="415.576172" xlink:href="#DejaVuSans-6f"/>
      <use x="476.757812" xlink:href="#DejaVuSans-64"/>
      <use x="540.234375" xlink:href="#DejaVuSans-65"/>
      <use x="601.757812" xlink:href="#DejaVuSans-6c"/>
     </g>
    </g>
   </g>
  </g>
  <g id="text_20">
   <!-- Hatch cover design -->
   <g transform="translate(182.676 21.789)scale(0.192 -0.192)">
    <defs>
     <path d="M 628 4666 
L 1259 4666 
L 1259 2753 
L 3553 2753 
L 3553 4666 
L 4184 4666 
L 4184 0 
L 3553 0 
L 3553 2222 
L 1259 2222 
L 1259 0 
L 628 0 
L 628 4666 
z
" id="DejaVuSans-48" transform="scale(0.015625)"/>
     <path d="M 3122 3366 
L 3122 2828 
Q 2878 2963 2633 3030 
Q 2388 3097 2138 3097 
Q 1578 3097 1268 2742 
Q 959 2388 959 1747 
Q 959 1106 1268 751 
Q 1578 397 2138 397 
Q 2388 397 2633 464 
Q 2878 531 3122 666 
L 3122 134 
Q 2881 22 2623 -34 
Q 2366 -91 2075 -91 
Q 1284 -91 818 406 
Q 353 903 353 1747 
Q 353 2603 823 3093 
Q 1294 3584 2113 3584 
Q 2378 3584 2631 3529 
Q 2884 3475 3122 3366 
z
" id="DejaVuSans-63" transform="scale(0.015625)"/>
     <path d="M 3513 2113 
L 3513 0 
L 2938 0 
L 2938 2094 
Q 2938 2591 2744 2837 
Q 2550 3084 2163 3084 
Q 1697 3084 1428 2787 
Q 1159 2491 1159 1978 
L 1159 0 
L 581 0 
L 581 4863 
L 1159 4863 
L 1159 2956 
Q 1366 3272 1645 3428 
Q 1925 3584 2291 3584 
Q 2894 3584 3203 3211 
Q 3513 2838 3513 2113 
z
" id="DejaVuSans-68" transform="scale(0.015625)"/>
     <path d="M 191 3500 
L 800 3500 
L 1894 563 
L 2988 3500 
L 3597 3500 
L 2284 0 
L 1503 0 
L 191 3500 
z
" id="DejaVuSans-76" transform="scale(0.015625)"/>
     <path d="M 2906 1791 
Q 2906 2416 2648 2759 
Q 2391 3103 1925 3103 
Q 1463 3103 1205 2759 
Q 947 2416 947 1791 
Q 947 1169 1205 825 
Q 1463 481 1925 481 
Q 2391 481 2648 825 
Q 2906 1169 2906 1791 
z
M 3481 434 
Q 3481 -459 3084 -895 
Q 2688 -1331 1869 -1331 
Q 1566 -1331 1297 -1286 
Q 1028 -1241 775 -1147 
L 775 -588 
Q 1028 -725 1275 -790 
Q 1522 -856 1778 -856 
Q 2344 -856 2625 -561 
Q 2906 -266 2906 331 
L 2906 616 
Q 2728 306 2450 153 
Q 2172 0 1784 0 
Q 1141 0 747 490 
Q 353 981 353 1791 
Q 353 2603 747 3093 
Q 1141 3584 1784 3584 
Q 2172 3584 2450 3431 
Q 2728 3278 2906 2969 
L 2906 3500 
L 3481 3500 
L 3481 434 
z
" id="DejaVuSans-67" transform="scale(0.015625)"/>
    </defs>
    <use xlink:href="#DejaVuSans-48"/>
    <use x="75.195312" xlink:href="#DejaVuSans-61"/>
    <use x="136.474609" xlink:href="#DejaVuSans-74"/>
    <use x="175.683594" xlink:href="#DejaVuSans-63"/>
    <use x="230.664062" xlink:href="#DejaVuSans-68"/>
    <use x="294.042969" xlink:href="#DejaVuSans-20"/>
    <use x="325.830078" xlink:href="#DejaVuSans-63"/>
    <use x="380.810547" xlink:href="#DejaVuSans-6f"/>
    <use x="441.992188" xlink:href="#DejaVuSans-76"/>
    <use x="501.171875" xlink:href="#DejaVuSans-65"/>
    <use x="562.695312" xlink:href="#DejaVuSans-72"/>
    <use x="603.808594" xlink:href="#DejaVuSans-20"/>
    <use x="635.595703" xlink:href="#DejaVuSans-64"/>
    <use x="699.072266" xlink:href="#DejaVuSans-65"/>
    <use x="760.595703" xlink:href="#DejaVuSans-73"/>
    <use x="812.695312" xlink:href="#DejaVuSans-69"/>
    <use x="840.478516" xlink:href="#DejaVuSans-67"/>
    <use x="903.955078" xlink:href="#DejaVuSans-6e"/>
   </g>
  </g>
 </g>
 <defs>
  <clipPath id="pa1bb04f1e7">
   <rect height="266.112" width="357.12" x="102.7425" y="41.76"/>
  </clipPath>
 </defs>
</svg>
