<?xml version="1.0" encoding="utf-8" standalone="no"?>
<!DOCTYPE svg PUBLIC "-//W3C//DTD SVG 1.1//EN"
  "http://www.w3.org/Graphics/SVG/1.1/DTD/svg11.dtd">
<svg height="357.182pt" version="1.1" viewBox="0 0 465.505 357.182" width="465.505pt" xmlns="http://www.w3.org/2000/svg" xmlns:xlink="http://www.w3.org/1999/xlink">
 <metadata>
  <rdf:RDF xmlns:cc="http://creativecommons.org/ns#" xmlns:dc="http://purl.org/dc/elements/1.1/" xmlns:rdf="http://www.w3.org/1999/02/22-rdf-syntax-ns#">
   <cc:Work>
    <dc:type rdf:resource="http://purl.org/dc/dcmitype/StillImage"/>
    <dc:date>2021-11-15T02:07:53.353522</dc:date>
    <dc:format>image/svg+xml</dc:format>
    <dc:creator>
     <cc:Agent>
      <dc:title>Matplotlib v3.4.2, https://matplotlib.org/</dc:title>
     </cc:Agent>
    </dc:creator>
   </cc:Work>
  </rdf:RDF>
 </metadata>
 <defs>
  <style type="text/css">*{stroke-linecap:butt;stroke-linejoin:round;}</style>
 </defs>
 <g id="figure_1">
  <g id="patch_1">
   <path d="M 0 357.182 
L 465.505 357.182 
L 465.505 0 
L 0 0 
z
" style="fill:none;"/>
  </g>
  <g id="axes_1">
   <g id="patch_2">
    <path d="M 101.185 307.872 
L 458.305 307.872 
L 458.305 41.76 
L 101.185 41.76 
z
" style="fill:none;"/>
   </g>
   <g id="matplotlib.axis_1">
    <g id="xtick_1">
     <g id="line2d_1">
      <path clip-path="url(#p7f76551962)" d="M 104.416544 307.872 
L 104.416544 41.76 
" style="fill:none;stroke:#b0b0b0;stroke-linecap:square;stroke-width:0.8;"/>
     </g>
     <g id="line2d_2">
      <defs>
       <path d="M 0 0 
L 0 3.5 
" id="m9f21b4b977" style="stroke:#000000;stroke-width:0.8;"/>
      </defs>
      <g>
       <use style="stroke:#000000;stroke-width:0.8;" x="104.416544" xlink:href="#m9f21b4b977" y="307.872"/>
      </g>
     </g>
     <g id="text_1">
      <!-- 0 -->
      <g transform="translate(99.447794 327.1695)scale(0.16 -0.16)">
       <defs>
        <path d="M 1991 -97 
Q 1159 -97 768 497 
Q 378 1091 378 2350 
Q 378 3609 770 4206 
Q 1163 4803 1991 4803 
Q 2813 4803 3206 4204 
Q 3600 3606 3600 2356 
Q 3600 1094 3209 498 
Q 2819 -97 1991 -97 
z
M 1991 4325 
Q 1456 4325 1215 3901 
Q 975 3478 975 2350 
Q 975 1231 1215 806 
Q 1456 381 1991 381 
Q 2525 381 2764 806 
Q 3003 1231 3003 2356 
Q 3003 3459 2765 3892 
Q 2528 4325 1991 4325 
z
" id="Meiryo-30" transform="scale(0.015625)"/>
       </defs>
       <use xlink:href="#Meiryo-30"/>
      </g>
     </g>
    </g>
    <g id="xtick_2">
     <g id="line2d_3">
      <path clip-path="url(#p7f76551962)" d="M 173.172801 307.872 
L 173.172801 41.76 
" style="fill:none;stroke:#b0b0b0;stroke-linecap:square;stroke-width:0.8;"/>
     </g>
     <g id="line2d_4">
      <g>
       <use style="stroke:#000000;stroke-width:0.8;" x="173.172801" xlink:href="#m9f21b4b977" y="307.872"/>
      </g>
     </g>
     <g id="text_2">
      <!-- 10 -->
      <g transform="translate(163.235301 327.1695)scale(0.16 -0.16)">
       <defs>
        <path d="M 3338 0 
L 831 0 
L 831 431 
L 1813 431 
L 1813 3669 
L 831 3669 
L 831 4050 
Q 1406 4053 1653 4214 
Q 1900 4375 1931 4725 
L 2375 4725 
L 2375 431 
L 3338 431 
L 3338 0 
z
" id="Meiryo-31" transform="scale(0.015625)"/>
       </defs>
       <use xlink:href="#Meiryo-31"/>
       <use x="62.109375" xlink:href="#Meiryo-30"/>
      </g>
     </g>
    </g>
    <g id="xtick_3">
     <g id="line2d_5">
      <path clip-path="url(#p7f76551962)" d="M 241.929059 307.872 
L 241.929059 41.76 
" style="fill:none;stroke:#b0b0b0;stroke-linecap:square;stroke-width:0.8;"/>
     </g>
     <g id="line2d_6">
      <g>
       <use style="stroke:#000000;stroke-width:0.8;" x="241.929059" xlink:href="#m9f21b4b977" y="307.872"/>
      </g>
     </g>
     <g id="text_3">
      <!-- 20 -->
      <g transform="translate(231.991559 327.1695)scale(0.16 -0.16)">
       <defs>
        <path d="M 3606 0 
L 456 0 
L 456 609 
Q 956 1041 1579 1612 
Q 2203 2184 2506 2618 
Q 2809 3053 2809 3488 
Q 2809 3872 2554 4087 
Q 2300 4303 1863 4303 
Q 1222 4303 603 3897 
L 572 3897 
L 572 4506 
Q 1203 4806 1878 4806 
Q 2591 4806 3000 4461 
Q 3409 4116 3409 3519 
Q 3409 3200 3304 2909 
Q 3200 2619 2978 2344 
Q 2756 2069 2447 1759 
Q 2138 1450 1025 503 
L 3606 503 
L 3606 0 
z
" id="Meiryo-32" transform="scale(0.015625)"/>
       </defs>
       <use xlink:href="#Meiryo-32"/>
       <use x="62.109375" xlink:href="#Meiryo-30"/>
      </g>
     </g>
    </g>
    <g id="xtick_4">
     <g id="line2d_7">
      <path clip-path="url(#p7f76551962)" d="M 310.685316 307.872 
L 310.685316 41.76 
" style="fill:none;stroke:#b0b0b0;stroke-linecap:square;stroke-width:0.8;"/>
     </g>
     <g id="line2d_8">
      <g>
       <use style="stroke:#000000;stroke-width:0.8;" x="310.685316" xlink:href="#m9f21b4b977" y="307.872"/>
      </g>
     </g>
     <g id="text_4">
      <!-- 30 -->
      <g transform="translate(300.747816 327.1695)scale(0.16 -0.16)">
       <defs>
        <path d="M 475 197 
L 475 825 
L 525 825 
Q 1159 406 1838 406 
Q 2338 406 2639 678 
Q 2941 950 2941 1434 
Q 2941 1884 2678 2096 
Q 2416 2309 1828 2309 
L 1553 2309 
L 1553 2791 
L 1766 2791 
Q 2272 2791 2559 3006 
Q 2847 3222 2847 3613 
Q 2847 3944 2595 4123 
Q 2344 4303 1903 4303 
Q 1269 4303 644 3894 
L 609 3894 
L 609 4509 
Q 1241 4806 1919 4806 
Q 2647 4806 3045 4501 
Q 3444 4197 3444 3678 
Q 3444 3297 3178 2997 
Q 2913 2697 2513 2616 
L 2513 2566 
Q 3541 2381 3541 1381 
Q 3541 734 3069 318 
Q 2597 -97 1853 -97 
Q 1144 -97 475 197 
z
" id="Meiryo-33" transform="scale(0.015625)"/>
       </defs>
       <use xlink:href="#Meiryo-33"/>
       <use x="62.109375" xlink:href="#Meiryo-30"/>
      </g>
     </g>
    </g>
    <g id="xtick_5">
     <g id="line2d_9">
      <path clip-path="url(#p7f76551962)" d="M 379.441573 307.872 
L 379.441573 41.76 
" style="fill:none;stroke:#b0b0b0;stroke-linecap:square;stroke-width:0.8;"/>
     </g>
     <g id="line2d_10">
      <g>
       <use style="stroke:#000000;stroke-width:0.8;" x="379.441573" xlink:href="#m9f21b4b977" y="307.872"/>
      </g>
     </g>
     <g id="text_5">
      <!-- 40 -->
      <g transform="translate(369.504073 327.1695)scale(0.16 -0.16)">
       <defs>
        <path d="M 3713 1356 
L 3022 1356 
L 3022 0 
L 2459 0 
L 2459 1356 
L 194 1356 
L 194 2013 
L 2484 4709 
L 3022 4709 
L 3022 1819 
L 3713 1819 
L 3713 1356 
z
M 2459 1819 
L 2459 4022 
L 588 1819 
L 2459 1819 
z
" id="Meiryo-34" transform="scale(0.015625)"/>
       </defs>
       <use xlink:href="#Meiryo-34"/>
       <use x="62.109375" xlink:href="#Meiryo-30"/>
      </g>
     </g>
    </g>
    <g id="xtick_6">
     <g id="line2d_11">
      <path clip-path="url(#p7f76551962)" d="M 448.19783 307.872 
L 448.19783 41.76 
" style="fill:none;stroke:#b0b0b0;stroke-linecap:square;stroke-width:0.8;"/>
     </g>
     <g id="line2d_12">
      <g>
       <use style="stroke:#000000;stroke-width:0.8;" x="448.19783" xlink:href="#m9f21b4b977" y="307.872"/>
      </g>
     </g>
     <g id="text_6">
      <!-- 50 -->
      <g transform="translate(438.26033 327.1695)scale(0.16 -0.16)">
       <defs>
        <path d="M 538 178 
L 538 803 
L 588 803 
Q 1197 406 1856 406 
Q 2363 406 2667 695 
Q 2972 984 2972 1494 
Q 2972 2419 1703 2419 
Q 1341 2419 741 2294 
L 741 4709 
L 3538 4709 
L 3538 4203 
L 1303 4203 
L 1303 2869 
Q 1716 2909 1859 2909 
Q 2700 2909 3134 2546 
Q 3569 2184 3569 1491 
Q 3569 791 3098 347 
Q 2628 -97 1869 -97 
Q 1131 -97 538 178 
z
" id="Meiryo-35" transform="scale(0.015625)"/>
       </defs>
       <use xlink:href="#Meiryo-35"/>
       <use x="62.109375" xlink:href="#Meiryo-30"/>
      </g>
     </g>
    </g>
    <g id="text_7">
     <!-- Number of Generations -->
     <g transform="translate(188.95 346.7245)scale(0.16 -0.16)">
      <defs>
       <path d="M 4166 0 
L 3491 0 
L 1119 4088 
L 1119 0 
L 578 0 
L 578 4709 
L 1384 4709 
L 3625 847 
L 3625 4709 
L 4166 4709 
L 4166 0 
z
" id="Meiryo-4e" transform="scale(0.015625)"/>
       <path d="M 3425 0 
L 2875 0 
L 2875 425 
Q 2234 -97 1647 -97 
Q 1094 -97 800 245 
Q 506 588 506 1225 
L 506 3531 
L 1056 3531 
L 1056 1547 
Q 1056 866 1239 644 
Q 1422 422 1834 422 
Q 2322 422 2875 875 
L 2875 3531 
L 3425 3531 
L 3425 0 
z
" id="Meiryo-75" transform="scale(0.015625)"/>
       <path d="M 5084 0 
L 5084 1978 
Q 5084 2550 5004 2742 
Q 4925 2934 4761 3023 
Q 4597 3113 4347 3113 
Q 3919 3113 3338 2641 
Q 3356 2478 3356 2225 
L 3356 0 
L 2806 0 
L 2806 1978 
Q 2806 2566 2726 2752 
Q 2647 2938 2486 3025 
Q 2325 3113 2078 3113 
Q 1631 3113 1081 2656 
L 1081 0 
L 531 0 
L 531 3531 
L 1081 3531 
L 1081 3106 
Q 1709 3631 2269 3631 
Q 2991 3631 3244 3053 
Q 3925 3631 4538 3631 
Q 5634 3631 5634 2300 
L 5634 0 
L 5084 0 
z
" id="Meiryo-6d" transform="scale(0.015625)"/>
       <path d="M 1084 188 
L 1038 0 
L 531 0 
L 531 4919 
L 1081 4919 
L 1081 3144 
Q 1684 3631 2253 3631 
Q 2875 3631 3245 3140 
Q 3616 2650 3616 1797 
Q 3616 953 3169 428 
Q 2722 -97 2063 -97 
Q 1547 -97 1084 188 
z
M 1081 2697 
L 1081 603 
Q 1550 394 1950 394 
Q 2469 394 2758 756 
Q 3047 1119 3047 1781 
Q 3047 3113 2094 3113 
Q 1588 3113 1081 2697 
z
" id="Meiryo-62" transform="scale(0.015625)"/>
       <path d="M 834 2131 
L 2906 2131 
Q 2881 3184 1941 3184 
Q 1466 3184 1172 2903 
Q 878 2622 834 2131 
z
M 2125 -81 
Q 1244 -81 758 395 
Q 272 872 272 1744 
Q 272 2609 737 3120 
Q 1203 3631 1972 3631 
Q 2672 3631 3058 3212 
Q 3444 2794 3444 2019 
L 3444 1716 
L 834 1716 
Q 834 1078 1179 736 
Q 1525 394 2134 394 
Q 2741 394 3347 816 
L 3372 816 
L 3372 219 
Q 2619 -81 2125 -81 
z
" id="Meiryo-65" transform="scale(0.015625)"/>
       <path d="M 531 0 
L 531 3531 
L 1081 3531 
L 1081 2988 
Q 1744 3531 2303 3531 
Q 2500 3531 2700 3500 
L 2700 2925 
L 2678 2925 
Q 2419 2988 2153 2988 
Q 1622 2988 1081 2538 
L 1081 0 
L 531 0 
z
" id="Meiryo-72" transform="scale(0.015625)"/>
       <path id="Meiryo-20" transform="scale(0.015625)"/>
       <path d="M 1900 -97 
Q 1147 -97 709 401 
Q 272 900 272 1763 
Q 272 2625 712 3128 
Q 1153 3631 1900 3631 
Q 2647 3631 3087 3131 
Q 3528 2631 3528 1763 
Q 3528 894 3089 398 
Q 2650 -97 1900 -97 
z
M 1900 3163 
Q 1391 3163 1116 2803 
Q 841 2444 841 1763 
Q 841 1091 1116 731 
Q 1391 372 1900 372 
Q 2409 372 2684 731 
Q 2959 1091 2959 1763 
Q 2959 3163 1900 3163 
z
" id="Meiryo-6f" transform="scale(0.015625)"/>
       <path d="M 2409 4384 
L 2391 4384 
Q 2103 4478 1881 4478 
Q 1459 4478 1281 4281 
Q 1103 4084 1103 3634 
L 1103 3531 
L 2184 3531 
L 2184 3081 
L 1122 3081 
L 1122 0 
L 572 0 
L 572 3081 
L 169 3081 
L 169 3531 
L 572 3531 
L 572 3669 
Q 572 4291 884 4622 
Q 1197 4953 1778 4953 
Q 2063 4953 2409 4891 
L 2409 4384 
z
" id="Meiryo-66" transform="scale(0.015625)"/>
       <path d="M 4319 350 
Q 3306 -91 2663 -91 
Q 1538 -91 914 546 
Q 291 1184 291 2359 
Q 291 3500 925 4147 
Q 1559 4794 2663 4794 
Q 3478 4794 4316 4366 
L 4316 3681 
L 4272 3681 
Q 3506 4303 2563 4303 
Q 1788 4303 1342 3784 
Q 897 3266 897 2378 
Q 897 1450 1361 926 
Q 1825 403 2634 403 
Q 3228 403 3744 628 
L 3744 1841 
L 2522 1841 
L 2522 2347 
L 4319 2347 
L 4319 350 
z
" id="Meiryo-47" transform="scale(0.015625)"/>
       <path d="M 3450 0 
L 2900 0 
L 2900 1978 
Q 2900 2666 2719 2889 
Q 2538 3113 2122 3113 
Q 1631 3113 1081 2656 
L 1081 0 
L 531 0 
L 531 3531 
L 1081 3531 
L 1081 3106 
Q 1703 3631 2309 3631 
Q 2856 3631 3153 3289 
Q 3450 2947 3450 2300 
L 3450 0 
z
" id="Meiryo-6e" transform="scale(0.015625)"/>
       <path d="M 2663 841 
L 2663 1866 
Q 1497 1813 1164 1608 
Q 831 1403 831 1044 
Q 831 409 1600 409 
Q 2122 409 2663 841 
z
M 2663 0 
L 2663 394 
Q 2222 75 1937 -11 
Q 1653 -97 1359 -97 
Q 888 -97 575 215 
Q 263 528 263 1009 
Q 263 1625 727 1936 
Q 1191 2247 2663 2306 
L 2663 2413 
Q 2663 2781 2444 2957 
Q 2225 3134 1675 3134 
Q 1191 3134 597 2884 
L 572 2884 
L 572 3456 
Q 1156 3616 1697 3616 
Q 2481 3616 2845 3323 
Q 3209 3031 3209 2416 
L 3209 0 
L 2663 0 
z
" id="Meiryo-61" transform="scale(0.015625)"/>
       <path d="M 1647 -69 
Q 553 -69 553 1134 
L 553 3081 
L 150 3081 
L 150 3531 
L 556 3531 
L 556 4547 
L 1103 4547 
L 1103 3531 
L 2341 3531 
L 2341 3081 
L 1103 3081 
L 1103 1447 
Q 1103 891 1179 727 
Q 1256 563 1412 486 
Q 1569 409 1813 409 
Q 2044 409 2322 522 
L 2341 522 
L 2341 22 
Q 1969 -69 1647 -69 
z
" id="Meiryo-74" transform="scale(0.015625)"/>
       <path d="M 1122 4238 
L 500 4238 
L 500 4809 
L 1122 4809 
L 1122 4238 
z
M 1088 0 
L 538 0 
L 538 3531 
L 1088 3531 
L 1088 0 
z
" id="Meiryo-69" transform="scale(0.015625)"/>
       <path d="M 1528 -84 
Q 866 -84 284 206 
L 284 844 
L 306 844 
Q 938 375 1559 375 
Q 2431 375 2431 925 
Q 2431 1141 2315 1259 
Q 2200 1378 1834 1463 
Q 1528 1522 1131 1615 
Q 734 1709 517 1945 
Q 300 2181 300 2550 
Q 300 3019 681 3317 
Q 1063 3616 1700 3616 
Q 2356 3616 2853 3359 
L 2853 2753 
L 2831 2753 
Q 2284 3156 1672 3156 
Q 1294 3156 1075 3017 
Q 856 2878 856 2631 
Q 856 2413 973 2297 
Q 1091 2181 1441 2094 
L 2131 1944 
Q 2559 1850 2775 1614 
Q 2991 1378 2991 1003 
Q 2991 519 2594 217 
Q 2197 -84 1528 -84 
z
" id="Meiryo-73" transform="scale(0.015625)"/>
      </defs>
      <use xlink:href="#Meiryo-4e"/>
      <use x="74.121094" xlink:href="#Meiryo-75"/>
      <use x="135.9375" xlink:href="#Meiryo-6d"/>
      <use x="231.884766" xlink:href="#Meiryo-62"/>
      <use x="292.724609" xlink:href="#Meiryo-65"/>
      <use x="350.439453" xlink:href="#Meiryo-72"/>
      <use x="391.748047" xlink:href="#Meiryo-20"/>
      <use x="425.732422" xlink:href="#Meiryo-6f"/>
      <use x="485.107422" xlink:href="#Meiryo-66"/>
      <use x="518.652344" xlink:href="#Meiryo-20"/>
      <use x="552.636719" xlink:href="#Meiryo-47"/>
      <use x="625.439453" xlink:href="#Meiryo-65"/>
      <use x="683.154297" xlink:href="#Meiryo-6e"/>
      <use x="744.970703" xlink:href="#Meiryo-65"/>
      <use x="802.685547" xlink:href="#Meiryo-72"/>
      <use x="842.619141" xlink:href="#Meiryo-61"/>
      <use x="900.626953" xlink:href="#Meiryo-74"/>
      <use x="938.517578" xlink:href="#Meiryo-69"/>
      <use x="963.908203" xlink:href="#Meiryo-6f"/>
      <use x="1023.283203" xlink:href="#Meiryo-6e"/>
      <use x="1085.099609" xlink:href="#Meiryo-73"/>
     </g>
    </g>
   </g>
   <g id="matplotlib.axis_2">
    <g id="ytick_1">
     <g id="line2d_13">
      <path clip-path="url(#p7f76551962)" d="M 101.185 277.276653 
L 458.305 277.276653 
" style="fill:none;stroke:#b0b0b0;stroke-linecap:square;stroke-width:0.8;"/>
     </g>
     <g id="line2d_14">
      <defs>
       <path d="M 0 0 
L -3.5 0 
" id="m7b0b557f7e" style="stroke:#000000;stroke-width:0.8;"/>
      </defs>
      <g>
       <use style="stroke:#000000;stroke-width:0.8;" x="101.185" xlink:href="#m7b0b557f7e" y="277.276653"/>
      </g>
     </g>
     <g id="text_8">
      <!-- 0.0e+00 -->
      <g transform="translate(26.755 283.425403)scale(0.16 -0.16)">
       <defs>
        <path d="M 1472 0 
L 763 0 
L 763 853 
L 1472 853 
L 1472 0 
z
" id="Meiryo-2e" transform="scale(0.015625)"/>
        <path d="M 4534 1828 
L 2813 1828 
L 2813 106 
L 2331 106 
L 2331 1828 
L 609 1828 
L 609 2291 
L 2331 2291 
L 2331 4013 
L 2813 4013 
L 2813 2291 
L 4534 2291 
L 4534 1828 
z
" id="Meiryo-2b" transform="scale(0.015625)"/>
       </defs>
       <use xlink:href="#Meiryo-30"/>
       <use x="62.109375" xlink:href="#Meiryo-2e"/>
       <use x="97.021484" xlink:href="#Meiryo-30"/>
       <use x="159.130859" xlink:href="#Meiryo-65"/>
       <use x="216.845703" xlink:href="#Meiryo-2b"/>
       <use x="297.216797" xlink:href="#Meiryo-30"/>
       <use x="359.326172" xlink:href="#Meiryo-30"/>
      </g>
     </g>
    </g>
    <g id="ytick_2">
     <g id="line2d_15">
      <path clip-path="url(#p7f76551962)" d="M 101.185 230.760555 
L 458.305 230.760555 
" style="fill:none;stroke:#b0b0b0;stroke-linecap:square;stroke-width:0.8;"/>
     </g>
     <g id="line2d_16">
      <g>
       <use style="stroke:#000000;stroke-width:0.8;" x="101.185" xlink:href="#m7b0b557f7e" y="230.760555"/>
      </g>
     </g>
     <g id="text_9">
      <!-- 1.0e-01 -->
      <g transform="translate(32.5825 236.909305)scale(0.16 -0.16)">
       <defs>
        <path d="M 2381 1797 
L 431 1797 
L 431 2322 
L 2381 2322 
L 2381 1797 
z
" id="Meiryo-2d" transform="scale(0.015625)"/>
       </defs>
       <use xlink:href="#Meiryo-31"/>
       <use x="62.109375" xlink:href="#Meiryo-2e"/>
       <use x="97.021484" xlink:href="#Meiryo-30"/>
       <use x="159.130859" xlink:href="#Meiryo-65"/>
       <use x="216.845703" xlink:href="#Meiryo-2d"/>
       <use x="260.791016" xlink:href="#Meiryo-30"/>
       <use x="322.900391" xlink:href="#Meiryo-31"/>
      </g>
     </g>
    </g>
    <g id="ytick_3">
     <g id="line2d_17">
      <path clip-path="url(#p7f76551962)" d="M 101.185 184.244458 
L 458.305 184.244458 
" style="fill:none;stroke:#b0b0b0;stroke-linecap:square;stroke-width:0.8;"/>
     </g>
     <g id="line2d_18">
      <g>
       <use style="stroke:#000000;stroke-width:0.8;" x="101.185" xlink:href="#m7b0b557f7e" y="184.244458"/>
      </g>
     </g>
     <g id="text_10">
      <!-- 2.0e-01 -->
      <g transform="translate(32.5825 190.393208)scale(0.16 -0.16)">
       <use xlink:href="#Meiryo-32"/>
       <use x="62.109375" xlink:href="#Meiryo-2e"/>
       <use x="97.021484" xlink:href="#Meiryo-30"/>
       <use x="159.130859" xlink:href="#Meiryo-65"/>
       <use x="216.845703" xlink:href="#Meiryo-2d"/>
       <use x="260.791016" xlink:href="#Meiryo-30"/>
       <use x="322.900391" xlink:href="#Meiryo-31"/>
      </g>
     </g>
    </g>
    <g id="ytick_4">
     <g id="line2d_19">
      <path clip-path="url(#p7f76551962)" d="M 101.185 137.728361 
L 458.305 137.728361 
" style="fill:none;stroke:#b0b0b0;stroke-linecap:square;stroke-width:0.8;"/>
     </g>
     <g id="line2d_20">
      <g>
       <use style="stroke:#000000;stroke-width:0.8;" x="101.185" xlink:href="#m7b0b557f7e" y="137.728361"/>
      </g>
     </g>
     <g id="text_11">
      <!-- 3.0e-01 -->
      <g transform="translate(32.5825 143.877111)scale(0.16 -0.16)">
       <use xlink:href="#Meiryo-33"/>
       <use x="62.109375" xlink:href="#Meiryo-2e"/>
       <use x="97.021484" xlink:href="#Meiryo-30"/>
       <use x="159.130859" xlink:href="#Meiryo-65"/>
       <use x="216.845703" xlink:href="#Meiryo-2d"/>
       <use x="260.791016" xlink:href="#Meiryo-30"/>
       <use x="322.900391" xlink:href="#Meiryo-31"/>
      </g>
     </g>
    </g>
    <g id="ytick_5">
     <g id="line2d_21">
      <path clip-path="url(#p7f76551962)" d="M 101.185 91.212264 
L 458.305 91.212264 
" style="fill:none;stroke:#b0b0b0;stroke-linecap:square;stroke-width:0.8;"/>
     </g>
     <g id="line2d_22">
      <g>
       <use style="stroke:#000000;stroke-width:0.8;" x="101.185" xlink:href="#m7b0b557f7e" y="91.212264"/>
      </g>
     </g>
     <g id="text_12">
      <!-- 4.0e-01 -->
      <g transform="translate(32.5825 97.361014)scale(0.16 -0.16)">
       <use xlink:href="#Meiryo-34"/>
       <use x="62.109375" xlink:href="#Meiryo-2e"/>
       <use x="97.021484" xlink:href="#Meiryo-30"/>
       <use x="159.130859" xlink:href="#Meiryo-65"/>
       <use x="216.845703" xlink:href="#Meiryo-2d"/>
       <use x="260.791016" xlink:href="#Meiryo-30"/>
       <use x="322.900391" xlink:href="#Meiryo-31"/>
      </g>
     </g>
    </g>
    <g id="ytick_6">
     <g id="line2d_23">
      <path clip-path="url(#p7f76551962)" d="M 101.185 44.696166 
L 458.305 44.696166 
" style="fill:none;stroke:#b0b0b0;stroke-linecap:square;stroke-width:0.8;"/>
     </g>
     <g id="line2d_24">
      <g>
       <use style="stroke:#000000;stroke-width:0.8;" x="101.185" xlink:href="#m7b0b557f7e" y="44.696166"/>
      </g>
     </g>
     <g id="text_13">
      <!-- 5.0e-01 -->
      <g transform="translate(32.5825 50.844916)scale(0.16 -0.16)">
       <use xlink:href="#Meiryo-35"/>
       <use x="62.109375" xlink:href="#Meiryo-2e"/>
       <use x="97.021484" xlink:href="#Meiryo-30"/>
       <use x="159.130859" xlink:href="#Meiryo-65"/>
       <use x="216.845703" xlink:href="#Meiryo-2d"/>
       <use x="260.791016" xlink:href="#Meiryo-30"/>
       <use x="322.900391" xlink:href="#Meiryo-31"/>
      </g>
     </g>
    </g>
    <g id="text_14">
     <!-- IGD -->
     <g transform="translate(19.4975 189.85475)rotate(-90)scale(0.16 -0.16)">
      <defs>
       <path d="M 2197 0 
L 381 0 
L 381 434 
L 1000 434 
L 1000 4275 
L 381 4275 
L 381 4709 
L 2197 4709 
L 2197 4275 
L 1581 4275 
L 1581 434 
L 2197 434 
L 2197 0 
z
" id="Meiryo-49" transform="scale(0.015625)"/>
       <path d="M 578 0 
L 578 4709 
L 1713 4709 
Q 2706 4709 3275 4450 
Q 3844 4191 4173 3658 
Q 4503 3125 4503 2350 
Q 4503 1388 3879 694 
Q 3256 0 1725 0 
L 578 0 
z
M 1159 4216 
L 1159 494 
L 1766 494 
Q 2881 494 3387 966 
Q 3894 1438 3894 2359 
Q 3894 3234 3381 3725 
Q 2869 4216 1766 4216 
L 1159 4216 
z
" id="Meiryo-44" transform="scale(0.015625)"/>
      </defs>
      <use xlink:href="#Meiryo-49"/>
      <use x="40.332031" xlink:href="#Meiryo-47"/>
      <use x="113.134766" xlink:href="#Meiryo-44"/>
     </g>
    </g>
   </g>
   <g id="line2d_25">
    <path clip-path="url(#p7f76551962)" d="M 111.29217 72.465231 
L 118.167796 96.130948 
L 125.043421 149.349771 
L 131.919047 174.808204 
L 138.794673 203.617574 
L 145.670298 225.569842 
L 152.545924 238.211485 
L 159.42155 246.545988 
L 166.297176 248.888678 
L 173.172801 252.973881 
L 180.048427 257.072553 
L 186.924053 263.885972 
L 193.799678 267.136742 
L 200.675304 269.12438 
L 207.55093 271.084842 
L 214.426556 272.065683 
L 221.302181 272.808584 
L 228.177807 273.458141 
L 235.053433 273.894441 
L 241.929059 274.143818 
L 248.804684 274.142296 
L 255.68031 274.241738 
L 262.555936 274.284356 
L 269.431561 274.358248 
L 276.307187 274.360121 
L 283.182813 274.393625 
L 290.058439 274.408915 
L 296.934064 274.376691 
L 303.80969 274.405075 
L 310.685316 274.406338 
L 317.560941 274.413849 
L 324.436567 274.453563 
L 331.312193 274.390541 
L 338.187819 274.400267 
L 345.063444 274.397237 
L 351.93907 274.404571 
L 358.814696 274.364675 
L 365.690322 274.362842 
L 372.565947 274.370427 
L 379.441573 274.364094 
L 386.317199 274.328517 
L 393.192824 274.379118 
L 400.06845 274.388613 
L 406.944076 274.391342 
L 413.819702 274.408766 
L 420.695327 274.414522 
L 427.570953 274.411678 
L 434.446579 274.425124 
L 441.322204 274.385457 
L 448.19783 274.40639 
" style="fill:none;stroke:#1f77b4;stroke-linecap:square;stroke-width:1.5;"/>
   </g>
   <g id="line2d_26">
    <path clip-path="url(#p7f76551962)" d="M 111.29217 269.896374 
L 118.167796 271.011883 
L 125.043421 273.240505 
L 131.919047 274.402004 
L 138.794673 274.881136 
L 145.670298 275.696801 
L 152.545924 275.838493 
L 159.42155 276.120426 
L 166.297176 276.350206 
L 173.172801 276.608247 
L 180.048427 276.647732 
L 186.924053 276.778726 
L 193.799678 276.861135 
L 200.675304 276.960933 
L 207.55093 277.031538 
L 214.426556 277.074455 
L 221.302181 277.097442 
L 228.177807 277.107521 
L 235.053433 277.131077 
L 241.929059 277.137269 
L 248.804684 277.147413 
L 255.68031 277.156225 
L 262.555936 277.156691 
L 269.431561 277.158312 
L 276.307187 277.161611 
L 283.182813 277.161948 
L 290.058439 277.163241 
L 296.934064 277.162521 
L 303.80969 277.159656 
L 310.685316 277.162314 
L 317.560941 277.163144 
L 324.436567 277.162115 
L 331.312193 277.161521 
L 338.187819 277.16214 
L 345.063444 277.161597 
L 351.93907 277.161844 
L 358.814696 277.161976 
L 365.690322 277.162251 
L 372.565947 277.165931 
L 379.441573 277.166769 
L 386.317199 277.165338 
L 393.192824 277.163922 
L 400.06845 277.162276 
L 406.944076 277.162718 
L 413.819702 277.163084 
L 420.695327 277.162801 
L 427.570953 277.161392 
L 434.446579 277.163926 
L 441.322204 277.158664 
L 448.19783 277.160438 
" style="fill:none;stroke:#ff7f0e;stroke-linecap:square;stroke-width:1.5;"/>
   </g>
   <g id="line2d_27">
    <path clip-path="url(#p7f76551962)" d="M 111.29217 269.896374 
L 118.167796 271.36355 
L 125.043421 272.564015 
L 131.919047 273.743046 
L 138.794673 274.943883 
L 145.670298 275.298989 
L 152.545924 275.625016 
L 159.42155 275.982115 
L 166.297176 276.167382 
L 173.172801 276.423118 
L 180.048427 276.50932 
L 186.924053 276.624356 
L 193.799678 276.758165 
L 200.675304 276.875384 
L 207.55093 276.996508 
L 214.426556 277.013757 
L 221.302181 277.066519 
L 228.177807 277.088207 
L 235.053433 277.119327 
L 241.929059 277.134014 
L 248.804684 277.136934 
L 255.68031 277.145017 
L 262.555936 277.146564 
L 269.431561 277.148883 
L 276.307187 277.152487 
L 283.182813 277.156294 
L 290.058439 277.15962 
L 296.934064 277.157665 
L 303.80969 277.156004 
L 310.685316 277.161674 
L 317.560941 277.159645 
L 324.436567 277.159424 
L 331.312193 277.159167 
L 338.187819 277.157547 
L 345.063444 277.160293 
L 351.93907 277.160718 
L 358.814696 277.15863 
L 365.690322 277.161985 
L 372.565947 277.160948 
L 379.441573 277.162019 
L 386.317199 277.162012 
L 393.192824 277.161899 
L 400.06845 277.163203 
L 406.944076 277.16235 
L 413.819702 277.162375 
L 420.695327 277.161652 
L 427.570953 277.161286 
L 434.446579 277.159213 
L 441.322204 277.158568 
L 448.19783 277.161479 
" style="fill:none;stroke:#2ca02c;stroke-linecap:square;stroke-width:1.5;"/>
   </g>
   <g id="line2d_28">
    <path clip-path="url(#p7f76551962)" d="M 111.29217 269.896374 
L 118.167796 270.889002 
L 125.043421 272.129112 
L 131.919047 273.746775 
L 138.794673 274.629089 
L 145.670298 274.927445 
L 152.545924 275.715102 
L 159.42155 275.924528 
L 166.297176 276.290466 
L 173.172801 276.34769 
L 180.048427 276.429795 
L 186.924053 276.554062 
L 193.799678 276.649191 
L 200.675304 276.814277 
L 207.55093 276.86464 
L 214.426556 276.967797 
L 221.302181 277.031608 
L 228.177807 277.080467 
L 235.053433 277.108081 
L 241.929059 277.122466 
L 248.804684 277.133288 
L 255.68031 277.137015 
L 262.555936 277.148997 
L 269.431561 277.152572 
L 276.307187 277.154666 
L 283.182813 277.157052 
L 290.058439 277.15867 
L 296.934064 277.159757 
L 303.80969 277.161882 
L 310.685316 277.162163 
L 317.560941 277.15843 
L 324.436567 277.159804 
L 331.312193 277.162508 
L 338.187819 277.163108 
L 345.063444 277.163178 
L 351.93907 277.161919 
L 358.814696 277.160571 
L 365.690322 277.160822 
L 372.565947 277.161157 
L 379.441573 277.159279 
L 386.317199 277.161719 
L 393.192824 277.160785 
L 400.06845 277.164139 
L 406.944076 277.16409 
L 413.819702 277.160931 
L 420.695327 277.163155 
L 427.570953 277.160611 
L 434.446579 277.163093 
L 441.322204 277.162004 
L 448.19783 277.162923 
" style="fill:none;stroke:#d62728;stroke-linecap:square;stroke-width:1.5;"/>
   </g>
   <g id="line2d_29">
    <path clip-path="url(#p7f76551962)" d="M 111.29217 269.896374 
L 118.167796 271.142329 
L 125.043421 272.029977 
L 131.919047 273.545208 
L 138.794673 274.599304 
L 145.670298 275.296346 
L 152.545924 275.910767 
L 159.42155 276.090473 
L 166.297176 276.280117 
L 173.172801 276.3482 
L 180.048427 276.409848 
L 186.924053 276.504016 
L 193.799678 276.682157 
L 200.675304 276.782893 
L 207.55093 276.980803 
L 214.426556 277.025488 
L 221.302181 277.068573 
L 228.177807 277.093076 
L 235.053433 277.095247 
L 241.929059 277.136137 
L 248.804684 277.134062 
L 255.68031 277.142921 
L 262.555936 277.148291 
L 269.431561 277.151238 
L 276.307187 277.154109 
L 283.182813 277.154023 
L 290.058439 277.156321 
L 296.934064 277.160342 
L 303.80969 277.161525 
L 310.685316 277.161529 
L 317.560941 277.162018 
L 324.436567 277.161237 
L 331.312193 277.16085 
L 338.187819 277.162046 
L 345.063444 277.163345 
L 351.93907 277.162526 
L 358.814696 277.162829 
L 365.690322 277.162709 
L 372.565947 277.16235 
L 379.441573 277.160732 
L 386.317199 277.163856 
L 393.192824 277.163197 
L 400.06845 277.161175 
L 406.944076 277.161914 
L 413.819702 277.162489 
L 420.695327 277.162137 
L 427.570953 277.163171 
L 434.446579 277.162386 
L 441.322204 277.161707 
L 448.19783 277.162873 
" style="fill:none;stroke:#9467bd;stroke-linecap:square;stroke-width:1.5;"/>
   </g>
   <g id="patch_3">
    <path d="M 101.185 307.872 
L 101.185 41.76 
" style="fill:none;stroke:#000000;stroke-linecap:square;stroke-linejoin:miter;stroke-width:0.8;"/>
   </g>
   <g id="patch_4">
    <path d="M 458.305 307.872 
L 458.305 41.76 
" style="fill:none;stroke:#000000;stroke-linecap:square;stroke-linejoin:miter;stroke-width:0.8;"/>
   </g>
   <g id="patch_5">
    <path d="M 101.185 307.872 
L 458.305 307.872 
" style="fill:none;stroke:#000000;stroke-linecap:square;stroke-linejoin:miter;stroke-width:0.8;"/>
   </g>
   <g id="patch_6">
    <path d="M 101.185 41.76 
L 458.305 41.76 
" style="fill:none;stroke:#000000;stroke-linecap:square;stroke-linejoin:miter;stroke-width:0.8;"/>
   </g>
   <g id="legend_1">
    <g id="patch_7">
     <path d="M 297.4725 172.335 
L 447.105 172.335 
Q 450.305 172.335 450.305 169.135 
L 450.305 52.96 
Q 450.305 49.76 447.105 49.76 
L 297.4725 49.76 
Q 294.2725 49.76 294.2725 52.96 
L 294.2725 169.135 
Q 294.2725 172.335 297.4725 172.335 
z
" style="fill:#ffffff;opacity:0.8;stroke:#cccccc;stroke-linejoin:miter;"/>
    </g>
    <g id="line2d_30">
     <path d="M 300.6725 62.8575 
L 332.6725 62.8575 
" style="fill:none;stroke:#1f77b4;stroke-linecap:square;stroke-width:1.5;"/>
    </g>
    <g id="line2d_31"/>
    <g id="text_15">
     <!-- NSGA-II -->
     <g transform="translate(345.4725 68.4575)scale(0.16 -0.16)">
      <defs>
       <path d="M 2022 -84 
Q 1228 -84 356 309 
L 356 1019 
L 397 1019 
Q 1116 406 2028 406 
Q 2591 406 2911 636 
Q 3231 866 3231 1247 
Q 3231 1541 3095 1708 
Q 2959 1875 2622 1969 
L 1572 2181 
Q 988 2303 686 2623 
Q 384 2944 384 3456 
Q 384 4038 853 4416 
Q 1322 4794 2075 4794 
Q 2863 4794 3650 4447 
L 3650 3763 
L 3606 3763 
Q 2956 4303 2075 4303 
Q 1588 4303 1289 4087 
Q 991 3872 991 3522 
Q 991 2938 1672 2769 
Q 2066 2697 2548 2589 
Q 3031 2481 3239 2364 
Q 3447 2247 3576 2097 
Q 3706 1947 3770 1756 
Q 3834 1566 3834 1334 
Q 3834 722 3337 319 
Q 2841 -84 2022 -84 
z
" id="Meiryo-53" transform="scale(0.015625)"/>
       <path d="M 3000 1828 
L 2153 4150 
L 1309 1828 
L 3000 1828 
z
M 3659 0 
L 3175 1344 
L 1131 1344 
L 647 0 
L 56 0 
L 1800 4709 
L 2541 4709 
L 4281 0 
L 3659 0 
z
" id="Meiryo-41" transform="scale(0.015625)"/>
      </defs>
      <use xlink:href="#Meiryo-4e"/>
      <use x="74.121094" xlink:href="#Meiryo-53"/>
      <use x="137.597656" xlink:href="#Meiryo-47"/>
      <use x="210.400391" xlink:href="#Meiryo-41"/>
      <use x="275.798828" xlink:href="#Meiryo-2d"/>
      <use x="318.369141" xlink:href="#Meiryo-49"/>
      <use x="358.701172" xlink:href="#Meiryo-49"/>
     </g>
    </g>
    <g id="line2d_32">
     <path d="M 300.6725 86.4125 
L 332.6725 86.4125 
" style="fill:none;stroke:#ff7f0e;stroke-linecap:square;stroke-width:1.5;"/>
    </g>
    <g id="line2d_33"/>
    <g id="text_16">
     <!-- MO-MFEA -->
     <g transform="translate(345.4725 92.0125)scale(0.16 -0.16)">
      <defs>
       <path d="M 4738 0 
L 4156 0 
L 4156 4044 
L 2797 1281 
L 2478 1281 
L 1119 4044 
L 1119 0 
L 578 0 
L 578 4709 
L 1322 4709 
L 2656 2000 
L 3988 4709 
L 4738 4709 
L 4738 0 
z
" id="Meiryo-4d" transform="scale(0.015625)"/>
       <path d="M 2438 -97 
Q 1434 -97 862 551 
Q 291 1200 291 2353 
Q 291 3503 864 4154 
Q 1438 4806 2438 4806 
Q 3441 4806 4014 4154 
Q 4588 3503 4588 2353 
Q 4588 1206 4014 554 
Q 3441 -97 2438 -97 
z
M 2441 4309 
Q 1709 4309 1303 3796 
Q 897 3284 897 2353 
Q 897 1422 1303 911 
Q 1709 400 2441 400 
Q 3169 400 3575 911 
Q 3981 1422 3981 2353 
Q 3981 3291 3575 3800 
Q 3169 4309 2441 4309 
z
" id="Meiryo-4f" transform="scale(0.015625)"/>
       <path d="M 3550 4203 
L 1159 4203 
L 1159 2797 
L 3281 2797 
L 3281 2291 
L 1159 2291 
L 1159 0 
L 578 0 
L 578 4709 
L 3550 4709 
L 3550 4203 
z
" id="Meiryo-46" transform="scale(0.015625)"/>
       <path d="M 3644 0 
L 578 0 
L 578 4709 
L 3644 4709 
L 3644 4203 
L 1159 4203 
L 1159 2831 
L 3581 2831 
L 3581 2325 
L 1159 2325 
L 1159 506 
L 3644 506 
L 3644 0 
z
" id="Meiryo-45" transform="scale(0.015625)"/>
      </defs>
      <use xlink:href="#Meiryo-4d"/>
      <use x="83.056641" xlink:href="#Meiryo-4f"/>
      <use x="159.277344" xlink:href="#Meiryo-2d"/>
      <use x="203.222656" xlink:href="#Meiryo-4d"/>
      <use x="286.279297" xlink:href="#Meiryo-46"/>
      <use x="343.408203" xlink:href="#Meiryo-45"/>
      <use x="405.175781" xlink:href="#Meiryo-41"/>
     </g>
    </g>
    <g id="line2d_34">
     <path d="M 300.6725 109.9675 
L 332.6725 109.9675 
" style="fill:none;stroke:#2ca02c;stroke-linecap:square;stroke-width:1.5;"/>
    </g>
    <g id="line2d_35"/>
    <g id="text_17">
     <!-- MO-MFEA-II -->
     <g transform="translate(345.4725 115.5675)scale(0.16 -0.16)">
      <use xlink:href="#Meiryo-4d"/>
      <use x="83.056641" xlink:href="#Meiryo-4f"/>
      <use x="159.277344" xlink:href="#Meiryo-2d"/>
      <use x="203.222656" xlink:href="#Meiryo-4d"/>
      <use x="286.279297" xlink:href="#Meiryo-46"/>
      <use x="343.408203" xlink:href="#Meiryo-45"/>
      <use x="405.175781" xlink:href="#Meiryo-41"/>
      <use x="470.574219" xlink:href="#Meiryo-2d"/>
      <use x="513.144531" xlink:href="#Meiryo-49"/>
      <use x="553.476562" xlink:href="#Meiryo-49"/>
     </g>
    </g>
    <g id="line2d_36">
     <path d="M 300.6725 133.5225 
L 332.6725 133.5225 
" style="fill:none;stroke:#d62728;stroke-linecap:square;stroke-width:1.5;"/>
    </g>
    <g id="line2d_37"/>
    <g id="text_18">
     <!-- EMEA -->
     <g transform="translate(345.4725 139.1225)scale(0.16 -0.16)">
      <use xlink:href="#Meiryo-45"/>
      <use x="61.767578" xlink:href="#Meiryo-4d"/>
      <use x="144.824219" xlink:href="#Meiryo-45"/>
      <use x="206.591797" xlink:href="#Meiryo-41"/>
     </g>
    </g>
    <g id="line2d_38">
     <path d="M 300.6725 157.0775 
L 332.6725 157.0775 
" style="fill:none;stroke:#9467bd;stroke-linecap:square;stroke-width:1.5;"/>
    </g>
    <g id="line2d_39"/>
    <g id="text_19">
     <!-- Island Model -->
     <g transform="translate(345.4725 162.6775)scale(0.16 -0.16)">
      <defs>
       <path d="M 1088 0 
L 538 0 
L 538 4919 
L 1088 4919 
L 1088 0 
z
" id="Meiryo-6c" transform="scale(0.015625)"/>
       <path d="M 2813 838 
L 2813 2928 
Q 2350 3141 1947 3141 
Q 1428 3141 1137 2777 
Q 847 2413 847 1753 
Q 847 422 1800 422 
Q 2334 422 2813 838 
z
M 2813 0 
L 2813 391 
Q 2209 -97 1644 -97 
Q 1019 -97 648 393 
Q 278 884 278 1734 
Q 278 2575 725 3103 
Q 1172 3631 1828 3631 
Q 2288 3631 2813 3353 
L 2813 4919 
L 3363 4919 
L 3363 0 
L 2813 0 
z
" id="Meiryo-64" transform="scale(0.015625)"/>
      </defs>
      <use xlink:href="#Meiryo-49"/>
      <use x="38.957031" xlink:href="#Meiryo-73"/>
      <use x="88.761719" xlink:href="#Meiryo-6c"/>
      <use x="114.152344" xlink:href="#Meiryo-61"/>
      <use x="172.160156" xlink:href="#Meiryo-6e"/>
      <use x="233.976562" xlink:href="#Meiryo-64"/>
      <use x="294.816406" xlink:href="#Meiryo-20"/>
      <use x="328.800781" xlink:href="#Meiryo-4d"/>
      <use x="411.857422" xlink:href="#Meiryo-6f"/>
      <use x="471.232422" xlink:href="#Meiryo-64"/>
      <use x="532.072266" xlink:href="#Meiryo-65"/>
      <use x="589.787109" xlink:href="#Meiryo-6c"/>
     </g>
    </g>
   </g>
  </g>
  <g id="text_20">
   <!-- Pressure vessel design -->
   <g transform="translate(168.4225 21.957)scale(0.192 -0.192)">
    <defs>
     <path d="M 1159 1778 
L 1159 0 
L 578 0 
L 578 4709 
L 1878 4709 
Q 2788 4709 3223 4326 
Q 3659 3944 3659 3297 
Q 3659 2625 3182 2201 
Q 2706 1778 1850 1778 
L 1159 1778 
z
M 1159 4216 
L 1159 2269 
L 1741 2269 
Q 2456 2269 2754 2545 
Q 3053 2822 3053 3281 
Q 3053 3741 2762 3978 
Q 2472 4216 1834 4216 
L 1159 4216 
z
" id="Meiryo-50" transform="scale(0.015625)"/>
     <path d="M 3522 3531 
L 2019 0 
L 1591 0 
L 97 3531 
L 694 3531 
L 1828 775 
L 2947 3531 
L 3522 3531 
z
" id="Meiryo-76" transform="scale(0.015625)"/>
     <path d="M 3353 400 
Q 3353 -1338 1706 -1338 
Q 1166 -1338 631 -1191 
L 631 -622 
L 656 -622 
Q 1203 -847 1738 -847 
Q 2278 -847 2540 -605 
Q 2803 -363 2803 178 
L 2803 528 
Q 2238 53 1619 53 
Q 991 53 634 515 
Q 278 978 278 1797 
Q 278 2616 717 3123 
Q 1156 3631 1806 3631 
Q 2319 3631 2803 3353 
L 2844 3531 
L 3353 3531 
L 3353 400 
z
M 2803 972 
L 2803 2925 
Q 2338 3141 1934 3141 
Q 1419 3141 1133 2800 
Q 847 2459 847 1825 
Q 847 563 1784 563 
Q 2281 563 2803 972 
z
" id="Meiryo-67" transform="scale(0.015625)"/>
    </defs>
    <use xlink:href="#Meiryo-50"/>
    <use x="59.570312" xlink:href="#Meiryo-72"/>
    <use x="100.878906" xlink:href="#Meiryo-65"/>
    <use x="158.59375" xlink:href="#Meiryo-73"/>
    <use x="208.398438" xlink:href="#Meiryo-73"/>
    <use x="258.203125" xlink:href="#Meiryo-75"/>
    <use x="320.019531" xlink:href="#Meiryo-72"/>
    <use x="361.328125" xlink:href="#Meiryo-65"/>
    <use x="419.042969" xlink:href="#Meiryo-20"/>
    <use x="453.027344" xlink:href="#Meiryo-76"/>
    <use x="508.869141" xlink:href="#Meiryo-65"/>
    <use x="566.583984" xlink:href="#Meiryo-73"/>
    <use x="616.388672" xlink:href="#Meiryo-73"/>
    <use x="666.193359" xlink:href="#Meiryo-65"/>
    <use x="723.908203" xlink:href="#Meiryo-6c"/>
    <use x="749.298828" xlink:href="#Meiryo-20"/>
    <use x="783.283203" xlink:href="#Meiryo-64"/>
    <use x="844.123047" xlink:href="#Meiryo-65"/>
    <use x="901.837891" xlink:href="#Meiryo-73"/>
    <use x="951.642578" xlink:href="#Meiryo-69"/>
    <use x="977.033203" xlink:href="#Meiryo-67"/>
    <use x="1037.726562" xlink:href="#Meiryo-6e"/>
   </g>
  </g>
 </g>
 <defs>
  <clipPath id="p7f76551962">
   <rect height="266.112" width="357.12" x="101.185" y="41.76"/>
  </clipPath>
 </defs>
</svg>
