<?xml version="1.0" encoding="utf-8" standalone="no"?>
<!DOCTYPE svg PUBLIC "-//W3C//DTD SVG 1.1//EN"
  "http://www.w3.org/Graphics/SVG/1.1/DTD/svg11.dtd">
<svg height="357.042pt" version="1.1" viewBox="0 0 467.13533 357.042" width="467.13533pt" xmlns="http://www.w3.org/2000/svg" xmlns:xlink="http://www.w3.org/1999/xlink">
 <metadata>
  <rdf:RDF xmlns:cc="http://creativecommons.org/ns#" xmlns:dc="http://purl.org/dc/elements/1.1/" xmlns:rdf="http://www.w3.org/1999/02/22-rdf-syntax-ns#">
   <cc:Work>
    <dc:type rdf:resource="http://purl.org/dc/dcmitype/StillImage"/>
    <dc:date>2021-11-15T17:33:31.243307</dc:date>
    <dc:format>image/svg+xml</dc:format>
    <dc:creator>
     <cc:Agent>
      <dc:title>Matplotlib v3.4.3, https://matplotlib.org/</dc:title>
     </cc:Agent>
    </dc:creator>
   </cc:Work>
  </rdf:RDF>
 </metadata>
 <defs>
  <style type="text/css">*{stroke-linecap:butt;stroke-linejoin:round;}</style>
 </defs>
 <g id="figure_1">
  <g id="patch_1">
   <path d="M 0 357.042 
L 467.13533 357.042 
L 467.13533 0 
L 0 0 
z
" style="fill:none;"/>
  </g>
  <g id="axes_1">
   <g id="patch_2">
    <path d="M 102.7425 307.872 
L 459.8625 307.872 
L 459.8625 41.76 
L 102.7425 41.76 
z
" style="fill:none;"/>
   </g>
   <g id="matplotlib.axis_1">
    <g id="xtick_1">
     <g id="line2d_1">
      <path clip-path="url(#pf47c9c03cf)" d="M 105.974044 307.872 
L 105.974044 41.76 
" style="fill:none;stroke:#b0b0b0;stroke-linecap:square;stroke-width:0.8;"/>
     </g>
     <g id="line2d_2">
      <defs>
       <path d="M 0 0 
L 0 3.5 
" id="m8f6ac98a97" style="stroke:#000000;stroke-width:0.8;"/>
      </defs>
      <g>
       <use style="stroke:#000000;stroke-width:0.8;" x="105.974044" xlink:href="#m8f6ac98a97" y="307.872"/>
      </g>
     </g>
     <g id="text_1">
      <!-- 0 -->
      <g transform="translate(100.884044 327.0295)scale(0.16 -0.16)">
       <defs>
        <path d="M 2034 4250 
Q 1547 4250 1301 3770 
Q 1056 3291 1056 2328 
Q 1056 1369 1301 889 
Q 1547 409 2034 409 
Q 2525 409 2770 889 
Q 3016 1369 3016 2328 
Q 3016 3291 2770 3770 
Q 2525 4250 2034 4250 
z
M 2034 4750 
Q 2819 4750 3233 4129 
Q 3647 3509 3647 2328 
Q 3647 1150 3233 529 
Q 2819 -91 2034 -91 
Q 1250 -91 836 529 
Q 422 1150 422 2328 
Q 422 3509 836 4129 
Q 1250 4750 2034 4750 
z
" id="DejaVuSans-30" transform="scale(0.015625)"/>
       </defs>
       <use xlink:href="#DejaVuSans-30"/>
      </g>
     </g>
    </g>
    <g id="xtick_2">
     <g id="line2d_3">
      <path clip-path="url(#pf47c9c03cf)" d="M 174.730301 307.872 
L 174.730301 41.76 
" style="fill:none;stroke:#b0b0b0;stroke-linecap:square;stroke-width:0.8;"/>
     </g>
     <g id="line2d_4">
      <g>
       <use style="stroke:#000000;stroke-width:0.8;" x="174.730301" xlink:href="#m8f6ac98a97" y="307.872"/>
      </g>
     </g>
     <g id="text_2">
      <!-- 10 -->
      <g transform="translate(164.550301 327.0295)scale(0.16 -0.16)">
       <defs>
        <path d="M 794 531 
L 1825 531 
L 1825 4091 
L 703 3866 
L 703 4441 
L 1819 4666 
L 2450 4666 
L 2450 531 
L 3481 531 
L 3481 0 
L 794 0 
L 794 531 
z
" id="DejaVuSans-31" transform="scale(0.015625)"/>
       </defs>
       <use xlink:href="#DejaVuSans-31"/>
       <use x="63.623047" xlink:href="#DejaVuSans-30"/>
      </g>
     </g>
    </g>
    <g id="xtick_3">
     <g id="line2d_5">
      <path clip-path="url(#pf47c9c03cf)" d="M 243.486559 307.872 
L 243.486559 41.76 
" style="fill:none;stroke:#b0b0b0;stroke-linecap:square;stroke-width:0.8;"/>
     </g>
     <g id="line2d_6">
      <g>
       <use style="stroke:#000000;stroke-width:0.8;" x="243.486559" xlink:href="#m8f6ac98a97" y="307.872"/>
      </g>
     </g>
     <g id="text_3">
      <!-- 20 -->
      <g transform="translate(233.306559 327.0295)scale(0.16 -0.16)">
       <defs>
        <path d="M 1228 531 
L 3431 531 
L 3431 0 
L 469 0 
L 469 531 
Q 828 903 1448 1529 
Q 2069 2156 2228 2338 
Q 2531 2678 2651 2914 
Q 2772 3150 2772 3378 
Q 2772 3750 2511 3984 
Q 2250 4219 1831 4219 
Q 1534 4219 1204 4116 
Q 875 4013 500 3803 
L 500 4441 
Q 881 4594 1212 4672 
Q 1544 4750 1819 4750 
Q 2544 4750 2975 4387 
Q 3406 4025 3406 3419 
Q 3406 3131 3298 2873 
Q 3191 2616 2906 2266 
Q 2828 2175 2409 1742 
Q 1991 1309 1228 531 
z
" id="DejaVuSans-32" transform="scale(0.015625)"/>
       </defs>
       <use xlink:href="#DejaVuSans-32"/>
       <use x="63.623047" xlink:href="#DejaVuSans-30"/>
      </g>
     </g>
    </g>
    <g id="xtick_4">
     <g id="line2d_7">
      <path clip-path="url(#pf47c9c03cf)" d="M 312.242816 307.872 
L 312.242816 41.76 
" style="fill:none;stroke:#b0b0b0;stroke-linecap:square;stroke-width:0.8;"/>
     </g>
     <g id="line2d_8">
      <g>
       <use style="stroke:#000000;stroke-width:0.8;" x="312.242816" xlink:href="#m8f6ac98a97" y="307.872"/>
      </g>
     </g>
     <g id="text_4">
      <!-- 30 -->
      <g transform="translate(302.062816 327.0295)scale(0.16 -0.16)">
       <defs>
        <path d="M 2597 2516 
Q 3050 2419 3304 2112 
Q 3559 1806 3559 1356 
Q 3559 666 3084 287 
Q 2609 -91 1734 -91 
Q 1441 -91 1130 -33 
Q 819 25 488 141 
L 488 750 
Q 750 597 1062 519 
Q 1375 441 1716 441 
Q 2309 441 2620 675 
Q 2931 909 2931 1356 
Q 2931 1769 2642 2001 
Q 2353 2234 1838 2234 
L 1294 2234 
L 1294 2753 
L 1863 2753 
Q 2328 2753 2575 2939 
Q 2822 3125 2822 3475 
Q 2822 3834 2567 4026 
Q 2313 4219 1838 4219 
Q 1578 4219 1281 4162 
Q 984 4106 628 3988 
L 628 4550 
Q 988 4650 1302 4700 
Q 1616 4750 1894 4750 
Q 2613 4750 3031 4423 
Q 3450 4097 3450 3541 
Q 3450 3153 3228 2886 
Q 3006 2619 2597 2516 
z
" id="DejaVuSans-33" transform="scale(0.015625)"/>
       </defs>
       <use xlink:href="#DejaVuSans-33"/>
       <use x="63.623047" xlink:href="#DejaVuSans-30"/>
      </g>
     </g>
    </g>
    <g id="xtick_5">
     <g id="line2d_9">
      <path clip-path="url(#pf47c9c03cf)" d="M 380.999073 307.872 
L 380.999073 41.76 
" style="fill:none;stroke:#b0b0b0;stroke-linecap:square;stroke-width:0.8;"/>
     </g>
     <g id="line2d_10">
      <g>
       <use style="stroke:#000000;stroke-width:0.8;" x="380.999073" xlink:href="#m8f6ac98a97" y="307.872"/>
      </g>
     </g>
     <g id="text_5">
      <!-- 40 -->
      <g transform="translate(370.819073 327.0295)scale(0.16 -0.16)">
       <defs>
        <path d="M 2419 4116 
L 825 1625 
L 2419 1625 
L 2419 4116 
z
M 2253 4666 
L 3047 4666 
L 3047 1625 
L 3713 1625 
L 3713 1100 
L 3047 1100 
L 3047 0 
L 2419 0 
L 2419 1100 
L 313 1100 
L 313 1709 
L 2253 4666 
z
" id="DejaVuSans-34" transform="scale(0.015625)"/>
       </defs>
       <use xlink:href="#DejaVuSans-34"/>
       <use x="63.623047" xlink:href="#DejaVuSans-30"/>
      </g>
     </g>
    </g>
    <g id="xtick_6">
     <g id="line2d_11">
      <path clip-path="url(#pf47c9c03cf)" d="M 449.75533 307.872 
L 449.75533 41.76 
" style="fill:none;stroke:#b0b0b0;stroke-linecap:square;stroke-width:0.8;"/>
     </g>
     <g id="line2d_12">
      <g>
       <use style="stroke:#000000;stroke-width:0.8;" x="449.75533" xlink:href="#m8f6ac98a97" y="307.872"/>
      </g>
     </g>
     <g id="text_6">
      <!-- 50 -->
      <g transform="translate(439.57533 327.0295)scale(0.16 -0.16)">
       <defs>
        <path d="M 691 4666 
L 3169 4666 
L 3169 4134 
L 1269 4134 
L 1269 2991 
Q 1406 3038 1543 3061 
Q 1681 3084 1819 3084 
Q 2600 3084 3056 2656 
Q 3513 2228 3513 1497 
Q 3513 744 3044 326 
Q 2575 -91 1722 -91 
Q 1428 -91 1123 -41 
Q 819 9 494 109 
L 494 744 
Q 775 591 1075 516 
Q 1375 441 1709 441 
Q 2250 441 2565 725 
Q 2881 1009 2881 1497 
Q 2881 1984 2565 2268 
Q 2250 2553 1709 2553 
Q 1456 2553 1204 2497 
Q 953 2441 691 2322 
L 691 4666 
z
" id="DejaVuSans-35" transform="scale(0.015625)"/>
       </defs>
       <use xlink:href="#DejaVuSans-35"/>
       <use x="63.623047" xlink:href="#DejaVuSans-30"/>
      </g>
     </g>
    </g>
    <g id="text_7">
     <!-- Number of Generations -->
     <g transform="translate(187.5725 346.5145)scale(0.16 -0.16)">
      <defs>
       <path d="M 628 4666 
L 1478 4666 
L 3547 763 
L 3547 4666 
L 4159 4666 
L 4159 0 
L 3309 0 
L 1241 3903 
L 1241 0 
L 628 0 
L 628 4666 
z
" id="DejaVuSans-4e" transform="scale(0.015625)"/>
       <path d="M 544 1381 
L 544 3500 
L 1119 3500 
L 1119 1403 
Q 1119 906 1312 657 
Q 1506 409 1894 409 
Q 2359 409 2629 706 
Q 2900 1003 2900 1516 
L 2900 3500 
L 3475 3500 
L 3475 0 
L 2900 0 
L 2900 538 
Q 2691 219 2414 64 
Q 2138 -91 1772 -91 
Q 1169 -91 856 284 
Q 544 659 544 1381 
z
M 1991 3584 
L 1991 3584 
z
" id="DejaVuSans-75" transform="scale(0.015625)"/>
       <path d="M 3328 2828 
Q 3544 3216 3844 3400 
Q 4144 3584 4550 3584 
Q 5097 3584 5394 3201 
Q 5691 2819 5691 2113 
L 5691 0 
L 5113 0 
L 5113 2094 
Q 5113 2597 4934 2840 
Q 4756 3084 4391 3084 
Q 3944 3084 3684 2787 
Q 3425 2491 3425 1978 
L 3425 0 
L 2847 0 
L 2847 2094 
Q 2847 2600 2669 2842 
Q 2491 3084 2119 3084 
Q 1678 3084 1418 2786 
Q 1159 2488 1159 1978 
L 1159 0 
L 581 0 
L 581 3500 
L 1159 3500 
L 1159 2956 
Q 1356 3278 1631 3431 
Q 1906 3584 2284 3584 
Q 2666 3584 2933 3390 
Q 3200 3197 3328 2828 
z
" id="DejaVuSans-6d" transform="scale(0.015625)"/>
       <path d="M 3116 1747 
Q 3116 2381 2855 2742 
Q 2594 3103 2138 3103 
Q 1681 3103 1420 2742 
Q 1159 2381 1159 1747 
Q 1159 1113 1420 752 
Q 1681 391 2138 391 
Q 2594 391 2855 752 
Q 3116 1113 3116 1747 
z
M 1159 2969 
Q 1341 3281 1617 3432 
Q 1894 3584 2278 3584 
Q 2916 3584 3314 3078 
Q 3713 2572 3713 1747 
Q 3713 922 3314 415 
Q 2916 -91 2278 -91 
Q 1894 -91 1617 61 
Q 1341 213 1159 525 
L 1159 0 
L 581 0 
L 581 4863 
L 1159 4863 
L 1159 2969 
z
" id="DejaVuSans-62" transform="scale(0.015625)"/>
       <path d="M 3597 1894 
L 3597 1613 
L 953 1613 
Q 991 1019 1311 708 
Q 1631 397 2203 397 
Q 2534 397 2845 478 
Q 3156 559 3463 722 
L 3463 178 
Q 3153 47 2828 -22 
Q 2503 -91 2169 -91 
Q 1331 -91 842 396 
Q 353 884 353 1716 
Q 353 2575 817 3079 
Q 1281 3584 2069 3584 
Q 2775 3584 3186 3129 
Q 3597 2675 3597 1894 
z
M 3022 2063 
Q 3016 2534 2758 2815 
Q 2500 3097 2075 3097 
Q 1594 3097 1305 2825 
Q 1016 2553 972 2059 
L 3022 2063 
z
" id="DejaVuSans-65" transform="scale(0.015625)"/>
       <path d="M 2631 2963 
Q 2534 3019 2420 3045 
Q 2306 3072 2169 3072 
Q 1681 3072 1420 2755 
Q 1159 2438 1159 1844 
L 1159 0 
L 581 0 
L 581 3500 
L 1159 3500 
L 1159 2956 
Q 1341 3275 1631 3429 
Q 1922 3584 2338 3584 
Q 2397 3584 2469 3576 
Q 2541 3569 2628 3553 
L 2631 2963 
z
" id="DejaVuSans-72" transform="scale(0.015625)"/>
       <path id="DejaVuSans-20" transform="scale(0.015625)"/>
       <path d="M 1959 3097 
Q 1497 3097 1228 2736 
Q 959 2375 959 1747 
Q 959 1119 1226 758 
Q 1494 397 1959 397 
Q 2419 397 2687 759 
Q 2956 1122 2956 1747 
Q 2956 2369 2687 2733 
Q 2419 3097 1959 3097 
z
M 1959 3584 
Q 2709 3584 3137 3096 
Q 3566 2609 3566 1747 
Q 3566 888 3137 398 
Q 2709 -91 1959 -91 
Q 1206 -91 779 398 
Q 353 888 353 1747 
Q 353 2609 779 3096 
Q 1206 3584 1959 3584 
z
" id="DejaVuSans-6f" transform="scale(0.015625)"/>
       <path d="M 2375 4863 
L 2375 4384 
L 1825 4384 
Q 1516 4384 1395 4259 
Q 1275 4134 1275 3809 
L 1275 3500 
L 2222 3500 
L 2222 3053 
L 1275 3053 
L 1275 0 
L 697 0 
L 697 3053 
L 147 3053 
L 147 3500 
L 697 3500 
L 697 3744 
Q 697 4328 969 4595 
Q 1241 4863 1831 4863 
L 2375 4863 
z
" id="DejaVuSans-66" transform="scale(0.015625)"/>
       <path d="M 3809 666 
L 3809 1919 
L 2778 1919 
L 2778 2438 
L 4434 2438 
L 4434 434 
Q 4069 175 3628 42 
Q 3188 -91 2688 -91 
Q 1594 -91 976 548 
Q 359 1188 359 2328 
Q 359 3472 976 4111 
Q 1594 4750 2688 4750 
Q 3144 4750 3555 4637 
Q 3966 4525 4313 4306 
L 4313 3634 
Q 3963 3931 3569 4081 
Q 3175 4231 2741 4231 
Q 1884 4231 1454 3753 
Q 1025 3275 1025 2328 
Q 1025 1384 1454 906 
Q 1884 428 2741 428 
Q 3075 428 3337 486 
Q 3600 544 3809 666 
z
" id="DejaVuSans-47" transform="scale(0.015625)"/>
       <path d="M 3513 2113 
L 3513 0 
L 2938 0 
L 2938 2094 
Q 2938 2591 2744 2837 
Q 2550 3084 2163 3084 
Q 1697 3084 1428 2787 
Q 1159 2491 1159 1978 
L 1159 0 
L 581 0 
L 581 3500 
L 1159 3500 
L 1159 2956 
Q 1366 3272 1645 3428 
Q 1925 3584 2291 3584 
Q 2894 3584 3203 3211 
Q 3513 2838 3513 2113 
z
" id="DejaVuSans-6e" transform="scale(0.015625)"/>
       <path d="M 2194 1759 
Q 1497 1759 1228 1600 
Q 959 1441 959 1056 
Q 959 750 1161 570 
Q 1363 391 1709 391 
Q 2188 391 2477 730 
Q 2766 1069 2766 1631 
L 2766 1759 
L 2194 1759 
z
M 3341 1997 
L 3341 0 
L 2766 0 
L 2766 531 
Q 2569 213 2275 61 
Q 1981 -91 1556 -91 
Q 1019 -91 701 211 
Q 384 513 384 1019 
Q 384 1609 779 1909 
Q 1175 2209 1959 2209 
L 2766 2209 
L 2766 2266 
Q 2766 2663 2505 2880 
Q 2244 3097 1772 3097 
Q 1472 3097 1187 3025 
Q 903 2953 641 2809 
L 641 3341 
Q 956 3463 1253 3523 
Q 1550 3584 1831 3584 
Q 2591 3584 2966 3190 
Q 3341 2797 3341 1997 
z
" id="DejaVuSans-61" transform="scale(0.015625)"/>
       <path d="M 1172 4494 
L 1172 3500 
L 2356 3500 
L 2356 3053 
L 1172 3053 
L 1172 1153 
Q 1172 725 1289 603 
Q 1406 481 1766 481 
L 2356 481 
L 2356 0 
L 1766 0 
Q 1100 0 847 248 
Q 594 497 594 1153 
L 594 3053 
L 172 3053 
L 172 3500 
L 594 3500 
L 594 4494 
L 1172 4494 
z
" id="DejaVuSans-74" transform="scale(0.015625)"/>
       <path d="M 603 3500 
L 1178 3500 
L 1178 0 
L 603 0 
L 603 3500 
z
M 603 4863 
L 1178 4863 
L 1178 4134 
L 603 4134 
L 603 4863 
z
" id="DejaVuSans-69" transform="scale(0.015625)"/>
       <path d="M 2834 3397 
L 2834 2853 
Q 2591 2978 2328 3040 
Q 2066 3103 1784 3103 
Q 1356 3103 1142 2972 
Q 928 2841 928 2578 
Q 928 2378 1081 2264 
Q 1234 2150 1697 2047 
L 1894 2003 
Q 2506 1872 2764 1633 
Q 3022 1394 3022 966 
Q 3022 478 2636 193 
Q 2250 -91 1575 -91 
Q 1294 -91 989 -36 
Q 684 19 347 128 
L 347 722 
Q 666 556 975 473 
Q 1284 391 1588 391 
Q 1994 391 2212 530 
Q 2431 669 2431 922 
Q 2431 1156 2273 1281 
Q 2116 1406 1581 1522 
L 1381 1569 
Q 847 1681 609 1914 
Q 372 2147 372 2553 
Q 372 3047 722 3315 
Q 1072 3584 1716 3584 
Q 2034 3584 2315 3537 
Q 2597 3491 2834 3397 
z
" id="DejaVuSans-73" transform="scale(0.015625)"/>
      </defs>
      <use xlink:href="#DejaVuSans-4e"/>
      <use x="74.804688" xlink:href="#DejaVuSans-75"/>
      <use x="138.183594" xlink:href="#DejaVuSans-6d"/>
      <use x="235.595703" xlink:href="#DejaVuSans-62"/>
      <use x="299.072266" xlink:href="#DejaVuSans-65"/>
      <use x="360.595703" xlink:href="#DejaVuSans-72"/>
      <use x="401.708984" xlink:href="#DejaVuSans-20"/>
      <use x="433.496094" xlink:href="#DejaVuSans-6f"/>
      <use x="494.677734" xlink:href="#DejaVuSans-66"/>
      <use x="529.882812" xlink:href="#DejaVuSans-20"/>
      <use x="561.669922" xlink:href="#DejaVuSans-47"/>
      <use x="639.160156" xlink:href="#DejaVuSans-65"/>
      <use x="700.683594" xlink:href="#DejaVuSans-6e"/>
      <use x="764.0625" xlink:href="#DejaVuSans-65"/>
      <use x="825.585938" xlink:href="#DejaVuSans-72"/>
      <use x="866.699219" xlink:href="#DejaVuSans-61"/>
      <use x="927.978516" xlink:href="#DejaVuSans-74"/>
      <use x="967.1875" xlink:href="#DejaVuSans-69"/>
      <use x="994.970703" xlink:href="#DejaVuSans-6f"/>
      <use x="1056.152344" xlink:href="#DejaVuSans-6e"/>
      <use x="1119.53125" xlink:href="#DejaVuSans-73"/>
     </g>
    </g>
   </g>
   <g id="matplotlib.axis_2">
    <g id="ytick_1">
     <g id="line2d_13">
      <path clip-path="url(#pf47c9c03cf)" d="M 102.7425 304.506462 
L 459.8625 304.506462 
" style="fill:none;stroke:#b0b0b0;stroke-linecap:square;stroke-width:0.8;"/>
     </g>
     <g id="line2d_14">
      <defs>
       <path d="M 0 0 
L -3.5 0 
" id="mf74206c9d0" style="stroke:#000000;stroke-width:0.8;"/>
      </defs>
      <g>
       <use style="stroke:#000000;stroke-width:0.8;" x="102.7425" xlink:href="#mf74206c9d0" y="304.506462"/>
      </g>
     </g>
     <g id="text_8">
      <!-- 0.0e+00 -->
      <g transform="translate(26.685 310.585212)scale(0.16 -0.16)">
       <defs>
        <path d="M 684 794 
L 1344 794 
L 1344 0 
L 684 0 
L 684 794 
z
" id="DejaVuSans-2e" transform="scale(0.015625)"/>
        <path d="M 2944 4013 
L 2944 2272 
L 4684 2272 
L 4684 1741 
L 2944 1741 
L 2944 0 
L 2419 0 
L 2419 1741 
L 678 1741 
L 678 2272 
L 2419 2272 
L 2419 4013 
L 2944 4013 
z
" id="DejaVuSans-2b" transform="scale(0.015625)"/>
       </defs>
       <use xlink:href="#DejaVuSans-30"/>
       <use x="63.623047" xlink:href="#DejaVuSans-2e"/>
       <use x="95.410156" xlink:href="#DejaVuSans-30"/>
       <use x="159.033203" xlink:href="#DejaVuSans-65"/>
       <use x="220.556641" xlink:href="#DejaVuSans-2b"/>
       <use x="304.345703" xlink:href="#DejaVuSans-30"/>
       <use x="367.96875" xlink:href="#DejaVuSans-30"/>
      </g>
     </g>
    </g>
    <g id="ytick_2">
     <g id="line2d_15">
      <path clip-path="url(#pf47c9c03cf)" d="M 102.7425 245.805606 
L 459.8625 245.805606 
" style="fill:none;stroke:#b0b0b0;stroke-linecap:square;stroke-width:0.8;"/>
     </g>
     <g id="line2d_16">
      <g>
       <use style="stroke:#000000;stroke-width:0.8;" x="102.7425" xlink:href="#mf74206c9d0" y="245.805606"/>
      </g>
     </g>
     <g id="text_9">
      <!-- 1.0e-01 -->
      <g transform="translate(34.32 251.884356)scale(0.16 -0.16)">
       <defs>
        <path d="M 313 2009 
L 1997 2009 
L 1997 1497 
L 313 1497 
L 313 2009 
z
" id="DejaVuSans-2d" transform="scale(0.015625)"/>
       </defs>
       <use xlink:href="#DejaVuSans-31"/>
       <use x="63.623047" xlink:href="#DejaVuSans-2e"/>
       <use x="95.410156" xlink:href="#DejaVuSans-30"/>
       <use x="159.033203" xlink:href="#DejaVuSans-65"/>
       <use x="220.556641" xlink:href="#DejaVuSans-2d"/>
       <use x="256.640625" xlink:href="#DejaVuSans-30"/>
       <use x="320.263672" xlink:href="#DejaVuSans-31"/>
      </g>
     </g>
    </g>
    <g id="ytick_3">
     <g id="line2d_17">
      <path clip-path="url(#pf47c9c03cf)" d="M 102.7425 187.104749 
L 459.8625 187.104749 
" style="fill:none;stroke:#b0b0b0;stroke-linecap:square;stroke-width:0.8;"/>
     </g>
     <g id="line2d_18">
      <g>
       <use style="stroke:#000000;stroke-width:0.8;" x="102.7425" xlink:href="#mf74206c9d0" y="187.104749"/>
      </g>
     </g>
     <g id="text_10">
      <!-- 2.0e-01 -->
      <g transform="translate(34.32 193.183499)scale(0.16 -0.16)">
       <use xlink:href="#DejaVuSans-32"/>
       <use x="63.623047" xlink:href="#DejaVuSans-2e"/>
       <use x="95.410156" xlink:href="#DejaVuSans-30"/>
       <use x="159.033203" xlink:href="#DejaVuSans-65"/>
       <use x="220.556641" xlink:href="#DejaVuSans-2d"/>
       <use x="256.640625" xlink:href="#DejaVuSans-30"/>
       <use x="320.263672" xlink:href="#DejaVuSans-31"/>
      </g>
     </g>
    </g>
    <g id="ytick_4">
     <g id="line2d_19">
      <path clip-path="url(#pf47c9c03cf)" d="M 102.7425 128.403893 
L 459.8625 128.403893 
" style="fill:none;stroke:#b0b0b0;stroke-linecap:square;stroke-width:0.8;"/>
     </g>
     <g id="line2d_20">
      <g>
       <use style="stroke:#000000;stroke-width:0.8;" x="102.7425" xlink:href="#mf74206c9d0" y="128.403893"/>
      </g>
     </g>
     <g id="text_11">
      <!-- 3.0e-01 -->
      <g transform="translate(34.32 134.482643)scale(0.16 -0.16)">
       <use xlink:href="#DejaVuSans-33"/>
       <use x="63.623047" xlink:href="#DejaVuSans-2e"/>
       <use x="95.410156" xlink:href="#DejaVuSans-30"/>
       <use x="159.033203" xlink:href="#DejaVuSans-65"/>
       <use x="220.556641" xlink:href="#DejaVuSans-2d"/>
       <use x="256.640625" xlink:href="#DejaVuSans-30"/>
       <use x="320.263672" xlink:href="#DejaVuSans-31"/>
      </g>
     </g>
    </g>
    <g id="ytick_5">
     <g id="line2d_21">
      <path clip-path="url(#pf47c9c03cf)" d="M 102.7425 69.703036 
L 459.8625 69.703036 
" style="fill:none;stroke:#b0b0b0;stroke-linecap:square;stroke-width:0.8;"/>
     </g>
     <g id="line2d_22">
      <g>
       <use style="stroke:#000000;stroke-width:0.8;" x="102.7425" xlink:href="#mf74206c9d0" y="69.703036"/>
      </g>
     </g>
     <g id="text_12">
      <!-- 4.0e-01 -->
      <g transform="translate(34.32 75.781786)scale(0.16 -0.16)">
       <use xlink:href="#DejaVuSans-34"/>
       <use x="63.623047" xlink:href="#DejaVuSans-2e"/>
       <use x="95.410156" xlink:href="#DejaVuSans-30"/>
       <use x="159.033203" xlink:href="#DejaVuSans-65"/>
       <use x="220.556641" xlink:href="#DejaVuSans-2d"/>
       <use x="256.640625" xlink:href="#DejaVuSans-30"/>
       <use x="320.263672" xlink:href="#DejaVuSans-31"/>
      </g>
     </g>
    </g>
    <g id="text_13">
     <!-- IGD -->
     <g transform="translate(19.3575 189.53475)rotate(-90)scale(0.16 -0.16)">
      <defs>
       <path d="M 628 4666 
L 1259 4666 
L 1259 0 
L 628 0 
L 628 4666 
z
" id="DejaVuSans-49" transform="scale(0.015625)"/>
       <path d="M 1259 4147 
L 1259 519 
L 2022 519 
Q 2988 519 3436 956 
Q 3884 1394 3884 2338 
Q 3884 3275 3436 3711 
Q 2988 4147 2022 4147 
L 1259 4147 
z
M 628 4666 
L 1925 4666 
Q 3281 4666 3915 4102 
Q 4550 3538 4550 2338 
Q 4550 1131 3912 565 
Q 3275 0 1925 0 
L 628 0 
L 628 4666 
z
" id="DejaVuSans-44" transform="scale(0.015625)"/>
      </defs>
      <use xlink:href="#DejaVuSans-49"/>
      <use x="29.492188" xlink:href="#DejaVuSans-47"/>
      <use x="106.982422" xlink:href="#DejaVuSans-44"/>
     </g>
    </g>
   </g>
   <g id="line2d_23">
    <path clip-path="url(#pf47c9c03cf)" d="M 112.84967 72.465231 
L 119.725296 74.873536 
L 126.600921 75.770801 
L 133.476547 81.706912 
L 140.352173 125.436236 
L 147.227798 142.652104 
L 154.103424 144.884047 
L 160.97905 145.525588 
L 167.854676 151.86674 
L 174.730301 169.5416 
L 181.605927 171.358543 
L 188.481553 176.67066 
L 195.357178 182.102586 
L 202.232804 203.29263 
L 209.10843 221.686743 
L 215.984056 227.49005 
L 222.859681 233.605101 
L 229.735307 238.322005 
L 236.610933 241.555864 
L 243.486559 243.256658 
L 250.362184 246.535532 
L 257.23781 249.445886 
L 264.113436 250.845356 
L 270.989061 252.75442 
L 277.864687 253.352807 
L 284.740313 253.831066 
L 291.615939 255.826601 
L 298.491564 256.689434 
L 305.36719 257.888822 
L 312.242816 258.282496 
L 319.118441 259.540279 
L 325.994067 260.456664 
L 332.869693 262.909961 
L 339.745319 266.020264 
L 346.620944 265.947344 
L 353.49657 266.975652 
L 360.372196 267.070316 
L 367.247822 268.516207 
L 374.123447 270.213112 
L 380.999073 270.243051 
L 387.874699 270.820129 
L 394.750324 271.895266 
L 401.62595 273.614008 
L 408.501576 274.180775 
L 415.377202 274.492706 
L 422.252827 274.14841 
L 429.128453 274.615121 
L 436.004079 274.653354 
L 442.879704 274.14353 
L 449.75533 274.894892 
" style="fill:none;stroke:#1f77b4;stroke-linecap:square;stroke-width:1.5;"/>
   </g>
   <g id="line2d_24">
    <path clip-path="url(#pf47c9c03cf)" d="M 112.84967 74.196621 
L 119.725296 75.487114 
L 126.600921 129.543633 
L 133.476547 142.61295 
L 140.352173 150.481058 
L 147.227798 156.779212 
L 154.103424 162.855799 
L 160.97905 169.720984 
L 167.854676 181.69871 
L 174.730301 216.656284 
L 181.605927 224.966021 
L 188.481553 231.809987 
L 195.357178 238.209733 
L 202.232804 241.05816 
L 209.10843 245.081012 
L 215.984056 249.169298 
L 222.859681 253.319889 
L 229.735307 257.215317 
L 236.610933 259.657263 
L 243.486559 262.23013 
L 250.362184 263.611449 
L 257.23781 265.466776 
L 264.113436 266.978331 
L 270.989061 268.166692 
L 277.864687 268.662032 
L 284.740313 269.912348 
L 291.615939 270.937796 
L 298.491564 271.227511 
L 305.36719 271.457219 
L 312.242816 271.794115 
L 319.118441 272.241809 
L 325.994067 272.658791 
L 332.869693 274.054222 
L 339.745319 274.607691 
L 346.620944 273.477393 
L 353.49657 273.952005 
L 360.372196 274.127747 
L 367.247822 273.666185 
L 374.123447 274.147518 
L 380.999073 274.410001 
L 387.874699 274.626899 
L 394.750324 273.765575 
L 401.62595 274.442639 
L 408.501576 274.419517 
L 415.377202 274.354666 
L 422.252827 274.903838 
L 429.128453 274.745906 
L 436.004079 274.768161 
L 442.879704 275.29772 
L 449.75533 275.325445 
" style="fill:none;stroke:#ff7f0e;stroke-linecap:square;stroke-width:1.5;"/>
   </g>
   <g id="line2d_25">
    <path clip-path="url(#pf47c9c03cf)" d="M 112.84967 74.196621 
L 119.725296 75.730587 
L 126.600921 125.366364 
L 133.476547 140.30569 
L 140.352173 149.735811 
L 147.227798 151.020722 
L 154.103424 148.880808 
L 160.97905 156.624804 
L 167.854676 158.551599 
L 174.730301 162.676918 
L 181.605927 171.548545 
L 188.481553 178.675485 
L 195.357178 193.655598 
L 202.232804 216.483804 
L 209.10843 225.088636 
L 215.984056 233.657867 
L 222.859681 237.444389 
L 229.735307 240.479252 
L 236.610933 242.281379 
L 243.486559 245.284863 
L 250.362184 247.815645 
L 257.23781 248.976423 
L 264.113436 253.080128 
L 270.989061 253.6741 
L 277.864687 255.805106 
L 284.740313 257.150406 
L 291.615939 256.867985 
L 298.491564 257.131838 
L 305.36719 257.524209 
L 312.242816 258.31685 
L 319.118441 259.459741 
L 325.994067 264.207104 
L 332.869693 264.362931 
L 339.745319 264.902846 
L 346.620944 268.557106 
L 353.49657 267.89178 
L 360.372196 268.423504 
L 367.247822 270.080388 
L 374.123447 271.036319 
L 380.999073 272.369403 
L 387.874699 271.906846 
L 394.750324 271.219826 
L 401.62595 273.148491 
L 408.501576 273.595909 
L 415.377202 273.631534 
L 422.252827 272.059326 
L 429.128453 273.504287 
L 436.004079 273.958006 
L 442.879704 275.262142 
L 449.75533 274.360458 
" style="fill:none;stroke:#2ca02c;stroke-linecap:square;stroke-width:1.5;"/>
   </g>
   <g id="line2d_26">
    <path clip-path="url(#pf47c9c03cf)" d="M 112.84967 74.196621 
L 119.725296 75.486675 
L 126.600921 100.058308 
L 133.476547 121.483914 
L 140.352173 129.040071 
L 147.227798 140.308678 
L 154.103424 151.825119 
L 160.97905 157.99154 
L 167.854676 164.267277 
L 174.730301 172.537658 
L 181.605927 213.480959 
L 188.481553 216.20508 
L 195.357178 227.780659 
L 202.232804 230.54258 
L 209.10843 238.292399 
L 215.984056 242.262011 
L 222.859681 245.84134 
L 229.735307 249.178119 
L 236.610933 251.871967 
L 243.486559 255.258199 
L 250.362184 258.415769 
L 257.23781 261.005594 
L 264.113436 261.310381 
L 270.989061 262.876886 
L 277.864687 265.516356 
L 284.740313 267.370109 
L 291.615939 268.890379 
L 298.491564 270.866986 
L 305.36719 271.112285 
L 312.242816 271.381697 
L 319.118441 272.295691 
L 325.994067 272.881762 
L 332.869693 274.04064 
L 339.745319 273.670632 
L 346.620944 274.662634 
L 353.49657 275.031622 
L 360.372196 275.551925 
L 367.247822 275.228241 
L 374.123447 275.844569 
L 380.999073 276.065951 
L 387.874699 276.608706 
L 394.750324 276.236406 
L 401.62595 276.337618 
L 408.501576 276.436237 
L 415.377202 276.377673 
L 422.252827 276.289422 
L 429.128453 276.689736 
L 436.004079 277.048136 
L 442.879704 276.822086 
L 449.75533 277.166769 
" style="fill:none;stroke:#d62728;stroke-linecap:square;stroke-width:1.5;"/>
   </g>
   <g id="line2d_27">
    <path clip-path="url(#pf47c9c03cf)" d="M 112.84967 74.196621 
L 119.725296 75.491314 
L 126.600921 93.405357 
L 133.476547 87.263626 
L 140.352173 129.02196 
L 147.227798 144.035574 
L 154.103424 143.918861 
L 160.97905 152.598488 
L 167.854676 155.499755 
L 174.730301 166.406249 
L 181.605927 179.800888 
L 188.481553 183.769632 
L 195.357178 209.323162 
L 202.232804 227.255123 
L 209.10843 231.108806 
L 215.984056 233.919531 
L 222.859681 240.679217 
L 229.735307 246.053071 
L 236.610933 250.817529 
L 243.486559 253.630834 
L 250.362184 256.823742 
L 257.23781 259.266349 
L 264.113436 263.089229 
L 270.989061 265.826251 
L 277.864687 267.966656 
L 284.740313 268.481843 
L 291.615939 270.443804 
L 298.491564 269.306025 
L 305.36719 270.47496 
L 312.242816 270.155706 
L 319.118441 272.734874 
L 325.994067 273.811713 
L 332.869693 274.183732 
L 339.745319 274.018332 
L 346.620944 273.841083 
L 353.49657 274.354971 
L 360.372196 274.647168 
L 367.247822 274.929831 
L 374.123447 274.877992 
L 380.999073 275.354374 
L 387.874699 275.545568 
L 394.750324 275.640976 
L 401.62595 275.691127 
L 408.501576 276.099797 
L 415.377202 275.998145 
L 422.252827 276.12434 
L 429.128453 276.670937 
L 436.004079 276.667286 
L 442.879704 276.493615 
L 449.75533 276.357872 
" style="fill:none;stroke:#9467bd;stroke-linecap:square;stroke-width:1.5;"/>
   </g>
   <g id="patch_3">
    <path d="M 102.7425 307.872 
L 102.7425 41.76 
" style="fill:none;stroke:#000000;stroke-linecap:square;stroke-linejoin:miter;stroke-width:0.8;"/>
   </g>
   <g id="patch_4">
    <path d="M 459.8625 307.872 
L 459.8625 41.76 
" style="fill:none;stroke:#000000;stroke-linecap:square;stroke-linejoin:miter;stroke-width:0.8;"/>
   </g>
   <g id="patch_5">
    <path d="M 102.7425 307.872 
L 459.8625 307.872 
" style="fill:none;stroke:#000000;stroke-linecap:square;stroke-linejoin:miter;stroke-width:0.8;"/>
   </g>
   <g id="patch_6">
    <path d="M 102.7425 41.76 
L 459.8625 41.76 
" style="fill:none;stroke:#000000;stroke-linecap:square;stroke-linejoin:miter;stroke-width:0.8;"/>
   </g>
   <g id="legend_1">
    <g id="patch_7">
     <path d="M 296.7325 171.985 
L 448.6625 171.985 
Q 451.8625 171.985 451.8625 168.785 
L 451.8625 52.96 
Q 451.8625 49.76 448.6625 49.76 
L 296.7325 49.76 
Q 293.5325 49.76 293.5325 52.96 
L 293.5325 168.785 
Q 293.5325 171.985 296.7325 171.985 
z
" style="fill:#ffffff;opacity:0.8;stroke:#cccccc;stroke-linejoin:miter;"/>
    </g>
    <g id="line2d_28">
     <path d="M 299.9325 62.7175 
L 331.9325 62.7175 
" style="fill:none;stroke:#1f77b4;stroke-linecap:square;stroke-width:1.5;"/>
    </g>
    <g id="line2d_29"/>
    <g id="text_14">
     <!-- NSGA-II -->
     <g transform="translate(344.7325 68.3175)scale(0.16 -0.16)">
      <defs>
       <path d="M 3425 4513 
L 3425 3897 
Q 3066 4069 2747 4153 
Q 2428 4238 2131 4238 
Q 1616 4238 1336 4038 
Q 1056 3838 1056 3469 
Q 1056 3159 1242 3001 
Q 1428 2844 1947 2747 
L 2328 2669 
Q 3034 2534 3370 2195 
Q 3706 1856 3706 1288 
Q 3706 609 3251 259 
Q 2797 -91 1919 -91 
Q 1588 -91 1214 -16 
Q 841 59 441 206 
L 441 856 
Q 825 641 1194 531 
Q 1563 422 1919 422 
Q 2459 422 2753 634 
Q 3047 847 3047 1241 
Q 3047 1584 2836 1778 
Q 2625 1972 2144 2069 
L 1759 2144 
Q 1053 2284 737 2584 
Q 422 2884 422 3419 
Q 422 4038 858 4394 
Q 1294 4750 2059 4750 
Q 2388 4750 2728 4690 
Q 3069 4631 3425 4513 
z
" id="DejaVuSans-53" transform="scale(0.015625)"/>
       <path d="M 2188 4044 
L 1331 1722 
L 3047 1722 
L 2188 4044 
z
M 1831 4666 
L 2547 4666 
L 4325 0 
L 3669 0 
L 3244 1197 
L 1141 1197 
L 716 0 
L 50 0 
L 1831 4666 
z
" id="DejaVuSans-41" transform="scale(0.015625)"/>
      </defs>
      <use xlink:href="#DejaVuSans-4e"/>
      <use x="74.804688" xlink:href="#DejaVuSans-53"/>
      <use x="138.28125" xlink:href="#DejaVuSans-47"/>
      <use x="215.771484" xlink:href="#DejaVuSans-41"/>
      <use x="281.929688" xlink:href="#DejaVuSans-2d"/>
      <use x="318.013672" xlink:href="#DejaVuSans-49"/>
      <use x="347.505859" xlink:href="#DejaVuSans-49"/>
     </g>
    </g>
    <g id="line2d_30">
     <path d="M 299.9325 86.2025 
L 331.9325 86.2025 
" style="fill:none;stroke:#ff7f0e;stroke-linecap:square;stroke-width:1.5;"/>
    </g>
    <g id="line2d_31"/>
    <g id="text_15">
     <!-- MO-MFEA -->
     <g transform="translate(344.7325 91.8025)scale(0.16 -0.16)">
      <defs>
       <path d="M 628 4666 
L 1569 4666 
L 2759 1491 
L 3956 4666 
L 4897 4666 
L 4897 0 
L 4281 0 
L 4281 4097 
L 3078 897 
L 2444 897 
L 1241 4097 
L 1241 0 
L 628 0 
L 628 4666 
z
" id="DejaVuSans-4d" transform="scale(0.015625)"/>
       <path d="M 2522 4238 
Q 1834 4238 1429 3725 
Q 1025 3213 1025 2328 
Q 1025 1447 1429 934 
Q 1834 422 2522 422 
Q 3209 422 3611 934 
Q 4013 1447 4013 2328 
Q 4013 3213 3611 3725 
Q 3209 4238 2522 4238 
z
M 2522 4750 
Q 3503 4750 4090 4092 
Q 4678 3434 4678 2328 
Q 4678 1225 4090 567 
Q 3503 -91 2522 -91 
Q 1538 -91 948 565 
Q 359 1222 359 2328 
Q 359 3434 948 4092 
Q 1538 4750 2522 4750 
z
" id="DejaVuSans-4f" transform="scale(0.015625)"/>
       <path d="M 628 4666 
L 3309 4666 
L 3309 4134 
L 1259 4134 
L 1259 2759 
L 3109 2759 
L 3109 2228 
L 1259 2228 
L 1259 0 
L 628 0 
L 628 4666 
z
" id="DejaVuSans-46" transform="scale(0.015625)"/>
       <path d="M 628 4666 
L 3578 4666 
L 3578 4134 
L 1259 4134 
L 1259 2753 
L 3481 2753 
L 3481 2222 
L 1259 2222 
L 1259 531 
L 3634 531 
L 3634 0 
L 628 0 
L 628 4666 
z
" id="DejaVuSans-45" transform="scale(0.015625)"/>
      </defs>
      <use xlink:href="#DejaVuSans-4d"/>
      <use x="86.279297" xlink:href="#DejaVuSans-4f"/>
      <use x="167.740234" xlink:href="#DejaVuSans-2d"/>
      <use x="203.824219" xlink:href="#DejaVuSans-4d"/>
      <use x="290.103516" xlink:href="#DejaVuSans-46"/>
      <use x="347.623047" xlink:href="#DejaVuSans-45"/>
      <use x="410.806641" xlink:href="#DejaVuSans-41"/>
     </g>
    </g>
    <g id="line2d_32">
     <path d="M 299.9325 109.6875 
L 331.9325 109.6875 
" style="fill:none;stroke:#2ca02c;stroke-linecap:square;stroke-width:1.5;"/>
    </g>
    <g id="line2d_33"/>
    <g id="text_16">
     <!-- MO-MFEA-II -->
     <g transform="translate(344.7325 115.2875)scale(0.16 -0.16)">
      <use xlink:href="#DejaVuSans-4d"/>
      <use x="86.279297" xlink:href="#DejaVuSans-4f"/>
      <use x="167.740234" xlink:href="#DejaVuSans-2d"/>
      <use x="203.824219" xlink:href="#DejaVuSans-4d"/>
      <use x="290.103516" xlink:href="#DejaVuSans-46"/>
      <use x="347.623047" xlink:href="#DejaVuSans-45"/>
      <use x="410.806641" xlink:href="#DejaVuSans-41"/>
      <use x="476.964844" xlink:href="#DejaVuSans-2d"/>
      <use x="513.048828" xlink:href="#DejaVuSans-49"/>
      <use x="542.541016" xlink:href="#DejaVuSans-49"/>
     </g>
    </g>
    <g id="line2d_34">
     <path d="M 299.9325 133.1725 
L 331.9325 133.1725 
" style="fill:none;stroke:#d62728;stroke-linecap:square;stroke-width:1.5;"/>
    </g>
    <g id="line2d_35"/>
    <g id="text_17">
     <!-- EMEA -->
     <g transform="translate(344.7325 138.7725)scale(0.16 -0.16)">
      <use xlink:href="#DejaVuSans-45"/>
      <use x="63.183594" xlink:href="#DejaVuSans-4d"/>
      <use x="149.462891" xlink:href="#DejaVuSans-45"/>
      <use x="212.646484" xlink:href="#DejaVuSans-41"/>
     </g>
    </g>
    <g id="line2d_36">
     <path d="M 299.9325 156.6575 
L 331.9325 156.6575 
" style="fill:none;stroke:#9467bd;stroke-linecap:square;stroke-width:1.5;"/>
    </g>
    <g id="line2d_37"/>
    <g id="text_18">
     <!-- Island Model -->
     <g transform="translate(344.7325 162.2575)scale(0.16 -0.16)">
      <defs>
       <path d="M 603 4863 
L 1178 4863 
L 1178 0 
L 603 0 
L 603 4863 
z
" id="DejaVuSans-6c" transform="scale(0.015625)"/>
       <path d="M 2906 2969 
L 2906 4863 
L 3481 4863 
L 3481 0 
L 2906 0 
L 2906 525 
Q 2725 213 2448 61 
Q 2172 -91 1784 -91 
Q 1150 -91 751 415 
Q 353 922 353 1747 
Q 353 2572 751 3078 
Q 1150 3584 1784 3584 
Q 2172 3584 2448 3432 
Q 2725 3281 2906 2969 
z
M 947 1747 
Q 947 1113 1208 752 
Q 1469 391 1925 391 
Q 2381 391 2643 752 
Q 2906 1113 2906 1747 
Q 2906 2381 2643 2742 
Q 2381 3103 1925 3103 
Q 1469 3103 1208 2742 
Q 947 2381 947 1747 
z
" id="DejaVuSans-64" transform="scale(0.015625)"/>
      </defs>
      <use xlink:href="#DejaVuSans-49"/>
      <use x="29.492188" xlink:href="#DejaVuSans-73"/>
      <use x="81.591797" xlink:href="#DejaVuSans-6c"/>
      <use x="109.375" xlink:href="#DejaVuSans-61"/>
      <use x="170.654297" xlink:href="#DejaVuSans-6e"/>
      <use x="234.033203" xlink:href="#DejaVuSans-64"/>
      <use x="297.509766" xlink:href="#DejaVuSans-20"/>
      <use x="329.296875" xlink:href="#DejaVuSans-4d"/>
      <use x="415.576172" xlink:href="#DejaVuSans-6f"/>
      <use x="476.757812" xlink:href="#DejaVuSans-64"/>
      <use x="540.234375" xlink:href="#DejaVuSans-65"/>
      <use x="601.757812" xlink:href="#DejaVuSans-6c"/>
     </g>
    </g>
   </g>
  </g>
  <g id="text_19">
   <!-- Two bar truss design -->
   <g transform="translate(176.817 21.789)scale(0.192 -0.192)">
    <defs>
     <path d="M -19 4666 
L 3928 4666 
L 3928 4134 
L 2272 4134 
L 2272 0 
L 1638 0 
L 1638 4134 
L -19 4134 
L -19 4666 
z
" id="DejaVuSans-54" transform="scale(0.015625)"/>
     <path d="M 269 3500 
L 844 3500 
L 1563 769 
L 2278 3500 
L 2956 3500 
L 3675 769 
L 4391 3500 
L 4966 3500 
L 4050 0 
L 3372 0 
L 2619 2869 
L 1863 0 
L 1184 0 
L 269 3500 
z
" id="DejaVuSans-77" transform="scale(0.015625)"/>
     <path d="M 2906 1791 
Q 2906 2416 2648 2759 
Q 2391 3103 1925 3103 
Q 1463 3103 1205 2759 
Q 947 2416 947 1791 
Q 947 1169 1205 825 
Q 1463 481 1925 481 
Q 2391 481 2648 825 
Q 2906 1169 2906 1791 
z
M 3481 434 
Q 3481 -459 3084 -895 
Q 2688 -1331 1869 -1331 
Q 1566 -1331 1297 -1286 
Q 1028 -1241 775 -1147 
L 775 -588 
Q 1028 -725 1275 -790 
Q 1522 -856 1778 -856 
Q 2344 -856 2625 -561 
Q 2906 -266 2906 331 
L 2906 616 
Q 2728 306 2450 153 
Q 2172 0 1784 0 
Q 1141 0 747 490 
Q 353 981 353 1791 
Q 353 2603 747 3093 
Q 1141 3584 1784 3584 
Q 2172 3584 2450 3431 
Q 2728 3278 2906 2969 
L 2906 3500 
L 3481 3500 
L 3481 434 
z
" id="DejaVuSans-67" transform="scale(0.015625)"/>
    </defs>
    <use xlink:href="#DejaVuSans-54"/>
    <use x="44.583984" xlink:href="#DejaVuSans-77"/>
    <use x="126.371094" xlink:href="#DejaVuSans-6f"/>
    <use x="187.552734" xlink:href="#DejaVuSans-20"/>
    <use x="219.339844" xlink:href="#DejaVuSans-62"/>
    <use x="282.816406" xlink:href="#DejaVuSans-61"/>
    <use x="344.095703" xlink:href="#DejaVuSans-72"/>
    <use x="385.208984" xlink:href="#DejaVuSans-20"/>
    <use x="416.996094" xlink:href="#DejaVuSans-74"/>
    <use x="456.205078" xlink:href="#DejaVuSans-72"/>
    <use x="497.318359" xlink:href="#DejaVuSans-75"/>
    <use x="560.697266" xlink:href="#DejaVuSans-73"/>
    <use x="612.796875" xlink:href="#DejaVuSans-73"/>
    <use x="664.896484" xlink:href="#DejaVuSans-20"/>
    <use x="696.683594" xlink:href="#DejaVuSans-64"/>
    <use x="760.160156" xlink:href="#DejaVuSans-65"/>
    <use x="821.683594" xlink:href="#DejaVuSans-73"/>
    <use x="873.783203" xlink:href="#DejaVuSans-69"/>
    <use x="901.566406" xlink:href="#DejaVuSans-67"/>
    <use x="965.042969" xlink:href="#DejaVuSans-6e"/>
   </g>
  </g>
 </g>
 <defs>
  <clipPath id="pf47c9c03cf">
   <rect height="266.112" width="357.12" x="102.7425" y="41.76"/>
  </clipPath>
 </defs>
</svg>
