<?xml version="1.0" encoding="utf-8" standalone="no"?>
<!DOCTYPE svg PUBLIC "-//W3C//DTD SVG 1.1//EN"
  "http://www.w3.org/Graphics/SVG/1.1/DTD/svg11.dtd">
<svg height="357.182pt" version="1.1" viewBox="0 0 465.505 357.182" width="465.505pt" xmlns="http://www.w3.org/2000/svg" xmlns:xlink="http://www.w3.org/1999/xlink">
 <metadata>
  <rdf:RDF xmlns:cc="http://creativecommons.org/ns#" xmlns:dc="http://purl.org/dc/elements/1.1/" xmlns:rdf="http://www.w3.org/1999/02/22-rdf-syntax-ns#">
   <cc:Work>
    <dc:type rdf:resource="http://purl.org/dc/dcmitype/StillImage"/>
    <dc:date>2021-11-15T02:07:54.468441</dc:date>
    <dc:format>image/svg+xml</dc:format>
    <dc:creator>
     <cc:Agent>
      <dc:title>Matplotlib v3.4.2, https://matplotlib.org/</dc:title>
     </cc:Agent>
    </dc:creator>
   </cc:Work>
  </rdf:RDF>
 </metadata>
 <defs>
  <style type="text/css">*{stroke-linecap:butt;stroke-linejoin:round;}</style>
 </defs>
 <g id="figure_1">
  <g id="patch_1">
   <path d="M 0 357.182 
L 465.505 357.182 
L 465.505 0 
L 0 0 
z
" style="fill:none;"/>
  </g>
  <g id="axes_1">
   <g id="patch_2">
    <path d="M 101.185 307.872 
L 458.305 307.872 
L 458.305 41.76 
L 101.185 41.76 
z
" style="fill:none;"/>
   </g>
   <g id="matplotlib.axis_1">
    <g id="xtick_1">
     <g id="line2d_1">
      <path clip-path="url(#p97b9c690c9)" d="M 104.416544 307.872 
L 104.416544 41.76 
" style="fill:none;stroke:#b0b0b0;stroke-linecap:square;stroke-width:0.8;"/>
     </g>
     <g id="line2d_2">
      <defs>
       <path d="M 0 0 
L 0 3.5 
" id="mad5e6a8dda" style="stroke:#000000;stroke-width:0.8;"/>
      </defs>
      <g>
       <use style="stroke:#000000;stroke-width:0.8;" x="104.416544" xlink:href="#mad5e6a8dda" y="307.872"/>
      </g>
     </g>
     <g id="text_1">
      <!-- 0 -->
      <g transform="translate(99.447794 327.1695)scale(0.16 -0.16)">
       <defs>
        <path d="M 1991 -97 
Q 1159 -97 768 497 
Q 378 1091 378 2350 
Q 378 3609 770 4206 
Q 1163 4803 1991 4803 
Q 2813 4803 3206 4204 
Q 3600 3606 3600 2356 
Q 3600 1094 3209 498 
Q 2819 -97 1991 -97 
z
M 1991 4325 
Q 1456 4325 1215 3901 
Q 975 3478 975 2350 
Q 975 1231 1215 806 
Q 1456 381 1991 381 
Q 2525 381 2764 806 
Q 3003 1231 3003 2356 
Q 3003 3459 2765 3892 
Q 2528 4325 1991 4325 
z
" id="Meiryo-30" transform="scale(0.015625)"/>
       </defs>
       <use xlink:href="#Meiryo-30"/>
      </g>
     </g>
    </g>
    <g id="xtick_2">
     <g id="line2d_3">
      <path clip-path="url(#p97b9c690c9)" d="M 173.172801 307.872 
L 173.172801 41.76 
" style="fill:none;stroke:#b0b0b0;stroke-linecap:square;stroke-width:0.8;"/>
     </g>
     <g id="line2d_4">
      <g>
       <use style="stroke:#000000;stroke-width:0.8;" x="173.172801" xlink:href="#mad5e6a8dda" y="307.872"/>
      </g>
     </g>
     <g id="text_2">
      <!-- 10 -->
      <g transform="translate(163.235301 327.1695)scale(0.16 -0.16)">
       <defs>
        <path d="M 3338 0 
L 831 0 
L 831 431 
L 1813 431 
L 1813 3669 
L 831 3669 
L 831 4050 
Q 1406 4053 1653 4214 
Q 1900 4375 1931 4725 
L 2375 4725 
L 2375 431 
L 3338 431 
L 3338 0 
z
" id="Meiryo-31" transform="scale(0.015625)"/>
       </defs>
       <use xlink:href="#Meiryo-31"/>
       <use x="62.109375" xlink:href="#Meiryo-30"/>
      </g>
     </g>
    </g>
    <g id="xtick_3">
     <g id="line2d_5">
      <path clip-path="url(#p97b9c690c9)" d="M 241.929059 307.872 
L 241.929059 41.76 
" style="fill:none;stroke:#b0b0b0;stroke-linecap:square;stroke-width:0.8;"/>
     </g>
     <g id="line2d_6">
      <g>
       <use style="stroke:#000000;stroke-width:0.8;" x="241.929059" xlink:href="#mad5e6a8dda" y="307.872"/>
      </g>
     </g>
     <g id="text_3">
      <!-- 20 -->
      <g transform="translate(231.991559 327.1695)scale(0.16 -0.16)">
       <defs>
        <path d="M 3606 0 
L 456 0 
L 456 609 
Q 956 1041 1579 1612 
Q 2203 2184 2506 2618 
Q 2809 3053 2809 3488 
Q 2809 3872 2554 4087 
Q 2300 4303 1863 4303 
Q 1222 4303 603 3897 
L 572 3897 
L 572 4506 
Q 1203 4806 1878 4806 
Q 2591 4806 3000 4461 
Q 3409 4116 3409 3519 
Q 3409 3200 3304 2909 
Q 3200 2619 2978 2344 
Q 2756 2069 2447 1759 
Q 2138 1450 1025 503 
L 3606 503 
L 3606 0 
z
" id="Meiryo-32" transform="scale(0.015625)"/>
       </defs>
       <use xlink:href="#Meiryo-32"/>
       <use x="62.109375" xlink:href="#Meiryo-30"/>
      </g>
     </g>
    </g>
    <g id="xtick_4">
     <g id="line2d_7">
      <path clip-path="url(#p97b9c690c9)" d="M 310.685316 307.872 
L 310.685316 41.76 
" style="fill:none;stroke:#b0b0b0;stroke-linecap:square;stroke-width:0.8;"/>
     </g>
     <g id="line2d_8">
      <g>
       <use style="stroke:#000000;stroke-width:0.8;" x="310.685316" xlink:href="#mad5e6a8dda" y="307.872"/>
      </g>
     </g>
     <g id="text_4">
      <!-- 30 -->
      <g transform="translate(300.747816 327.1695)scale(0.16 -0.16)">
       <defs>
        <path d="M 475 197 
L 475 825 
L 525 825 
Q 1159 406 1838 406 
Q 2338 406 2639 678 
Q 2941 950 2941 1434 
Q 2941 1884 2678 2096 
Q 2416 2309 1828 2309 
L 1553 2309 
L 1553 2791 
L 1766 2791 
Q 2272 2791 2559 3006 
Q 2847 3222 2847 3613 
Q 2847 3944 2595 4123 
Q 2344 4303 1903 4303 
Q 1269 4303 644 3894 
L 609 3894 
L 609 4509 
Q 1241 4806 1919 4806 
Q 2647 4806 3045 4501 
Q 3444 4197 3444 3678 
Q 3444 3297 3178 2997 
Q 2913 2697 2513 2616 
L 2513 2566 
Q 3541 2381 3541 1381 
Q 3541 734 3069 318 
Q 2597 -97 1853 -97 
Q 1144 -97 475 197 
z
" id="Meiryo-33" transform="scale(0.015625)"/>
       </defs>
       <use xlink:href="#Meiryo-33"/>
       <use x="62.109375" xlink:href="#Meiryo-30"/>
      </g>
     </g>
    </g>
    <g id="xtick_5">
     <g id="line2d_9">
      <path clip-path="url(#p97b9c690c9)" d="M 379.441573 307.872 
L 379.441573 41.76 
" style="fill:none;stroke:#b0b0b0;stroke-linecap:square;stroke-width:0.8;"/>
     </g>
     <g id="line2d_10">
      <g>
       <use style="stroke:#000000;stroke-width:0.8;" x="379.441573" xlink:href="#mad5e6a8dda" y="307.872"/>
      </g>
     </g>
     <g id="text_5">
      <!-- 40 -->
      <g transform="translate(369.504073 327.1695)scale(0.16 -0.16)">
       <defs>
        <path d="M 3713 1356 
L 3022 1356 
L 3022 0 
L 2459 0 
L 2459 1356 
L 194 1356 
L 194 2013 
L 2484 4709 
L 3022 4709 
L 3022 1819 
L 3713 1819 
L 3713 1356 
z
M 2459 1819 
L 2459 4022 
L 588 1819 
L 2459 1819 
z
" id="Meiryo-34" transform="scale(0.015625)"/>
       </defs>
       <use xlink:href="#Meiryo-34"/>
       <use x="62.109375" xlink:href="#Meiryo-30"/>
      </g>
     </g>
    </g>
    <g id="xtick_6">
     <g id="line2d_11">
      <path clip-path="url(#p97b9c690c9)" d="M 448.19783 307.872 
L 448.19783 41.76 
" style="fill:none;stroke:#b0b0b0;stroke-linecap:square;stroke-width:0.8;"/>
     </g>
     <g id="line2d_12">
      <g>
       <use style="stroke:#000000;stroke-width:0.8;" x="448.19783" xlink:href="#mad5e6a8dda" y="307.872"/>
      </g>
     </g>
     <g id="text_6">
      <!-- 50 -->
      <g transform="translate(438.26033 327.1695)scale(0.16 -0.16)">
       <defs>
        <path d="M 538 178 
L 538 803 
L 588 803 
Q 1197 406 1856 406 
Q 2363 406 2667 695 
Q 2972 984 2972 1494 
Q 2972 2419 1703 2419 
Q 1341 2419 741 2294 
L 741 4709 
L 3538 4709 
L 3538 4203 
L 1303 4203 
L 1303 2869 
Q 1716 2909 1859 2909 
Q 2700 2909 3134 2546 
Q 3569 2184 3569 1491 
Q 3569 791 3098 347 
Q 2628 -97 1869 -97 
Q 1131 -97 538 178 
z
" id="Meiryo-35" transform="scale(0.015625)"/>
       </defs>
       <use xlink:href="#Meiryo-35"/>
       <use x="62.109375" xlink:href="#Meiryo-30"/>
      </g>
     </g>
    </g>
    <g id="text_7">
     <!-- Number of Generations -->
     <g transform="translate(188.95 346.7245)scale(0.16 -0.16)">
      <defs>
       <path d="M 4166 0 
L 3491 0 
L 1119 4088 
L 1119 0 
L 578 0 
L 578 4709 
L 1384 4709 
L 3625 847 
L 3625 4709 
L 4166 4709 
L 4166 0 
z
" id="Meiryo-4e" transform="scale(0.015625)"/>
       <path d="M 3425 0 
L 2875 0 
L 2875 425 
Q 2234 -97 1647 -97 
Q 1094 -97 800 245 
Q 506 588 506 1225 
L 506 3531 
L 1056 3531 
L 1056 1547 
Q 1056 866 1239 644 
Q 1422 422 1834 422 
Q 2322 422 2875 875 
L 2875 3531 
L 3425 3531 
L 3425 0 
z
" id="Meiryo-75" transform="scale(0.015625)"/>
       <path d="M 5084 0 
L 5084 1978 
Q 5084 2550 5004 2742 
Q 4925 2934 4761 3023 
Q 4597 3113 4347 3113 
Q 3919 3113 3338 2641 
Q 3356 2478 3356 2225 
L 3356 0 
L 2806 0 
L 2806 1978 
Q 2806 2566 2726 2752 
Q 2647 2938 2486 3025 
Q 2325 3113 2078 3113 
Q 1631 3113 1081 2656 
L 1081 0 
L 531 0 
L 531 3531 
L 1081 3531 
L 1081 3106 
Q 1709 3631 2269 3631 
Q 2991 3631 3244 3053 
Q 3925 3631 4538 3631 
Q 5634 3631 5634 2300 
L 5634 0 
L 5084 0 
z
" id="Meiryo-6d" transform="scale(0.015625)"/>
       <path d="M 1084 188 
L 1038 0 
L 531 0 
L 531 4919 
L 1081 4919 
L 1081 3144 
Q 1684 3631 2253 3631 
Q 2875 3631 3245 3140 
Q 3616 2650 3616 1797 
Q 3616 953 3169 428 
Q 2722 -97 2063 -97 
Q 1547 -97 1084 188 
z
M 1081 2697 
L 1081 603 
Q 1550 394 1950 394 
Q 2469 394 2758 756 
Q 3047 1119 3047 1781 
Q 3047 3113 2094 3113 
Q 1588 3113 1081 2697 
z
" id="Meiryo-62" transform="scale(0.015625)"/>
       <path d="M 834 2131 
L 2906 2131 
Q 2881 3184 1941 3184 
Q 1466 3184 1172 2903 
Q 878 2622 834 2131 
z
M 2125 -81 
Q 1244 -81 758 395 
Q 272 872 272 1744 
Q 272 2609 737 3120 
Q 1203 3631 1972 3631 
Q 2672 3631 3058 3212 
Q 3444 2794 3444 2019 
L 3444 1716 
L 834 1716 
Q 834 1078 1179 736 
Q 1525 394 2134 394 
Q 2741 394 3347 816 
L 3372 816 
L 3372 219 
Q 2619 -81 2125 -81 
z
" id="Meiryo-65" transform="scale(0.015625)"/>
       <path d="M 531 0 
L 531 3531 
L 1081 3531 
L 1081 2988 
Q 1744 3531 2303 3531 
Q 2500 3531 2700 3500 
L 2700 2925 
L 2678 2925 
Q 2419 2988 2153 2988 
Q 1622 2988 1081 2538 
L 1081 0 
L 531 0 
z
" id="Meiryo-72" transform="scale(0.015625)"/>
       <path id="Meiryo-20" transform="scale(0.015625)"/>
       <path d="M 1900 -97 
Q 1147 -97 709 401 
Q 272 900 272 1763 
Q 272 2625 712 3128 
Q 1153 3631 1900 3631 
Q 2647 3631 3087 3131 
Q 3528 2631 3528 1763 
Q 3528 894 3089 398 
Q 2650 -97 1900 -97 
z
M 1900 3163 
Q 1391 3163 1116 2803 
Q 841 2444 841 1763 
Q 841 1091 1116 731 
Q 1391 372 1900 372 
Q 2409 372 2684 731 
Q 2959 1091 2959 1763 
Q 2959 3163 1900 3163 
z
" id="Meiryo-6f" transform="scale(0.015625)"/>
       <path d="M 2409 4384 
L 2391 4384 
Q 2103 4478 1881 4478 
Q 1459 4478 1281 4281 
Q 1103 4084 1103 3634 
L 1103 3531 
L 2184 3531 
L 2184 3081 
L 1122 3081 
L 1122 0 
L 572 0 
L 572 3081 
L 169 3081 
L 169 3531 
L 572 3531 
L 572 3669 
Q 572 4291 884 4622 
Q 1197 4953 1778 4953 
Q 2063 4953 2409 4891 
L 2409 4384 
z
" id="Meiryo-66" transform="scale(0.015625)"/>
       <path d="M 4319 350 
Q 3306 -91 2663 -91 
Q 1538 -91 914 546 
Q 291 1184 291 2359 
Q 291 3500 925 4147 
Q 1559 4794 2663 4794 
Q 3478 4794 4316 4366 
L 4316 3681 
L 4272 3681 
Q 3506 4303 2563 4303 
Q 1788 4303 1342 3784 
Q 897 3266 897 2378 
Q 897 1450 1361 926 
Q 1825 403 2634 403 
Q 3228 403 3744 628 
L 3744 1841 
L 2522 1841 
L 2522 2347 
L 4319 2347 
L 4319 350 
z
" id="Meiryo-47" transform="scale(0.015625)"/>
       <path d="M 3450 0 
L 2900 0 
L 2900 1978 
Q 2900 2666 2719 2889 
Q 2538 3113 2122 3113 
Q 1631 3113 1081 2656 
L 1081 0 
L 531 0 
L 531 3531 
L 1081 3531 
L 1081 3106 
Q 1703 3631 2309 3631 
Q 2856 3631 3153 3289 
Q 3450 2947 3450 2300 
L 3450 0 
z
" id="Meiryo-6e" transform="scale(0.015625)"/>
       <path d="M 2663 841 
L 2663 1866 
Q 1497 1813 1164 1608 
Q 831 1403 831 1044 
Q 831 409 1600 409 
Q 2122 409 2663 841 
z
M 2663 0 
L 2663 394 
Q 2222 75 1937 -11 
Q 1653 -97 1359 -97 
Q 888 -97 575 215 
Q 263 528 263 1009 
Q 263 1625 727 1936 
Q 1191 2247 2663 2306 
L 2663 2413 
Q 2663 2781 2444 2957 
Q 2225 3134 1675 3134 
Q 1191 3134 597 2884 
L 572 2884 
L 572 3456 
Q 1156 3616 1697 3616 
Q 2481 3616 2845 3323 
Q 3209 3031 3209 2416 
L 3209 0 
L 2663 0 
z
" id="Meiryo-61" transform="scale(0.015625)"/>
       <path d="M 1647 -69 
Q 553 -69 553 1134 
L 553 3081 
L 150 3081 
L 150 3531 
L 556 3531 
L 556 4547 
L 1103 4547 
L 1103 3531 
L 2341 3531 
L 2341 3081 
L 1103 3081 
L 1103 1447 
Q 1103 891 1179 727 
Q 1256 563 1412 486 
Q 1569 409 1813 409 
Q 2044 409 2322 522 
L 2341 522 
L 2341 22 
Q 1969 -69 1647 -69 
z
" id="Meiryo-74" transform="scale(0.015625)"/>
       <path d="M 1122 4238 
L 500 4238 
L 500 4809 
L 1122 4809 
L 1122 4238 
z
M 1088 0 
L 538 0 
L 538 3531 
L 1088 3531 
L 1088 0 
z
" id="Meiryo-69" transform="scale(0.015625)"/>
       <path d="M 1528 -84 
Q 866 -84 284 206 
L 284 844 
L 306 844 
Q 938 375 1559 375 
Q 2431 375 2431 925 
Q 2431 1141 2315 1259 
Q 2200 1378 1834 1463 
Q 1528 1522 1131 1615 
Q 734 1709 517 1945 
Q 300 2181 300 2550 
Q 300 3019 681 3317 
Q 1063 3616 1700 3616 
Q 2356 3616 2853 3359 
L 2853 2753 
L 2831 2753 
Q 2284 3156 1672 3156 
Q 1294 3156 1075 3017 
Q 856 2878 856 2631 
Q 856 2413 973 2297 
Q 1091 2181 1441 2094 
L 2131 1944 
Q 2559 1850 2775 1614 
Q 2991 1378 2991 1003 
Q 2991 519 2594 217 
Q 2197 -84 1528 -84 
z
" id="Meiryo-73" transform="scale(0.015625)"/>
      </defs>
      <use xlink:href="#Meiryo-4e"/>
      <use x="74.121094" xlink:href="#Meiryo-75"/>
      <use x="135.9375" xlink:href="#Meiryo-6d"/>
      <use x="231.884766" xlink:href="#Meiryo-62"/>
      <use x="292.724609" xlink:href="#Meiryo-65"/>
      <use x="350.439453" xlink:href="#Meiryo-72"/>
      <use x="391.748047" xlink:href="#Meiryo-20"/>
      <use x="425.732422" xlink:href="#Meiryo-6f"/>
      <use x="485.107422" xlink:href="#Meiryo-66"/>
      <use x="518.652344" xlink:href="#Meiryo-20"/>
      <use x="552.636719" xlink:href="#Meiryo-47"/>
      <use x="625.439453" xlink:href="#Meiryo-65"/>
      <use x="683.154297" xlink:href="#Meiryo-6e"/>
      <use x="744.970703" xlink:href="#Meiryo-65"/>
      <use x="802.685547" xlink:href="#Meiryo-72"/>
      <use x="842.619141" xlink:href="#Meiryo-61"/>
      <use x="900.626953" xlink:href="#Meiryo-74"/>
      <use x="938.517578" xlink:href="#Meiryo-69"/>
      <use x="963.908203" xlink:href="#Meiryo-6f"/>
      <use x="1023.283203" xlink:href="#Meiryo-6e"/>
      <use x="1085.099609" xlink:href="#Meiryo-73"/>
     </g>
    </g>
   </g>
   <g id="matplotlib.axis_2">
    <g id="ytick_1">
     <g id="line2d_13">
      <path clip-path="url(#p97b9c690c9)" d="M 101.185 278.397206 
L 458.305 278.397206 
" style="fill:none;stroke:#b0b0b0;stroke-linecap:square;stroke-width:0.8;"/>
     </g>
     <g id="line2d_14">
      <defs>
       <path d="M 0 0 
L -3.5 0 
" id="m3bc764fb8d" style="stroke:#000000;stroke-width:0.8;"/>
      </defs>
      <g>
       <use style="stroke:#000000;stroke-width:0.8;" x="101.185" xlink:href="#m3bc764fb8d" y="278.397206"/>
      </g>
     </g>
     <g id="text_8">
      <!-- 0.0e+00 -->
      <g transform="translate(26.755 284.545956)scale(0.16 -0.16)">
       <defs>
        <path d="M 1472 0 
L 763 0 
L 763 853 
L 1472 853 
L 1472 0 
z
" id="Meiryo-2e" transform="scale(0.015625)"/>
        <path d="M 4534 1828 
L 2813 1828 
L 2813 106 
L 2331 106 
L 2331 1828 
L 609 1828 
L 609 2291 
L 2331 2291 
L 2331 4013 
L 2813 4013 
L 2813 2291 
L 4534 2291 
L 4534 1828 
z
" id="Meiryo-2b" transform="scale(0.015625)"/>
       </defs>
       <use xlink:href="#Meiryo-30"/>
       <use x="62.109375" xlink:href="#Meiryo-2e"/>
       <use x="97.021484" xlink:href="#Meiryo-30"/>
       <use x="159.130859" xlink:href="#Meiryo-65"/>
       <use x="216.845703" xlink:href="#Meiryo-2b"/>
       <use x="297.216797" xlink:href="#Meiryo-30"/>
       <use x="359.326172" xlink:href="#Meiryo-30"/>
      </g>
     </g>
    </g>
    <g id="ytick_2">
     <g id="line2d_15">
      <path clip-path="url(#p97b9c690c9)" d="M 101.185 227.408691 
L 458.305 227.408691 
" style="fill:none;stroke:#b0b0b0;stroke-linecap:square;stroke-width:0.8;"/>
     </g>
     <g id="line2d_16">
      <g>
       <use style="stroke:#000000;stroke-width:0.8;" x="101.185" xlink:href="#m3bc764fb8d" y="227.408691"/>
      </g>
     </g>
     <g id="text_9">
      <!-- 5.0e-02 -->
      <g transform="translate(32.5825 233.557441)scale(0.16 -0.16)">
       <defs>
        <path d="M 2381 1797 
L 431 1797 
L 431 2322 
L 2381 2322 
L 2381 1797 
z
" id="Meiryo-2d" transform="scale(0.015625)"/>
       </defs>
       <use xlink:href="#Meiryo-35"/>
       <use x="62.109375" xlink:href="#Meiryo-2e"/>
       <use x="97.021484" xlink:href="#Meiryo-30"/>
       <use x="159.130859" xlink:href="#Meiryo-65"/>
       <use x="216.845703" xlink:href="#Meiryo-2d"/>
       <use x="260.791016" xlink:href="#Meiryo-30"/>
       <use x="322.900391" xlink:href="#Meiryo-32"/>
      </g>
     </g>
    </g>
    <g id="ytick_3">
     <g id="line2d_17">
      <path clip-path="url(#p97b9c690c9)" d="M 101.185 176.420175 
L 458.305 176.420175 
" style="fill:none;stroke:#b0b0b0;stroke-linecap:square;stroke-width:0.8;"/>
     </g>
     <g id="line2d_18">
      <g>
       <use style="stroke:#000000;stroke-width:0.8;" x="101.185" xlink:href="#m3bc764fb8d" y="176.420175"/>
      </g>
     </g>
     <g id="text_10">
      <!-- 1.0e-01 -->
      <g transform="translate(32.5825 182.568925)scale(0.16 -0.16)">
       <use xlink:href="#Meiryo-31"/>
       <use x="62.109375" xlink:href="#Meiryo-2e"/>
       <use x="97.021484" xlink:href="#Meiryo-30"/>
       <use x="159.130859" xlink:href="#Meiryo-65"/>
       <use x="216.845703" xlink:href="#Meiryo-2d"/>
       <use x="260.791016" xlink:href="#Meiryo-30"/>
       <use x="322.900391" xlink:href="#Meiryo-31"/>
      </g>
     </g>
    </g>
    <g id="ytick_4">
     <g id="line2d_19">
      <path clip-path="url(#p97b9c690c9)" d="M 101.185 125.431659 
L 458.305 125.431659 
" style="fill:none;stroke:#b0b0b0;stroke-linecap:square;stroke-width:0.8;"/>
     </g>
     <g id="line2d_20">
      <g>
       <use style="stroke:#000000;stroke-width:0.8;" x="101.185" xlink:href="#m3bc764fb8d" y="125.431659"/>
      </g>
     </g>
     <g id="text_11">
      <!-- 1.5e-01 -->
      <g transform="translate(32.5825 131.580409)scale(0.16 -0.16)">
       <use xlink:href="#Meiryo-31"/>
       <use x="62.109375" xlink:href="#Meiryo-2e"/>
       <use x="97.021484" xlink:href="#Meiryo-35"/>
       <use x="159.130859" xlink:href="#Meiryo-65"/>
       <use x="216.845703" xlink:href="#Meiryo-2d"/>
       <use x="260.791016" xlink:href="#Meiryo-30"/>
       <use x="322.900391" xlink:href="#Meiryo-31"/>
      </g>
     </g>
    </g>
    <g id="ytick_5">
     <g id="line2d_21">
      <path clip-path="url(#p97b9c690c9)" d="M 101.185 74.443143 
L 458.305 74.443143 
" style="fill:none;stroke:#b0b0b0;stroke-linecap:square;stroke-width:0.8;"/>
     </g>
     <g id="line2d_22">
      <g>
       <use style="stroke:#000000;stroke-width:0.8;" x="101.185" xlink:href="#m3bc764fb8d" y="74.443143"/>
      </g>
     </g>
     <g id="text_12">
      <!-- 2.0e-01 -->
      <g transform="translate(32.5825 80.591893)scale(0.16 -0.16)">
       <use xlink:href="#Meiryo-32"/>
       <use x="62.109375" xlink:href="#Meiryo-2e"/>
       <use x="97.021484" xlink:href="#Meiryo-30"/>
       <use x="159.130859" xlink:href="#Meiryo-65"/>
       <use x="216.845703" xlink:href="#Meiryo-2d"/>
       <use x="260.791016" xlink:href="#Meiryo-30"/>
       <use x="322.900391" xlink:href="#Meiryo-31"/>
      </g>
     </g>
    </g>
    <g id="text_13">
     <!-- IGD -->
     <g transform="translate(19.4975 189.85475)rotate(-90)scale(0.16 -0.16)">
      <defs>
       <path d="M 2197 0 
L 381 0 
L 381 434 
L 1000 434 
L 1000 4275 
L 381 4275 
L 381 4709 
L 2197 4709 
L 2197 4275 
L 1581 4275 
L 1581 434 
L 2197 434 
L 2197 0 
z
" id="Meiryo-49" transform="scale(0.015625)"/>
       <path d="M 578 0 
L 578 4709 
L 1713 4709 
Q 2706 4709 3275 4450 
Q 3844 4191 4173 3658 
Q 4503 3125 4503 2350 
Q 4503 1388 3879 694 
Q 3256 0 1725 0 
L 578 0 
z
M 1159 4216 
L 1159 494 
L 1766 494 
Q 2881 494 3387 966 
Q 3894 1438 3894 2359 
Q 3894 3234 3381 3725 
Q 2869 4216 1766 4216 
L 1159 4216 
z
" id="Meiryo-44" transform="scale(0.015625)"/>
      </defs>
      <use xlink:href="#Meiryo-49"/>
      <use x="40.332031" xlink:href="#Meiryo-47"/>
      <use x="113.134766" xlink:href="#Meiryo-44"/>
     </g>
    </g>
   </g>
   <g id="line2d_23">
    <path clip-path="url(#p97b9c690c9)" d="M 111.29217 72.465231 
L 118.167796 85.913315 
L 125.043421 119.644363 
L 131.919047 146.390752 
L 138.794673 165.619463 
L 145.670298 177.613954 
L 152.545924 191.753289 
L 159.42155 200.534947 
L 166.297176 206.547233 
L 173.172801 209.226531 
L 180.048427 215.911346 
L 186.924053 216.121512 
L 193.799678 220.488711 
L 200.675304 223.046502 
L 207.55093 225.983393 
L 214.426556 226.174785 
L 221.302181 228.288026 
L 228.177807 229.266186 
L 235.053433 229.875983 
L 241.929059 230.234074 
L 248.804684 230.847091 
L 255.68031 230.510705 
L 262.555936 230.554545 
L 269.431561 232.048138 
L 276.307187 231.067678 
L 283.182813 233.953302 
L 290.058439 232.54977 
L 296.934064 232.616861 
L 303.80969 233.504353 
L 310.685316 233.909652 
L 317.560941 233.932987 
L 324.436567 234.015825 
L 331.312193 234.355101 
L 338.187819 234.394106 
L 345.063444 234.546461 
L 351.93907 234.842258 
L 358.814696 234.810075 
L 365.690322 235.386645 
L 372.565947 235.786694 
L 379.441573 236.161557 
L 386.317199 235.433408 
L 393.192824 235.834289 
L 400.06845 235.92178 
L 406.944076 237.317271 
L 413.819702 237.137982 
L 420.695327 235.760351 
L 427.570953 236.069101 
L 434.446579 235.016428 
L 441.322204 236.674853 
L 448.19783 236.507617 
" style="fill:none;stroke:#1f77b4;stroke-linecap:square;stroke-width:1.5;"/>
   </g>
   <g id="line2d_24">
    <path clip-path="url(#p97b9c690c9)" d="M 111.29217 272.59101 
L 118.167796 273.378218 
L 125.043421 274.002927 
L 131.919047 274.767509 
L 138.794673 275.168527 
L 145.670298 275.547704 
L 152.545924 275.69809 
L 159.42155 275.825655 
L 166.297176 275.829189 
L 173.172801 276.070159 
L 180.048427 276.273022 
L 186.924053 276.428562 
L 193.799678 276.525765 
L 200.675304 276.565142 
L 207.55093 276.597328 
L 214.426556 276.651822 
L 221.302181 276.744763 
L 228.177807 276.754183 
L 235.053433 276.83118 
L 241.929059 276.857239 
L 248.804684 276.893575 
L 255.68031 276.909459 
L 262.555936 276.883471 
L 269.431561 276.942376 
L 276.307187 276.961974 
L 283.182813 276.956889 
L 290.058439 276.98212 
L 296.934064 276.955939 
L 303.80969 276.970958 
L 310.685316 277.025631 
L 317.560941 277.063821 
L 324.436567 277.060025 
L 331.312193 277.076242 
L 338.187819 277.0561 
L 345.063444 277.074308 
L 351.93907 277.068341 
L 358.814696 277.089132 
L 365.690322 277.1406 
L 372.565947 277.127962 
L 379.441573 277.125664 
L 386.317199 277.166769 
L 393.192824 277.146578 
L 400.06845 277.140224 
L 406.944076 277.153847 
L 413.819702 277.157303 
L 420.695327 277.139559 
L 427.570953 277.136495 
L 434.446579 277.128978 
L 441.322204 277.148762 
L 448.19783 277.147603 
" style="fill:none;stroke:#ff7f0e;stroke-linecap:square;stroke-width:1.5;"/>
   </g>
   <g id="line2d_25">
    <path clip-path="url(#p97b9c690c9)" d="M 111.29217 272.59101 
L 118.167796 273.384361 
L 125.043421 274.046325 
L 131.919047 274.803909 
L 138.794673 275.153623 
L 145.670298 275.38045 
L 152.545924 275.600409 
L 159.42155 275.69224 
L 166.297176 275.823621 
L 173.172801 275.958084 
L 180.048427 275.969233 
L 186.924053 276.095015 
L 193.799678 276.252481 
L 200.675304 276.279814 
L 207.55093 276.328865 
L 214.426556 276.48706 
L 221.302181 276.519649 
L 228.177807 276.517638 
L 235.053433 276.607194 
L 241.929059 276.666604 
L 248.804684 276.555735 
L 255.68031 276.650167 
L 262.555936 276.664528 
L 269.431561 276.632855 
L 276.307187 276.735222 
L 283.182813 276.687371 
L 290.058439 276.736311 
L 296.934064 276.729238 
L 303.80969 276.76534 
L 310.685316 276.877878 
L 317.560941 276.871393 
L 324.436567 276.864517 
L 331.312193 276.859416 
L 338.187819 276.889124 
L 345.063444 276.85175 
L 351.93907 276.852913 
L 358.814696 276.845125 
L 365.690322 276.79788 
L 372.565947 276.865075 
L 379.441573 276.848887 
L 386.317199 276.916553 
L 393.192824 276.904881 
L 400.06845 277.018264 
L 406.944076 277.035702 
L 413.819702 277.0144 
L 420.695327 277.024227 
L 427.570953 277.025974 
L 434.446579 276.962786 
L 441.322204 276.999531 
L 448.19783 276.976371 
" style="fill:none;stroke:#2ca02c;stroke-linecap:square;stroke-width:1.5;"/>
   </g>
   <g id="line2d_26">
    <path clip-path="url(#p97b9c690c9)" d="M 111.29217 272.95821 
L 118.167796 273.322616 
L 125.043421 274.197771 
L 131.919047 274.744582 
L 138.794673 275.301006 
L 145.670298 275.517398 
L 152.545924 275.697034 
L 159.42155 275.827716 
L 166.297176 276.007633 
L 173.172801 276.018825 
L 180.048427 276.096391 
L 186.924053 276.20543 
L 193.799678 276.272091 
L 200.675304 276.369778 
L 207.55093 276.446725 
L 214.426556 276.481474 
L 221.302181 276.496682 
L 228.177807 276.535521 
L 235.053433 276.452834 
L 241.929059 276.482789 
L 248.804684 276.636325 
L 255.68031 276.707306 
L 262.555936 276.684365 
L 269.431561 276.734125 
L 276.307187 276.634986 
L 283.182813 276.764611 
L 290.058439 276.734817 
L 296.934064 276.505121 
L 303.80969 276.757172 
L 310.685316 276.855754 
L 317.560941 276.94265 
L 324.436567 276.918341 
L 331.312193 276.958953 
L 338.187819 276.945223 
L 345.063444 276.929339 
L 351.93907 276.941801 
L 358.814696 276.905385 
L 365.690322 277.048854 
L 372.565947 277.010059 
L 379.441573 276.986398 
L 386.317199 276.996833 
L 393.192824 277.021384 
L 400.06845 277.059574 
L 406.944076 277.066063 
L 413.819702 277.015452 
L 420.695327 276.998553 
L 427.570953 277.046643 
L 434.446579 277.064941 
L 441.322204 277.061908 
L 448.19783 277.051936 
" style="fill:none;stroke:#d62728;stroke-linecap:square;stroke-width:1.5;"/>
   </g>
   <g id="line2d_27">
    <path clip-path="url(#p97b9c690c9)" d="M 111.29217 272.59101 
L 118.167796 273.134056 
L 125.043421 273.891958 
L 131.919047 274.676004 
L 138.794673 275.087764 
L 145.670298 275.50484 
L 152.545924 275.74463 
L 159.42155 275.885919 
L 166.297176 275.777998 
L 173.172801 275.991165 
L 180.048427 276.216661 
L 186.924053 276.275729 
L 193.799678 276.286624 
L 200.675304 276.373601 
L 207.55093 276.413742 
L 214.426556 276.439975 
L 221.302181 276.41442 
L 228.177807 276.459354 
L 235.053433 276.509003 
L 241.929059 276.49966 
L 248.804684 276.549168 
L 255.68031 276.639395 
L 262.555936 276.636667 
L 269.431561 276.639638 
L 276.307187 276.632327 
L 283.182813 276.760823 
L 290.058439 276.73658 
L 296.934064 276.766772 
L 303.80969 276.846555 
L 310.685316 276.834732 
L 317.560941 276.860205 
L 324.436567 276.844307 
L 331.312193 276.897333 
L 338.187819 276.900104 
L 345.063444 276.904155 
L 351.93907 276.934768 
L 358.814696 276.954104 
L 365.690322 276.967643 
L 372.565947 277.006352 
L 379.441573 276.965345 
L 386.317199 277.001313 
L 393.192824 276.969117 
L 400.06845 277.01903 
L 406.944076 277.022375 
L 413.819702 277.016683 
L 420.695327 276.996228 
L 427.570953 276.980349 
L 434.446579 277.002963 
L 441.322204 277.018133 
L 448.19783 277.010752 
" style="fill:none;stroke:#9467bd;stroke-linecap:square;stroke-width:1.5;"/>
   </g>
   <g id="patch_3">
    <path d="M 101.185 307.872 
L 101.185 41.76 
" style="fill:none;stroke:#000000;stroke-linecap:square;stroke-linejoin:miter;stroke-width:0.8;"/>
   </g>
   <g id="patch_4">
    <path d="M 458.305 307.872 
L 458.305 41.76 
" style="fill:none;stroke:#000000;stroke-linecap:square;stroke-linejoin:miter;stroke-width:0.8;"/>
   </g>
   <g id="patch_5">
    <path d="M 101.185 307.872 
L 458.305 307.872 
" style="fill:none;stroke:#000000;stroke-linecap:square;stroke-linejoin:miter;stroke-width:0.8;"/>
   </g>
   <g id="patch_6">
    <path d="M 101.185 41.76 
L 458.305 41.76 
" style="fill:none;stroke:#000000;stroke-linecap:square;stroke-linejoin:miter;stroke-width:0.8;"/>
   </g>
   <g id="legend_1">
    <g id="patch_7">
     <path d="M 297.4725 172.335 
L 447.105 172.335 
Q 450.305 172.335 450.305 169.135 
L 450.305 52.96 
Q 450.305 49.76 447.105 49.76 
L 297.4725 49.76 
Q 294.2725 49.76 294.2725 52.96 
L 294.2725 169.135 
Q 294.2725 172.335 297.4725 172.335 
z
" style="fill:#ffffff;opacity:0.8;stroke:#cccccc;stroke-linejoin:miter;"/>
    </g>
    <g id="line2d_28">
     <path d="M 300.6725 62.8575 
L 332.6725 62.8575 
" style="fill:none;stroke:#1f77b4;stroke-linecap:square;stroke-width:1.5;"/>
    </g>
    <g id="line2d_29"/>
    <g id="text_14">
     <!-- NSGA-II -->
     <g transform="translate(345.4725 68.4575)scale(0.16 -0.16)">
      <defs>
       <path d="M 2022 -84 
Q 1228 -84 356 309 
L 356 1019 
L 397 1019 
Q 1116 406 2028 406 
Q 2591 406 2911 636 
Q 3231 866 3231 1247 
Q 3231 1541 3095 1708 
Q 2959 1875 2622 1969 
L 1572 2181 
Q 988 2303 686 2623 
Q 384 2944 384 3456 
Q 384 4038 853 4416 
Q 1322 4794 2075 4794 
Q 2863 4794 3650 4447 
L 3650 3763 
L 3606 3763 
Q 2956 4303 2075 4303 
Q 1588 4303 1289 4087 
Q 991 3872 991 3522 
Q 991 2938 1672 2769 
Q 2066 2697 2548 2589 
Q 3031 2481 3239 2364 
Q 3447 2247 3576 2097 
Q 3706 1947 3770 1756 
Q 3834 1566 3834 1334 
Q 3834 722 3337 319 
Q 2841 -84 2022 -84 
z
" id="Meiryo-53" transform="scale(0.015625)"/>
       <path d="M 3000 1828 
L 2153 4150 
L 1309 1828 
L 3000 1828 
z
M 3659 0 
L 3175 1344 
L 1131 1344 
L 647 0 
L 56 0 
L 1800 4709 
L 2541 4709 
L 4281 0 
L 3659 0 
z
" id="Meiryo-41" transform="scale(0.015625)"/>
      </defs>
      <use xlink:href="#Meiryo-4e"/>
      <use x="74.121094" xlink:href="#Meiryo-53"/>
      <use x="137.597656" xlink:href="#Meiryo-47"/>
      <use x="210.400391" xlink:href="#Meiryo-41"/>
      <use x="275.798828" xlink:href="#Meiryo-2d"/>
      <use x="318.369141" xlink:href="#Meiryo-49"/>
      <use x="358.701172" xlink:href="#Meiryo-49"/>
     </g>
    </g>
    <g id="line2d_30">
     <path d="M 300.6725 86.4125 
L 332.6725 86.4125 
" style="fill:none;stroke:#ff7f0e;stroke-linecap:square;stroke-width:1.5;"/>
    </g>
    <g id="line2d_31"/>
    <g id="text_15">
     <!-- MO-MFEA -->
     <g transform="translate(345.4725 92.0125)scale(0.16 -0.16)">
      <defs>
       <path d="M 4738 0 
L 4156 0 
L 4156 4044 
L 2797 1281 
L 2478 1281 
L 1119 4044 
L 1119 0 
L 578 0 
L 578 4709 
L 1322 4709 
L 2656 2000 
L 3988 4709 
L 4738 4709 
L 4738 0 
z
" id="Meiryo-4d" transform="scale(0.015625)"/>
       <path d="M 2438 -97 
Q 1434 -97 862 551 
Q 291 1200 291 2353 
Q 291 3503 864 4154 
Q 1438 4806 2438 4806 
Q 3441 4806 4014 4154 
Q 4588 3503 4588 2353 
Q 4588 1206 4014 554 
Q 3441 -97 2438 -97 
z
M 2441 4309 
Q 1709 4309 1303 3796 
Q 897 3284 897 2353 
Q 897 1422 1303 911 
Q 1709 400 2441 400 
Q 3169 400 3575 911 
Q 3981 1422 3981 2353 
Q 3981 3291 3575 3800 
Q 3169 4309 2441 4309 
z
" id="Meiryo-4f" transform="scale(0.015625)"/>
       <path d="M 3550 4203 
L 1159 4203 
L 1159 2797 
L 3281 2797 
L 3281 2291 
L 1159 2291 
L 1159 0 
L 578 0 
L 578 4709 
L 3550 4709 
L 3550 4203 
z
" id="Meiryo-46" transform="scale(0.015625)"/>
       <path d="M 3644 0 
L 578 0 
L 578 4709 
L 3644 4709 
L 3644 4203 
L 1159 4203 
L 1159 2831 
L 3581 2831 
L 3581 2325 
L 1159 2325 
L 1159 506 
L 3644 506 
L 3644 0 
z
" id="Meiryo-45" transform="scale(0.015625)"/>
      </defs>
      <use xlink:href="#Meiryo-4d"/>
      <use x="83.056641" xlink:href="#Meiryo-4f"/>
      <use x="159.277344" xlink:href="#Meiryo-2d"/>
      <use x="203.222656" xlink:href="#Meiryo-4d"/>
      <use x="286.279297" xlink:href="#Meiryo-46"/>
      <use x="343.408203" xlink:href="#Meiryo-45"/>
      <use x="405.175781" xlink:href="#Meiryo-41"/>
     </g>
    </g>
    <g id="line2d_32">
     <path d="M 300.6725 109.9675 
L 332.6725 109.9675 
" style="fill:none;stroke:#2ca02c;stroke-linecap:square;stroke-width:1.5;"/>
    </g>
    <g id="line2d_33"/>
    <g id="text_16">
     <!-- MO-MFEA-II -->
     <g transform="translate(345.4725 115.5675)scale(0.16 -0.16)">
      <use xlink:href="#Meiryo-4d"/>
      <use x="83.056641" xlink:href="#Meiryo-4f"/>
      <use x="159.277344" xlink:href="#Meiryo-2d"/>
      <use x="203.222656" xlink:href="#Meiryo-4d"/>
      <use x="286.279297" xlink:href="#Meiryo-46"/>
      <use x="343.408203" xlink:href="#Meiryo-45"/>
      <use x="405.175781" xlink:href="#Meiryo-41"/>
      <use x="470.574219" xlink:href="#Meiryo-2d"/>
      <use x="513.144531" xlink:href="#Meiryo-49"/>
      <use x="553.476562" xlink:href="#Meiryo-49"/>
     </g>
    </g>
    <g id="line2d_34">
     <path d="M 300.6725 133.5225 
L 332.6725 133.5225 
" style="fill:none;stroke:#d62728;stroke-linecap:square;stroke-width:1.5;"/>
    </g>
    <g id="line2d_35"/>
    <g id="text_17">
     <!-- EMEA -->
     <g transform="translate(345.4725 139.1225)scale(0.16 -0.16)">
      <use xlink:href="#Meiryo-45"/>
      <use x="61.767578" xlink:href="#Meiryo-4d"/>
      <use x="144.824219" xlink:href="#Meiryo-45"/>
      <use x="206.591797" xlink:href="#Meiryo-41"/>
     </g>
    </g>
    <g id="line2d_36">
     <path d="M 300.6725 157.0775 
L 332.6725 157.0775 
" style="fill:none;stroke:#9467bd;stroke-linecap:square;stroke-width:1.5;"/>
    </g>
    <g id="line2d_37"/>
    <g id="text_18">
     <!-- Island Model -->
     <g transform="translate(345.4725 162.6775)scale(0.16 -0.16)">
      <defs>
       <path d="M 1088 0 
L 538 0 
L 538 4919 
L 1088 4919 
L 1088 0 
z
" id="Meiryo-6c" transform="scale(0.015625)"/>
       <path d="M 2813 838 
L 2813 2928 
Q 2350 3141 1947 3141 
Q 1428 3141 1137 2777 
Q 847 2413 847 1753 
Q 847 422 1800 422 
Q 2334 422 2813 838 
z
M 2813 0 
L 2813 391 
Q 2209 -97 1644 -97 
Q 1019 -97 648 393 
Q 278 884 278 1734 
Q 278 2575 725 3103 
Q 1172 3631 1828 3631 
Q 2288 3631 2813 3353 
L 2813 4919 
L 3363 4919 
L 3363 0 
L 2813 0 
z
" id="Meiryo-64" transform="scale(0.015625)"/>
      </defs>
      <use xlink:href="#Meiryo-49"/>
      <use x="38.957031" xlink:href="#Meiryo-73"/>
      <use x="88.761719" xlink:href="#Meiryo-6c"/>
      <use x="114.152344" xlink:href="#Meiryo-61"/>
      <use x="172.160156" xlink:href="#Meiryo-6e"/>
      <use x="233.976562" xlink:href="#Meiryo-64"/>
      <use x="294.816406" xlink:href="#Meiryo-20"/>
      <use x="328.800781" xlink:href="#Meiryo-4d"/>
      <use x="411.857422" xlink:href="#Meiryo-6f"/>
      <use x="471.232422" xlink:href="#Meiryo-64"/>
      <use x="532.072266" xlink:href="#Meiryo-65"/>
      <use x="589.787109" xlink:href="#Meiryo-6c"/>
     </g>
    </g>
   </g>
  </g>
  <g id="text_19">
   <!-- Vehicle crashworthiness design -->
   <g transform="translate(128.452 21.957)scale(0.192 -0.192)">
    <defs>
     <path d="M 4313 4709 
L 2453 0 
L 1916 0 
L 56 4709 
L 678 4709 
L 2203 794 
L 3722 4709 
L 4313 4709 
z
" id="Meiryo-56" transform="scale(0.015625)"/>
     <path d="M 3450 0 
L 2900 0 
L 2900 1975 
Q 2900 2666 2719 2889 
Q 2538 3113 2122 3113 
Q 1634 3113 1081 2659 
L 1081 0 
L 531 0 
L 531 4919 
L 1081 4919 
L 1081 3109 
Q 1700 3631 2309 3631 
Q 2856 3631 3153 3289 
Q 3450 2947 3450 2300 
L 3450 0 
z
" id="Meiryo-68" transform="scale(0.015625)"/>
     <path d="M 3097 216 
Q 2463 -81 1991 -81 
Q 1175 -81 723 397 
Q 272 875 272 1759 
Q 272 2625 737 3122 
Q 1203 3619 1994 3619 
Q 2516 3619 3097 3328 
L 3097 2716 
L 3072 2716 
Q 2488 3144 1981 3144 
Q 1441 3144 1141 2784 
Q 841 2425 841 1759 
Q 841 1094 1139 744 
Q 1438 394 1981 394 
Q 2503 394 3072 816 
L 3097 816 
L 3097 216 
z
" id="Meiryo-63" transform="scale(0.015625)"/>
     <path d="M 5144 3531 
L 4059 0 
L 3663 0 
L 2684 2741 
L 1644 0 
L 1247 0 
L 188 3531 
L 759 3531 
L 1519 875 
L 2494 3531 
L 2909 3531 
L 3838 875 
L 4594 3531 
L 5144 3531 
z
" id="Meiryo-77" transform="scale(0.015625)"/>
     <path d="M 3353 400 
Q 3353 -1338 1706 -1338 
Q 1166 -1338 631 -1191 
L 631 -622 
L 656 -622 
Q 1203 -847 1738 -847 
Q 2278 -847 2540 -605 
Q 2803 -363 2803 178 
L 2803 528 
Q 2238 53 1619 53 
Q 991 53 634 515 
Q 278 978 278 1797 
Q 278 2616 717 3123 
Q 1156 3631 1806 3631 
Q 2319 3631 2803 3353 
L 2844 3531 
L 3353 3531 
L 3353 400 
z
M 2803 972 
L 2803 2925 
Q 2338 3141 1934 3141 
Q 1419 3141 1133 2800 
Q 847 2459 847 1825 
Q 847 563 1784 563 
Q 2281 563 2803 972 
z
" id="Meiryo-67" transform="scale(0.015625)"/>
    </defs>
    <use xlink:href="#Meiryo-56"/>
    <use x="63.511719" xlink:href="#Meiryo-65"/>
    <use x="121.226562" xlink:href="#Meiryo-68"/>
    <use x="183.042969" xlink:href="#Meiryo-69"/>
    <use x="208.433594" xlink:href="#Meiryo-63"/>
    <use x="259.117188" xlink:href="#Meiryo-6c"/>
    <use x="284.507812" xlink:href="#Meiryo-65"/>
    <use x="342.222656" xlink:href="#Meiryo-20"/>
    <use x="376.207031" xlink:href="#Meiryo-63"/>
    <use x="426.890625" xlink:href="#Meiryo-72"/>
    <use x="466.824219" xlink:href="#Meiryo-61"/>
    <use x="524.832031" xlink:href="#Meiryo-73"/>
    <use x="574.636719" xlink:href="#Meiryo-68"/>
    <use x="636.078125" xlink:href="#Meiryo-77"/>
    <use x="719.378906" xlink:href="#Meiryo-6f"/>
    <use x="778.753906" xlink:href="#Meiryo-72"/>
    <use x="821.4375" xlink:href="#Meiryo-74"/>
    <use x="859.328125" xlink:href="#Meiryo-68"/>
    <use x="921.144531" xlink:href="#Meiryo-69"/>
    <use x="946.535156" xlink:href="#Meiryo-6e"/>
    <use x="1008.351562" xlink:href="#Meiryo-65"/>
    <use x="1066.066406" xlink:href="#Meiryo-73"/>
    <use x="1115.871094" xlink:href="#Meiryo-73"/>
    <use x="1165.675781" xlink:href="#Meiryo-20"/>
    <use x="1199.660156" xlink:href="#Meiryo-64"/>
    <use x="1260.5" xlink:href="#Meiryo-65"/>
    <use x="1318.214844" xlink:href="#Meiryo-73"/>
    <use x="1368.019531" xlink:href="#Meiryo-69"/>
    <use x="1393.410156" xlink:href="#Meiryo-67"/>
    <use x="1454.103516" xlink:href="#Meiryo-6e"/>
   </g>
  </g>
 </g>
 <defs>
  <clipPath id="p97b9c690c9">
   <rect height="266.112" width="357.12" x="101.185" y="41.76"/>
  </clipPath>
 </defs>
</svg>
