<?xml version="1.0" encoding="utf-8" standalone="no"?>
<!DOCTYPE svg PUBLIC "-//W3C//DTD SVG 1.1//EN"
  "http://www.w3.org/Graphics/SVG/1.1/DTD/svg11.dtd">
<!-- Created with matplotlib (http://matplotlib.org/) -->
<svg height="314.466687pt" version="1.1" viewBox="0 0 432.246658 314.466687" width="432.246658pt" xmlns="http://www.w3.org/2000/svg" xmlns:xlink="http://www.w3.org/1999/xlink">
 <defs>
  <style type="text/css">
*{stroke-linecap:butt;stroke-linejoin:round;}
  </style>
 </defs>
 <g id="figure_1">
  <g id="patch_1">
   <path d="M 0 314.466687 
L 432.246658 314.466687 
L 432.246658 0 
L 0 0 
z
" style="fill:#ffffff;"/>
  </g>
  <g id="axes_1">
   <g id="patch_2">
    <path d="M 52.375 280.910437 
L 409.495 280.910437 
L 409.495 14.798437 
L 52.375 14.798437 
z
" style="fill:#ffffff;"/>
   </g>
   <g id="matplotlib.axis_1">
    <g id="xtick_1">
     <g id="line2d_1">
      <defs>
       <path d="M 0 0 
L 0 3.5 
" id="m91db67efcc" style="stroke:#000000;stroke-width:0.8;"/>
      </defs>
      <g>
       <use style="stroke:#000000;stroke-width:0.8;" x="52.375" xlink:href="#m91db67efcc" y="280.910437"/>
      </g>
     </g>
     <g id="text_1">
      <!-- 0 -->
      <defs>
       <path d="M 31.78125 66.40625 
Q 24.171875 66.40625 20.328125 58.90625 
Q 16.5 51.421875 16.5 36.375 
Q 16.5 21.390625 20.328125 13.890625 
Q 24.171875 6.390625 31.78125 6.390625 
Q 39.453125 6.390625 43.28125 13.890625 
Q 47.125 21.390625 47.125 36.375 
Q 47.125 51.421875 43.28125 58.90625 
Q 39.453125 66.40625 31.78125 66.40625 
z
M 31.78125 74.21875 
Q 44.046875 74.21875 50.515625 64.515625 
Q 56.984375 54.828125 56.984375 36.375 
Q 56.984375 17.96875 50.515625 8.265625 
Q 44.046875 -1.421875 31.78125 -1.421875 
Q 19.53125 -1.421875 13.0625 8.265625 
Q 6.59375 17.96875 6.59375 36.375 
Q 6.59375 54.828125 13.0625 64.515625 
Q 19.53125 74.21875 31.78125 74.21875 
z
" id="DejaVuSans-30"/>
      </defs>
      <g transform="translate(46.0125 303.107312)scale(0.2 -0.2)">
       <use xlink:href="#DejaVuSans-30"/>
      </g>
     </g>
    </g>
    <g id="xtick_2">
     <g id="line2d_2">
      <g>
       <use style="stroke:#000000;stroke-width:0.8;" x="123.091832" xlink:href="#m91db67efcc" y="280.910437"/>
      </g>
     </g>
     <g id="text_2">
      <!-- 100 -->
      <defs>
       <path d="M 12.40625 8.296875 
L 28.515625 8.296875 
L 28.515625 63.921875 
L 10.984375 60.40625 
L 10.984375 69.390625 
L 28.421875 72.90625 
L 38.28125 72.90625 
L 38.28125 8.296875 
L 54.390625 8.296875 
L 54.390625 0 
L 12.40625 0 
z
" id="DejaVuSans-31"/>
      </defs>
      <g transform="translate(104.004332 303.107312)scale(0.2 -0.2)">
       <use xlink:href="#DejaVuSans-31"/>
       <use x="63.623047" xlink:href="#DejaVuSans-30"/>
       <use x="127.246094" xlink:href="#DejaVuSans-30"/>
      </g>
     </g>
    </g>
    <g id="xtick_3">
     <g id="line2d_3">
      <g>
       <use style="stroke:#000000;stroke-width:0.8;" x="193.808663" xlink:href="#m91db67efcc" y="280.910437"/>
      </g>
     </g>
     <g id="text_3">
      <!-- 200 -->
      <defs>
       <path d="M 19.1875 8.296875 
L 53.609375 8.296875 
L 53.609375 0 
L 7.328125 0 
L 7.328125 8.296875 
Q 12.9375 14.109375 22.625 23.890625 
Q 32.328125 33.6875 34.8125 36.53125 
Q 39.546875 41.84375 41.421875 45.53125 
Q 43.3125 49.21875 43.3125 52.78125 
Q 43.3125 58.59375 39.234375 62.25 
Q 35.15625 65.921875 28.609375 65.921875 
Q 23.96875 65.921875 18.8125 64.3125 
Q 13.671875 62.703125 7.8125 59.421875 
L 7.8125 69.390625 
Q 13.765625 71.78125 18.9375 73 
Q 24.125 74.21875 28.421875 74.21875 
Q 39.75 74.21875 46.484375 68.546875 
Q 53.21875 62.890625 53.21875 53.421875 
Q 53.21875 48.921875 51.53125 44.890625 
Q 49.859375 40.875 45.40625 35.40625 
Q 44.1875 33.984375 37.640625 27.21875 
Q 31.109375 20.453125 19.1875 8.296875 
z
" id="DejaVuSans-32"/>
      </defs>
      <g transform="translate(174.721163 303.107312)scale(0.2 -0.2)">
       <use xlink:href="#DejaVuSans-32"/>
       <use x="63.623047" xlink:href="#DejaVuSans-30"/>
       <use x="127.246094" xlink:href="#DejaVuSans-30"/>
      </g>
     </g>
    </g>
    <g id="xtick_4">
     <g id="line2d_4">
      <g>
       <use style="stroke:#000000;stroke-width:0.8;" x="264.525495" xlink:href="#m91db67efcc" y="280.910437"/>
      </g>
     </g>
     <g id="text_4">
      <!-- 300 -->
      <defs>
       <path d="M 40.578125 39.3125 
Q 47.65625 37.796875 51.625 33 
Q 55.609375 28.21875 55.609375 21.1875 
Q 55.609375 10.40625 48.1875 4.484375 
Q 40.765625 -1.421875 27.09375 -1.421875 
Q 22.515625 -1.421875 17.65625 -0.515625 
Q 12.796875 0.390625 7.625 2.203125 
L 7.625 11.71875 
Q 11.71875 9.328125 16.59375 8.109375 
Q 21.484375 6.890625 26.8125 6.890625 
Q 36.078125 6.890625 40.9375 10.546875 
Q 45.796875 14.203125 45.796875 21.1875 
Q 45.796875 27.640625 41.28125 31.265625 
Q 36.765625 34.90625 28.71875 34.90625 
L 20.21875 34.90625 
L 20.21875 43.015625 
L 29.109375 43.015625 
Q 36.375 43.015625 40.234375 45.921875 
Q 44.09375 48.828125 44.09375 54.296875 
Q 44.09375 59.90625 40.109375 62.90625 
Q 36.140625 65.921875 28.71875 65.921875 
Q 24.65625 65.921875 20.015625 65.03125 
Q 15.375 64.15625 9.8125 62.3125 
L 9.8125 71.09375 
Q 15.4375 72.65625 20.34375 73.4375 
Q 25.25 74.21875 29.59375 74.21875 
Q 40.828125 74.21875 47.359375 69.109375 
Q 53.90625 64.015625 53.90625 55.328125 
Q 53.90625 49.265625 50.4375 45.09375 
Q 46.96875 40.921875 40.578125 39.3125 
z
" id="DejaVuSans-33"/>
      </defs>
      <g transform="translate(245.437995 303.107312)scale(0.2 -0.2)">
       <use xlink:href="#DejaVuSans-33"/>
       <use x="63.623047" xlink:href="#DejaVuSans-30"/>
       <use x="127.246094" xlink:href="#DejaVuSans-30"/>
      </g>
     </g>
    </g>
    <g id="xtick_5">
     <g id="line2d_5">
      <g>
       <use style="stroke:#000000;stroke-width:0.8;" x="335.242327" xlink:href="#m91db67efcc" y="280.910437"/>
      </g>
     </g>
     <g id="text_5">
      <!-- 400 -->
      <defs>
       <path d="M 37.796875 64.3125 
L 12.890625 25.390625 
L 37.796875 25.390625 
z
M 35.203125 72.90625 
L 47.609375 72.90625 
L 47.609375 25.390625 
L 58.015625 25.390625 
L 58.015625 17.1875 
L 47.609375 17.1875 
L 47.609375 0 
L 37.796875 0 
L 37.796875 17.1875 
L 4.890625 17.1875 
L 4.890625 26.703125 
z
" id="DejaVuSans-34"/>
      </defs>
      <g transform="translate(316.154827 303.107312)scale(0.2 -0.2)">
       <use xlink:href="#DejaVuSans-34"/>
       <use x="63.623047" xlink:href="#DejaVuSans-30"/>
       <use x="127.246094" xlink:href="#DejaVuSans-30"/>
      </g>
     </g>
    </g>
    <g id="xtick_6">
     <g id="line2d_6">
      <g>
       <use style="stroke:#000000;stroke-width:0.8;" x="405.959158" xlink:href="#m91db67efcc" y="280.910437"/>
      </g>
     </g>
     <g id="text_6">
      <!-- 500 -->
      <defs>
       <path d="M 10.796875 72.90625 
L 49.515625 72.90625 
L 49.515625 64.59375 
L 19.828125 64.59375 
L 19.828125 46.734375 
Q 21.96875 47.46875 24.109375 47.828125 
Q 26.265625 48.1875 28.421875 48.1875 
Q 40.625 48.1875 47.75 41.5 
Q 54.890625 34.8125 54.890625 23.390625 
Q 54.890625 11.625 47.5625 5.09375 
Q 40.234375 -1.421875 26.90625 -1.421875 
Q 22.3125 -1.421875 17.546875 -0.640625 
Q 12.796875 0.140625 7.71875 1.703125 
L 7.71875 11.625 
Q 12.109375 9.234375 16.796875 8.0625 
Q 21.484375 6.890625 26.703125 6.890625 
Q 35.15625 6.890625 40.078125 11.328125 
Q 45.015625 15.765625 45.015625 23.390625 
Q 45.015625 31 40.078125 35.4375 
Q 35.15625 39.890625 26.703125 39.890625 
Q 22.75 39.890625 18.8125 39.015625 
Q 14.890625 38.140625 10.796875 36.28125 
z
" id="DejaVuSans-35"/>
      </defs>
      <g transform="translate(386.871658 303.107312)scale(0.2 -0.2)">
       <use xlink:href="#DejaVuSans-35"/>
       <use x="63.623047" xlink:href="#DejaVuSans-30"/>
       <use x="127.246094" xlink:href="#DejaVuSans-30"/>
      </g>
     </g>
    </g>
   </g>
   <g id="matplotlib.axis_2">
    <g id="ytick_1">
     <g id="line2d_7">
      <defs>
       <path d="M 0 0 
L -3.5 0 
" id="mad070e6eaf" style="stroke:#000000;stroke-width:0.8;"/>
      </defs>
      <g>
       <use style="stroke:#000000;stroke-width:0.8;" x="52.375" xlink:href="#mad070e6eaf" y="275.692555"/>
      </g>
     </g>
     <g id="text_7">
      <!-- 0 -->
      <g transform="translate(32.65 283.290993)scale(0.2 -0.2)">
       <use xlink:href="#DejaVuSans-30"/>
      </g>
     </g>
    </g>
    <g id="ytick_2">
     <g id="line2d_8">
      <g>
       <use style="stroke:#000000;stroke-width:0.8;" x="52.375" xlink:href="#mad070e6eaf" y="223.513732"/>
      </g>
     </g>
     <g id="text_8">
      <!-- 50 -->
      <g transform="translate(19.925 231.112169)scale(0.2 -0.2)">
       <use xlink:href="#DejaVuSans-35"/>
       <use x="63.623047" xlink:href="#DejaVuSans-30"/>
      </g>
     </g>
    </g>
    <g id="ytick_3">
     <g id="line2d_9">
      <g>
       <use style="stroke:#000000;stroke-width:0.8;" x="52.375" xlink:href="#mad070e6eaf" y="171.334908"/>
      </g>
     </g>
     <g id="text_9">
      <!-- 100 -->
      <g transform="translate(7.2 178.933346)scale(0.2 -0.2)">
       <use xlink:href="#DejaVuSans-31"/>
       <use x="63.623047" xlink:href="#DejaVuSans-30"/>
       <use x="127.246094" xlink:href="#DejaVuSans-30"/>
      </g>
     </g>
    </g>
    <g id="ytick_4">
     <g id="line2d_10">
      <g>
       <use style="stroke:#000000;stroke-width:0.8;" x="52.375" xlink:href="#mad070e6eaf" y="119.156085"/>
      </g>
     </g>
     <g id="text_10">
      <!-- 150 -->
      <g transform="translate(7.2 126.754522)scale(0.2 -0.2)">
       <use xlink:href="#DejaVuSans-31"/>
       <use x="63.623047" xlink:href="#DejaVuSans-35"/>
       <use x="127.246094" xlink:href="#DejaVuSans-30"/>
      </g>
     </g>
    </g>
    <g id="ytick_5">
     <g id="line2d_11">
      <g>
       <use style="stroke:#000000;stroke-width:0.8;" x="52.375" xlink:href="#mad070e6eaf" y="66.977261"/>
      </g>
     </g>
     <g id="text_11">
      <!-- 200 -->
      <g transform="translate(7.2 74.575699)scale(0.2 -0.2)">
       <use xlink:href="#DejaVuSans-32"/>
       <use x="63.623047" xlink:href="#DejaVuSans-30"/>
       <use x="127.246094" xlink:href="#DejaVuSans-30"/>
      </g>
     </g>
    </g>
    <g id="ytick_6">
     <g id="line2d_12">
      <g>
       <use style="stroke:#000000;stroke-width:0.8;" x="52.375" xlink:href="#mad070e6eaf" y="14.798437"/>
      </g>
     </g>
     <g id="text_12">
      <!-- 250 -->
      <g transform="translate(7.2 22.396875)scale(0.2 -0.2)">
       <use xlink:href="#DejaVuSans-32"/>
       <use x="63.623047" xlink:href="#DejaVuSans-35"/>
       <use x="127.246094" xlink:href="#DejaVuSans-30"/>
      </g>
     </g>
    </g>
   </g>
   <g id="line2d_13">
    <path clip-path="url(#p8655ca4195)" d="M 52.375 49.946093 
L 59.446683 81.310784 
L 66.518366 103.29894 
L 73.59005 130.671951 
L 80.661733 144.901116 
L 87.733416 147.249163 
L 94.805099 151.64262 
L 101.876782 151.580005 
L 108.948465 155.676043 
L 116.020149 158.337163 
L 123.091832 161.874887 
L 130.163515 165.46479 
L 137.235198 165.939618 
L 144.306881 167.60934 
L 151.378564 168.621609 
L 158.450248 170.129577 
L 165.521931 168.115475 
L 172.593614 167.985028 
L 179.665297 169.889555 
L 186.73698 169.978259 
L 193.808663 169.706929 
L 200.880347 170.927913 
L 207.95203 170.317421 
L 215.023713 168.360715 
L 222.095396 169.294716 
L 229.167079 171.298383 
L 236.238762 171.543623 
L 243.310446 172.195859 
L 250.382129 172.237602 
L 257.453812 172.592418 
L 264.525495 170.567879 
L 271.597178 171.632327 
L 278.668861 171.898439 
L 285.740545 173.599469 
L 292.812228 172.66025 
L 299.883911 172.764608 
L 306.955594 173.025502 
L 314.027277 173.620341 
L 321.09896 173.896888 
L 328.170644 174.423894 
L 335.242327 173.959503 
L 342.31401 173.933413 
L 349.385693 173.688173 
L 356.457376 173.771659 
L 363.529059 173.802966 
L 370.600743 173.823838 
L 377.672426 173.641212 
L 384.744109 173.672519 
L 391.815792 173.635994 
L 398.887475 173.677737 
L 405.959158 173.782095 
" style="fill:none;stroke:#1f77b4;stroke-linecap:square;stroke-width:3;"/>
    <defs>
     <path d="M 0 3 
C 0.795609 3 1.55874 2.683901 2.12132 2.12132 
C 2.683901 1.55874 3 0.795609 3 0 
C 3 -0.795609 2.683901 -1.55874 2.12132 -2.12132 
C 1.55874 -2.683901 0.795609 -3 0 -3 
C -0.795609 -3 -1.55874 -2.683901 -2.12132 -2.12132 
C -2.683901 -1.55874 -3 -0.795609 -3 0 
C -3 0.795609 -2.683901 1.55874 -2.12132 2.12132 
C -1.55874 2.683901 -0.795609 3 0 3 
z
" id="m61780fa552" style="stroke:#1f77b4;"/>
    </defs>
    <g clip-path="url(#p8655ca4195)">
     <use style="fill:#1f77b4;stroke:#1f77b4;" x="52.375" xlink:href="#m61780fa552" y="49.946093"/>
     <use style="fill:#1f77b4;stroke:#1f77b4;" x="59.446683" xlink:href="#m61780fa552" y="81.310784"/>
     <use style="fill:#1f77b4;stroke:#1f77b4;" x="66.518366" xlink:href="#m61780fa552" y="103.29894"/>
     <use style="fill:#1f77b4;stroke:#1f77b4;" x="73.59005" xlink:href="#m61780fa552" y="130.671951"/>
     <use style="fill:#1f77b4;stroke:#1f77b4;" x="80.661733" xlink:href="#m61780fa552" y="144.901116"/>
     <use style="fill:#1f77b4;stroke:#1f77b4;" x="87.733416" xlink:href="#m61780fa552" y="147.249163"/>
     <use style="fill:#1f77b4;stroke:#1f77b4;" x="94.805099" xlink:href="#m61780fa552" y="151.64262"/>
     <use style="fill:#1f77b4;stroke:#1f77b4;" x="101.876782" xlink:href="#m61780fa552" y="151.580005"/>
     <use style="fill:#1f77b4;stroke:#1f77b4;" x="108.948465" xlink:href="#m61780fa552" y="155.676043"/>
     <use style="fill:#1f77b4;stroke:#1f77b4;" x="116.020149" xlink:href="#m61780fa552" y="158.337163"/>
     <use style="fill:#1f77b4;stroke:#1f77b4;" x="123.091832" xlink:href="#m61780fa552" y="161.874887"/>
     <use style="fill:#1f77b4;stroke:#1f77b4;" x="130.163515" xlink:href="#m61780fa552" y="165.46479"/>
     <use style="fill:#1f77b4;stroke:#1f77b4;" x="137.235198" xlink:href="#m61780fa552" y="165.939618"/>
     <use style="fill:#1f77b4;stroke:#1f77b4;" x="144.306881" xlink:href="#m61780fa552" y="167.60934"/>
     <use style="fill:#1f77b4;stroke:#1f77b4;" x="151.378564" xlink:href="#m61780fa552" y="168.621609"/>
     <use style="fill:#1f77b4;stroke:#1f77b4;" x="158.450248" xlink:href="#m61780fa552" y="170.129577"/>
     <use style="fill:#1f77b4;stroke:#1f77b4;" x="165.521931" xlink:href="#m61780fa552" y="168.115475"/>
     <use style="fill:#1f77b4;stroke:#1f77b4;" x="172.593614" xlink:href="#m61780fa552" y="167.985028"/>
     <use style="fill:#1f77b4;stroke:#1f77b4;" x="179.665297" xlink:href="#m61780fa552" y="169.889555"/>
     <use style="fill:#1f77b4;stroke:#1f77b4;" x="186.73698" xlink:href="#m61780fa552" y="169.978259"/>
     <use style="fill:#1f77b4;stroke:#1f77b4;" x="193.808663" xlink:href="#m61780fa552" y="169.706929"/>
     <use style="fill:#1f77b4;stroke:#1f77b4;" x="200.880347" xlink:href="#m61780fa552" y="170.927913"/>
     <use style="fill:#1f77b4;stroke:#1f77b4;" x="207.95203" xlink:href="#m61780fa552" y="170.317421"/>
     <use style="fill:#1f77b4;stroke:#1f77b4;" x="215.023713" xlink:href="#m61780fa552" y="168.360715"/>
     <use style="fill:#1f77b4;stroke:#1f77b4;" x="222.095396" xlink:href="#m61780fa552" y="169.294716"/>
     <use style="fill:#1f77b4;stroke:#1f77b4;" x="229.167079" xlink:href="#m61780fa552" y="171.298383"/>
     <use style="fill:#1f77b4;stroke:#1f77b4;" x="236.238762" xlink:href="#m61780fa552" y="171.543623"/>
     <use style="fill:#1f77b4;stroke:#1f77b4;" x="243.310446" xlink:href="#m61780fa552" y="172.195859"/>
     <use style="fill:#1f77b4;stroke:#1f77b4;" x="250.382129" xlink:href="#m61780fa552" y="172.237602"/>
     <use style="fill:#1f77b4;stroke:#1f77b4;" x="257.453812" xlink:href="#m61780fa552" y="172.592418"/>
     <use style="fill:#1f77b4;stroke:#1f77b4;" x="264.525495" xlink:href="#m61780fa552" y="170.567879"/>
     <use style="fill:#1f77b4;stroke:#1f77b4;" x="271.597178" xlink:href="#m61780fa552" y="171.632327"/>
     <use style="fill:#1f77b4;stroke:#1f77b4;" x="278.668861" xlink:href="#m61780fa552" y="171.898439"/>
     <use style="fill:#1f77b4;stroke:#1f77b4;" x="285.740545" xlink:href="#m61780fa552" y="173.599469"/>
     <use style="fill:#1f77b4;stroke:#1f77b4;" x="292.812228" xlink:href="#m61780fa552" y="172.66025"/>
     <use style="fill:#1f77b4;stroke:#1f77b4;" x="299.883911" xlink:href="#m61780fa552" y="172.764608"/>
     <use style="fill:#1f77b4;stroke:#1f77b4;" x="306.955594" xlink:href="#m61780fa552" y="173.025502"/>
     <use style="fill:#1f77b4;stroke:#1f77b4;" x="314.027277" xlink:href="#m61780fa552" y="173.620341"/>
     <use style="fill:#1f77b4;stroke:#1f77b4;" x="321.09896" xlink:href="#m61780fa552" y="173.896888"/>
     <use style="fill:#1f77b4;stroke:#1f77b4;" x="328.170644" xlink:href="#m61780fa552" y="174.423894"/>
     <use style="fill:#1f77b4;stroke:#1f77b4;" x="335.242327" xlink:href="#m61780fa552" y="173.959503"/>
     <use style="fill:#1f77b4;stroke:#1f77b4;" x="342.31401" xlink:href="#m61780fa552" y="173.933413"/>
     <use style="fill:#1f77b4;stroke:#1f77b4;" x="349.385693" xlink:href="#m61780fa552" y="173.688173"/>
     <use style="fill:#1f77b4;stroke:#1f77b4;" x="356.457376" xlink:href="#m61780fa552" y="173.771659"/>
     <use style="fill:#1f77b4;stroke:#1f77b4;" x="363.529059" xlink:href="#m61780fa552" y="173.802966"/>
     <use style="fill:#1f77b4;stroke:#1f77b4;" x="370.600743" xlink:href="#m61780fa552" y="173.823838"/>
     <use style="fill:#1f77b4;stroke:#1f77b4;" x="377.672426" xlink:href="#m61780fa552" y="173.641212"/>
     <use style="fill:#1f77b4;stroke:#1f77b4;" x="384.744109" xlink:href="#m61780fa552" y="173.672519"/>
     <use style="fill:#1f77b4;stroke:#1f77b4;" x="391.815792" xlink:href="#m61780fa552" y="173.635994"/>
     <use style="fill:#1f77b4;stroke:#1f77b4;" x="398.887475" xlink:href="#m61780fa552" y="173.677737"/>
     <use style="fill:#1f77b4;stroke:#1f77b4;" x="405.959158" xlink:href="#m61780fa552" y="173.782095"/>
    </g>
   </g>
   <g id="line2d_14">
    <path clip-path="url(#p8655ca4195)" d="M 52.375 54.960478 
L 59.446683 89.273272 
L 66.518366 123.351262 
L 73.59005 148.084024 
L 80.661733 180.147911 
L 87.733416 184.494407 
L 94.805099 188.230411 
L 101.876782 192.639522 
L 108.948465 195.869391 
L 116.020149 195.545882 
L 123.091832 195.431089 
L 130.163515 203.398795 
L 137.235198 204.463243 
L 144.306881 204.776316 
L 151.378564 205.392026 
L 158.450248 204.96416 
L 165.521931 205.042428 
L 172.593614 204.671958 
L 179.665297 207.79747 
L 186.73698 206.341681 
L 193.808663 207.056531 
L 200.880347 206.988698 
L 207.95203 209.649818 
L 215.023713 208.334912 
L 222.095396 209.561114 
L 229.167079 210.907328 
L 236.238762 211.016903 
L 243.310446 212.514436 
L 250.382129 213.385822 
L 257.453812 215.540807 
L 264.525495 215.43645 
L 271.597178 214.653767 
L 278.668861 215.446885 
L 285.740545 218.26976 
L 292.812228 216.208696 
L 299.883911 218.040173 
L 306.955594 218.144531 
L 314.027277 218.175838 
L 321.09896 218.254106 
L 328.170644 218.228017 
L 335.242327 218.196709 
L 342.31401 218.034955 
L 349.385693 218.07148 
L 356.457376 217.972341 
L 363.529059 218.238453 
L 370.600743 218.238453 
L 377.672426 219.287247 
L 384.744109 219.50118 
L 391.815792 219.69946 
L 398.887475 219.647281 
L 405.959158 219.595102 
" style="fill:none;stroke:#ff7f0e;stroke-linecap:square;stroke-width:3;"/>
    <defs>
     <path d="M 0 3 
C 0.795609 3 1.55874 2.683901 2.12132 2.12132 
C 2.683901 1.55874 3 0.795609 3 0 
C 3 -0.795609 2.683901 -1.55874 2.12132 -2.12132 
C 1.55874 -2.683901 0.795609 -3 0 -3 
C -0.795609 -3 -1.55874 -2.683901 -2.12132 -2.12132 
C -2.683901 -1.55874 -3 -0.795609 -3 0 
C -3 0.795609 -2.683901 1.55874 -2.12132 2.12132 
C -1.55874 2.683901 -0.795609 3 0 3 
z
" id="m04f5f0fafa" style="stroke:#ff7f0e;"/>
    </defs>
    <g clip-path="url(#p8655ca4195)">
     <use style="fill:#ff7f0e;stroke:#ff7f0e;" x="52.375" xlink:href="#m04f5f0fafa" y="54.960478"/>
     <use style="fill:#ff7f0e;stroke:#ff7f0e;" x="59.446683" xlink:href="#m04f5f0fafa" y="89.273272"/>
     <use style="fill:#ff7f0e;stroke:#ff7f0e;" x="66.518366" xlink:href="#m04f5f0fafa" y="123.351262"/>
     <use style="fill:#ff7f0e;stroke:#ff7f0e;" x="73.59005" xlink:href="#m04f5f0fafa" y="148.084024"/>
     <use style="fill:#ff7f0e;stroke:#ff7f0e;" x="80.661733" xlink:href="#m04f5f0fafa" y="180.147911"/>
     <use style="fill:#ff7f0e;stroke:#ff7f0e;" x="87.733416" xlink:href="#m04f5f0fafa" y="184.494407"/>
     <use style="fill:#ff7f0e;stroke:#ff7f0e;" x="94.805099" xlink:href="#m04f5f0fafa" y="188.230411"/>
     <use style="fill:#ff7f0e;stroke:#ff7f0e;" x="101.876782" xlink:href="#m04f5f0fafa" y="192.639522"/>
     <use style="fill:#ff7f0e;stroke:#ff7f0e;" x="108.948465" xlink:href="#m04f5f0fafa" y="195.869391"/>
     <use style="fill:#ff7f0e;stroke:#ff7f0e;" x="116.020149" xlink:href="#m04f5f0fafa" y="195.545882"/>
     <use style="fill:#ff7f0e;stroke:#ff7f0e;" x="123.091832" xlink:href="#m04f5f0fafa" y="195.431089"/>
     <use style="fill:#ff7f0e;stroke:#ff7f0e;" x="130.163515" xlink:href="#m04f5f0fafa" y="203.398795"/>
     <use style="fill:#ff7f0e;stroke:#ff7f0e;" x="137.235198" xlink:href="#m04f5f0fafa" y="204.463243"/>
     <use style="fill:#ff7f0e;stroke:#ff7f0e;" x="144.306881" xlink:href="#m04f5f0fafa" y="204.776316"/>
     <use style="fill:#ff7f0e;stroke:#ff7f0e;" x="151.378564" xlink:href="#m04f5f0fafa" y="205.392026"/>
     <use style="fill:#ff7f0e;stroke:#ff7f0e;" x="158.450248" xlink:href="#m04f5f0fafa" y="204.96416"/>
     <use style="fill:#ff7f0e;stroke:#ff7f0e;" x="165.521931" xlink:href="#m04f5f0fafa" y="205.042428"/>
     <use style="fill:#ff7f0e;stroke:#ff7f0e;" x="172.593614" xlink:href="#m04f5f0fafa" y="204.671958"/>
     <use style="fill:#ff7f0e;stroke:#ff7f0e;" x="179.665297" xlink:href="#m04f5f0fafa" y="207.79747"/>
     <use style="fill:#ff7f0e;stroke:#ff7f0e;" x="186.73698" xlink:href="#m04f5f0fafa" y="206.341681"/>
     <use style="fill:#ff7f0e;stroke:#ff7f0e;" x="193.808663" xlink:href="#m04f5f0fafa" y="207.056531"/>
     <use style="fill:#ff7f0e;stroke:#ff7f0e;" x="200.880347" xlink:href="#m04f5f0fafa" y="206.988698"/>
     <use style="fill:#ff7f0e;stroke:#ff7f0e;" x="207.95203" xlink:href="#m04f5f0fafa" y="209.649818"/>
     <use style="fill:#ff7f0e;stroke:#ff7f0e;" x="215.023713" xlink:href="#m04f5f0fafa" y="208.334912"/>
     <use style="fill:#ff7f0e;stroke:#ff7f0e;" x="222.095396" xlink:href="#m04f5f0fafa" y="209.561114"/>
     <use style="fill:#ff7f0e;stroke:#ff7f0e;" x="229.167079" xlink:href="#m04f5f0fafa" y="210.907328"/>
     <use style="fill:#ff7f0e;stroke:#ff7f0e;" x="236.238762" xlink:href="#m04f5f0fafa" y="211.016903"/>
     <use style="fill:#ff7f0e;stroke:#ff7f0e;" x="243.310446" xlink:href="#m04f5f0fafa" y="212.514436"/>
     <use style="fill:#ff7f0e;stroke:#ff7f0e;" x="250.382129" xlink:href="#m04f5f0fafa" y="213.385822"/>
     <use style="fill:#ff7f0e;stroke:#ff7f0e;" x="257.453812" xlink:href="#m04f5f0fafa" y="215.540807"/>
     <use style="fill:#ff7f0e;stroke:#ff7f0e;" x="264.525495" xlink:href="#m04f5f0fafa" y="215.43645"/>
     <use style="fill:#ff7f0e;stroke:#ff7f0e;" x="271.597178" xlink:href="#m04f5f0fafa" y="214.653767"/>
     <use style="fill:#ff7f0e;stroke:#ff7f0e;" x="278.668861" xlink:href="#m04f5f0fafa" y="215.446885"/>
     <use style="fill:#ff7f0e;stroke:#ff7f0e;" x="285.740545" xlink:href="#m04f5f0fafa" y="218.26976"/>
     <use style="fill:#ff7f0e;stroke:#ff7f0e;" x="292.812228" xlink:href="#m04f5f0fafa" y="216.208696"/>
     <use style="fill:#ff7f0e;stroke:#ff7f0e;" x="299.883911" xlink:href="#m04f5f0fafa" y="218.040173"/>
     <use style="fill:#ff7f0e;stroke:#ff7f0e;" x="306.955594" xlink:href="#m04f5f0fafa" y="218.144531"/>
     <use style="fill:#ff7f0e;stroke:#ff7f0e;" x="314.027277" xlink:href="#m04f5f0fafa" y="218.175838"/>
     <use style="fill:#ff7f0e;stroke:#ff7f0e;" x="321.09896" xlink:href="#m04f5f0fafa" y="218.254106"/>
     <use style="fill:#ff7f0e;stroke:#ff7f0e;" x="328.170644" xlink:href="#m04f5f0fafa" y="218.228017"/>
     <use style="fill:#ff7f0e;stroke:#ff7f0e;" x="335.242327" xlink:href="#m04f5f0fafa" y="218.196709"/>
     <use style="fill:#ff7f0e;stroke:#ff7f0e;" x="342.31401" xlink:href="#m04f5f0fafa" y="218.034955"/>
     <use style="fill:#ff7f0e;stroke:#ff7f0e;" x="349.385693" xlink:href="#m04f5f0fafa" y="218.07148"/>
     <use style="fill:#ff7f0e;stroke:#ff7f0e;" x="356.457376" xlink:href="#m04f5f0fafa" y="217.972341"/>
     <use style="fill:#ff7f0e;stroke:#ff7f0e;" x="363.529059" xlink:href="#m04f5f0fafa" y="218.238453"/>
     <use style="fill:#ff7f0e;stroke:#ff7f0e;" x="370.600743" xlink:href="#m04f5f0fafa" y="218.238453"/>
     <use style="fill:#ff7f0e;stroke:#ff7f0e;" x="377.672426" xlink:href="#m04f5f0fafa" y="219.287247"/>
     <use style="fill:#ff7f0e;stroke:#ff7f0e;" x="384.744109" xlink:href="#m04f5f0fafa" y="219.50118"/>
     <use style="fill:#ff7f0e;stroke:#ff7f0e;" x="391.815792" xlink:href="#m04f5f0fafa" y="219.69946"/>
     <use style="fill:#ff7f0e;stroke:#ff7f0e;" x="398.887475" xlink:href="#m04f5f0fafa" y="219.647281"/>
     <use style="fill:#ff7f0e;stroke:#ff7f0e;" x="405.959158" xlink:href="#m04f5f0fafa" y="219.595102"/>
    </g>
   </g>
   <g id="line2d_15">
    <path clip-path="url(#p8655ca4195)" d="M 52.375 46.424022 
L 59.446683 77.173003 
L 66.518366 124.5879 
L 73.59005 151.496519 
L 80.661733 174.063861 
L 87.733416 178.853877 
L 94.805099 185.746699 
L 101.876782 188.162579 
L 108.948465 193.171746 
L 116.020149 198.613997 
L 123.091832 201.24381 
L 130.163515 198.869673 
L 137.235198 201.295989 
L 144.306881 203.294437 
L 151.378564 204.557165 
L 158.450248 206.106876 
L 165.521931 206.112094 
L 172.593614 207.061749 
L 179.665297 207.849649 
L 186.73698 207.672241 
L 193.808663 208.940186 
L 200.880347 210.244657 
L 207.95203 211.549127 
L 215.023713 211.136915 
L 222.095396 212.644883 
L 229.167079 215.311221 
L 236.238762 214.481577 
L 243.310446 215.003365 
L 250.382129 215.525154 
L 257.453812 216.281747 
L 264.525495 216.584384 
L 271.597178 216.845278 
L 278.668861 216.553077 
L 285.740545 216.709613 
L 292.812228 217.346195 
L 299.883911 217.476642 
L 306.955594 217.648832 
L 314.027277 217.252273 
L 321.09896 217.507949 
L 328.170644 217.502731 
L 335.242327 218.144531 
L 342.31401 218.410643 
L 349.385693 218.817637 
L 356.457376 218.864598 
L 363.529059 220.38822 
L 370.600743 220.456053 
L 377.672426 220.638678 
L 384.744109 220.852612 
L 391.815792 220.748254 
L 398.887475 220.701293 
L 405.959158 220.633461 
" style="fill:none;stroke:#2ca02c;stroke-linecap:square;stroke-width:3;"/>
    <defs>
     <path d="M 0 3 
C 0.795609 3 1.55874 2.683901 2.12132 2.12132 
C 2.683901 1.55874 3 0.795609 3 0 
C 3 -0.795609 2.683901 -1.55874 2.12132 -2.12132 
C 1.55874 -2.683901 0.795609 -3 0 -3 
C -0.795609 -3 -1.55874 -2.683901 -2.12132 -2.12132 
C -2.683901 -1.55874 -3 -0.795609 -3 0 
C -3 0.795609 -2.683901 1.55874 -2.12132 2.12132 
C -1.55874 2.683901 -0.795609 3 0 3 
z
" id="m6d01cb4de3" style="stroke:#2ca02c;"/>
    </defs>
    <g clip-path="url(#p8655ca4195)">
     <use style="fill:#2ca02c;stroke:#2ca02c;" x="52.375" xlink:href="#m6d01cb4de3" y="46.424022"/>
     <use style="fill:#2ca02c;stroke:#2ca02c;" x="59.446683" xlink:href="#m6d01cb4de3" y="77.173003"/>
     <use style="fill:#2ca02c;stroke:#2ca02c;" x="66.518366" xlink:href="#m6d01cb4de3" y="124.5879"/>
     <use style="fill:#2ca02c;stroke:#2ca02c;" x="73.59005" xlink:href="#m6d01cb4de3" y="151.496519"/>
     <use style="fill:#2ca02c;stroke:#2ca02c;" x="80.661733" xlink:href="#m6d01cb4de3" y="174.063861"/>
     <use style="fill:#2ca02c;stroke:#2ca02c;" x="87.733416" xlink:href="#m6d01cb4de3" y="178.853877"/>
     <use style="fill:#2ca02c;stroke:#2ca02c;" x="94.805099" xlink:href="#m6d01cb4de3" y="185.746699"/>
     <use style="fill:#2ca02c;stroke:#2ca02c;" x="101.876782" xlink:href="#m6d01cb4de3" y="188.162579"/>
     <use style="fill:#2ca02c;stroke:#2ca02c;" x="108.948465" xlink:href="#m6d01cb4de3" y="193.171746"/>
     <use style="fill:#2ca02c;stroke:#2ca02c;" x="116.020149" xlink:href="#m6d01cb4de3" y="198.613997"/>
     <use style="fill:#2ca02c;stroke:#2ca02c;" x="123.091832" xlink:href="#m6d01cb4de3" y="201.24381"/>
     <use style="fill:#2ca02c;stroke:#2ca02c;" x="130.163515" xlink:href="#m6d01cb4de3" y="198.869673"/>
     <use style="fill:#2ca02c;stroke:#2ca02c;" x="137.235198" xlink:href="#m6d01cb4de3" y="201.295989"/>
     <use style="fill:#2ca02c;stroke:#2ca02c;" x="144.306881" xlink:href="#m6d01cb4de3" y="203.294437"/>
     <use style="fill:#2ca02c;stroke:#2ca02c;" x="151.378564" xlink:href="#m6d01cb4de3" y="204.557165"/>
     <use style="fill:#2ca02c;stroke:#2ca02c;" x="158.450248" xlink:href="#m6d01cb4de3" y="206.106876"/>
     <use style="fill:#2ca02c;stroke:#2ca02c;" x="165.521931" xlink:href="#m6d01cb4de3" y="206.112094"/>
     <use style="fill:#2ca02c;stroke:#2ca02c;" x="172.593614" xlink:href="#m6d01cb4de3" y="207.061749"/>
     <use style="fill:#2ca02c;stroke:#2ca02c;" x="179.665297" xlink:href="#m6d01cb4de3" y="207.849649"/>
     <use style="fill:#2ca02c;stroke:#2ca02c;" x="186.73698" xlink:href="#m6d01cb4de3" y="207.672241"/>
     <use style="fill:#2ca02c;stroke:#2ca02c;" x="193.808663" xlink:href="#m6d01cb4de3" y="208.940186"/>
     <use style="fill:#2ca02c;stroke:#2ca02c;" x="200.880347" xlink:href="#m6d01cb4de3" y="210.244657"/>
     <use style="fill:#2ca02c;stroke:#2ca02c;" x="207.95203" xlink:href="#m6d01cb4de3" y="211.549127"/>
     <use style="fill:#2ca02c;stroke:#2ca02c;" x="215.023713" xlink:href="#m6d01cb4de3" y="211.136915"/>
     <use style="fill:#2ca02c;stroke:#2ca02c;" x="222.095396" xlink:href="#m6d01cb4de3" y="212.644883"/>
     <use style="fill:#2ca02c;stroke:#2ca02c;" x="229.167079" xlink:href="#m6d01cb4de3" y="215.311221"/>
     <use style="fill:#2ca02c;stroke:#2ca02c;" x="236.238762" xlink:href="#m6d01cb4de3" y="214.481577"/>
     <use style="fill:#2ca02c;stroke:#2ca02c;" x="243.310446" xlink:href="#m6d01cb4de3" y="215.003365"/>
     <use style="fill:#2ca02c;stroke:#2ca02c;" x="250.382129" xlink:href="#m6d01cb4de3" y="215.525154"/>
     <use style="fill:#2ca02c;stroke:#2ca02c;" x="257.453812" xlink:href="#m6d01cb4de3" y="216.281747"/>
     <use style="fill:#2ca02c;stroke:#2ca02c;" x="264.525495" xlink:href="#m6d01cb4de3" y="216.584384"/>
     <use style="fill:#2ca02c;stroke:#2ca02c;" x="271.597178" xlink:href="#m6d01cb4de3" y="216.845278"/>
     <use style="fill:#2ca02c;stroke:#2ca02c;" x="278.668861" xlink:href="#m6d01cb4de3" y="216.553077"/>
     <use style="fill:#2ca02c;stroke:#2ca02c;" x="285.740545" xlink:href="#m6d01cb4de3" y="216.709613"/>
     <use style="fill:#2ca02c;stroke:#2ca02c;" x="292.812228" xlink:href="#m6d01cb4de3" y="217.346195"/>
     <use style="fill:#2ca02c;stroke:#2ca02c;" x="299.883911" xlink:href="#m6d01cb4de3" y="217.476642"/>
     <use style="fill:#2ca02c;stroke:#2ca02c;" x="306.955594" xlink:href="#m6d01cb4de3" y="217.648832"/>
     <use style="fill:#2ca02c;stroke:#2ca02c;" x="314.027277" xlink:href="#m6d01cb4de3" y="217.252273"/>
     <use style="fill:#2ca02c;stroke:#2ca02c;" x="321.09896" xlink:href="#m6d01cb4de3" y="217.507949"/>
     <use style="fill:#2ca02c;stroke:#2ca02c;" x="328.170644" xlink:href="#m6d01cb4de3" y="217.502731"/>
     <use style="fill:#2ca02c;stroke:#2ca02c;" x="335.242327" xlink:href="#m6d01cb4de3" y="218.144531"/>
     <use style="fill:#2ca02c;stroke:#2ca02c;" x="342.31401" xlink:href="#m6d01cb4de3" y="218.410643"/>
     <use style="fill:#2ca02c;stroke:#2ca02c;" x="349.385693" xlink:href="#m6d01cb4de3" y="218.817637"/>
     <use style="fill:#2ca02c;stroke:#2ca02c;" x="356.457376" xlink:href="#m6d01cb4de3" y="218.864598"/>
     <use style="fill:#2ca02c;stroke:#2ca02c;" x="363.529059" xlink:href="#m6d01cb4de3" y="220.38822"/>
     <use style="fill:#2ca02c;stroke:#2ca02c;" x="370.600743" xlink:href="#m6d01cb4de3" y="220.456053"/>
     <use style="fill:#2ca02c;stroke:#2ca02c;" x="377.672426" xlink:href="#m6d01cb4de3" y="220.638678"/>
     <use style="fill:#2ca02c;stroke:#2ca02c;" x="384.744109" xlink:href="#m6d01cb4de3" y="220.852612"/>
     <use style="fill:#2ca02c;stroke:#2ca02c;" x="391.815792" xlink:href="#m6d01cb4de3" y="220.748254"/>
     <use style="fill:#2ca02c;stroke:#2ca02c;" x="398.887475" xlink:href="#m6d01cb4de3" y="220.701293"/>
     <use style="fill:#2ca02c;stroke:#2ca02c;" x="405.959158" xlink:href="#m6d01cb4de3" y="220.633461"/>
    </g>
   </g>
   <g id="line2d_16">
    <path clip-path="url(#p8655ca4195)" d="M 52.375 46.032681 
L 59.446683 52.722006 
L 66.518366 94.016327 
L 73.59005 135.164548 
L 80.661733 148.798874 
L 87.733416 158.029308 
L 94.805099 166.758825 
L 101.876782 171.747121 
L 108.948465 172.441099 
L 116.020149 173.338575 
L 123.091832 173.390754 
L 130.163515 173.380318 
L 137.235198 173.176821 
L 144.306881 173.985592 
L 151.378564 175.404856 
L 158.450248 175.681404 
L 165.521931 176.333639 
L 172.593614 175.603136 
L 179.665297 176.161449 
L 186.73698 176.954567 
L 193.808663 178.15468 
L 200.880347 178.582547 
L 207.95203 179.219128 
L 215.023713 178.394703 
L 222.095396 179.422626 
L 229.167079 179.537419 
L 236.238762 179.020849 
L 243.310446 179.281743 
L 250.382129 180.074861 
L 257.453812 180.053989 
L 264.525495 180.257487 
L 271.597178 180.320101 
L 278.668861 181.97417 
L 285.740545 182.042003 
L 292.812228 182.088964 
L 299.883911 182.062874 
L 306.955594 182.198539 
L 314.027277 182.464651 
L 321.09896 182.506394 
L 328.170644 182.626405 
L 335.242327 182.678584 
L 342.31401 183.096015 
L 349.385693 183.523881 
L 356.457376 183.753468 
L 363.529059 183.716943 
L 370.600743 183.831736 
L 377.672426 184.249167 
L 384.744109 184.21786 
L 391.815792 184.353525 
L 398.887475 184.410921 
L 405.959158 184.196988 
" style="fill:none;stroke:#d62728;stroke-linecap:square;stroke-width:3;"/>
    <defs>
     <path d="M 0 3 
C 0.795609 3 1.55874 2.683901 2.12132 2.12132 
C 2.683901 1.55874 3 0.795609 3 0 
C 3 -0.795609 2.683901 -1.55874 2.12132 -2.12132 
C 1.55874 -2.683901 0.795609 -3 0 -3 
C -0.795609 -3 -1.55874 -2.683901 -2.12132 -2.12132 
C -2.683901 -1.55874 -3 -0.795609 -3 0 
C -3 0.795609 -2.683901 1.55874 -2.12132 2.12132 
C -1.55874 2.683901 -0.795609 3 0 3 
z
" id="m7b31d95550" style="stroke:#d62728;"/>
    </defs>
    <g clip-path="url(#p8655ca4195)">
     <use style="fill:#d62728;stroke:#d62728;" x="52.375" xlink:href="#m7b31d95550" y="46.032681"/>
     <use style="fill:#d62728;stroke:#d62728;" x="59.446683" xlink:href="#m7b31d95550" y="52.722006"/>
     <use style="fill:#d62728;stroke:#d62728;" x="66.518366" xlink:href="#m7b31d95550" y="94.016327"/>
     <use style="fill:#d62728;stroke:#d62728;" x="73.59005" xlink:href="#m7b31d95550" y="135.164548"/>
     <use style="fill:#d62728;stroke:#d62728;" x="80.661733" xlink:href="#m7b31d95550" y="148.798874"/>
     <use style="fill:#d62728;stroke:#d62728;" x="87.733416" xlink:href="#m7b31d95550" y="158.029308"/>
     <use style="fill:#d62728;stroke:#d62728;" x="94.805099" xlink:href="#m7b31d95550" y="166.758825"/>
     <use style="fill:#d62728;stroke:#d62728;" x="101.876782" xlink:href="#m7b31d95550" y="171.747121"/>
     <use style="fill:#d62728;stroke:#d62728;" x="108.948465" xlink:href="#m7b31d95550" y="172.441099"/>
     <use style="fill:#d62728;stroke:#d62728;" x="116.020149" xlink:href="#m7b31d95550" y="173.338575"/>
     <use style="fill:#d62728;stroke:#d62728;" x="123.091832" xlink:href="#m7b31d95550" y="173.390754"/>
     <use style="fill:#d62728;stroke:#d62728;" x="130.163515" xlink:href="#m7b31d95550" y="173.380318"/>
     <use style="fill:#d62728;stroke:#d62728;" x="137.235198" xlink:href="#m7b31d95550" y="173.176821"/>
     <use style="fill:#d62728;stroke:#d62728;" x="144.306881" xlink:href="#m7b31d95550" y="173.985592"/>
     <use style="fill:#d62728;stroke:#d62728;" x="151.378564" xlink:href="#m7b31d95550" y="175.404856"/>
     <use style="fill:#d62728;stroke:#d62728;" x="158.450248" xlink:href="#m7b31d95550" y="175.681404"/>
     <use style="fill:#d62728;stroke:#d62728;" x="165.521931" xlink:href="#m7b31d95550" y="176.333639"/>
     <use style="fill:#d62728;stroke:#d62728;" x="172.593614" xlink:href="#m7b31d95550" y="175.603136"/>
     <use style="fill:#d62728;stroke:#d62728;" x="179.665297" xlink:href="#m7b31d95550" y="176.161449"/>
     <use style="fill:#d62728;stroke:#d62728;" x="186.73698" xlink:href="#m7b31d95550" y="176.954567"/>
     <use style="fill:#d62728;stroke:#d62728;" x="193.808663" xlink:href="#m7b31d95550" y="178.15468"/>
     <use style="fill:#d62728;stroke:#d62728;" x="200.880347" xlink:href="#m7b31d95550" y="178.582547"/>
     <use style="fill:#d62728;stroke:#d62728;" x="207.95203" xlink:href="#m7b31d95550" y="179.219128"/>
     <use style="fill:#d62728;stroke:#d62728;" x="215.023713" xlink:href="#m7b31d95550" y="178.394703"/>
     <use style="fill:#d62728;stroke:#d62728;" x="222.095396" xlink:href="#m7b31d95550" y="179.422626"/>
     <use style="fill:#d62728;stroke:#d62728;" x="229.167079" xlink:href="#m7b31d95550" y="179.537419"/>
     <use style="fill:#d62728;stroke:#d62728;" x="236.238762" xlink:href="#m7b31d95550" y="179.020849"/>
     <use style="fill:#d62728;stroke:#d62728;" x="243.310446" xlink:href="#m7b31d95550" y="179.281743"/>
     <use style="fill:#d62728;stroke:#d62728;" x="250.382129" xlink:href="#m7b31d95550" y="180.074861"/>
     <use style="fill:#d62728;stroke:#d62728;" x="257.453812" xlink:href="#m7b31d95550" y="180.053989"/>
     <use style="fill:#d62728;stroke:#d62728;" x="264.525495" xlink:href="#m7b31d95550" y="180.257487"/>
     <use style="fill:#d62728;stroke:#d62728;" x="271.597178" xlink:href="#m7b31d95550" y="180.320101"/>
     <use style="fill:#d62728;stroke:#d62728;" x="278.668861" xlink:href="#m7b31d95550" y="181.97417"/>
     <use style="fill:#d62728;stroke:#d62728;" x="285.740545" xlink:href="#m7b31d95550" y="182.042003"/>
     <use style="fill:#d62728;stroke:#d62728;" x="292.812228" xlink:href="#m7b31d95550" y="182.088964"/>
     <use style="fill:#d62728;stroke:#d62728;" x="299.883911" xlink:href="#m7b31d95550" y="182.062874"/>
     <use style="fill:#d62728;stroke:#d62728;" x="306.955594" xlink:href="#m7b31d95550" y="182.198539"/>
     <use style="fill:#d62728;stroke:#d62728;" x="314.027277" xlink:href="#m7b31d95550" y="182.464651"/>
     <use style="fill:#d62728;stroke:#d62728;" x="321.09896" xlink:href="#m7b31d95550" y="182.506394"/>
     <use style="fill:#d62728;stroke:#d62728;" x="328.170644" xlink:href="#m7b31d95550" y="182.626405"/>
     <use style="fill:#d62728;stroke:#d62728;" x="335.242327" xlink:href="#m7b31d95550" y="182.678584"/>
     <use style="fill:#d62728;stroke:#d62728;" x="342.31401" xlink:href="#m7b31d95550" y="183.096015"/>
     <use style="fill:#d62728;stroke:#d62728;" x="349.385693" xlink:href="#m7b31d95550" y="183.523881"/>
     <use style="fill:#d62728;stroke:#d62728;" x="356.457376" xlink:href="#m7b31d95550" y="183.753468"/>
     <use style="fill:#d62728;stroke:#d62728;" x="363.529059" xlink:href="#m7b31d95550" y="183.716943"/>
     <use style="fill:#d62728;stroke:#d62728;" x="370.600743" xlink:href="#m7b31d95550" y="183.831736"/>
     <use style="fill:#d62728;stroke:#d62728;" x="377.672426" xlink:href="#m7b31d95550" y="184.249167"/>
     <use style="fill:#d62728;stroke:#d62728;" x="384.744109" xlink:href="#m7b31d95550" y="184.21786"/>
     <use style="fill:#d62728;stroke:#d62728;" x="391.815792" xlink:href="#m7b31d95550" y="184.353525"/>
     <use style="fill:#d62728;stroke:#d62728;" x="398.887475" xlink:href="#m7b31d95550" y="184.410921"/>
     <use style="fill:#d62728;stroke:#d62728;" x="405.959158" xlink:href="#m7b31d95550" y="184.196988"/>
    </g>
   </g>
   <g id="patch_3">
    <path d="M 52.375 280.910437 
L 52.375 14.798437 
" style="fill:none;stroke:#000000;stroke-linecap:square;stroke-linejoin:miter;stroke-width:0.8;"/>
   </g>
   <g id="patch_4">
    <path d="M 409.495 280.910437 
L 409.495 14.798437 
" style="fill:none;stroke:#000000;stroke-linecap:square;stroke-linejoin:miter;stroke-width:0.8;"/>
   </g>
   <g id="patch_5">
    <path d="M 52.375 280.910437 
L 409.495 280.910437 
" style="fill:none;stroke:#000000;stroke-linecap:square;stroke-linejoin:miter;stroke-width:0.8;"/>
   </g>
   <g id="patch_6">
    <path d="M 52.375 14.798437 
L 409.495 14.798437 
" style="fill:none;stroke:#000000;stroke-linecap:square;stroke-linejoin:miter;stroke-width:0.8;"/>
   </g>
   <g id="legend_1">
    <g id="patch_7">
     <path d="M 254.662188 114.867187 
L 398.995 114.867187 
Q 401.995 114.867187 401.995 111.867187 
L 401.995 25.298437 
Q 401.995 22.298437 398.995 22.298437 
L 254.662188 22.298437 
Q 251.662188 22.298437 251.662188 25.298437 
L 251.662188 111.867187 
Q 251.662188 114.867187 254.662188 114.867187 
z
" style="fill:#ffffff;opacity:0.8;stroke:#cccccc;stroke-linejoin:miter;"/>
    </g>
    <g id="line2d_17">
     <path d="M 257.662188 34.446094 
L 287.662188 34.446094 
" style="fill:none;stroke:#1f77b4;stroke-linecap:square;stroke-width:3;"/>
    </g>
    <g id="line2d_18">
     <g>
      <use style="fill:#1f77b4;stroke:#1f77b4;" x="272.662188" xlink:href="#m61780fa552" y="34.446094"/>
     </g>
    </g>
    <g id="text_13">
     <!-- dist(0.6, 1.0) -->
     <defs>
      <path d="M 45.40625 46.390625 
L 45.40625 75.984375 
L 54.390625 75.984375 
L 54.390625 0 
L 45.40625 0 
L 45.40625 8.203125 
Q 42.578125 3.328125 38.25 0.953125 
Q 33.9375 -1.421875 27.875 -1.421875 
Q 17.96875 -1.421875 11.734375 6.484375 
Q 5.515625 14.40625 5.515625 27.296875 
Q 5.515625 40.1875 11.734375 48.09375 
Q 17.96875 56 27.875 56 
Q 33.9375 56 38.25 53.625 
Q 42.578125 51.265625 45.40625 46.390625 
z
M 14.796875 27.296875 
Q 14.796875 17.390625 18.875 11.75 
Q 22.953125 6.109375 30.078125 6.109375 
Q 37.203125 6.109375 41.296875 11.75 
Q 45.40625 17.390625 45.40625 27.296875 
Q 45.40625 37.203125 41.296875 42.84375 
Q 37.203125 48.484375 30.078125 48.484375 
Q 22.953125 48.484375 18.875 42.84375 
Q 14.796875 37.203125 14.796875 27.296875 
z
" id="DejaVuSans-64"/>
      <path d="M 9.421875 54.6875 
L 18.40625 54.6875 
L 18.40625 0 
L 9.421875 0 
z
M 9.421875 75.984375 
L 18.40625 75.984375 
L 18.40625 64.59375 
L 9.421875 64.59375 
z
" id="DejaVuSans-69"/>
      <path d="M 44.28125 53.078125 
L 44.28125 44.578125 
Q 40.484375 46.53125 36.375 47.5 
Q 32.28125 48.484375 27.875 48.484375 
Q 21.1875 48.484375 17.84375 46.4375 
Q 14.5 44.390625 14.5 40.28125 
Q 14.5 37.15625 16.890625 35.375 
Q 19.28125 33.59375 26.515625 31.984375 
L 29.59375 31.296875 
Q 39.15625 29.25 43.1875 25.515625 
Q 47.21875 21.78125 47.21875 15.09375 
Q 47.21875 7.46875 41.1875 3.015625 
Q 35.15625 -1.421875 24.609375 -1.421875 
Q 20.21875 -1.421875 15.453125 -0.5625 
Q 10.6875 0.296875 5.421875 2 
L 5.421875 11.28125 
Q 10.40625 8.6875 15.234375 7.390625 
Q 20.0625 6.109375 24.8125 6.109375 
Q 31.15625 6.109375 34.5625 8.28125 
Q 37.984375 10.453125 37.984375 14.40625 
Q 37.984375 18.0625 35.515625 20.015625 
Q 33.0625 21.96875 24.703125 23.78125 
L 21.578125 24.515625 
Q 13.234375 26.265625 9.515625 29.90625 
Q 5.8125 33.546875 5.8125 39.890625 
Q 5.8125 47.609375 11.28125 51.796875 
Q 16.75 56 26.8125 56 
Q 31.78125 56 36.171875 55.265625 
Q 40.578125 54.546875 44.28125 53.078125 
z
" id="DejaVuSans-73"/>
      <path d="M 18.3125 70.21875 
L 18.3125 54.6875 
L 36.8125 54.6875 
L 36.8125 47.703125 
L 18.3125 47.703125 
L 18.3125 18.015625 
Q 18.3125 11.328125 20.140625 9.421875 
Q 21.96875 7.515625 27.59375 7.515625 
L 36.8125 7.515625 
L 36.8125 0 
L 27.59375 0 
Q 17.1875 0 13.234375 3.875 
Q 9.28125 7.765625 9.28125 18.015625 
L 9.28125 47.703125 
L 2.6875 47.703125 
L 2.6875 54.6875 
L 9.28125 54.6875 
L 9.28125 70.21875 
z
" id="DejaVuSans-74"/>
      <path d="M 31 75.875 
Q 24.46875 64.65625 21.28125 53.65625 
Q 18.109375 42.671875 18.109375 31.390625 
Q 18.109375 20.125 21.3125 9.0625 
Q 24.515625 -2 31 -13.1875 
L 23.1875 -13.1875 
Q 15.875 -1.703125 12.234375 9.375 
Q 8.59375 20.453125 8.59375 31.390625 
Q 8.59375 42.28125 12.203125 53.3125 
Q 15.828125 64.359375 23.1875 75.875 
z
" id="DejaVuSans-28"/>
      <path d="M 10.6875 12.40625 
L 21 12.40625 
L 21 0 
L 10.6875 0 
z
" id="DejaVuSans-2e"/>
      <path d="M 33.015625 40.375 
Q 26.375 40.375 22.484375 35.828125 
Q 18.609375 31.296875 18.609375 23.390625 
Q 18.609375 15.53125 22.484375 10.953125 
Q 26.375 6.390625 33.015625 6.390625 
Q 39.65625 6.390625 43.53125 10.953125 
Q 47.40625 15.53125 47.40625 23.390625 
Q 47.40625 31.296875 43.53125 35.828125 
Q 39.65625 40.375 33.015625 40.375 
z
M 52.59375 71.296875 
L 52.59375 62.3125 
Q 48.875 64.0625 45.09375 64.984375 
Q 41.3125 65.921875 37.59375 65.921875 
Q 27.828125 65.921875 22.671875 59.328125 
Q 17.53125 52.734375 16.796875 39.40625 
Q 19.671875 43.65625 24.015625 45.921875 
Q 28.375 48.1875 33.59375 48.1875 
Q 44.578125 48.1875 50.953125 41.515625 
Q 57.328125 34.859375 57.328125 23.390625 
Q 57.328125 12.15625 50.6875 5.359375 
Q 44.046875 -1.421875 33.015625 -1.421875 
Q 20.359375 -1.421875 13.671875 8.265625 
Q 6.984375 17.96875 6.984375 36.375 
Q 6.984375 53.65625 15.1875 63.9375 
Q 23.390625 74.21875 37.203125 74.21875 
Q 40.921875 74.21875 44.703125 73.484375 
Q 48.484375 72.75 52.59375 71.296875 
z
" id="DejaVuSans-36"/>
      <path d="M 11.71875 12.40625 
L 22.015625 12.40625 
L 22.015625 4 
L 14.015625 -11.625 
L 7.71875 -11.625 
L 11.71875 4 
z
" id="DejaVuSans-2c"/>
      <path id="DejaVuSans-20"/>
      <path d="M 8.015625 75.875 
L 15.828125 75.875 
Q 23.140625 64.359375 26.78125 53.3125 
Q 30.421875 42.28125 30.421875 31.390625 
Q 30.421875 20.453125 26.78125 9.375 
Q 23.140625 -1.703125 15.828125 -13.1875 
L 8.015625 -13.1875 
Q 14.5 -2 17.703125 9.0625 
Q 20.90625 20.125 20.90625 31.390625 
Q 20.90625 42.671875 17.703125 53.65625 
Q 14.5 64.65625 8.015625 75.875 
z
" id="DejaVuSans-29"/>
     </defs>
     <g transform="translate(299.662188 39.696094)scale(0.15 -0.15)">
      <use xlink:href="#DejaVuSans-64"/>
      <use x="63.476562" xlink:href="#DejaVuSans-69"/>
      <use x="91.259766" xlink:href="#DejaVuSans-73"/>
      <use x="143.359375" xlink:href="#DejaVuSans-74"/>
      <use x="182.568359" xlink:href="#DejaVuSans-28"/>
      <use x="221.582031" xlink:href="#DejaVuSans-30"/>
      <use x="285.205078" xlink:href="#DejaVuSans-2e"/>
      <use x="316.992188" xlink:href="#DejaVuSans-36"/>
      <use x="380.615234" xlink:href="#DejaVuSans-2c"/>
      <use x="412.402344" xlink:href="#DejaVuSans-20"/>
      <use x="444.189453" xlink:href="#DejaVuSans-31"/>
      <use x="507.8125" xlink:href="#DejaVuSans-2e"/>
      <use x="539.599609" xlink:href="#DejaVuSans-30"/>
      <use x="603.222656" xlink:href="#DejaVuSans-29"/>
     </g>
    </g>
    <g id="line2d_19">
     <path d="M 257.662188 56.463281 
L 287.662188 56.463281 
" style="fill:none;stroke:#ff7f0e;stroke-linecap:square;stroke-width:3;"/>
    </g>
    <g id="line2d_20">
     <g>
      <use style="fill:#ff7f0e;stroke:#ff7f0e;" x="272.662188" xlink:href="#m04f5f0fafa" y="56.463281"/>
     </g>
    </g>
    <g id="text_14">
     <!-- dist(0.8, 1.0) -->
     <defs>
      <path d="M 31.78125 34.625 
Q 24.75 34.625 20.71875 30.859375 
Q 16.703125 27.09375 16.703125 20.515625 
Q 16.703125 13.921875 20.71875 10.15625 
Q 24.75 6.390625 31.78125 6.390625 
Q 38.8125 6.390625 42.859375 10.171875 
Q 46.921875 13.96875 46.921875 20.515625 
Q 46.921875 27.09375 42.890625 30.859375 
Q 38.875 34.625 31.78125 34.625 
z
M 21.921875 38.8125 
Q 15.578125 40.375 12.03125 44.71875 
Q 8.5 49.078125 8.5 55.328125 
Q 8.5 64.0625 14.71875 69.140625 
Q 20.953125 74.21875 31.78125 74.21875 
Q 42.671875 74.21875 48.875 69.140625 
Q 55.078125 64.0625 55.078125 55.328125 
Q 55.078125 49.078125 51.53125 44.71875 
Q 48 40.375 41.703125 38.8125 
Q 48.828125 37.15625 52.796875 32.3125 
Q 56.78125 27.484375 56.78125 20.515625 
Q 56.78125 9.90625 50.3125 4.234375 
Q 43.84375 -1.421875 31.78125 -1.421875 
Q 19.734375 -1.421875 13.25 4.234375 
Q 6.78125 9.90625 6.78125 20.515625 
Q 6.78125 27.484375 10.78125 32.3125 
Q 14.796875 37.15625 21.921875 38.8125 
z
M 18.3125 54.390625 
Q 18.3125 48.734375 21.84375 45.5625 
Q 25.390625 42.390625 31.78125 42.390625 
Q 38.140625 42.390625 41.71875 45.5625 
Q 45.3125 48.734375 45.3125 54.390625 
Q 45.3125 60.0625 41.71875 63.234375 
Q 38.140625 66.40625 31.78125 66.40625 
Q 25.390625 66.40625 21.84375 63.234375 
Q 18.3125 60.0625 18.3125 54.390625 
z
" id="DejaVuSans-38"/>
     </defs>
     <g transform="translate(299.662188 61.713281)scale(0.15 -0.15)">
      <use xlink:href="#DejaVuSans-64"/>
      <use x="63.476562" xlink:href="#DejaVuSans-69"/>
      <use x="91.259766" xlink:href="#DejaVuSans-73"/>
      <use x="143.359375" xlink:href="#DejaVuSans-74"/>
      <use x="182.568359" xlink:href="#DejaVuSans-28"/>
      <use x="221.582031" xlink:href="#DejaVuSans-30"/>
      <use x="285.205078" xlink:href="#DejaVuSans-2e"/>
      <use x="316.992188" xlink:href="#DejaVuSans-38"/>
      <use x="380.615234" xlink:href="#DejaVuSans-2c"/>
      <use x="412.402344" xlink:href="#DejaVuSans-20"/>
      <use x="444.189453" xlink:href="#DejaVuSans-31"/>
      <use x="507.8125" xlink:href="#DejaVuSans-2e"/>
      <use x="539.599609" xlink:href="#DejaVuSans-30"/>
      <use x="603.222656" xlink:href="#DejaVuSans-29"/>
     </g>
    </g>
    <g id="line2d_21">
     <path d="M 257.662188 78.480469 
L 287.662188 78.480469 
" style="fill:none;stroke:#2ca02c;stroke-linecap:square;stroke-width:3;"/>
    </g>
    <g id="line2d_22">
     <g>
      <use style="fill:#2ca02c;stroke:#2ca02c;" x="272.662188" xlink:href="#m6d01cb4de3" y="78.480469"/>
     </g>
    </g>
    <g id="text_15">
     <!-- dist(1.2, 1.0) -->
     <g transform="translate(299.662188 83.730469)scale(0.15 -0.15)">
      <use xlink:href="#DejaVuSans-64"/>
      <use x="63.476562" xlink:href="#DejaVuSans-69"/>
      <use x="91.259766" xlink:href="#DejaVuSans-73"/>
      <use x="143.359375" xlink:href="#DejaVuSans-74"/>
      <use x="182.568359" xlink:href="#DejaVuSans-28"/>
      <use x="221.582031" xlink:href="#DejaVuSans-31"/>
      <use x="285.205078" xlink:href="#DejaVuSans-2e"/>
      <use x="316.992188" xlink:href="#DejaVuSans-32"/>
      <use x="380.615234" xlink:href="#DejaVuSans-2c"/>
      <use x="412.402344" xlink:href="#DejaVuSans-20"/>
      <use x="444.189453" xlink:href="#DejaVuSans-31"/>
      <use x="507.8125" xlink:href="#DejaVuSans-2e"/>
      <use x="539.599609" xlink:href="#DejaVuSans-30"/>
      <use x="603.222656" xlink:href="#DejaVuSans-29"/>
     </g>
    </g>
    <g id="line2d_23">
     <path d="M 257.662188 100.497656 
L 287.662188 100.497656 
" style="fill:none;stroke:#d62728;stroke-linecap:square;stroke-width:3;"/>
    </g>
    <g id="line2d_24">
     <g>
      <use style="fill:#d62728;stroke:#d62728;" x="272.662188" xlink:href="#m7b31d95550" y="100.497656"/>
     </g>
    </g>
    <g id="text_16">
     <!-- dist(1.4, 1.0) -->
     <g transform="translate(299.662188 105.747656)scale(0.15 -0.15)">
      <use xlink:href="#DejaVuSans-64"/>
      <use x="63.476562" xlink:href="#DejaVuSans-69"/>
      <use x="91.259766" xlink:href="#DejaVuSans-73"/>
      <use x="143.359375" xlink:href="#DejaVuSans-74"/>
      <use x="182.568359" xlink:href="#DejaVuSans-28"/>
      <use x="221.582031" xlink:href="#DejaVuSans-31"/>
      <use x="285.205078" xlink:href="#DejaVuSans-2e"/>
      <use x="316.992188" xlink:href="#DejaVuSans-34"/>
      <use x="380.615234" xlink:href="#DejaVuSans-2c"/>
      <use x="412.402344" xlink:href="#DejaVuSans-20"/>
      <use x="444.189453" xlink:href="#DejaVuSans-31"/>
      <use x="507.8125" xlink:href="#DejaVuSans-2e"/>
      <use x="539.599609" xlink:href="#DejaVuSans-30"/>
      <use x="603.222656" xlink:href="#DejaVuSans-29"/>
     </g>
    </g>
   </g>
  </g>
 </g>
 <defs>
  <clipPath id="p8655ca4195">
   <rect height="266.112" width="357.12" x="52.375" y="14.798437"/>
  </clipPath>
 </defs>
</svg>
