<?xml version="1.0" encoding="utf-8" standalone="no"?>
<!DOCTYPE svg PUBLIC "-//W3C//DTD SVG 1.1//EN"
  "http://www.w3.org/Graphics/SVG/1.1/DTD/svg11.dtd">
<!-- Created with matplotlib (http://matplotlib.org/) -->
<svg height="314.466687pt" version="1.1" viewBox="0 0 432.246658 314.466687" width="432.246658pt" xmlns="http://www.w3.org/2000/svg" xmlns:xlink="http://www.w3.org/1999/xlink">
 <defs>
  <style type="text/css">
*{stroke-linecap:butt;stroke-linejoin:round;}
  </style>
 </defs>
 <g id="figure_1">
  <g id="patch_1">
   <path d="M 0 314.466687 
L 432.246658 314.466687 
L 432.246658 0 
L 0 0 
z
" style="fill:#ffffff;"/>
  </g>
  <g id="axes_1">
   <g id="patch_2">
    <path d="M 52.375 280.910437 
L 409.495 280.910437 
L 409.495 14.798437 
L 52.375 14.798437 
z
" style="fill:#ffffff;"/>
   </g>
   <g id="matplotlib.axis_1">
    <g id="xtick_1">
     <g id="line2d_1">
      <defs>
       <path d="M 0 0 
L 0 3.5 
" id="m9d477fa7c1" style="stroke:#000000;stroke-width:0.8;"/>
      </defs>
      <g>
       <use style="stroke:#000000;stroke-width:0.8;" x="52.375" xlink:href="#m9d477fa7c1" y="280.910437"/>
      </g>
     </g>
     <g id="text_1">
      <!-- 0 -->
      <defs>
       <path d="M 31.78125 66.40625 
Q 24.171875 66.40625 20.328125 58.90625 
Q 16.5 51.421875 16.5 36.375 
Q 16.5 21.390625 20.328125 13.890625 
Q 24.171875 6.390625 31.78125 6.390625 
Q 39.453125 6.390625 43.28125 13.890625 
Q 47.125 21.390625 47.125 36.375 
Q 47.125 51.421875 43.28125 58.90625 
Q 39.453125 66.40625 31.78125 66.40625 
z
M 31.78125 74.21875 
Q 44.046875 74.21875 50.515625 64.515625 
Q 56.984375 54.828125 56.984375 36.375 
Q 56.984375 17.96875 50.515625 8.265625 
Q 44.046875 -1.421875 31.78125 -1.421875 
Q 19.53125 -1.421875 13.0625 8.265625 
Q 6.59375 17.96875 6.59375 36.375 
Q 6.59375 54.828125 13.0625 64.515625 
Q 19.53125 74.21875 31.78125 74.21875 
z
" id="DejaVuSans-30"/>
      </defs>
      <g transform="translate(46.0125 303.107312)scale(0.2 -0.2)">
       <use xlink:href="#DejaVuSans-30"/>
      </g>
     </g>
    </g>
    <g id="xtick_2">
     <g id="line2d_2">
      <g>
       <use style="stroke:#000000;stroke-width:0.8;" x="123.091832" xlink:href="#m9d477fa7c1" y="280.910437"/>
      </g>
     </g>
     <g id="text_2">
      <!-- 100 -->
      <defs>
       <path d="M 12.40625 8.296875 
L 28.515625 8.296875 
L 28.515625 63.921875 
L 10.984375 60.40625 
L 10.984375 69.390625 
L 28.421875 72.90625 
L 38.28125 72.90625 
L 38.28125 8.296875 
L 54.390625 8.296875 
L 54.390625 0 
L 12.40625 0 
z
" id="DejaVuSans-31"/>
      </defs>
      <g transform="translate(104.004332 303.107312)scale(0.2 -0.2)">
       <use xlink:href="#DejaVuSans-31"/>
       <use x="63.623047" xlink:href="#DejaVuSans-30"/>
       <use x="127.246094" xlink:href="#DejaVuSans-30"/>
      </g>
     </g>
    </g>
    <g id="xtick_3">
     <g id="line2d_3">
      <g>
       <use style="stroke:#000000;stroke-width:0.8;" x="193.808663" xlink:href="#m9d477fa7c1" y="280.910437"/>
      </g>
     </g>
     <g id="text_3">
      <!-- 200 -->
      <defs>
       <path d="M 19.1875 8.296875 
L 53.609375 8.296875 
L 53.609375 0 
L 7.328125 0 
L 7.328125 8.296875 
Q 12.9375 14.109375 22.625 23.890625 
Q 32.328125 33.6875 34.8125 36.53125 
Q 39.546875 41.84375 41.421875 45.53125 
Q 43.3125 49.21875 43.3125 52.78125 
Q 43.3125 58.59375 39.234375 62.25 
Q 35.15625 65.921875 28.609375 65.921875 
Q 23.96875 65.921875 18.8125 64.3125 
Q 13.671875 62.703125 7.8125 59.421875 
L 7.8125 69.390625 
Q 13.765625 71.78125 18.9375 73 
Q 24.125 74.21875 28.421875 74.21875 
Q 39.75 74.21875 46.484375 68.546875 
Q 53.21875 62.890625 53.21875 53.421875 
Q 53.21875 48.921875 51.53125 44.890625 
Q 49.859375 40.875 45.40625 35.40625 
Q 44.1875 33.984375 37.640625 27.21875 
Q 31.109375 20.453125 19.1875 8.296875 
z
" id="DejaVuSans-32"/>
      </defs>
      <g transform="translate(174.721163 303.107312)scale(0.2 -0.2)">
       <use xlink:href="#DejaVuSans-32"/>
       <use x="63.623047" xlink:href="#DejaVuSans-30"/>
       <use x="127.246094" xlink:href="#DejaVuSans-30"/>
      </g>
     </g>
    </g>
    <g id="xtick_4">
     <g id="line2d_4">
      <g>
       <use style="stroke:#000000;stroke-width:0.8;" x="264.525495" xlink:href="#m9d477fa7c1" y="280.910437"/>
      </g>
     </g>
     <g id="text_4">
      <!-- 300 -->
      <defs>
       <path d="M 40.578125 39.3125 
Q 47.65625 37.796875 51.625 33 
Q 55.609375 28.21875 55.609375 21.1875 
Q 55.609375 10.40625 48.1875 4.484375 
Q 40.765625 -1.421875 27.09375 -1.421875 
Q 22.515625 -1.421875 17.65625 -0.515625 
Q 12.796875 0.390625 7.625 2.203125 
L 7.625 11.71875 
Q 11.71875 9.328125 16.59375 8.109375 
Q 21.484375 6.890625 26.8125 6.890625 
Q 36.078125 6.890625 40.9375 10.546875 
Q 45.796875 14.203125 45.796875 21.1875 
Q 45.796875 27.640625 41.28125 31.265625 
Q 36.765625 34.90625 28.71875 34.90625 
L 20.21875 34.90625 
L 20.21875 43.015625 
L 29.109375 43.015625 
Q 36.375 43.015625 40.234375 45.921875 
Q 44.09375 48.828125 44.09375 54.296875 
Q 44.09375 59.90625 40.109375 62.90625 
Q 36.140625 65.921875 28.71875 65.921875 
Q 24.65625 65.921875 20.015625 65.03125 
Q 15.375 64.15625 9.8125 62.3125 
L 9.8125 71.09375 
Q 15.4375 72.65625 20.34375 73.4375 
Q 25.25 74.21875 29.59375 74.21875 
Q 40.828125 74.21875 47.359375 69.109375 
Q 53.90625 64.015625 53.90625 55.328125 
Q 53.90625 49.265625 50.4375 45.09375 
Q 46.96875 40.921875 40.578125 39.3125 
z
" id="DejaVuSans-33"/>
      </defs>
      <g transform="translate(245.437995 303.107312)scale(0.2 -0.2)">
       <use xlink:href="#DejaVuSans-33"/>
       <use x="63.623047" xlink:href="#DejaVuSans-30"/>
       <use x="127.246094" xlink:href="#DejaVuSans-30"/>
      </g>
     </g>
    </g>
    <g id="xtick_5">
     <g id="line2d_5">
      <g>
       <use style="stroke:#000000;stroke-width:0.8;" x="335.242327" xlink:href="#m9d477fa7c1" y="280.910437"/>
      </g>
     </g>
     <g id="text_5">
      <!-- 400 -->
      <defs>
       <path d="M 37.796875 64.3125 
L 12.890625 25.390625 
L 37.796875 25.390625 
z
M 35.203125 72.90625 
L 47.609375 72.90625 
L 47.609375 25.390625 
L 58.015625 25.390625 
L 58.015625 17.1875 
L 47.609375 17.1875 
L 47.609375 0 
L 37.796875 0 
L 37.796875 17.1875 
L 4.890625 17.1875 
L 4.890625 26.703125 
z
" id="DejaVuSans-34"/>
      </defs>
      <g transform="translate(316.154827 303.107312)scale(0.2 -0.2)">
       <use xlink:href="#DejaVuSans-34"/>
       <use x="63.623047" xlink:href="#DejaVuSans-30"/>
       <use x="127.246094" xlink:href="#DejaVuSans-30"/>
      </g>
     </g>
    </g>
    <g id="xtick_6">
     <g id="line2d_6">
      <g>
       <use style="stroke:#000000;stroke-width:0.8;" x="405.959158" xlink:href="#m9d477fa7c1" y="280.910437"/>
      </g>
     </g>
     <g id="text_6">
      <!-- 500 -->
      <defs>
       <path d="M 10.796875 72.90625 
L 49.515625 72.90625 
L 49.515625 64.59375 
L 19.828125 64.59375 
L 19.828125 46.734375 
Q 21.96875 47.46875 24.109375 47.828125 
Q 26.265625 48.1875 28.421875 48.1875 
Q 40.625 48.1875 47.75 41.5 
Q 54.890625 34.8125 54.890625 23.390625 
Q 54.890625 11.625 47.5625 5.09375 
Q 40.234375 -1.421875 26.90625 -1.421875 
Q 22.3125 -1.421875 17.546875 -0.640625 
Q 12.796875 0.140625 7.71875 1.703125 
L 7.71875 11.625 
Q 12.109375 9.234375 16.796875 8.0625 
Q 21.484375 6.890625 26.703125 6.890625 
Q 35.15625 6.890625 40.078125 11.328125 
Q 45.015625 15.765625 45.015625 23.390625 
Q 45.015625 31 40.078125 35.4375 
Q 35.15625 39.890625 26.703125 39.890625 
Q 22.75 39.890625 18.8125 39.015625 
Q 14.890625 38.140625 10.796875 36.28125 
z
" id="DejaVuSans-35"/>
      </defs>
      <g transform="translate(386.871658 303.107312)scale(0.2 -0.2)">
       <use xlink:href="#DejaVuSans-35"/>
       <use x="63.623047" xlink:href="#DejaVuSans-30"/>
       <use x="127.246094" xlink:href="#DejaVuSans-30"/>
      </g>
     </g>
    </g>
   </g>
   <g id="matplotlib.axis_2">
    <g id="ytick_1">
     <g id="line2d_7">
      <defs>
       <path d="M 0 0 
L -3.5 0 
" id="m112f9a48f7" style="stroke:#000000;stroke-width:0.8;"/>
      </defs>
      <g>
       <use style="stroke:#000000;stroke-width:0.8;" x="52.375" xlink:href="#m112f9a48f7" y="277.584097"/>
      </g>
     </g>
     <g id="text_7">
      <!-- 0 -->
      <g transform="translate(32.65 285.182534)scale(0.2 -0.2)">
       <use xlink:href="#DejaVuSans-30"/>
      </g>
     </g>
    </g>
    <g id="ytick_2">
     <g id="line2d_8">
      <g>
       <use style="stroke:#000000;stroke-width:0.8;" x="52.375" xlink:href="#m112f9a48f7" y="225.026965"/>
      </g>
     </g>
     <g id="text_8">
      <!-- 50 -->
      <g transform="translate(19.925 232.625402)scale(0.2 -0.2)">
       <use xlink:href="#DejaVuSans-35"/>
       <use x="63.623047" xlink:href="#DejaVuSans-30"/>
      </g>
     </g>
    </g>
    <g id="ytick_3">
     <g id="line2d_9">
      <g>
       <use style="stroke:#000000;stroke-width:0.8;" x="52.375" xlink:href="#m112f9a48f7" y="172.469833"/>
      </g>
     </g>
     <g id="text_9">
      <!-- 100 -->
      <g transform="translate(7.2 180.06827)scale(0.2 -0.2)">
       <use xlink:href="#DejaVuSans-31"/>
       <use x="63.623047" xlink:href="#DejaVuSans-30"/>
       <use x="127.246094" xlink:href="#DejaVuSans-30"/>
      </g>
     </g>
    </g>
    <g id="ytick_4">
     <g id="line2d_10">
      <g>
       <use style="stroke:#000000;stroke-width:0.8;" x="52.375" xlink:href="#m112f9a48f7" y="119.912701"/>
      </g>
     </g>
     <g id="text_10">
      <!-- 150 -->
      <g transform="translate(7.2 127.511139)scale(0.2 -0.2)">
       <use xlink:href="#DejaVuSans-31"/>
       <use x="63.623047" xlink:href="#DejaVuSans-35"/>
       <use x="127.246094" xlink:href="#DejaVuSans-30"/>
      </g>
     </g>
    </g>
    <g id="ytick_5">
     <g id="line2d_11">
      <g>
       <use style="stroke:#000000;stroke-width:0.8;" x="52.375" xlink:href="#m112f9a48f7" y="67.355569"/>
      </g>
     </g>
     <g id="text_11">
      <!-- 200 -->
      <g transform="translate(7.2 74.954007)scale(0.2 -0.2)">
       <use xlink:href="#DejaVuSans-32"/>
       <use x="63.623047" xlink:href="#DejaVuSans-30"/>
       <use x="127.246094" xlink:href="#DejaVuSans-30"/>
      </g>
     </g>
    </g>
    <g id="ytick_6">
     <g id="line2d_12">
      <g>
       <use style="stroke:#000000;stroke-width:0.8;" x="52.375" xlink:href="#m112f9a48f7" y="14.798437"/>
      </g>
     </g>
     <g id="text_12">
      <!-- 250 -->
      <g transform="translate(7.2 22.396875)scale(0.2 -0.2)">
       <use xlink:href="#DejaVuSans-32"/>
       <use x="63.623047" xlink:href="#DejaVuSans-35"/>
       <use x="127.246094" xlink:href="#DejaVuSans-30"/>
      </g>
     </g>
    </g>
   </g>
   <g id="line2d_13">
    <path clip-path="url(#p5d5a89cb05)" d="M 52.375 195.321674 
L 59.446683 106.205801 
L 66.518366 119.381874 
L 73.59005 137.708546 
L 80.661733 149.081909 
L 87.733416 157.002269 
L 94.805099 157.717046 
L 101.876782 158.63154 
L 108.948465 159.141344 
L 116.020149 161.306698 
L 123.091832 161.049168 
L 130.163515 161.091214 
L 137.235198 163.545632 
L 144.306881 164.849049 
L 151.378564 166.25758 
L 158.450248 164.885839 
L 165.521931 165.222204 
L 172.593614 165.248483 
L 179.665297 166.798918 
L 186.73698 167.392814 
L 193.808663 168.443957 
L 200.880347 167.970942 
L 207.95203 168.533304 
L 215.023713 170.625078 
L 222.095396 170.856329 
L 229.167079 170.851073 
L 236.238762 171.035023 
L 243.310446 171.287298 
L 250.382129 171.408179 
L 257.453812 171.60264 
L 264.525495 172.165002 
L 271.597178 172.075654 
L 278.668861 172.22807 
L 285.740545 172.390997 
L 292.812228 172.680062 
L 299.883911 172.879779 
L 306.955594 173.536743 
L 314.027277 173.337026 
L 321.09896 173.605067 
L 328.170644 174.088593 
L 335.242327 174.440725 
L 342.31401 174.519561 
L 349.385693 174.47226 
L 356.457376 174.798114 
L 363.529059 174.918995 
L 370.600743 175.045132 
L 377.672426 175.029365 
L 384.744109 175.050388 
L 391.815792 175.276384 
L 398.887475 175.381498 
L 405.959158 175.444567 
" style="fill:none;stroke:#1f77b4;stroke-linecap:square;stroke-width:3;"/>
    <defs>
     <path d="M 0 3 
C 0.795609 3 1.55874 2.683901 2.12132 2.12132 
C 2.683901 1.55874 3 0.795609 3 0 
C 3 -0.795609 2.683901 -1.55874 2.12132 -2.12132 
C 1.55874 -2.683901 0.795609 -3 0 -3 
C -0.795609 -3 -1.55874 -2.683901 -2.12132 -2.12132 
C -2.683901 -1.55874 -3 -0.795609 -3 0 
C -3 0.795609 -2.683901 1.55874 -2.12132 2.12132 
C -1.55874 2.683901 -0.795609 3 0 3 
z
" id="m4f902329d7" style="stroke:#1f77b4;"/>
    </defs>
    <g clip-path="url(#p5d5a89cb05)">
     <use style="fill:#1f77b4;stroke:#1f77b4;" x="52.375" xlink:href="#m4f902329d7" y="195.321674"/>
     <use style="fill:#1f77b4;stroke:#1f77b4;" x="59.446683" xlink:href="#m4f902329d7" y="106.205801"/>
     <use style="fill:#1f77b4;stroke:#1f77b4;" x="66.518366" xlink:href="#m4f902329d7" y="119.381874"/>
     <use style="fill:#1f77b4;stroke:#1f77b4;" x="73.59005" xlink:href="#m4f902329d7" y="137.708546"/>
     <use style="fill:#1f77b4;stroke:#1f77b4;" x="80.661733" xlink:href="#m4f902329d7" y="149.081909"/>
     <use style="fill:#1f77b4;stroke:#1f77b4;" x="87.733416" xlink:href="#m4f902329d7" y="157.002269"/>
     <use style="fill:#1f77b4;stroke:#1f77b4;" x="94.805099" xlink:href="#m4f902329d7" y="157.717046"/>
     <use style="fill:#1f77b4;stroke:#1f77b4;" x="101.876782" xlink:href="#m4f902329d7" y="158.63154"/>
     <use style="fill:#1f77b4;stroke:#1f77b4;" x="108.948465" xlink:href="#m4f902329d7" y="159.141344"/>
     <use style="fill:#1f77b4;stroke:#1f77b4;" x="116.020149" xlink:href="#m4f902329d7" y="161.306698"/>
     <use style="fill:#1f77b4;stroke:#1f77b4;" x="123.091832" xlink:href="#m4f902329d7" y="161.049168"/>
     <use style="fill:#1f77b4;stroke:#1f77b4;" x="130.163515" xlink:href="#m4f902329d7" y="161.091214"/>
     <use style="fill:#1f77b4;stroke:#1f77b4;" x="137.235198" xlink:href="#m4f902329d7" y="163.545632"/>
     <use style="fill:#1f77b4;stroke:#1f77b4;" x="144.306881" xlink:href="#m4f902329d7" y="164.849049"/>
     <use style="fill:#1f77b4;stroke:#1f77b4;" x="151.378564" xlink:href="#m4f902329d7" y="166.25758"/>
     <use style="fill:#1f77b4;stroke:#1f77b4;" x="158.450248" xlink:href="#m4f902329d7" y="164.885839"/>
     <use style="fill:#1f77b4;stroke:#1f77b4;" x="165.521931" xlink:href="#m4f902329d7" y="165.222204"/>
     <use style="fill:#1f77b4;stroke:#1f77b4;" x="172.593614" xlink:href="#m4f902329d7" y="165.248483"/>
     <use style="fill:#1f77b4;stroke:#1f77b4;" x="179.665297" xlink:href="#m4f902329d7" y="166.798918"/>
     <use style="fill:#1f77b4;stroke:#1f77b4;" x="186.73698" xlink:href="#m4f902329d7" y="167.392814"/>
     <use style="fill:#1f77b4;stroke:#1f77b4;" x="193.808663" xlink:href="#m4f902329d7" y="168.443957"/>
     <use style="fill:#1f77b4;stroke:#1f77b4;" x="200.880347" xlink:href="#m4f902329d7" y="167.970942"/>
     <use style="fill:#1f77b4;stroke:#1f77b4;" x="207.95203" xlink:href="#m4f902329d7" y="168.533304"/>
     <use style="fill:#1f77b4;stroke:#1f77b4;" x="215.023713" xlink:href="#m4f902329d7" y="170.625078"/>
     <use style="fill:#1f77b4;stroke:#1f77b4;" x="222.095396" xlink:href="#m4f902329d7" y="170.856329"/>
     <use style="fill:#1f77b4;stroke:#1f77b4;" x="229.167079" xlink:href="#m4f902329d7" y="170.851073"/>
     <use style="fill:#1f77b4;stroke:#1f77b4;" x="236.238762" xlink:href="#m4f902329d7" y="171.035023"/>
     <use style="fill:#1f77b4;stroke:#1f77b4;" x="243.310446" xlink:href="#m4f902329d7" y="171.287298"/>
     <use style="fill:#1f77b4;stroke:#1f77b4;" x="250.382129" xlink:href="#m4f902329d7" y="171.408179"/>
     <use style="fill:#1f77b4;stroke:#1f77b4;" x="257.453812" xlink:href="#m4f902329d7" y="171.60264"/>
     <use style="fill:#1f77b4;stroke:#1f77b4;" x="264.525495" xlink:href="#m4f902329d7" y="172.165002"/>
     <use style="fill:#1f77b4;stroke:#1f77b4;" x="271.597178" xlink:href="#m4f902329d7" y="172.075654"/>
     <use style="fill:#1f77b4;stroke:#1f77b4;" x="278.668861" xlink:href="#m4f902329d7" y="172.22807"/>
     <use style="fill:#1f77b4;stroke:#1f77b4;" x="285.740545" xlink:href="#m4f902329d7" y="172.390997"/>
     <use style="fill:#1f77b4;stroke:#1f77b4;" x="292.812228" xlink:href="#m4f902329d7" y="172.680062"/>
     <use style="fill:#1f77b4;stroke:#1f77b4;" x="299.883911" xlink:href="#m4f902329d7" y="172.879779"/>
     <use style="fill:#1f77b4;stroke:#1f77b4;" x="306.955594" xlink:href="#m4f902329d7" y="173.536743"/>
     <use style="fill:#1f77b4;stroke:#1f77b4;" x="314.027277" xlink:href="#m4f902329d7" y="173.337026"/>
     <use style="fill:#1f77b4;stroke:#1f77b4;" x="321.09896" xlink:href="#m4f902329d7" y="173.605067"/>
     <use style="fill:#1f77b4;stroke:#1f77b4;" x="328.170644" xlink:href="#m4f902329d7" y="174.088593"/>
     <use style="fill:#1f77b4;stroke:#1f77b4;" x="335.242327" xlink:href="#m4f902329d7" y="174.440725"/>
     <use style="fill:#1f77b4;stroke:#1f77b4;" x="342.31401" xlink:href="#m4f902329d7" y="174.519561"/>
     <use style="fill:#1f77b4;stroke:#1f77b4;" x="349.385693" xlink:href="#m4f902329d7" y="174.47226"/>
     <use style="fill:#1f77b4;stroke:#1f77b4;" x="356.457376" xlink:href="#m4f902329d7" y="174.798114"/>
     <use style="fill:#1f77b4;stroke:#1f77b4;" x="363.529059" xlink:href="#m4f902329d7" y="174.918995"/>
     <use style="fill:#1f77b4;stroke:#1f77b4;" x="370.600743" xlink:href="#m4f902329d7" y="175.045132"/>
     <use style="fill:#1f77b4;stroke:#1f77b4;" x="377.672426" xlink:href="#m4f902329d7" y="175.029365"/>
     <use style="fill:#1f77b4;stroke:#1f77b4;" x="384.744109" xlink:href="#m4f902329d7" y="175.050388"/>
     <use style="fill:#1f77b4;stroke:#1f77b4;" x="391.815792" xlink:href="#m4f902329d7" y="175.276384"/>
     <use style="fill:#1f77b4;stroke:#1f77b4;" x="398.887475" xlink:href="#m4f902329d7" y="175.381498"/>
     <use style="fill:#1f77b4;stroke:#1f77b4;" x="405.959158" xlink:href="#m4f902329d7" y="175.444567"/>
    </g>
   </g>
   <g id="line2d_14">
    <path clip-path="url(#p5d5a89cb05)" d="M 52.375 240.037282 
L 59.446683 147.741702 
L 66.518366 164.339245 
L 73.59005 187.40657 
L 80.661733 196.388584 
L 87.733416 206.043329 
L 94.805099 209.03383 
L 101.876782 211.440946 
L 108.948465 212.623482 
L 116.020149 215.056877 
L 123.091832 214.473493 
L 130.163515 214.236986 
L 137.235198 214.731023 
L 144.306881 216.023928 
L 151.378564 217.469249 
L 158.450248 218.199793 
L 165.521931 219.203635 
L 172.593614 220.20222 
L 179.665297 219.860599 
L 186.73698 220.401937 
L 193.808663 221.079924 
L 200.880347 221.253363 
L 207.95203 221.26913 
L 215.023713 220.648956 
L 222.095396 221.516148 
L 229.167079 221.610751 
L 236.238762 223.497552 
L 243.310446 222.29925 
L 250.382129 222.236181 
L 257.453812 222.588314 
L 264.525495 223.203232 
L 271.597178 222.966725 
L 278.668861 223.098118 
L 285.740545 223.166442 
L 292.812228 223.056072 
L 299.883911 222.845844 
L 306.955594 222.856355 
L 314.027277 222.66715 
L 321.09896 222.950958 
L 328.170644 222.940447 
L 335.242327 223.087607 
L 342.31401 224.165028 
L 349.385693 224.301676 
L 356.457376 224.370001 
L 363.529059 224.779946 
L 370.600743 225.037476 
L 377.672426 224.553951 
L 384.744109 225.147846 
L 391.815792 226.167455 
L 398.887475 226.435496 
L 405.959158 226.414473 
" style="fill:none;stroke:#ff7f0e;stroke-linecap:square;stroke-width:3;"/>
    <defs>
     <path d="M 0 3 
C 0.795609 3 1.55874 2.683901 2.12132 2.12132 
C 2.683901 1.55874 3 0.795609 3 0 
C 3 -0.795609 2.683901 -1.55874 2.12132 -2.12132 
C 1.55874 -2.683901 0.795609 -3 0 -3 
C -0.795609 -3 -1.55874 -2.683901 -2.12132 -2.12132 
C -2.683901 -1.55874 -3 -0.795609 -3 0 
C -3 0.795609 -2.683901 1.55874 -2.12132 2.12132 
C -1.55874 2.683901 -0.795609 3 0 3 
z
" id="me07fb114a1" style="stroke:#ff7f0e;"/>
    </defs>
    <g clip-path="url(#p5d5a89cb05)">
     <use style="fill:#ff7f0e;stroke:#ff7f0e;" x="52.375" xlink:href="#me07fb114a1" y="240.037282"/>
     <use style="fill:#ff7f0e;stroke:#ff7f0e;" x="59.446683" xlink:href="#me07fb114a1" y="147.741702"/>
     <use style="fill:#ff7f0e;stroke:#ff7f0e;" x="66.518366" xlink:href="#me07fb114a1" y="164.339245"/>
     <use style="fill:#ff7f0e;stroke:#ff7f0e;" x="73.59005" xlink:href="#me07fb114a1" y="187.40657"/>
     <use style="fill:#ff7f0e;stroke:#ff7f0e;" x="80.661733" xlink:href="#me07fb114a1" y="196.388584"/>
     <use style="fill:#ff7f0e;stroke:#ff7f0e;" x="87.733416" xlink:href="#me07fb114a1" y="206.043329"/>
     <use style="fill:#ff7f0e;stroke:#ff7f0e;" x="94.805099" xlink:href="#me07fb114a1" y="209.03383"/>
     <use style="fill:#ff7f0e;stroke:#ff7f0e;" x="101.876782" xlink:href="#me07fb114a1" y="211.440946"/>
     <use style="fill:#ff7f0e;stroke:#ff7f0e;" x="108.948465" xlink:href="#me07fb114a1" y="212.623482"/>
     <use style="fill:#ff7f0e;stroke:#ff7f0e;" x="116.020149" xlink:href="#me07fb114a1" y="215.056877"/>
     <use style="fill:#ff7f0e;stroke:#ff7f0e;" x="123.091832" xlink:href="#me07fb114a1" y="214.473493"/>
     <use style="fill:#ff7f0e;stroke:#ff7f0e;" x="130.163515" xlink:href="#me07fb114a1" y="214.236986"/>
     <use style="fill:#ff7f0e;stroke:#ff7f0e;" x="137.235198" xlink:href="#me07fb114a1" y="214.731023"/>
     <use style="fill:#ff7f0e;stroke:#ff7f0e;" x="144.306881" xlink:href="#me07fb114a1" y="216.023928"/>
     <use style="fill:#ff7f0e;stroke:#ff7f0e;" x="151.378564" xlink:href="#me07fb114a1" y="217.469249"/>
     <use style="fill:#ff7f0e;stroke:#ff7f0e;" x="158.450248" xlink:href="#me07fb114a1" y="218.199793"/>
     <use style="fill:#ff7f0e;stroke:#ff7f0e;" x="165.521931" xlink:href="#me07fb114a1" y="219.203635"/>
     <use style="fill:#ff7f0e;stroke:#ff7f0e;" x="172.593614" xlink:href="#me07fb114a1" y="220.20222"/>
     <use style="fill:#ff7f0e;stroke:#ff7f0e;" x="179.665297" xlink:href="#me07fb114a1" y="219.860599"/>
     <use style="fill:#ff7f0e;stroke:#ff7f0e;" x="186.73698" xlink:href="#me07fb114a1" y="220.401937"/>
     <use style="fill:#ff7f0e;stroke:#ff7f0e;" x="193.808663" xlink:href="#me07fb114a1" y="221.079924"/>
     <use style="fill:#ff7f0e;stroke:#ff7f0e;" x="200.880347" xlink:href="#me07fb114a1" y="221.253363"/>
     <use style="fill:#ff7f0e;stroke:#ff7f0e;" x="207.95203" xlink:href="#me07fb114a1" y="221.26913"/>
     <use style="fill:#ff7f0e;stroke:#ff7f0e;" x="215.023713" xlink:href="#me07fb114a1" y="220.648956"/>
     <use style="fill:#ff7f0e;stroke:#ff7f0e;" x="222.095396" xlink:href="#me07fb114a1" y="221.516148"/>
     <use style="fill:#ff7f0e;stroke:#ff7f0e;" x="229.167079" xlink:href="#me07fb114a1" y="221.610751"/>
     <use style="fill:#ff7f0e;stroke:#ff7f0e;" x="236.238762" xlink:href="#me07fb114a1" y="223.497552"/>
     <use style="fill:#ff7f0e;stroke:#ff7f0e;" x="243.310446" xlink:href="#me07fb114a1" y="222.29925"/>
     <use style="fill:#ff7f0e;stroke:#ff7f0e;" x="250.382129" xlink:href="#me07fb114a1" y="222.236181"/>
     <use style="fill:#ff7f0e;stroke:#ff7f0e;" x="257.453812" xlink:href="#me07fb114a1" y="222.588314"/>
     <use style="fill:#ff7f0e;stroke:#ff7f0e;" x="264.525495" xlink:href="#me07fb114a1" y="223.203232"/>
     <use style="fill:#ff7f0e;stroke:#ff7f0e;" x="271.597178" xlink:href="#me07fb114a1" y="222.966725"/>
     <use style="fill:#ff7f0e;stroke:#ff7f0e;" x="278.668861" xlink:href="#me07fb114a1" y="223.098118"/>
     <use style="fill:#ff7f0e;stroke:#ff7f0e;" x="285.740545" xlink:href="#me07fb114a1" y="223.166442"/>
     <use style="fill:#ff7f0e;stroke:#ff7f0e;" x="292.812228" xlink:href="#me07fb114a1" y="223.056072"/>
     <use style="fill:#ff7f0e;stroke:#ff7f0e;" x="299.883911" xlink:href="#me07fb114a1" y="222.845844"/>
     <use style="fill:#ff7f0e;stroke:#ff7f0e;" x="306.955594" xlink:href="#me07fb114a1" y="222.856355"/>
     <use style="fill:#ff7f0e;stroke:#ff7f0e;" x="314.027277" xlink:href="#me07fb114a1" y="222.66715"/>
     <use style="fill:#ff7f0e;stroke:#ff7f0e;" x="321.09896" xlink:href="#me07fb114a1" y="222.950958"/>
     <use style="fill:#ff7f0e;stroke:#ff7f0e;" x="328.170644" xlink:href="#me07fb114a1" y="222.940447"/>
     <use style="fill:#ff7f0e;stroke:#ff7f0e;" x="335.242327" xlink:href="#me07fb114a1" y="223.087607"/>
     <use style="fill:#ff7f0e;stroke:#ff7f0e;" x="342.31401" xlink:href="#me07fb114a1" y="224.165028"/>
     <use style="fill:#ff7f0e;stroke:#ff7f0e;" x="349.385693" xlink:href="#me07fb114a1" y="224.301676"/>
     <use style="fill:#ff7f0e;stroke:#ff7f0e;" x="356.457376" xlink:href="#me07fb114a1" y="224.370001"/>
     <use style="fill:#ff7f0e;stroke:#ff7f0e;" x="363.529059" xlink:href="#me07fb114a1" y="224.779946"/>
     <use style="fill:#ff7f0e;stroke:#ff7f0e;" x="370.600743" xlink:href="#me07fb114a1" y="225.037476"/>
     <use style="fill:#ff7f0e;stroke:#ff7f0e;" x="377.672426" xlink:href="#me07fb114a1" y="224.553951"/>
     <use style="fill:#ff7f0e;stroke:#ff7f0e;" x="384.744109" xlink:href="#me07fb114a1" y="225.147846"/>
     <use style="fill:#ff7f0e;stroke:#ff7f0e;" x="391.815792" xlink:href="#me07fb114a1" y="226.167455"/>
     <use style="fill:#ff7f0e;stroke:#ff7f0e;" x="398.887475" xlink:href="#me07fb114a1" y="226.435496"/>
     <use style="fill:#ff7f0e;stroke:#ff7f0e;" x="405.959158" xlink:href="#me07fb114a1" y="226.414473"/>
    </g>
   </g>
   <g id="line2d_15">
    <path clip-path="url(#p5d5a89cb05)" d="M 52.375 272.591169 
L 59.446683 166.026329 
L 66.518366 172.979637 
L 73.59005 191.548072 
L 80.661733 197.182196 
L 87.733416 197.292566 
L 94.805099 206.868476 
L 101.876782 207.541207 
L 108.948465 211.183416 
L 116.020149 215.493101 
L 123.091832 217.017258 
L 130.163515 219.713439 
L 137.235198 218.909315 
L 144.306881 217.952775 
L 151.378564 220.181197 
L 158.450248 221.19555 
L 165.521931 221.78419 
L 172.593614 222.96147 
L 179.665297 225.457933 
L 186.73698 224.301676 
L 193.808663 224.795713 
L 200.880347 224.785202 
L 207.95203 224.932362 
L 215.023713 224.574973 
L 222.095396 224.606508 
L 229.167079 224.532928 
L 236.238762 224.916595 
L 243.310446 225.321285 
L 250.382129 225.69444 
L 257.453812 225.899413 
L 264.525495 225.783787 
L 271.597178 225.442166 
L 278.668861 226.61419 
L 285.740545 226.735072 
L 292.812228 225.836345 
L 299.883911 225.689185 
L 306.955594 225.957226 
L 314.027277 226.041317 
L 321.09896 226.272569 
L 328.170644 226.850697 
L 335.242327 226.961067 
L 342.31401 227.297433 
L 349.385693 227.23962 
L 356.457376 227.355246 
L 363.529059 227.34999 
L 370.600743 229.157955 
L 377.672426 228.921448 
L 384.744109 229.252558 
L 391.815792 230.235377 
L 398.887475 230.508674 
L 405.959158 230.755692 
" style="fill:none;stroke:#2ca02c;stroke-linecap:square;stroke-width:3;"/>
    <defs>
     <path d="M 0 3 
C 0.795609 3 1.55874 2.683901 2.12132 2.12132 
C 2.683901 1.55874 3 0.795609 3 0 
C 3 -0.795609 2.683901 -1.55874 2.12132 -2.12132 
C 1.55874 -2.683901 0.795609 -3 0 -3 
C -0.795609 -3 -1.55874 -2.683901 -2.12132 -2.12132 
C -2.683901 -1.55874 -3 -0.795609 -3 0 
C -3 0.795609 -2.683901 1.55874 -2.12132 2.12132 
C -1.55874 2.683901 -0.795609 3 0 3 
z
" id="m4b090a4c1c" style="stroke:#2ca02c;"/>
    </defs>
    <g clip-path="url(#p5d5a89cb05)">
     <use style="fill:#2ca02c;stroke:#2ca02c;" x="52.375" xlink:href="#m4b090a4c1c" y="272.591169"/>
     <use style="fill:#2ca02c;stroke:#2ca02c;" x="59.446683" xlink:href="#m4b090a4c1c" y="166.026329"/>
     <use style="fill:#2ca02c;stroke:#2ca02c;" x="66.518366" xlink:href="#m4b090a4c1c" y="172.979637"/>
     <use style="fill:#2ca02c;stroke:#2ca02c;" x="73.59005" xlink:href="#m4b090a4c1c" y="191.548072"/>
     <use style="fill:#2ca02c;stroke:#2ca02c;" x="80.661733" xlink:href="#m4b090a4c1c" y="197.182196"/>
     <use style="fill:#2ca02c;stroke:#2ca02c;" x="87.733416" xlink:href="#m4b090a4c1c" y="197.292566"/>
     <use style="fill:#2ca02c;stroke:#2ca02c;" x="94.805099" xlink:href="#m4b090a4c1c" y="206.868476"/>
     <use style="fill:#2ca02c;stroke:#2ca02c;" x="101.876782" xlink:href="#m4b090a4c1c" y="207.541207"/>
     <use style="fill:#2ca02c;stroke:#2ca02c;" x="108.948465" xlink:href="#m4b090a4c1c" y="211.183416"/>
     <use style="fill:#2ca02c;stroke:#2ca02c;" x="116.020149" xlink:href="#m4b090a4c1c" y="215.493101"/>
     <use style="fill:#2ca02c;stroke:#2ca02c;" x="123.091832" xlink:href="#m4b090a4c1c" y="217.017258"/>
     <use style="fill:#2ca02c;stroke:#2ca02c;" x="130.163515" xlink:href="#m4b090a4c1c" y="219.713439"/>
     <use style="fill:#2ca02c;stroke:#2ca02c;" x="137.235198" xlink:href="#m4b090a4c1c" y="218.909315"/>
     <use style="fill:#2ca02c;stroke:#2ca02c;" x="144.306881" xlink:href="#m4b090a4c1c" y="217.952775"/>
     <use style="fill:#2ca02c;stroke:#2ca02c;" x="151.378564" xlink:href="#m4b090a4c1c" y="220.181197"/>
     <use style="fill:#2ca02c;stroke:#2ca02c;" x="158.450248" xlink:href="#m4b090a4c1c" y="221.19555"/>
     <use style="fill:#2ca02c;stroke:#2ca02c;" x="165.521931" xlink:href="#m4b090a4c1c" y="221.78419"/>
     <use style="fill:#2ca02c;stroke:#2ca02c;" x="172.593614" xlink:href="#m4b090a4c1c" y="222.96147"/>
     <use style="fill:#2ca02c;stroke:#2ca02c;" x="179.665297" xlink:href="#m4b090a4c1c" y="225.457933"/>
     <use style="fill:#2ca02c;stroke:#2ca02c;" x="186.73698" xlink:href="#m4b090a4c1c" y="224.301676"/>
     <use style="fill:#2ca02c;stroke:#2ca02c;" x="193.808663" xlink:href="#m4b090a4c1c" y="224.795713"/>
     <use style="fill:#2ca02c;stroke:#2ca02c;" x="200.880347" xlink:href="#m4b090a4c1c" y="224.785202"/>
     <use style="fill:#2ca02c;stroke:#2ca02c;" x="207.95203" xlink:href="#m4b090a4c1c" y="224.932362"/>
     <use style="fill:#2ca02c;stroke:#2ca02c;" x="215.023713" xlink:href="#m4b090a4c1c" y="224.574973"/>
     <use style="fill:#2ca02c;stroke:#2ca02c;" x="222.095396" xlink:href="#m4b090a4c1c" y="224.606508"/>
     <use style="fill:#2ca02c;stroke:#2ca02c;" x="229.167079" xlink:href="#m4b090a4c1c" y="224.532928"/>
     <use style="fill:#2ca02c;stroke:#2ca02c;" x="236.238762" xlink:href="#m4b090a4c1c" y="224.916595"/>
     <use style="fill:#2ca02c;stroke:#2ca02c;" x="243.310446" xlink:href="#m4b090a4c1c" y="225.321285"/>
     <use style="fill:#2ca02c;stroke:#2ca02c;" x="250.382129" xlink:href="#m4b090a4c1c" y="225.69444"/>
     <use style="fill:#2ca02c;stroke:#2ca02c;" x="257.453812" xlink:href="#m4b090a4c1c" y="225.899413"/>
     <use style="fill:#2ca02c;stroke:#2ca02c;" x="264.525495" xlink:href="#m4b090a4c1c" y="225.783787"/>
     <use style="fill:#2ca02c;stroke:#2ca02c;" x="271.597178" xlink:href="#m4b090a4c1c" y="225.442166"/>
     <use style="fill:#2ca02c;stroke:#2ca02c;" x="278.668861" xlink:href="#m4b090a4c1c" y="226.61419"/>
     <use style="fill:#2ca02c;stroke:#2ca02c;" x="285.740545" xlink:href="#m4b090a4c1c" y="226.735072"/>
     <use style="fill:#2ca02c;stroke:#2ca02c;" x="292.812228" xlink:href="#m4b090a4c1c" y="225.836345"/>
     <use style="fill:#2ca02c;stroke:#2ca02c;" x="299.883911" xlink:href="#m4b090a4c1c" y="225.689185"/>
     <use style="fill:#2ca02c;stroke:#2ca02c;" x="306.955594" xlink:href="#m4b090a4c1c" y="225.957226"/>
     <use style="fill:#2ca02c;stroke:#2ca02c;" x="314.027277" xlink:href="#m4b090a4c1c" y="226.041317"/>
     <use style="fill:#2ca02c;stroke:#2ca02c;" x="321.09896" xlink:href="#m4b090a4c1c" y="226.272569"/>
     <use style="fill:#2ca02c;stroke:#2ca02c;" x="328.170644" xlink:href="#m4b090a4c1c" y="226.850697"/>
     <use style="fill:#2ca02c;stroke:#2ca02c;" x="335.242327" xlink:href="#m4b090a4c1c" y="226.961067"/>
     <use style="fill:#2ca02c;stroke:#2ca02c;" x="342.31401" xlink:href="#m4b090a4c1c" y="227.297433"/>
     <use style="fill:#2ca02c;stroke:#2ca02c;" x="349.385693" xlink:href="#m4b090a4c1c" y="227.23962"/>
     <use style="fill:#2ca02c;stroke:#2ca02c;" x="356.457376" xlink:href="#m4b090a4c1c" y="227.355246"/>
     <use style="fill:#2ca02c;stroke:#2ca02c;" x="363.529059" xlink:href="#m4b090a4c1c" y="227.34999"/>
     <use style="fill:#2ca02c;stroke:#2ca02c;" x="370.600743" xlink:href="#m4b090a4c1c" y="229.157955"/>
     <use style="fill:#2ca02c;stroke:#2ca02c;" x="377.672426" xlink:href="#m4b090a4c1c" y="228.921448"/>
     <use style="fill:#2ca02c;stroke:#2ca02c;" x="384.744109" xlink:href="#m4b090a4c1c" y="229.252558"/>
     <use style="fill:#2ca02c;stroke:#2ca02c;" x="391.815792" xlink:href="#m4b090a4c1c" y="230.235377"/>
     <use style="fill:#2ca02c;stroke:#2ca02c;" x="398.887475" xlink:href="#m4b090a4c1c" y="230.508674"/>
     <use style="fill:#2ca02c;stroke:#2ca02c;" x="405.959158" xlink:href="#m4b090a4c1c" y="230.755692"/>
    </g>
   </g>
   <g id="line2d_16">
    <path clip-path="url(#p5d5a89cb05)" d="M 52.375 272.591169 
L 59.446683 131.701266 
L 66.518366 131.611919 
L 73.59005 161.643064 
L 80.661733 171.450225 
L 87.733416 179.570301 
L 94.805099 181.493893 
L 101.876782 182.387364 
L 108.948465 183.002282 
L 116.020149 183.244045 
L 123.091832 183.548876 
L 130.163515 185.614372 
L 137.235198 185.504002 
L 144.306881 185.71423 
L 151.378564 185.945482 
L 158.450248 185.829856 
L 165.521931 186.355427 
L 172.593614 186.329149 
L 179.665297 186.234546 
L 186.73698 186.429007 
L 193.808663 186.45003 
L 200.880347 187.543218 
L 207.95203 187.55373 
L 215.023713 187.485406 
L 222.095396 187.532707 
L 229.167079 187.643077 
L 236.238762 187.606287 
L 243.310446 187.70089 
L 250.382129 187.879584 
L 257.453812 187.989954 
L 264.525495 188.010977 
L 271.597178 188.053023 
L 278.668861 188.131858 
L 285.740545 187.895351 
L 292.812228 187.874328 
L 299.883911 187.022903 
L 306.955594 187.138528 
L 314.027277 187.128017 
L 321.09896 187.085971 
L 328.170644 187.217364 
L 335.242327 187.522196 
L 342.31401 187.196341 
L 349.385693 187.217364 
L 356.457376 188.058278 
L 363.529059 187.206853 
L 370.600743 187.290944 
L 377.672426 187.138528 
L 384.744109 187.254154 
L 391.815792 187.311967 
L 398.887475 187.490661 
L 405.959158 187.643077 
" style="fill:none;stroke:#d62728;stroke-linecap:square;stroke-width:3;"/>
    <defs>
     <path d="M 0 3 
C 0.795609 3 1.55874 2.683901 2.12132 2.12132 
C 2.683901 1.55874 3 0.795609 3 0 
C 3 -0.795609 2.683901 -1.55874 2.12132 -2.12132 
C 1.55874 -2.683901 0.795609 -3 0 -3 
C -0.795609 -3 -1.55874 -2.683901 -2.12132 -2.12132 
C -2.683901 -1.55874 -3 -0.795609 -3 0 
C -3 0.795609 -2.683901 1.55874 -2.12132 2.12132 
C -1.55874 2.683901 -0.795609 3 0 3 
z
" id="m45e026cebf" style="stroke:#d62728;"/>
    </defs>
    <g clip-path="url(#p5d5a89cb05)">
     <use style="fill:#d62728;stroke:#d62728;" x="52.375" xlink:href="#m45e026cebf" y="272.591169"/>
     <use style="fill:#d62728;stroke:#d62728;" x="59.446683" xlink:href="#m45e026cebf" y="131.701266"/>
     <use style="fill:#d62728;stroke:#d62728;" x="66.518366" xlink:href="#m45e026cebf" y="131.611919"/>
     <use style="fill:#d62728;stroke:#d62728;" x="73.59005" xlink:href="#m45e026cebf" y="161.643064"/>
     <use style="fill:#d62728;stroke:#d62728;" x="80.661733" xlink:href="#m45e026cebf" y="171.450225"/>
     <use style="fill:#d62728;stroke:#d62728;" x="87.733416" xlink:href="#m45e026cebf" y="179.570301"/>
     <use style="fill:#d62728;stroke:#d62728;" x="94.805099" xlink:href="#m45e026cebf" y="181.493893"/>
     <use style="fill:#d62728;stroke:#d62728;" x="101.876782" xlink:href="#m45e026cebf" y="182.387364"/>
     <use style="fill:#d62728;stroke:#d62728;" x="108.948465" xlink:href="#m45e026cebf" y="183.002282"/>
     <use style="fill:#d62728;stroke:#d62728;" x="116.020149" xlink:href="#m45e026cebf" y="183.244045"/>
     <use style="fill:#d62728;stroke:#d62728;" x="123.091832" xlink:href="#m45e026cebf" y="183.548876"/>
     <use style="fill:#d62728;stroke:#d62728;" x="130.163515" xlink:href="#m45e026cebf" y="185.614372"/>
     <use style="fill:#d62728;stroke:#d62728;" x="137.235198" xlink:href="#m45e026cebf" y="185.504002"/>
     <use style="fill:#d62728;stroke:#d62728;" x="144.306881" xlink:href="#m45e026cebf" y="185.71423"/>
     <use style="fill:#d62728;stroke:#d62728;" x="151.378564" xlink:href="#m45e026cebf" y="185.945482"/>
     <use style="fill:#d62728;stroke:#d62728;" x="158.450248" xlink:href="#m45e026cebf" y="185.829856"/>
     <use style="fill:#d62728;stroke:#d62728;" x="165.521931" xlink:href="#m45e026cebf" y="186.355427"/>
     <use style="fill:#d62728;stroke:#d62728;" x="172.593614" xlink:href="#m45e026cebf" y="186.329149"/>
     <use style="fill:#d62728;stroke:#d62728;" x="179.665297" xlink:href="#m45e026cebf" y="186.234546"/>
     <use style="fill:#d62728;stroke:#d62728;" x="186.73698" xlink:href="#m45e026cebf" y="186.429007"/>
     <use style="fill:#d62728;stroke:#d62728;" x="193.808663" xlink:href="#m45e026cebf" y="186.45003"/>
     <use style="fill:#d62728;stroke:#d62728;" x="200.880347" xlink:href="#m45e026cebf" y="187.543218"/>
     <use style="fill:#d62728;stroke:#d62728;" x="207.95203" xlink:href="#m45e026cebf" y="187.55373"/>
     <use style="fill:#d62728;stroke:#d62728;" x="215.023713" xlink:href="#m45e026cebf" y="187.485406"/>
     <use style="fill:#d62728;stroke:#d62728;" x="222.095396" xlink:href="#m45e026cebf" y="187.532707"/>
     <use style="fill:#d62728;stroke:#d62728;" x="229.167079" xlink:href="#m45e026cebf" y="187.643077"/>
     <use style="fill:#d62728;stroke:#d62728;" x="236.238762" xlink:href="#m45e026cebf" y="187.606287"/>
     <use style="fill:#d62728;stroke:#d62728;" x="243.310446" xlink:href="#m45e026cebf" y="187.70089"/>
     <use style="fill:#d62728;stroke:#d62728;" x="250.382129" xlink:href="#m45e026cebf" y="187.879584"/>
     <use style="fill:#d62728;stroke:#d62728;" x="257.453812" xlink:href="#m45e026cebf" y="187.989954"/>
     <use style="fill:#d62728;stroke:#d62728;" x="264.525495" xlink:href="#m45e026cebf" y="188.010977"/>
     <use style="fill:#d62728;stroke:#d62728;" x="271.597178" xlink:href="#m45e026cebf" y="188.053023"/>
     <use style="fill:#d62728;stroke:#d62728;" x="278.668861" xlink:href="#m45e026cebf" y="188.131858"/>
     <use style="fill:#d62728;stroke:#d62728;" x="285.740545" xlink:href="#m45e026cebf" y="187.895351"/>
     <use style="fill:#d62728;stroke:#d62728;" x="292.812228" xlink:href="#m45e026cebf" y="187.874328"/>
     <use style="fill:#d62728;stroke:#d62728;" x="299.883911" xlink:href="#m45e026cebf" y="187.022903"/>
     <use style="fill:#d62728;stroke:#d62728;" x="306.955594" xlink:href="#m45e026cebf" y="187.138528"/>
     <use style="fill:#d62728;stroke:#d62728;" x="314.027277" xlink:href="#m45e026cebf" y="187.128017"/>
     <use style="fill:#d62728;stroke:#d62728;" x="321.09896" xlink:href="#m45e026cebf" y="187.085971"/>
     <use style="fill:#d62728;stroke:#d62728;" x="328.170644" xlink:href="#m45e026cebf" y="187.217364"/>
     <use style="fill:#d62728;stroke:#d62728;" x="335.242327" xlink:href="#m45e026cebf" y="187.522196"/>
     <use style="fill:#d62728;stroke:#d62728;" x="342.31401" xlink:href="#m45e026cebf" y="187.196341"/>
     <use style="fill:#d62728;stroke:#d62728;" x="349.385693" xlink:href="#m45e026cebf" y="187.217364"/>
     <use style="fill:#d62728;stroke:#d62728;" x="356.457376" xlink:href="#m45e026cebf" y="188.058278"/>
     <use style="fill:#d62728;stroke:#d62728;" x="363.529059" xlink:href="#m45e026cebf" y="187.206853"/>
     <use style="fill:#d62728;stroke:#d62728;" x="370.600743" xlink:href="#m45e026cebf" y="187.290944"/>
     <use style="fill:#d62728;stroke:#d62728;" x="377.672426" xlink:href="#m45e026cebf" y="187.138528"/>
     <use style="fill:#d62728;stroke:#d62728;" x="384.744109" xlink:href="#m45e026cebf" y="187.254154"/>
     <use style="fill:#d62728;stroke:#d62728;" x="391.815792" xlink:href="#m45e026cebf" y="187.311967"/>
     <use style="fill:#d62728;stroke:#d62728;" x="398.887475" xlink:href="#m45e026cebf" y="187.490661"/>
     <use style="fill:#d62728;stroke:#d62728;" x="405.959158" xlink:href="#m45e026cebf" y="187.643077"/>
    </g>
   </g>
   <g id="patch_3">
    <path d="M 52.375 280.910437 
L 52.375 14.798437 
" style="fill:none;stroke:#000000;stroke-linecap:square;stroke-linejoin:miter;stroke-width:0.8;"/>
   </g>
   <g id="patch_4">
    <path d="M 409.495 280.910437 
L 409.495 14.798437 
" style="fill:none;stroke:#000000;stroke-linecap:square;stroke-linejoin:miter;stroke-width:0.8;"/>
   </g>
   <g id="patch_5">
    <path d="M 52.375 280.910437 
L 409.495 280.910437 
" style="fill:none;stroke:#000000;stroke-linecap:square;stroke-linejoin:miter;stroke-width:0.8;"/>
   </g>
   <g id="patch_6">
    <path d="M 52.375 14.798437 
L 409.495 14.798437 
" style="fill:none;stroke:#000000;stroke-linecap:square;stroke-linejoin:miter;stroke-width:0.8;"/>
   </g>
   <g id="legend_1">
    <g id="patch_7">
     <path d="M 254.662188 114.867188 
L 398.995 114.867188 
Q 401.995 114.867188 401.995 111.867188 
L 401.995 25.298438 
Q 401.995 22.298438 398.995 22.298438 
L 254.662188 22.298438 
Q 251.662188 22.298438 251.662188 25.298438 
L 251.662188 111.867188 
Q 251.662188 114.867188 254.662188 114.867188 
z
" style="fill:#ffffff;opacity:0.8;stroke:#cccccc;stroke-linejoin:miter;"/>
    </g>
    <g id="line2d_17">
     <path d="M 257.662188 34.446094 
L 287.662188 34.446094 
" style="fill:none;stroke:#1f77b4;stroke-linecap:square;stroke-width:3;"/>
    </g>
    <g id="line2d_18">
     <g>
      <use style="fill:#1f77b4;stroke:#1f77b4;" x="272.662188" xlink:href="#m4f902329d7" y="34.446094"/>
     </g>
    </g>
    <g id="text_13">
     <!-- dist(0.6, 1.0) -->
     <defs>
      <path d="M 45.40625 46.390625 
L 45.40625 75.984375 
L 54.390625 75.984375 
L 54.390625 0 
L 45.40625 0 
L 45.40625 8.203125 
Q 42.578125 3.328125 38.25 0.953125 
Q 33.9375 -1.421875 27.875 -1.421875 
Q 17.96875 -1.421875 11.734375 6.484375 
Q 5.515625 14.40625 5.515625 27.296875 
Q 5.515625 40.1875 11.734375 48.09375 
Q 17.96875 56 27.875 56 
Q 33.9375 56 38.25 53.625 
Q 42.578125 51.265625 45.40625 46.390625 
z
M 14.796875 27.296875 
Q 14.796875 17.390625 18.875 11.75 
Q 22.953125 6.109375 30.078125 6.109375 
Q 37.203125 6.109375 41.296875 11.75 
Q 45.40625 17.390625 45.40625 27.296875 
Q 45.40625 37.203125 41.296875 42.84375 
Q 37.203125 48.484375 30.078125 48.484375 
Q 22.953125 48.484375 18.875 42.84375 
Q 14.796875 37.203125 14.796875 27.296875 
z
" id="DejaVuSans-64"/>
      <path d="M 9.421875 54.6875 
L 18.40625 54.6875 
L 18.40625 0 
L 9.421875 0 
z
M 9.421875 75.984375 
L 18.40625 75.984375 
L 18.40625 64.59375 
L 9.421875 64.59375 
z
" id="DejaVuSans-69"/>
      <path d="M 44.28125 53.078125 
L 44.28125 44.578125 
Q 40.484375 46.53125 36.375 47.5 
Q 32.28125 48.484375 27.875 48.484375 
Q 21.1875 48.484375 17.84375 46.4375 
Q 14.5 44.390625 14.5 40.28125 
Q 14.5 37.15625 16.890625 35.375 
Q 19.28125 33.59375 26.515625 31.984375 
L 29.59375 31.296875 
Q 39.15625 29.25 43.1875 25.515625 
Q 47.21875 21.78125 47.21875 15.09375 
Q 47.21875 7.46875 41.1875 3.015625 
Q 35.15625 -1.421875 24.609375 -1.421875 
Q 20.21875 -1.421875 15.453125 -0.5625 
Q 10.6875 0.296875 5.421875 2 
L 5.421875 11.28125 
Q 10.40625 8.6875 15.234375 7.390625 
Q 20.0625 6.109375 24.8125 6.109375 
Q 31.15625 6.109375 34.5625 8.28125 
Q 37.984375 10.453125 37.984375 14.40625 
Q 37.984375 18.0625 35.515625 20.015625 
Q 33.0625 21.96875 24.703125 23.78125 
L 21.578125 24.515625 
Q 13.234375 26.265625 9.515625 29.90625 
Q 5.8125 33.546875 5.8125 39.890625 
Q 5.8125 47.609375 11.28125 51.796875 
Q 16.75 56 26.8125 56 
Q 31.78125 56 36.171875 55.265625 
Q 40.578125 54.546875 44.28125 53.078125 
z
" id="DejaVuSans-73"/>
      <path d="M 18.3125 70.21875 
L 18.3125 54.6875 
L 36.8125 54.6875 
L 36.8125 47.703125 
L 18.3125 47.703125 
L 18.3125 18.015625 
Q 18.3125 11.328125 20.140625 9.421875 
Q 21.96875 7.515625 27.59375 7.515625 
L 36.8125 7.515625 
L 36.8125 0 
L 27.59375 0 
Q 17.1875 0 13.234375 3.875 
Q 9.28125 7.765625 9.28125 18.015625 
L 9.28125 47.703125 
L 2.6875 47.703125 
L 2.6875 54.6875 
L 9.28125 54.6875 
L 9.28125 70.21875 
z
" id="DejaVuSans-74"/>
      <path d="M 31 75.875 
Q 24.46875 64.65625 21.28125 53.65625 
Q 18.109375 42.671875 18.109375 31.390625 
Q 18.109375 20.125 21.3125 9.0625 
Q 24.515625 -2 31 -13.1875 
L 23.1875 -13.1875 
Q 15.875 -1.703125 12.234375 9.375 
Q 8.59375 20.453125 8.59375 31.390625 
Q 8.59375 42.28125 12.203125 53.3125 
Q 15.828125 64.359375 23.1875 75.875 
z
" id="DejaVuSans-28"/>
      <path d="M 10.6875 12.40625 
L 21 12.40625 
L 21 0 
L 10.6875 0 
z
" id="DejaVuSans-2e"/>
      <path d="M 33.015625 40.375 
Q 26.375 40.375 22.484375 35.828125 
Q 18.609375 31.296875 18.609375 23.390625 
Q 18.609375 15.53125 22.484375 10.953125 
Q 26.375 6.390625 33.015625 6.390625 
Q 39.65625 6.390625 43.53125 10.953125 
Q 47.40625 15.53125 47.40625 23.390625 
Q 47.40625 31.296875 43.53125 35.828125 
Q 39.65625 40.375 33.015625 40.375 
z
M 52.59375 71.296875 
L 52.59375 62.3125 
Q 48.875 64.0625 45.09375 64.984375 
Q 41.3125 65.921875 37.59375 65.921875 
Q 27.828125 65.921875 22.671875 59.328125 
Q 17.53125 52.734375 16.796875 39.40625 
Q 19.671875 43.65625 24.015625 45.921875 
Q 28.375 48.1875 33.59375 48.1875 
Q 44.578125 48.1875 50.953125 41.515625 
Q 57.328125 34.859375 57.328125 23.390625 
Q 57.328125 12.15625 50.6875 5.359375 
Q 44.046875 -1.421875 33.015625 -1.421875 
Q 20.359375 -1.421875 13.671875 8.265625 
Q 6.984375 17.96875 6.984375 36.375 
Q 6.984375 53.65625 15.1875 63.9375 
Q 23.390625 74.21875 37.203125 74.21875 
Q 40.921875 74.21875 44.703125 73.484375 
Q 48.484375 72.75 52.59375 71.296875 
z
" id="DejaVuSans-36"/>
      <path d="M 11.71875 12.40625 
L 22.015625 12.40625 
L 22.015625 4 
L 14.015625 -11.625 
L 7.71875 -11.625 
L 11.71875 4 
z
" id="DejaVuSans-2c"/>
      <path id="DejaVuSans-20"/>
      <path d="M 8.015625 75.875 
L 15.828125 75.875 
Q 23.140625 64.359375 26.78125 53.3125 
Q 30.421875 42.28125 30.421875 31.390625 
Q 30.421875 20.453125 26.78125 9.375 
Q 23.140625 -1.703125 15.828125 -13.1875 
L 8.015625 -13.1875 
Q 14.5 -2 17.703125 9.0625 
Q 20.90625 20.125 20.90625 31.390625 
Q 20.90625 42.671875 17.703125 53.65625 
Q 14.5 64.65625 8.015625 75.875 
z
" id="DejaVuSans-29"/>
     </defs>
     <g transform="translate(299.662188 39.696094)scale(0.15 -0.15)">
      <use xlink:href="#DejaVuSans-64"/>
      <use x="63.476562" xlink:href="#DejaVuSans-69"/>
      <use x="91.259766" xlink:href="#DejaVuSans-73"/>
      <use x="143.359375" xlink:href="#DejaVuSans-74"/>
      <use x="182.568359" xlink:href="#DejaVuSans-28"/>
      <use x="221.582031" xlink:href="#DejaVuSans-30"/>
      <use x="285.205078" xlink:href="#DejaVuSans-2e"/>
      <use x="316.992188" xlink:href="#DejaVuSans-36"/>
      <use x="380.615234" xlink:href="#DejaVuSans-2c"/>
      <use x="412.402344" xlink:href="#DejaVuSans-20"/>
      <use x="444.189453" xlink:href="#DejaVuSans-31"/>
      <use x="507.8125" xlink:href="#DejaVuSans-2e"/>
      <use x="539.599609" xlink:href="#DejaVuSans-30"/>
      <use x="603.222656" xlink:href="#DejaVuSans-29"/>
     </g>
    </g>
    <g id="line2d_19">
     <path d="M 257.662188 56.463281 
L 287.662188 56.463281 
" style="fill:none;stroke:#ff7f0e;stroke-linecap:square;stroke-width:3;"/>
    </g>
    <g id="line2d_20">
     <g>
      <use style="fill:#ff7f0e;stroke:#ff7f0e;" x="272.662188" xlink:href="#me07fb114a1" y="56.463281"/>
     </g>
    </g>
    <g id="text_14">
     <!-- dist(0.8, 1.0) -->
     <defs>
      <path d="M 31.78125 34.625 
Q 24.75 34.625 20.71875 30.859375 
Q 16.703125 27.09375 16.703125 20.515625 
Q 16.703125 13.921875 20.71875 10.15625 
Q 24.75 6.390625 31.78125 6.390625 
Q 38.8125 6.390625 42.859375 10.171875 
Q 46.921875 13.96875 46.921875 20.515625 
Q 46.921875 27.09375 42.890625 30.859375 
Q 38.875 34.625 31.78125 34.625 
z
M 21.921875 38.8125 
Q 15.578125 40.375 12.03125 44.71875 
Q 8.5 49.078125 8.5 55.328125 
Q 8.5 64.0625 14.71875 69.140625 
Q 20.953125 74.21875 31.78125 74.21875 
Q 42.671875 74.21875 48.875 69.140625 
Q 55.078125 64.0625 55.078125 55.328125 
Q 55.078125 49.078125 51.53125 44.71875 
Q 48 40.375 41.703125 38.8125 
Q 48.828125 37.15625 52.796875 32.3125 
Q 56.78125 27.484375 56.78125 20.515625 
Q 56.78125 9.90625 50.3125 4.234375 
Q 43.84375 -1.421875 31.78125 -1.421875 
Q 19.734375 -1.421875 13.25 4.234375 
Q 6.78125 9.90625 6.78125 20.515625 
Q 6.78125 27.484375 10.78125 32.3125 
Q 14.796875 37.15625 21.921875 38.8125 
z
M 18.3125 54.390625 
Q 18.3125 48.734375 21.84375 45.5625 
Q 25.390625 42.390625 31.78125 42.390625 
Q 38.140625 42.390625 41.71875 45.5625 
Q 45.3125 48.734375 45.3125 54.390625 
Q 45.3125 60.0625 41.71875 63.234375 
Q 38.140625 66.40625 31.78125 66.40625 
Q 25.390625 66.40625 21.84375 63.234375 
Q 18.3125 60.0625 18.3125 54.390625 
z
" id="DejaVuSans-38"/>
     </defs>
     <g transform="translate(299.662188 61.713281)scale(0.15 -0.15)">
      <use xlink:href="#DejaVuSans-64"/>
      <use x="63.476562" xlink:href="#DejaVuSans-69"/>
      <use x="91.259766" xlink:href="#DejaVuSans-73"/>
      <use x="143.359375" xlink:href="#DejaVuSans-74"/>
      <use x="182.568359" xlink:href="#DejaVuSans-28"/>
      <use x="221.582031" xlink:href="#DejaVuSans-30"/>
      <use x="285.205078" xlink:href="#DejaVuSans-2e"/>
      <use x="316.992188" xlink:href="#DejaVuSans-38"/>
      <use x="380.615234" xlink:href="#DejaVuSans-2c"/>
      <use x="412.402344" xlink:href="#DejaVuSans-20"/>
      <use x="444.189453" xlink:href="#DejaVuSans-31"/>
      <use x="507.8125" xlink:href="#DejaVuSans-2e"/>
      <use x="539.599609" xlink:href="#DejaVuSans-30"/>
      <use x="603.222656" xlink:href="#DejaVuSans-29"/>
     </g>
    </g>
    <g id="line2d_21">
     <path d="M 257.662188 78.480469 
L 287.662188 78.480469 
" style="fill:none;stroke:#2ca02c;stroke-linecap:square;stroke-width:3;"/>
    </g>
    <g id="line2d_22">
     <g>
      <use style="fill:#2ca02c;stroke:#2ca02c;" x="272.662188" xlink:href="#m4b090a4c1c" y="78.480469"/>
     </g>
    </g>
    <g id="text_15">
     <!-- dist(1.2, 1.0) -->
     <g transform="translate(299.662188 83.730469)scale(0.15 -0.15)">
      <use xlink:href="#DejaVuSans-64"/>
      <use x="63.476562" xlink:href="#DejaVuSans-69"/>
      <use x="91.259766" xlink:href="#DejaVuSans-73"/>
      <use x="143.359375" xlink:href="#DejaVuSans-74"/>
      <use x="182.568359" xlink:href="#DejaVuSans-28"/>
      <use x="221.582031" xlink:href="#DejaVuSans-31"/>
      <use x="285.205078" xlink:href="#DejaVuSans-2e"/>
      <use x="316.992188" xlink:href="#DejaVuSans-32"/>
      <use x="380.615234" xlink:href="#DejaVuSans-2c"/>
      <use x="412.402344" xlink:href="#DejaVuSans-20"/>
      <use x="444.189453" xlink:href="#DejaVuSans-31"/>
      <use x="507.8125" xlink:href="#DejaVuSans-2e"/>
      <use x="539.599609" xlink:href="#DejaVuSans-30"/>
      <use x="603.222656" xlink:href="#DejaVuSans-29"/>
     </g>
    </g>
    <g id="line2d_23">
     <path d="M 257.662188 100.497656 
L 287.662188 100.497656 
" style="fill:none;stroke:#d62728;stroke-linecap:square;stroke-width:3;"/>
    </g>
    <g id="line2d_24">
     <g>
      <use style="fill:#d62728;stroke:#d62728;" x="272.662188" xlink:href="#m45e026cebf" y="100.497656"/>
     </g>
    </g>
    <g id="text_16">
     <!-- dist(1.4, 1.0) -->
     <g transform="translate(299.662188 105.747656)scale(0.15 -0.15)">
      <use xlink:href="#DejaVuSans-64"/>
      <use x="63.476562" xlink:href="#DejaVuSans-69"/>
      <use x="91.259766" xlink:href="#DejaVuSans-73"/>
      <use x="143.359375" xlink:href="#DejaVuSans-74"/>
      <use x="182.568359" xlink:href="#DejaVuSans-28"/>
      <use x="221.582031" xlink:href="#DejaVuSans-31"/>
      <use x="285.205078" xlink:href="#DejaVuSans-2e"/>
      <use x="316.992188" xlink:href="#DejaVuSans-34"/>
      <use x="380.615234" xlink:href="#DejaVuSans-2c"/>
      <use x="412.402344" xlink:href="#DejaVuSans-20"/>
      <use x="444.189453" xlink:href="#DejaVuSans-31"/>
      <use x="507.8125" xlink:href="#DejaVuSans-2e"/>
      <use x="539.599609" xlink:href="#DejaVuSans-30"/>
      <use x="603.222656" xlink:href="#DejaVuSans-29"/>
     </g>
    </g>
   </g>
  </g>
 </g>
 <defs>
  <clipPath id="p5d5a89cb05">
   <rect height="266.112" width="357.12" x="52.375" y="14.798438"/>
  </clipPath>
 </defs>
</svg>
